<svg viewBox="0 0 400 400" xmlns="http://www.w3.org/2000/svg" xmlns:serif="http://www.serif.com/" fill-rule="evenodd" clip-rule="evenodd" stroke-linecap="round" stroke-linejoin="round" stroke-miterlimit="1.5"><circle cx="1131" cy="548" r="395" fill="#c4f4ff" transform="matrix(.35682 0 0 .35682 -203.568 4.46)"/><path d="M1076 414.323c0-7.905-5.68-14.323-12.67-14.323H797.243c-6.993 0-12.67 6.418-12.67 14.323V528.91c0 7.905 5.677 14.323 12.67 14.323h266.087c6.99 0 12.67-6.418 12.67-14.323V414.323z" fill="#fff" stroke="#205081" stroke-width="8.08" transform="matrix(-.39332 0 0 .3479 610.322 -3.31)"/><g transform="matrix(-.44459 0 0 .3479 682.554 21.606)"><path d="M1524 386.347c0-18.405-11.69-33.347-26.1-33.347H708.095C693.693 353 682 367.942 682 386.347V653.12c0 18.404 11.693 33.346 26.095 33.346H1497.9c14.41 0 26.1-14.942 26.1-33.346V386.347z" fill="#55c9bc"/><clipPath id="a"><path d="M1524 386.347c0-18.405-11.69-33.347-26.1-33.347H708.095C693.693 353 682 367.942 682 386.347V653.12c0 18.404 11.693 33.346 26.095 33.346H1497.9c14.41 0 26.1-14.942 26.1-33.346V386.347z"/></clipPath><g clip-path="url(#a)"><path fill="#fff" stroke="#205081" stroke-width="9.28" d="M572 551.733h1130V658H572z" transform="matrix(.74513 0 0 .9059 255.784 61.92)"/><path fill="#99a4b2" stroke="#205081" stroke-width="12.33" d="M572 551.733h1130V658H572z" transform="matrix(.74513 0 0 .26787 255.784 510.205)"/><path fill="#fff" stroke="#205081" stroke-width="12.33" d="M572 551.733h1130V658H572z" transform="matrix(.74513 0 0 .26835 255.784 204.942)"/><path d="M638 407.4c0-4.084-3.226-7.4-7.2-7.4h-57.6c-3.974 0-7.2 3.316-7.2 7.4v125.2c0 4.084 3.226 7.4 7.2 7.4h57.6c3.974 0 7.2-3.316 7.2-7.4V407.4z" fill="#002841" stroke="#205081" stroke-width="8.5" transform="matrix(.80427 0 0 1 208.005 0)"/><g transform="matrix(1.80604 0 0 1 -101.63 0)"><path d="M731 414.771c0-8.152-2.868-14.771-6.4-14.771h-51.2c-3.532 0-6.4 6.619-6.4 14.771v256.924c0 8.153 2.868 14.771 6.4 14.771h51.2c3.532 0 6.4-6.618 6.4-14.771V414.771z" fill="#002841"/><clipPath id="b"><path d="M731 414.771c0-8.152-2.868-14.771-6.4-14.771h-51.2c-3.532 0-6.4 6.619-6.4 14.771v256.924c0 8.153 2.868 14.771 6.4 14.771h51.2c3.532 0 6.4-6.618 6.4-14.771V414.771z"/></clipPath><g clip-path="url(#b)"><path fill="#fff" stroke="#205081" stroke-width="9.21" d="M981 561.733h170v124.733H981z" transform="matrix(-.37647 0 0 1 1100.32 0)"/><path fill="#99a4b2" stroke="#205081" stroke-width="13.57" d="M981 561.733h170v124.733H981z" transform="matrix(-.37647 0 0 .23036 1100.32 528.334)"/><path d="M1066 400v286.466" fill="none" stroke="#205081" stroke-width="9.21" transform="matrix(-.37647 0 0 1 1100.32 0)"/></g><path d="M731 414.771c0-8.152-2.868-14.771-6.4-14.771h-51.2c-3.532 0-6.4 6.619-6.4 14.771v256.924c0 8.153 2.868 14.771 6.4 14.771h51.2c3.532 0 6.4-6.618 6.4-14.771V414.771z" fill="none" stroke="#205081" stroke-width="4.85"/></g><g transform="matrix(1.80604 0 0 1 -467.07 0)"><path d="M731 414.771c0-8.152-2.868-14.771-6.4-14.771h-51.2c-3.532 0-6.4 6.619-6.4 14.771v256.924c0 8.153 2.868 14.771 6.4 14.771h51.2c3.532 0 6.4-6.618 6.4-14.771V414.771z" fill="#002841"/><clipPath id="c"><path d="M731 414.771c0-8.152-2.868-14.771-6.4-14.771h-51.2c-3.532 0-6.4 6.619-6.4 14.771v256.924c0 8.153 2.868 14.771 6.4 14.771h51.2c3.532 0 6.4-6.618 6.4-14.771V414.771z"/></clipPath><g clip-path="url(#c)"><path d="M1066 400v286.466" fill="none" stroke="#205081" stroke-width="9.21" transform="matrix(-.37647 0 0 1 1100.32 0)"/></g><path d="M731 414.771c0-8.152-2.868-14.771-6.4-14.771h-51.2c-3.532 0-6.4 6.619-6.4 14.771v256.924c0 8.153 2.868 14.771 6.4 14.771h51.2c3.532 0 6.4-6.618 6.4-14.771V414.771z" fill="none" stroke="#205081" stroke-width="4.85"/></g><path d="M1076 414.323c0-7.905-6.62-14.323-14.78-14.323H799.351c-8.156 0-14.778 6.418-14.778 14.323V528.91c0 7.905 6.622 14.323 14.778 14.323h261.869c8.16 0 14.78-6.418 14.78-14.323V414.323z" fill="#002841" stroke="#205081" stroke-width="8.76" transform="matrix(.75847 0 0 1 272.051 0)"/><path d="M1076 414.323c0-7.905-5.48-14.323-12.22-14.323H796.798c-6.747 0-12.225 6.418-12.225 14.323V528.91c0 7.905 5.478 14.323 12.225 14.323h266.982c6.74 0 12.22-6.418 12.22-14.323V414.323z" fill="#002841" stroke="#205081" stroke-width="7.92" transform="matrix(.9169 0 0 1 514.73 0)"/></g><path d="M1524 386.347c0-18.405-11.69-33.347-26.1-33.347H708.095C693.693 353 682 367.942 682 386.347V653.12c0 18.404 11.693 33.346 26.095 33.346H1497.9c14.41 0 26.1-14.942 26.1-33.346V386.347z" fill="none" stroke="#205081" stroke-width="7.52"/></g><circle cx="529.5" cy="662.5" r="122.5" fill="#002841" transform="matrix(.1773 0 0 .1773 -5.032 142.973)"/><circle cx="529.5" cy="662.5" r="122.5" fill="#004f81" transform="translate(33.083 190.66) scale(.10531)"/><g serif:id="frontwheel"><circle cx="529.5" cy="662.5" r="122.5" fill="#002841" transform="matrix(.1773 0 0 .1773 180.748 142.973)"/><circle cx="529.5" cy="662.5" r="122.5" fill="#004f81" transform="translate(218.863 190.66) scale(.10531)"/></g><path d="M395 167.117a1.827 1.827 0 0 0-1.826-1.827h-3.653a1.827 1.827 0 0 0-1.826 1.827v9.782c0 1.008.818 1.826 1.826 1.826h3.653a1.827 1.827 0 0 0 1.827-1.826v-9.782z" fill="#002841" stroke="#205081" stroke-width="2.9988979999999996"/><path d="M391.348 165.29c.007-.01.01-.07.014-.174a6.513 6.513 0 0 0-6.51-6.784h-5.507" fill="none" stroke="#205081" stroke-width="2.9988979999999996"/></svg>