<svg clip-rule="evenodd" fill-rule="evenodd" stroke-linecap="round" stroke-linejoin="round" stroke-miterlimit="1.5" viewBox="0 0 400 400" xmlns="http://www.w3.org/2000/svg" xmlns:xlink="http://www.w3.org/1999/xlink"><clipPath id="a"><path clip-rule="evenodd" d="m1524 386.347c0-18.405-11.69-33.347-26.1-33.347h-789.805c-14.402 0-26.095 14.942-26.095 33.347v266.773c0 18.404 11.693 33.346 26.095 33.346h789.805c14.41 0 26.1-14.942 26.1-33.346z"/></clipPath><clipPath id="b"><path clip-rule="evenodd" d="m731 414.771c0-8.152-2.868-14.771-6.4-14.771h-51.2c-3.532 0-6.4 6.619-6.4 14.771v256.924c0 8.153 2.868 14.771 6.4 14.771h51.2c3.532 0 6.4-6.618 6.4-14.771z"/></clipPath><clipPath id="c"><path clip-rule="evenodd" d="m731 414.771c0-8.152-2.868-14.771-6.4-14.771h-51.2c-3.532 0-6.4 6.619-6.4 14.771v256.924c0 8.153 2.868 14.771 6.4 14.771h51.2c3.532 0 6.4-6.618 6.4-14.771z"/></clipPath><circle cx="199.99542" cy="199.99736" fill="#c4f4ff" r="140.9439" stroke-width=".35682"/><path d="m1076 414.323c0-7.905-5.68-14.323-12.67-14.323h-266.087c-6.993 0-12.67 6.418-12.67 14.323v114.587c0 7.905 5.677 14.323 12.67 14.323h266.087c6.99 0 12.67-6.418 12.67-14.323z" fill="#fff" stroke="#205081" stroke-width="8.08" transform="matrix(-.39332 0 0 .3479 610.322 -3.31)"/><g transform="matrix(-.44459 0 0 .3479 682.554 21.606)"><path d="m1524 386.347c0-18.405-11.69-33.347-26.1-33.347h-789.805c-14.402 0-26.095 14.942-26.095 33.347v266.773c0 18.404 11.693 33.346 26.095 33.346h789.805c14.41 0 26.1-14.942 26.1-33.346z" fill="#55c9bc"/><g clip-path="url(#a)"><g stroke="#205081"><path d="m572 551.733h1130v106.267h-1130z" fill="#fff" stroke-width="9.28" transform="matrix(.74513 0 0 .9059 255.784 61.92)"/><path d="m572 551.733h1130v106.267h-1130z" fill="#99a4b2" stroke-width="12.33" transform="matrix(.74513 0 0 .26787 255.784 510.205)"/><path d="m572 551.733h1130v106.267h-1130z" fill="#fff" stroke-width="12.33" transform="matrix(.74513 0 0 .26835 255.784 204.942)"/><path d="m638 407.4c0-4.084-3.226-7.4-7.2-7.4h-57.6c-3.974 0-7.2 3.316-7.2 7.4v125.2c0 4.084 3.226 7.4 7.2 7.4h57.6c3.974 0 7.2-3.316 7.2-7.4z" fill="#002841" stroke-width="8.5" transform="matrix(.80427 0 0 1 208.005 0)"/></g><g transform="matrix(1.80604 0 0 1 -101.63 0)"><path d="m731 414.771c0-8.152-2.868-14.771-6.4-14.771h-51.2c-3.532 0-6.4 6.619-6.4 14.771v256.924c0 8.153 2.868 14.771 6.4 14.771h51.2c3.532 0 6.4-6.618 6.4-14.771z" fill="#002841"/><g stroke="#205081"><g clip-path="url(#b)"><path d="m981 561.733h170v124.733h-170z" fill="#fff" stroke-width="9.21" transform="matrix(-.37647 0 0 1 1100.32 0)"/><path d="m981 561.733h170v124.733h-170z" fill="#99a4b2" stroke-width="13.57" transform="matrix(-.37647 0 0 .23036 1100.32 528.334)"/><path d="m1066 400v286.466" fill="none" stroke-width="9.21" transform="matrix(-.37647 0 0 1 1100.32 0)"/></g><path d="m731 414.771c0-8.152-2.868-14.771-6.4-14.771h-51.2c-3.532 0-6.4 6.619-6.4 14.771v256.924c0 8.153 2.868 14.771 6.4 14.771h51.2c3.532 0 6.4-6.618 6.4-14.771z" fill="none" stroke-width="4.85"/></g></g><g transform="matrix(1.80604 0 0 1 -467.07 0)"><path d="m731 414.771c0-8.152-2.868-14.771-6.4-14.771h-51.2c-3.532 0-6.4 6.619-6.4 14.771v256.924c0 8.153 2.868 14.771 6.4 14.771h51.2c3.532 0 6.4-6.618 6.4-14.771z" fill="#002841"/><g clip-path="url(#c)"><path d="m1066 400v286.466" fill="none" stroke="#205081" stroke-width="9.21" transform="matrix(-.37647 0 0 1 1100.32 0)"/></g><path d="m731 414.771c0-8.152-2.868-14.771-6.4-14.771h-51.2c-3.532 0-6.4 6.619-6.4 14.771v256.924c0 8.153 2.868 14.771 6.4 14.771h51.2c3.532 0 6.4-6.618 6.4-14.771z" fill="none" stroke="#205081" stroke-width="4.85"/></g><path d="m1076 414.323c0-7.905-6.62-14.323-14.78-14.323h-261.869c-8.156 0-14.778 6.418-14.778 14.323v114.587c0 7.905 6.622 14.323 14.778 14.323h261.869c8.16 0 14.78-6.418 14.78-14.323z" fill="#002841" stroke="#205081" stroke-width="8.76" transform="matrix(.75847 0 0 1 272.051 0)"/><path d="m1076 414.323c0-7.905-5.48-14.323-12.22-14.323h-266.982c-6.747 0-12.225 6.418-12.225 14.323v114.587c0 7.905 5.478 14.323 12.225 14.323h266.982c6.74 0 12.22-6.418 12.22-14.323z" fill="#002841" stroke="#205081" stroke-width="7.92" transform="matrix(.9169 0 0 1 514.73 0)"/></g><path d="m1524 386.347c0-18.405-11.69-33.347-26.1-33.347h-789.805c-14.402 0-26.095 14.942-26.095 33.347v266.773c0 18.404 11.693 33.346 26.095 33.346h789.805c14.41 0 26.1-14.942 26.1-33.346z" fill="none" stroke="#205081" stroke-width="7.52"/></g><circle cx="88.84835" cy="260.43425" fill="#002841" r="21.71925" stroke-width=".1773"/><circle cx="88.844645" cy="260.427875" fill="#004f81" r="12.900475" stroke-width=".10531"/><circle cx="274.62835" cy="260.43425" fill="#002841" r="21.71925" stroke-width=".1773"/><circle cx="274.624645" cy="260.427875" fill="#004f81" r="12.900475" stroke-width=".10531"/><g stroke="#205081" stroke-width="2.998898"><path d="m395 167.117a1.827 1.827 0 0 0 -1.826-1.827h-3.653a1.827 1.827 0 0 0 -1.826 1.827v9.782c0 1.008.818 1.826 1.826 1.826h3.653a1.827 1.827 0 0 0 1.827-1.826v-9.782z" fill="#002841"/><path d="m391.348 165.29c.007-.01.01-.07.014-.174a6.513 6.513 0 0 0 -6.51-6.784h-5.507" fill="none"/></g></svg>