<?xml version="1.0" encoding="UTF-8" standalone="no"?>
<!DOCTYPE svg PUBLIC "-//W3C//DTD SVG 1.1//EN" "http://www.w3.org/Graphics/SVG/1.1/DTD/svg11.dtd">
<svg width="100%" height="100%" viewBox="0 0 400 400" version="1.1" xmlns="http://www.w3.org/2000/svg" xmlns:xlink="http://www.w3.org/1999/xlink" xml:space="preserve" style="fill-rule:evenodd;clip-rule:evenodd;stroke-linejoin:round;stroke-miterlimit:1.41421;">
    <g id="transport" transform="matrix(1.35447,0,0,1.35447,-926.663,-416.725)">
        <g transform="matrix(0.112097,0,0,0.112097,641.158,524.352)">
            <path d="M639.905,446.841C639.905,380.225 592.038,329.964 528.614,329.964C499.893,329.964 480.348,337.942 460.004,358.286L460.004,264.147L406.951,264.147L406.951,558.93L455.616,558.93L455.616,530.608C478.353,554.941 499.494,564.116 532.204,564.116C594.431,564.116 639.905,513.456 639.905,446.841ZM586.454,447.239C586.454,487.528 560.126,515.45 522.231,515.45C483.938,515.45 456.813,487.129 456.813,446.841C456.813,406.951 483.938,378.63 521.035,378.63C558.93,378.63 586.454,407.749 586.454,447.239Z" style="fill:rgb(55,60,66);fill-rule:nonzero;"/>
            <path d="M911.154,451.627C911.154,383.017 862.888,332.757 797.07,332.757C732.05,332.757 680.593,384.214 680.593,449.234C680.593,513.855 732.848,564.116 800.261,564.116C844.937,564.116 890.81,538.985 905.569,493.511L847.73,493.511C834.167,509.467 821.004,515.45 799.064,515.45C767.552,515.45 744.416,498.697 738.034,471.971L909.159,471.971C910.755,464.392 911.154,459.605 911.154,451.627ZM858.899,425.3L736.438,425.3C744.815,396.979 766.355,381.422 797.868,381.422C830.577,381.422 852.117,396.979 858.899,425.3Z" style="fill:rgb(55,60,66);fill-rule:nonzero;"/>
            <path d="M1058.35,386.209L1058.35,337.942L1026.43,337.942L1026.43,264.147L973.381,264.147L973.381,337.942L947.453,337.942L947.453,386.209L973.381,386.209L973.381,558.93L1026.43,558.93L1026.43,386.209L1058.35,386.209Z" style="fill:rgb(55,60,66);fill-rule:nonzero;"/>
            <path d="M1324.81,558.93L1324.81,337.942L1276.14,337.942L1276.14,367.461C1257.79,343.128 1235.85,332.757 1203.94,332.757C1138.52,332.757 1091.45,381.821 1091.45,449.234C1091.45,515.849 1138.12,564.116 1202.75,564.116C1233.86,564.116 1255,554.143 1276.14,530.21L1276.14,558.93L1324.81,558.93ZM1274.55,450.032C1274.55,486.73 1250.61,515.45 1210.33,515.45C1171.63,515.45 1144.91,489.123 1144.91,450.431C1144.91,410.142 1171.63,381.422 1209.53,381.422C1247.42,381.422 1274.55,409.743 1274.55,450.032Z" style="fill:rgb(55,60,66);fill-rule:nonzero;"/>
            <path d="M1412.56,497.899C1395.01,497.899 1379.86,513.057 1379.86,531.007C1379.86,549.755 1393.82,564.116 1412.56,564.116C1431.31,564.116 1446.07,549.755 1446.07,531.406C1446.07,513.057 1430.91,497.899 1412.56,497.899Z" style="fill:rgb(55,60,66);fill-rule:nonzero;"/>
            <path d="M1726.1,517.046L1726.1,337.942L1675.44,337.942L1675.44,365.865C1659.08,343.527 1635.15,332.757 1603.24,332.757C1540.61,332.757 1494.34,381.422 1494.34,446.841C1494.34,515.052 1539.81,564.116 1602.84,564.116C1633.95,564.116 1654.69,554.143 1675.44,529.811C1673.44,577.279 1653.1,600.415 1613.61,600.415C1588.88,600.415 1573.72,594.033 1558.16,576.88L1497.93,576.88C1515.88,621.158 1557.36,647.086 1611.61,647.086C1680.22,647.086 1726.1,611.983 1726.1,517.046ZM1673.04,449.234C1673.04,489.123 1647.91,515.45 1610.02,515.45C1572.12,515.45 1547.79,489.522 1547.79,449.234C1547.79,408.547 1572.12,381.422 1609.22,381.422C1647.11,381.422 1673.04,408.946 1673.04,449.234Z" style="fill:rgb(55,60,66);fill-rule:nonzero;"/>
            <path d="M2012.5,450.032C2012.5,384.214 1961.05,332.757 1894.43,332.757C1830.21,332.757 1777.55,385.012 1777.55,448.436C1777.55,512.259 1830.21,564.116 1894.83,564.116C1959.05,564.116 2012.5,512.259 2012.5,450.032ZM1959.05,448.436C1959.05,485.533 1930.33,515.45 1895.23,515.45C1859.33,515.45 1831.01,485.533 1831.01,447.638C1831.01,411.339 1860.12,381.422 1894.83,381.422C1930.33,381.422 1959.05,411.738 1959.05,448.436Z" style="fill:rgb(55,60,66);fill-rule:nonzero;"/>
            <path d="M2259.02,558.93L2259.02,337.942L2205.97,337.942L2205.97,442.054C2205.97,471.572 2203.57,485.134 2197.59,495.107C2189.61,507.871 2175.25,515.45 2157.3,515.45C2131.77,515.45 2115.42,504.68 2115.42,446.043L2115.42,337.942L2062.36,337.942L2062.36,456.414C2062.36,534.199 2095.07,564.116 2146.53,564.116C2173.26,564.116 2190.01,557.334 2209.95,537.789L2209.95,558.93L2259.02,558.93Z" style="fill:rgb(55,60,66);fill-rule:nonzero;"/>
            <path d="M2520.69,337.942L2460.86,337.942L2410.6,484.337L2359.54,337.942L2300.5,337.942L2389.46,558.93L2431.74,558.93L2520.69,337.942Z" style="fill:rgb(55,60,66);fill-rule:nonzero;"/>
            <path d="M2590.34,509.602C2575.83,509.602 2563.74,522.176 2563.74,537.168C2563.74,551.676 2575.83,564.25 2590.34,564.25C2605.82,564.25 2618.39,552.643 2618.39,537.651C2618.39,522.66 2605.33,509.602 2590.34,509.602Z" style="fill:rgb(55,60,66);fill-rule:nonzero;"/>
            <path d="M2689.96,364.521L2733.97,364.521L2689.48,570.536C2677.87,623.733 2661.91,650.331 2641.12,650.331C2635.32,650.331 2631.45,646.946 2631.45,642.11C2631.45,640.659 2631.93,639.692 2633.38,637.274C2635.32,633.889 2635.8,631.954 2635.8,629.053C2635.8,618.413 2627.1,610.192 2616.45,610.192C2606.3,610.192 2598.56,619.381 2598.56,630.987C2598.56,647.43 2615.49,660.487 2636.77,660.487C2680.78,660.487 2715.11,612.127 2736.39,521.692L2772.66,364.521L2826.34,364.521L2829.24,349.045L2776.53,349.045C2791.04,271.668 2809.9,237.333 2836.98,237.333C2843.75,237.333 2847.62,239.751 2847.62,243.619C2847.62,244.587 2847.14,246.037 2845.68,248.455C2843.27,252.324 2842.78,254.742 2842.78,258.611C2842.78,270.218 2850.04,277.955 2860.68,277.955C2871.8,277.955 2881.47,268.767 2881.47,258.128C2881.47,240.234 2863.58,226.693 2839.4,226.693C2815.7,226.693 2796.36,237.333 2778.46,260.062C2763.95,279.406 2753.8,301.652 2738.81,349.045L2693.35,349.045L2689.96,364.521Z" style="fill:rgb(55,60,66);fill-rule:nonzero;"/>
            <path d="M2863.09,558.93C2889.69,474.299 2897.91,454.471 2920.16,417.234C2937.09,389.668 2950.63,374.676 2958.85,374.676C2962.23,374.676 2964.65,376.611 2967.07,381.447C2970.94,389.668 2974.81,392.086 2984.48,392.086C2998.99,392.086 3007.21,383.381 3007.21,367.906C3007.21,352.431 2998.02,342.758 2984.48,342.758C2973.36,342.758 2959.82,350.013 2947.24,363.553C2926.93,383.865 2906.62,413.365 2898.88,432.225L2891.63,450.119L2918.71,343.726L2917.26,342.758C2881.95,349.045 2876.64,350.013 2841.33,355.816L2841.33,364.037C2851.97,362.103 2853.91,361.619 2857.77,361.619C2868.41,361.619 2874.7,366.455 2874.7,375.16C2874.7,381.447 2870.83,401.275 2866.96,415.783L2825.86,558.93L2863.09,558.93Z" style="fill:rgb(55,60,66);fill-rule:nonzero;"/>
        </g>
        <g transform="matrix(0.896565,0,0,0.896565,216.487,63.9891)">
            <path d="M557.959,300.226L557.959,292.564L552.893,292.564L552.893,280.848L544.471,280.848L544.471,292.564L540.355,292.564L540.355,300.226L544.471,300.226L544.471,327.647L552.893,327.647L552.893,300.226L557.959,300.226Z" style="fill:rgb(0,49,137);fill-rule:nonzero;"/>
            <path d="M581.327,299.846L581.327,291.74L580.694,291.74C577.084,291.74 575.311,292.754 573.095,295.983L573.095,292.564L565.369,292.564L565.369,327.647L573.791,327.647L573.791,308.142C573.791,302.696 576.261,299.973 581.327,299.846Z" style="fill:rgb(0,49,137);fill-rule:nonzero;"/>
            <path d="M623.059,327.647L623.059,292.564L615.334,292.564L615.334,297.25C612.421,293.387 608.938,291.74 603.871,291.74C593.486,291.74 586.013,299.53 586.013,310.232C586.013,320.807 593.422,328.47 603.681,328.47C608.621,328.47 611.977,326.887 615.334,323.087L615.334,327.647L623.059,327.647ZM615.08,310.359C615.08,316.185 611.281,320.744 604.885,320.744C598.742,320.744 594.499,316.565 594.499,310.422C594.499,304.026 598.742,299.466 604.758,299.466C610.774,299.466 615.08,303.963 615.08,310.359Z" style="fill:rgb(0,49,137);fill-rule:nonzero;"/>
            <path d="M663.652,327.647L663.652,308.839C663.652,302.569 663.019,299.53 661.119,296.807C658.839,293.514 655.039,291.74 650.163,291.74C646.174,291.74 643.387,292.944 640.284,295.92L640.284,292.564L632.495,292.564L632.495,327.647L640.918,327.647L640.918,311.118C640.918,306.432 641.234,304.406 642.311,302.696C643.641,300.606 645.857,299.466 648.517,299.466C652.696,299.466 655.229,301.113 655.229,310.485L655.229,327.647L663.652,327.647Z" style="fill:rgb(0,49,137);fill-rule:nonzero;"/>
            <path d="M696.835,316.501C696.835,311.308 694.429,308.522 687.083,306.242C681.32,304.406 681.13,304.279 681.13,302.443C681.13,300.733 682.523,299.466 684.36,299.466C686.133,299.466 687.273,300.416 687.653,302.253L695.885,302.253C695.569,295.667 690.312,291.74 684.36,291.74C677.837,291.74 672.708,296.427 672.708,302.443C672.708,307.572 675.494,310.485 682.46,312.828C688.096,314.728 688.413,315.298 688.413,317.325C688.413,319.288 686.766,320.744 684.613,320.744C682.143,320.744 680.75,319.478 679.927,316.501L671.441,316.501C672.328,324.67 677.33,328.47 684.296,328.47C691.326,328.47 696.835,323.214 696.835,316.501Z" style="fill:rgb(0,49,137);fill-rule:nonzero;"/>
            <path d="M741.417,309.979C741.417,299.403 734.071,291.74 723.939,291.74C719.189,291.74 715.137,293.514 712.413,296.68L712.413,292.564L704.688,292.564L704.688,339.362L713.11,339.362L713.11,324.354C716.276,327.203 719.569,328.47 723.876,328.47C734.008,328.47 741.417,320.617 741.417,309.979ZM732.931,310.169C732.931,316.121 728.562,320.744 722.989,320.744C717.036,320.744 712.603,316.185 712.603,310.042C712.603,304.026 717.036,299.466 722.862,299.466C728.562,299.466 732.931,304.089 732.931,310.169Z" style="fill:rgb(0,49,137);fill-rule:nonzero;"/>
            <path d="M785.429,310.359C785.429,299.91 777.26,291.74 766.685,291.74C756.489,291.74 748.13,300.036 748.13,310.105C748.13,320.238 756.489,328.47 766.748,328.47C776.943,328.47 785.429,320.238 785.429,310.359ZM776.943,310.105C776.943,315.995 772.384,320.744 766.811,320.744C761.112,320.744 756.616,315.995 756.616,309.979C756.616,304.216 761.238,299.466 766.748,299.466C772.384,299.466 776.943,304.279 776.943,310.105Z" style="fill:rgb(0,49,137);fill-rule:nonzero;"/>
            <path d="M809.303,299.846L809.303,291.74L808.67,291.74C805.061,291.74 803.287,292.754 801.071,295.983L801.071,292.564L793.345,292.564L793.345,327.647L801.768,327.647L801.768,308.142C801.768,302.696 804.237,299.973 809.303,299.846Z" style="fill:rgb(0,49,137);fill-rule:nonzero;"/>
            <path d="M832.481,300.226L832.481,292.564L827.415,292.564L827.415,280.848L818.992,280.848L818.992,292.564L814.876,292.564L814.876,300.226L818.992,300.226L818.992,327.647L827.415,327.647L827.415,300.226L832.481,300.226Z" style="fill:rgb(0,49,137);fill-rule:nonzero;"/>
        </g>
        <g transform="matrix(1.61611,0,0,1.61611,1099.41,459.097)">
            <clipPath id="_clip1">
                <rect x="-256.298" y="-49.75" width="182.538" height="99.5"/>
            </clipPath>
            <g clip-path="url(#_clip1)">
                <g transform="matrix(1,0,0,1,-256.298,-49.75)">
                    <path d="M0,0L181.61,0L181.61,57.108L0,57.108L0,0Z" style="fill:white;fill-rule:nonzero;"/>
                    <path d="M145.025,99.436C144.925,99.398 144.919,99.296 145.003,99.072C145.109,98.788 145.159,98.765 145.569,98.816C145.939,98.863 146.049,98.83 146.199,98.623C146.499,98.227 146.269,97.941 145.719,98.035C145.299,98.108 145.299,98.103 145.379,97.807C145.629,96.864 145.649,96.917 144.899,96.777C143.989,96.61 143.129,96.14 142.469,95.454C141.469,94.424 141.129,93.382 141.229,91.707C141.279,90.854 141.349,90.521 141.639,89.927C142.519,88.112 144.539,87.187 147.259,87.352C147.849,87.388 148.589,87.482 148.919,87.559L149.509,87.699L149.569,89.719L149.209,89.719C148.999,89.719 148.849,89.659 148.849,89.579C148.849,89.289 148.119,88.629 147.609,88.449C146.949,88.209 145.669,88.269 145.019,88.559C143.549,89.219 142.879,90.929 143.329,92.889C143.539,93.789 143.879,94.399 144.529,95.029C145.149,95.619 145.779,95.859 146.719,95.859C147.709,95.859 148.399,95.489 148.839,94.719C149.139,94.199 149.239,94.129 149.529,94.299C149.659,94.379 149.659,94.559 149.539,95.389L149.389,96.389L148.849,96.559C148.549,96.649 147.869,96.759 147.339,96.799C146.409,96.859 146.359,96.879 146.359,97.119C146.359,97.309 146.429,97.379 146.629,97.379C147.019,97.379 147.389,97.659 147.479,98.029C147.579,98.459 147.249,99.089 146.819,99.299C146.509,99.449 145.289,99.509 144.979,99.389L145.025,99.436ZM74.771,98.974C73.751,98.694 72.871,98.271 71.811,97.554L70.901,96.932L69.491,96.864C67.921,96.789 67.371,96.626 66.361,95.932C64.121,94.404 64.041,90.514 66.211,88.622C67.851,87.195 70.721,86.902 72.781,87.947C75.571,89.359 75.871,93.524 73.331,95.707C72.941,96.045 72.561,96.322 72.481,96.322C72.241,96.322 75.021,97.735 75.831,98.024C76.731,98.344 77.771,98.386 78.541,98.134C79.101,97.951 79.201,97.974 79.291,98.306C79.351,98.501 79.251,98.583 78.691,98.826C77.801,99.21 75.941,99.281 74.821,98.974L74.771,98.974ZM71.311,95.58C73.291,94.62 73.671,91.543 72.051,89.578C70.551,87.758 67.921,88.033 66.931,90.115C66.041,91.995 67.061,94.903 68.881,95.673C69.621,95.983 70.561,95.949 71.321,95.58L71.311,95.58ZM9.25,96.718C8.71,96.498 8.114,95.813 7.174,94.328C5.729,92.044 5.458,91.708 5.054,91.708L4.704,91.708L4.707,92.945C4.712,95.2 4.957,95.971 5.72,96.15C5.924,96.197 6.004,96.292 6.004,96.488L6.004,96.761L1.164,96.761L1.164,96.511C1.164,96.321 1.254,96.231 1.534,96.151C1.739,96.101 2.018,95.911 2.154,95.741C2.397,95.441 2.402,95.331 2.402,91.171C2.402,87.011 2.397,86.901 2.154,86.601C2.018,86.431 1.739,86.251 1.534,86.191C1.264,86.121 1.164,86.031 1.164,85.851C1.164,85.611 1.176,85.611 4.162,85.541C7.34,85.471 8.04,85.521 8.936,85.931C9.718,86.281 10.371,87.351 10.372,88.281C10.374,89.351 9.522,90.551 8.397,91.071L7.807,91.341L9.11,93.151C10.64,95.291 11.12,95.861 11.57,96.081C11.99,96.281 12.03,96.731 11.64,96.821C11.16,96.941 9.61,96.891 9.25,96.741L9.25,96.718ZM6.297,90.598C7.88,90.188 8.414,88.144 7.217,87.078C6.653,86.578 6.055,86.395 5.291,86.493L4.711,86.568L4.711,90.72L5.271,90.72C5.581,90.72 6.051,90.665 6.301,90.598L6.297,90.598ZM33.503,96.718C32.856,96.504 32.246,96.121 31.923,95.728C31.336,95.011 31.273,94.635 31.267,91.723C31.259,88.679 31.197,88.343 30.597,88.085C30.357,87.981 30.215,87.84 30.213,87.7C30.211,87.49 30.289,87.48 32.218,87.48C34.221,87.48 34.226,87.48 34.226,87.728C34.226,87.894 34.156,87.975 34.01,87.975C33.892,87.975 33.666,88.103 33.508,88.258L33.222,88.542L33.222,91.526C33.222,94.334 33.236,94.536 33.467,94.944C33.827,95.584 34.547,95.911 35.469,95.86C36.459,95.804 36.999,95.477 37.389,94.684C37.689,94.076 37.699,94.046 37.699,91.374C37.699,88.984 37.679,88.646 37.489,88.384C37.369,88.221 37.149,88.057 36.989,88.02C36.799,87.977 36.689,87.873 36.689,87.743C36.689,87.55 36.799,87.536 38.279,87.536C39.759,87.536 39.869,87.55 39.869,87.743C39.869,87.873 39.759,87.977 39.579,88.019C39.029,88.139 38.989,88.379 38.929,91.549L38.869,94.519L38.509,95.159C38.089,95.919 37.409,96.449 36.539,96.689C35.799,96.889 34.069,96.899 33.479,96.699L33.503,96.718ZM79.555,96.718C78.901,96.502 78.297,96.12 77.963,95.712C77.406,95.032 77.326,94.532 77.319,91.664C77.309,88.684 77.239,88.344 76.649,88.084C76.399,87.981 76.259,87.84 76.259,87.7C76.249,87.49 76.329,87.48 78.259,87.48C80.239,87.48 80.259,87.483 80.259,87.72C80.259,87.88 80.169,87.97 79.999,87.995C79.859,88.015 79.629,88.169 79.499,88.34C79.269,88.63 79.249,88.81 79.209,91.218C79.159,94.175 79.249,94.798 79.789,95.311C80.759,96.241 82.789,95.981 83.359,94.861C83.719,94.151 83.809,93.271 83.769,90.941C83.719,88.481 83.639,88.171 83.019,88.031C82.829,87.991 82.719,87.891 82.719,87.761C82.719,87.571 82.829,87.561 84.309,87.561C85.789,87.561 85.909,87.581 85.909,87.771C85.909,87.901 85.769,88.031 85.559,88.111C85.369,88.191 85.169,88.331 85.119,88.431C85.069,88.531 84.999,89.951 84.959,91.591L84.889,94.571L84.529,95.221C84.109,95.981 83.429,96.511 82.549,96.751C81.809,96.961 80.079,96.971 79.489,96.771L79.555,96.718ZM116.932,96.715C116.46,96.523 115.899,95.873 115.03,94.51C113.908,92.75 113.78,92.59 113.488,92.59C113.228,92.588 113.223,92.61 113.223,93.964C113.223,95.606 113.37,96.069 113.926,96.172C114.206,96.224 114.286,96.297 114.286,96.5L114.286,96.76L110.27,96.76L110.27,96.5C110.27,96.297 110.35,96.224 110.63,96.172C111.303,96.047 111.35,95.75 111.31,91.927L111.274,88.542L110.988,88.258C110.831,88.103 110.605,87.975 110.486,87.975C110.353,87.975 110.271,87.895 110.271,87.765C110.271,87.585 110.391,87.545 111.141,87.479C111.621,87.429 112.931,87.419 114.061,87.439C115.901,87.469 116.171,87.499 116.611,87.719C117.391,88.099 117.831,88.849 117.831,89.789C117.831,90.689 117.281,91.479 116.271,92.009C115.951,92.179 115.741,92.349 115.811,92.389C115.881,92.429 116.401,93.109 116.971,93.909C118.091,95.479 118.711,96.179 118.971,96.179C119.201,96.179 119.181,96.689 118.951,96.769C118.621,96.889 117.321,96.829 116.951,96.679L116.932,96.715ZM114.75,91.548C115.22,91.323 115.68,90.78 115.766,90.351C115.878,89.801 115.616,89.081 115.166,88.681C114.749,88.321 114.346,88.211 113.648,88.291L113.223,88.341L113.223,91.721L113.819,91.721C114.139,91.721 114.559,91.651 114.749,91.561L114.75,91.548ZM167.31,96.696C166.957,96.606 166.646,96.516 166.62,96.491C166.595,96.471 166.508,95.981 166.43,95.401L166.284,94.351L166.617,94.351C166.8,94.351 166.95,94.391 166.95,94.441C166.95,94.731 167.725,95.571 168.174,95.771C169.389,96.321 170.847,95.801 170.846,94.831C170.846,94.191 170.512,93.811 169.374,93.151C167.778,92.221 167.161,91.731 166.844,91.131C166.524,90.541 166.469,89.611 166.708,88.941C166.866,88.501 167.608,87.831 168.233,87.581C168.861,87.321 170.829,87.331 171.643,87.591L172.263,87.791L172.263,89.751L171.923,89.751C171.657,89.751 171.565,89.691 171.507,89.481C171.384,89.021 170.751,88.451 170.221,88.321C168.811,87.971 167.671,89.321 168.561,90.301C168.731,90.491 169.501,91.041 170.271,91.531C171.771,92.471 172.321,92.991 172.511,93.601C172.921,94.961 172.241,96.171 170.781,96.671C170.001,96.951 168.311,96.971 167.321,96.721L167.31,96.696ZM12.617,96.466C12.617,96.27 12.683,96.212 12.903,96.212C13.073,96.212 13.29,96.092 13.435,95.922C13.67,95.644 13.679,95.507 13.679,92.182C13.679,89.768 13.629,88.657 13.539,88.49C13.359,88.182 13.079,87.983 12.819,87.98C12.679,87.976 12.609,87.887 12.609,87.7L12.609,87.426L19.699,87.426L19.699,89.746L19.389,89.712C19.149,89.686 19.039,89.585 18.939,89.302C18.699,88.648 18.309,88.48 16.909,88.432L15.669,88.39L15.669,91.518L16.619,91.468C17.649,91.411 18.169,91.178 18.239,90.738C18.259,90.563 18.359,90.501 18.589,90.501L18.899,90.501L18.899,93.361L18.579,93.361C18.319,93.361 18.249,93.311 18.249,93.101C18.249,92.611 17.849,92.431 16.699,92.391L15.649,92.351L15.649,93.901C15.649,95.761 15.659,95.791 17.009,95.791C18.339,95.791 19.029,95.481 19.379,94.721C19.549,94.341 19.959,94.231 20.089,94.531C20.169,94.731 19.839,96.021 19.589,96.471L19.409,96.791L15.989,96.771L12.569,96.751L12.569,96.501L12.617,96.466ZM21.709,96.5C21.709,96.3 21.789,96.225 22.049,96.175C22.669,96.059 22.699,95.895 22.739,92.368C22.779,88.695 22.729,88.364 22.079,88.085C21.809,87.969 21.699,87.845 21.689,87.663L21.689,87.405L24.369,87.451C27.269,87.501 27.509,87.551 28.299,88.161C29.159,88.841 29.389,90.191 28.799,91.191C28.289,92.071 27.399,92.531 25.999,92.661L25.259,92.731L25.079,92.311L24.889,91.891L25.319,91.831C25.869,91.761 26.469,91.431 26.789,91.031C26.969,90.811 27.039,90.571 27.029,90.151C27.009,89.081 26.369,88.431 25.239,88.341L24.599,88.291L24.629,91.961C24.669,95.961 24.689,96.071 25.349,96.201C25.589,96.251 25.669,96.331 25.669,96.531L25.669,96.791L21.659,96.791L21.659,96.531L21.709,96.5ZM41.309,96.46C41.309,96.29 41.379,96.212 41.529,96.212C41.649,96.212 41.879,96.117 42.029,96.002L42.309,95.792L42.339,92.388C42.379,88.578 42.329,88.29 41.649,88.052C41.429,87.977 41.289,87.848 41.289,87.732C41.289,87.554 41.449,87.532 43.089,87.508C46.529,87.456 47.259,87.492 47.819,87.744C48.539,88.071 48.879,88.544 48.939,89.314C48.959,89.661 48.949,90.066 48.909,90.214C48.789,90.644 48.239,91.172 47.629,91.434L47.059,91.676L47.539,91.809C48.679,92.119 49.399,93.229 49.249,94.419C49.119,95.419 48.659,95.989 47.579,96.449C47.009,96.689 46.859,96.699 44.129,96.699L41.3,96.699L41.3,96.449L41.309,96.46ZM46.509,95.633C47.109,95.259 47.349,94.75 47.279,93.983C47.179,92.833 46.309,92.148 44.949,92.148L44.229,92.148L44.259,93.806C44.289,95.394 44.309,95.472 44.569,95.673C44.969,95.979 45.959,95.959 46.479,95.633L46.509,95.633ZM46.019,91.07C46.739,90.81 47.119,90.283 47.049,89.643C46.949,88.783 46.199,88.305 44.959,88.305L44.249,88.305L44.249,91.27L44.869,91.264C45.209,91.261 45.719,91.174 46.009,91.07L46.019,91.07ZM50.859,96.466C50.859,96.289 50.939,96.216 51.169,96.192C51.339,96.172 51.589,96.022 51.729,95.847C51.969,95.547 51.979,95.417 51.979,92.167C51.979,89.467 51.939,88.744 51.809,88.524C51.599,88.181 51.329,87.984 51.059,87.979C50.919,87.969 50.849,87.889 50.849,87.719C50.849,87.469 50.849,87.469 52.969,87.469C55.089,87.469 55.089,87.469 55.089,87.709C55.089,87.879 55.019,87.949 54.859,87.949C54.729,87.949 54.479,88.069 54.299,88.209L53.999,88.499L53.959,91.959L53.929,95.419L54.229,95.599C54.469,95.739 54.719,95.769 55.449,95.729C56.569,95.669 57.099,95.409 57.409,94.759C57.609,94.329 57.839,94.229 58.149,94.409C58.259,94.479 58.239,94.679 58.059,95.359C57.929,95.829 57.739,96.339 57.639,96.479L57.449,96.739L54.149,96.699L50.849,96.659L50.849,96.419L50.859,96.466ZM59.119,96.5C59.119,96.297 59.199,96.224 59.479,96.172C60.129,96.052 60.179,95.752 60.179,92.07C60.179,89.012 60.159,88.776 59.949,88.445C59.819,88.25 59.579,88.059 59.419,88.021C59.209,87.981 59.119,87.881 59.119,87.721C59.119,87.491 59.149,87.491 61.129,87.491C63.109,87.491 63.129,87.501 63.129,87.731C63.129,87.891 63.029,87.991 62.839,88.041C62.679,88.081 62.449,88.241 62.339,88.411C62.149,88.681 62.129,89.041 62.129,92.061C62.129,95.791 62.179,96.091 62.789,96.211C63.039,96.261 63.119,96.341 63.119,96.541L63.119,96.801L59.109,96.801L59.109,96.541L59.119,96.5ZM87.339,96.48C87.339,96.3 87.429,96.222 87.699,96.172C88.349,96.052 88.399,95.752 88.399,92.058C88.399,88.822 88.389,88.771 88.129,88.403C87.979,88.198 87.739,88.013 87.599,87.995C87.409,87.97 87.339,87.885 87.339,87.693L87.339,87.426L94.299,87.426L94.299,88.579C94.299,89.719 94.289,89.729 94.009,89.729C93.779,89.729 93.709,89.659 93.649,89.349C93.509,88.699 93.029,88.479 91.619,88.429L90.429,88.389L90.349,88.909C90.309,89.189 90.269,89.899 90.269,90.469L90.269,91.509L91.269,91.449C92.369,91.379 92.809,91.199 92.929,90.759C92.979,90.559 93.079,90.479 93.279,90.479L93.559,90.479L93.559,93.329L93.269,93.329C93.069,93.329 92.969,93.269 92.969,93.139C92.959,92.589 92.389,92.339 91.199,92.339L90.229,92.339L90.269,93.879C90.319,95.749 90.309,95.739 91.719,95.739C92.969,95.739 93.619,95.459 93.959,94.779C94.129,94.429 94.259,94.309 94.449,94.309C94.589,94.309 94.749,94.359 94.789,94.429C94.899,94.589 94.369,96.379 94.159,96.569C94.019,96.699 93.419,96.719 90.639,96.699L87.289,96.679L87.289,96.439L87.339,96.48ZM100.329,96.506C100.329,96.326 100.439,96.206 100.699,96.094C100.909,96.008 101.179,95.798 101.319,95.627C101.559,95.327 101.559,95.192 101.559,91.179C101.559,86.519 101.549,86.469 100.729,86.219C100.409,86.119 100.309,86.029 100.309,85.819L100.309,85.549L108.569,85.549L108.569,88.299L108.209,88.299C107.919,88.299 107.849,88.249 107.849,88.049C107.849,87.639 107.409,87.089 106.929,86.899C106.649,86.789 106.009,86.699 105.169,86.669L103.839,86.619L103.839,90.379L104.809,90.369C106.109,90.359 106.549,90.209 106.829,89.689C107.009,89.349 107.109,89.269 107.389,89.269L107.739,89.269L107.739,92.579L107.359,92.539C107.099,92.509 106.959,92.429 106.919,92.279C106.729,91.629 106.009,91.339 104.569,91.339L103.809,91.339L103.859,93.289C103.909,95.509 104.009,95.839 104.719,96.069C105.029,96.169 105.129,96.269 105.129,96.459L105.129,96.709L100.289,96.709L100.289,96.459L100.329,96.506ZM119.219,96.486C119.219,96.286 119.279,96.212 119.449,96.212C119.809,96.212 120.219,95.527 121.119,93.442C122.319,90.646 123.459,87.805 123.459,87.602C123.459,87.465 123.579,87.426 124.019,87.428L124.579,87.43L126.169,91.227C127.899,95.35 128.219,95.991 128.619,96.157C128.779,96.222 128.879,96.36 128.879,96.512C128.879,96.762 128.879,96.762 126.869,96.762L124.859,96.762L124.859,96.5C124.859,96.3 124.939,96.224 125.209,96.174C125.719,96.08 125.749,95.76 125.359,94.674L125.019,93.741L122.229,93.741L121.949,94.511C121.589,95.481 121.609,96.141 121.999,96.201C122.189,96.231 122.259,96.311 122.259,96.501L122.259,96.771L119.189,96.771L119.189,96.501L119.219,96.486ZM124.649,92.641C124.649,92.481 123.779,90.281 123.709,90.281C123.659,90.281 123.539,90.491 123.439,90.751L122.939,91.961L122.639,92.701L123.639,92.701C124.189,92.701 124.639,92.681 124.639,92.651L124.649,92.641ZM129.729,96.501C129.729,96.311 129.809,96.231 130.049,96.181C130.689,96.061 130.709,95.911 130.759,92.321C130.809,88.621 130.759,88.311 130.069,88.071C129.859,88.001 129.709,87.871 129.709,87.751C129.709,87.581 129.839,87.561 131.039,87.561L132.359,87.561L133.129,88.471C133.549,88.971 134.639,90.191 135.549,91.191C136.459,92.191 137.319,93.161 137.469,93.341L137.739,93.671L137.699,91.191C137.659,88.491 137.589,88.211 136.959,88.061C136.769,88.021 136.659,87.911 136.659,87.781C136.659,87.591 136.769,87.571 138.249,87.571C139.749,87.571 139.839,87.591 139.839,87.791C139.839,87.931 139.739,88.021 139.579,88.041C139.439,88.061 139.209,88.221 139.079,88.391C138.839,88.691 138.829,88.841 138.789,92.761L138.749,96.821L138.229,96.821C137.759,96.821 137.669,96.781 137.319,96.361C136.999,95.991 131.999,90.221 131.809,90.021C131.779,89.991 131.779,91.201 131.809,92.711C131.859,95.781 131.939,96.141 132.499,96.251C132.759,96.301 132.839,96.371 132.839,96.571L132.839,96.831L129.659,96.831L129.659,96.571L129.729,96.501ZM150.389,96.491C150.389,96.331 150.449,96.221 150.549,96.221C150.779,96.221 151.219,95.711 151.529,95.061C151.959,94.171 153.979,89.321 154.329,88.341L154.649,87.431L155.709,87.511L157.269,91.251C158.129,93.311 158.929,95.161 159.049,95.371C159.309,95.861 159.699,96.251 159.899,96.251C159.989,96.251 160.059,96.371 160.059,96.531L160.059,96.811L156.039,96.811L156.039,96.531C156.039,96.341 156.099,96.261 156.249,96.261C156.819,96.261 156.869,95.801 156.439,94.591L156.129,93.741L153.359,93.741L153.109,94.481C152.639,95.881 152.659,96.271 153.219,96.271C153.379,96.271 153.439,96.351 153.439,96.551L153.439,96.831L150.369,96.831L150.369,96.551L150.389,96.491ZM155.399,91.581C155.169,90.961 154.959,90.381 154.919,90.291C154.879,90.191 154.639,90.611 154.329,91.341C154.039,92.011 153.809,92.591 153.809,92.631C153.809,92.681 154.249,92.721 154.799,92.721L155.789,92.721L155.379,91.601L155.399,91.581ZM160.779,96.501C160.779,96.291 160.839,96.231 161.049,96.231C161.199,96.231 161.429,96.131 161.549,96.001C161.749,95.791 161.769,95.531 161.799,92.351C161.819,90.471 161.809,88.821 161.769,88.691C161.689,88.381 161.249,88.001 160.979,88.001C160.829,88.001 160.759,87.921 160.759,87.761C160.759,87.521 160.759,87.521 162.759,87.521C164.689,87.521 164.769,87.531 164.769,87.741C164.769,87.881 164.639,88.021 164.419,88.101C164.229,88.181 164.029,88.381 163.959,88.541C163.789,88.961 163.689,92.391 163.799,94.241C163.869,95.531 163.919,95.841 164.109,96.031C164.229,96.161 164.429,96.261 164.549,96.261C164.699,96.261 164.759,96.341 164.759,96.541L164.759,96.821L160.749,96.821L160.749,96.541L160.779,96.501ZM173.999,96.481C173.999,96.291 174.069,96.231 174.289,96.231C174.459,96.231 174.669,96.111 174.819,95.941C175.049,95.661 175.059,95.531 175.059,92.201C175.059,89.791 175.019,88.681 174.919,88.511C174.739,88.211 174.459,88.011 174.199,88.001C174.059,88.001 173.989,87.911 173.989,87.721L173.989,87.451L181.069,87.451L181.069,89.771L180.759,89.741C180.529,89.721 180.419,89.621 180.319,89.331C180.089,88.681 179.699,88.511 178.289,88.461L177.049,88.421L177.049,91.521L177.789,91.521C178.809,91.511 179.309,91.341 179.529,90.901C179.659,90.641 179.779,90.551 179.999,90.551L180.289,90.551L180.289,93.401L179.989,93.401C179.719,93.401 179.659,93.351 179.659,93.141C179.659,92.651 179.269,92.471 178.109,92.431L177.059,92.391L177.059,93.931C177.059,95.791 177.079,95.821 178.429,95.821C179.759,95.821 180.449,95.511 180.799,94.751C180.969,94.371 181.379,94.261 181.509,94.561C181.589,94.761 181.259,96.051 181.009,96.501L180.829,96.821L177.409,96.801L173.989,96.781L173.989,96.521L173.999,96.481ZM15.81,86.45L15.523,86.243L16.225,85.253C16.611,84.703 17.002,84.253 17.095,84.253C17.493,84.253 18.765,84.503 18.733,84.583C18.669,84.741 16.339,86.673 16.218,86.67C16.153,86.67 15.97,86.576 15.811,86.46L15.81,86.45ZM0.81,78.862L180.65,78.862L180.65,79.847L0.808,79.847L0.808,78.859L0.81,78.862ZM69.255,76.612C68.311,76.298 67.779,75.482 67.951,74.602C68.071,74.012 68.431,73.596 69.071,73.322L69.631,73.082L69.291,72.902C69.101,72.797 68.951,72.625 68.951,72.502C68.951,72.302 69.821,71.502 70.031,71.502C70.081,71.502 70.011,71.319 69.871,71.096C69.271,70.142 69.751,68.764 70.881,68.224C71.491,67.931 71.701,67.919 73.841,68.046C75.071,68.12 75.121,68.132 75.051,68.356C75.021,68.486 74.991,68.628 74.981,68.674C74.981,68.719 74.781,68.756 74.521,68.756L74.061,68.756L74.121,69.394C74.261,70.787 73.191,71.741 71.471,71.767C70.581,71.78 70.151,71.957 70.501,72.165C70.601,72.223 71.181,72.42 71.781,72.603C73.741,73.193 74.101,73.49 74.021,74.433C73.941,75.418 73.091,76.273 71.861,76.618C71.161,76.815 69.891,76.813 69.291,76.614L69.255,76.612ZM71.885,75.932C72.843,75.489 73.258,74.642 72.735,74.202C72.381,73.905 70.847,73.448 70.449,73.522C69.639,73.672 68.879,74.592 69.019,75.252C69.209,76.162 70.649,76.505 71.879,75.934L71.885,75.932ZM72.201,70.962C72.921,70.556 73.201,69.397 72.721,68.825C72.061,68.041 70.801,68.915 70.791,70.165C70.791,70.553 70.851,70.69 71.121,70.905C71.521,71.225 71.741,71.235 72.221,70.965L72.201,70.962ZM76.681,73.512C76.161,73.412 75.891,73.092 75.831,72.522C75.681,71.062 77.001,68.918 78.481,68.227C79.251,67.867 80.771,67.831 81.781,68.147C81.871,68.177 81.811,68.552 81.571,69.324C81.121,70.834 80.851,72.346 81.001,72.607C81.101,72.777 81.171,72.79 81.491,72.689C81.781,72.589 81.881,72.599 81.961,72.719C82.131,72.969 82.031,73.059 81.351,73.279C80.451,73.569 80.031,73.509 79.891,73.079L79.791,72.739L79.311,72.989C78.501,73.419 77.381,73.639 76.711,73.509L76.681,73.512ZM78.721,72.525C79.071,72.373 79.421,72.14 79.521,72.005C79.681,71.782 80.161,70.135 80.351,69.175C80.431,68.782 80.421,68.768 79.991,68.658C79.201,68.45 78.401,68.988 77.771,70.158C77.111,71.378 76.941,72.47 77.371,72.753C77.671,72.947 77.851,72.913 78.741,72.523L78.721,72.525ZM134.631,73.48C134.101,73.36 133.921,73.19 133.771,72.69C133.551,71.93 134.061,70.493 134.931,69.43C135.971,68.16 137.121,67.73 138.821,67.98C139.271,68.046 139.671,68.135 139.711,68.177C139.761,68.217 139.611,68.92 139.381,69.737C139.161,70.552 138.961,71.54 138.951,71.933L138.931,72.651L139.431,72.631C139.881,72.611 139.931,72.641 139.931,72.861C139.931,73.071 139.821,73.141 139.251,73.301C138.321,73.571 137.881,73.511 137.831,73.121C137.811,72.961 137.771,72.821 137.751,72.821C137.731,72.821 137.421,72.941 137.071,73.081C136.511,73.311 135.361,73.611 135.131,73.581C135.091,73.581 134.881,73.531 134.671,73.491L134.631,73.48ZM136.611,72.54C136.901,72.4 137.231,72.2 137.341,72.09C137.601,71.81 138.071,70.38 138.321,69.12C138.391,68.78 138.371,68.76 137.921,68.65C137.541,68.55 137.381,68.56 137.041,68.71C136.291,69.04 135.551,70.16 135.161,71.54C134.791,72.862 135.251,73.174 136.631,72.534L136.611,72.54ZM8.551,73.23C8.521,73.09 8.731,72.07 9.021,70.96C9.601,68.77 9.601,68.59 8.961,68.76C8.651,68.84 8.621,68.82 8.621,68.6C8.621,68.39 8.731,68.32 9.301,68.162C9.671,68.062 10.171,67.966 10.391,67.952C10.781,67.929 10.811,67.949 10.841,68.296C10.861,68.499 10.661,69.503 10.391,70.526C10.121,71.552 9.931,72.466 9.971,72.56C10.031,72.695 10.151,72.714 10.581,72.654C11.091,72.581 11.121,72.59 11.081,72.829C11.051,73.029 10.901,73.119 10.391,73.269C10.041,73.369 9.491,73.459 9.181,73.459C8.701,73.459 8.621,73.429 8.561,73.219L8.551,73.23ZM13.091,73.28L12.821,73.07L13.741,69.33C14.241,67.273 14.641,65.45 14.621,65.276C14.581,64.953 14.541,64.936 14.081,65.066C13.861,65.129 13.821,65.1 13.821,64.866C13.821,64.546 14.241,64.391 15.391,64.286C16.051,64.226 16.071,64.229 16.071,64.486C16.071,64.632 15.891,65.536 15.661,66.494C15.431,67.454 15.251,68.299 15.251,68.377C15.251,68.487 15.381,68.467 15.761,68.311C17.081,67.771 18.221,67.801 18.641,68.381C19.031,68.931 18.831,70.341 18.201,71.501C17.881,72.111 16.911,73.051 16.381,73.271C15.691,73.561 13.511,73.571 13.121,73.271L13.091,73.28ZM16.081,72.58C16.681,72.19 17.341,70.87 17.521,69.71C17.711,68.54 16.881,68.31 15.561,69.16C15.281,69.34 15.061,69.6 14.941,69.89C14.731,70.43 14.291,72.18 14.291,72.492C14.291,72.952 15.441,73.006 16.091,72.572L16.081,72.58ZM20.591,73.14C20.271,72.83 20.251,72.74 20.251,72.01C20.271,70.154 21.401,68.495 22.961,68.04C23.741,67.81 24.431,67.89 24.891,68.255C25.161,68.467 25.211,68.599 25.211,69.048C25.211,70.178 24.111,71.038 22.511,71.138C22.051,71.168 21.631,71.248 21.591,71.315C21.461,71.503 21.491,72.135 21.641,72.405C21.941,72.925 22.361,72.94 23.371,72.455C24.001,72.155 24.131,72.125 24.231,72.265C24.441,72.572 24.341,72.669 23.431,73.07C22.671,73.402 22.381,73.47 21.741,73.47C21.041,73.47 20.941,73.442 20.621,73.134L20.591,73.14ZM22.711,70.5C23.721,70.24 24.381,69.24 23.871,68.76C23.551,68.458 23.251,68.468 22.831,68.795C22.501,69.055 21.961,69.878 21.801,70.369C21.741,70.569 21.771,70.609 22.001,70.609C22.151,70.609 22.481,70.549 22.731,70.489L22.711,70.5ZM26.691,73.435C26.691,73.419 26.901,72.565 27.161,71.545C27.421,70.522 27.641,69.469 27.641,69.205L27.641,68.725L27.171,68.795C26.751,68.855 26.701,68.839 26.701,68.645C26.701,68.405 27.081,68.22 28.041,67.997C28.701,67.847 28.951,67.95 28.951,68.377L28.951,68.635L29.371,68.371C30.111,67.911 30.561,67.821 31.091,68.051C31.351,68.161 31.541,68.301 31.521,68.371C31.201,69.421 31.021,69.751 30.761,69.751C30.531,69.751 30.491,69.701 30.491,69.381C30.491,68.581 29.751,68.581 29.201,69.371C28.871,69.871 28.521,70.991 28.241,72.481C28.161,72.931 28.031,73.301 27.971,73.321C27.761,73.381 26.721,73.481 26.721,73.451L26.691,73.435ZM32.621,73.331C32.491,73.191 32.561,72.791 33.241,69.931L33.521,68.751L33.121,68.751C32.901,68.751 32.721,68.721 32.721,68.691C32.721,68.521 32.991,68.201 33.131,68.201C33.421,68.201 33.971,67.681 34.211,67.191C34.471,66.651 34.571,66.561 34.961,66.561C35.221,66.561 35.241,66.601 35.171,66.921C35.131,67.121 35.061,67.471 35.021,67.691L34.951,68.101L35.501,68.101C36.061,68.101 36.141,68.191 35.981,68.591C35.931,68.721 35.751,68.771 35.351,68.771C34.691,68.771 34.801,68.551 34.281,70.961C33.901,72.731 33.921,72.891 34.561,72.721C35.101,72.581 35.141,72.591 35.101,72.871C35.071,73.061 34.921,73.161 34.471,73.301C33.751,73.531 32.841,73.561 32.661,73.361L32.621,73.331ZM37.391,73.191C36.531,72.331 37.151,69.861 38.531,68.711C39.091,68.241 39.971,67.881 40.541,67.881C40.911,67.881 41.711,68.231 41.831,68.441C42.021,68.771 41.961,69.561 41.721,69.931C41.231,70.691 40.151,71.181 38.981,71.181L38.291,71.181L38.291,71.761C38.291,72.891 38.801,73.081 40.121,72.481C40.541,72.291 40.911,72.151 40.941,72.181C40.971,72.211 41.011,72.331 41.041,72.451C41.071,72.631 40.911,72.751 40.211,73.081C39.451,73.441 39.231,73.491 38.521,73.491C37.791,73.491 37.671,73.461 37.421,73.211L37.391,73.191ZM39.471,70.501C40.101,70.311 40.531,69.971 40.721,69.551C40.881,69.201 40.881,69.141 40.671,68.881C40.351,68.481 40.031,68.471 39.541,68.871C39.161,69.181 38.521,70.211 38.521,70.511C38.521,70.671 38.971,70.661 39.471,70.501L39.471,70.501ZM83.821,73.411C83.661,73.261 83.761,72.611 84.331,70.371C85.101,67.331 85.511,65.531 85.511,65.241C85.511,65.031 85.461,65.011 85.101,65.071C84.731,65.131 84.691,65.111 84.691,64.871C84.691,64.601 84.991,64.471 86.161,64.261C86.771,64.161 86.941,64.231 86.941,64.591C86.941,64.761 86.551,66.491 86.061,68.451C85.571,70.411 85.171,72.181 85.171,72.381L85.171,72.751L85.711,72.691C86.221,72.631 86.251,72.641 86.211,72.871C86.181,73.061 86.031,73.161 85.531,73.301C84.871,73.501 83.981,73.561 83.841,73.431L83.821,73.411ZM88.271,73.351C88.131,73.131 88.211,72.661 88.711,70.821C88.981,69.871 89.171,69.001 89.151,68.901C89.101,68.711 89.071,68.701 88.561,68.811C88.291,68.871 88.231,68.851 88.231,68.661C88.231,68.401 88.741,68.171 89.661,68.001C90.321,67.891 90.601,67.951 90.601,68.201C90.601,68.291 90.361,69.301 90.071,70.441C89.781,71.581 89.571,72.571 89.621,72.631C89.671,72.701 89.901,72.721 90.221,72.681C90.721,72.621 90.751,72.631 90.711,72.861C90.681,73.051 90.531,73.151 90.021,73.291C89.261,73.521 88.421,73.551 88.301,73.361L88.271,73.351ZM92.631,73.301C92.591,73.201 92.621,72.841 92.701,72.511C92.971,71.411 93.541,68.871 93.541,68.821C93.541,68.791 93.381,68.771 93.181,68.771C92.671,68.771 92.771,68.461 93.371,68.171C93.731,68.001 93.941,67.781 94.231,67.261C94.571,66.671 94.671,66.581 94.961,66.581L95.291,66.581L95.131,67.271C95.041,67.651 94.971,67.991 94.971,68.041C94.971,68.081 95.231,68.121 95.561,68.121C96.181,68.121 96.201,68.131 96.081,68.531C96.021,68.751 95.931,68.781 95.401,68.781L94.791,68.781L94.391,70.631C94.171,71.651 94.021,72.561 94.061,72.661C94.121,72.801 94.211,72.821 94.521,72.731C95.061,72.591 95.091,72.601 95.091,72.891C95.091,73.111 94.991,73.181 94.401,73.331C93.491,73.571 92.751,73.571 92.651,73.331L92.631,73.301ZM97.501,73.241C97.211,73.011 97.151,72.881 97.111,72.261C97.021,70.881 97.701,69.321 98.711,68.601C99.831,67.811 101.051,67.711 101.731,68.341C102.051,68.641 102.081,68.721 102.021,69.221C101.911,70.311 100.791,71.101 99.251,71.171C98.291,71.221 98.191,71.331 98.381,72.101C98.591,72.941 98.961,73.031 100.141,72.511C100.921,72.171 101.101,72.171 101.101,72.511C101.101,72.861 99.691,73.431 98.671,73.481C97.921,73.521 97.801,73.501 97.501,73.251L97.501,73.241ZM100.001,70.301C100.741,69.951 101.061,69.181 100.641,68.751C100.111,68.211 99.141,68.921 98.651,70.201L98.481,70.671L99.011,70.601C99.301,70.561 99.751,70.431 100.011,70.311L100.001,70.301ZM128.231,73.451C128.231,73.431 128.441,72.581 128.701,71.561C128.961,70.541 129.181,69.491 129.181,69.221L129.181,68.741L128.711,68.811C128.291,68.871 128.241,68.861 128.241,68.661C128.241,68.401 128.451,68.291 129.411,68.061C130.241,67.861 130.491,67.941 130.491,68.401L130.491,68.661L130.911,68.401C131.651,67.941 132.101,67.851 132.631,68.071C132.891,68.181 133.091,68.301 133.091,68.331C133.091,68.371 132.981,68.711 132.831,69.081C132.611,69.651 132.521,69.771 132.301,69.771C132.081,69.771 132.031,69.711 132.031,69.401C132.031,68.651 131.341,68.591 130.821,69.301C130.431,69.841 130.231,70.431 129.901,71.971C129.761,72.671 129.611,73.271 129.571,73.301C129.501,73.371 128.261,73.531 128.261,73.471L128.231,73.451ZM141.851,73.321C141.761,73.091 141.871,72.411 142.321,70.471L142.711,68.821L142.381,68.791C141.991,68.751 141.921,68.391 142.291,68.281C142.711,68.161 143.191,67.711 143.421,67.221C143.681,66.681 143.781,66.591 144.171,66.591C144.431,66.591 144.451,66.631 144.381,66.951C144.341,67.151 144.271,67.501 144.231,67.721L144.161,68.131L144.711,68.131C145.271,68.131 145.351,68.221 145.191,68.621C145.141,68.751 144.961,68.801 144.561,68.801C143.911,68.801 144.011,68.581 143.491,70.991C143.111,72.761 143.131,72.921 143.771,72.751C144.311,72.611 144.351,72.621 144.311,72.901C144.281,73.091 144.131,73.191 143.681,73.331C142.901,73.581 141.991,73.591 141.891,73.361L141.851,73.321ZM146.621,73.211C145.731,72.381 146.351,69.891 147.741,68.731C148.301,68.261 149.181,67.901 149.751,67.901C150.121,67.901 150.921,68.251 151.041,68.461C151.231,68.791 151.171,69.581 150.931,69.961C150.431,70.731 149.361,71.211 148.181,71.211L147.481,71.211L147.541,71.891C147.631,72.961 148.051,73.111 149.341,72.511C149.761,72.321 150.131,72.181 150.161,72.211C150.191,72.241 150.231,72.361 150.261,72.481C150.301,72.661 150.131,72.781 149.431,73.111C148.681,73.471 148.451,73.521 147.771,73.521C147.081,73.521 146.941,73.491 146.671,73.241L146.621,73.211ZM149.101,70.351C149.931,69.971 150.301,69.091 149.781,68.721C149.441,68.481 149.191,68.521 148.741,68.891C148.361,69.201 147.721,70.231 147.721,70.541C147.721,70.721 148.531,70.611 149.091,70.351L149.101,70.351ZM152.691,73.411C152.691,73.361 152.911,72.471 153.171,71.431C153.441,70.391 153.641,69.381 153.621,69.191C153.591,68.871 153.561,68.851 153.151,68.871C152.821,68.881 152.711,68.841 152.661,68.681C152.621,68.511 152.721,68.431 153.211,68.261C153.551,68.141 154.021,68.021 154.261,67.971C154.721,67.891 154.711,67.881 155.001,68.531C155.011,68.541 155.321,68.401 155.701,68.221C156.521,67.841 156.651,67.821 157.151,68.111L157.531,68.321L157.281,69.031C157.071,69.631 156.981,69.751 156.761,69.751C156.541,69.751 156.491,69.691 156.491,69.391C156.491,68.431 155.511,68.621 154.981,69.681C154.851,69.941 154.581,70.861 154.391,71.721C154.201,72.581 154.021,73.291 154.001,73.311C153.901,73.391 152.721,73.461 152.721,73.391L152.691,73.411ZM158.601,73.411C158.601,73.361 158.791,72.631 159.031,71.791C159.281,70.871 159.461,69.961 159.471,69.501L159.491,68.731L159.071,68.771C158.741,68.801 158.631,68.761 158.591,68.601C158.541,68.431 158.641,68.361 159.131,68.221C160.201,67.911 160.451,67.891 160.661,68.091C160.761,68.181 160.851,68.381 160.851,68.531C160.851,68.671 160.871,68.791 160.901,68.791C160.921,68.791 161.271,68.641 161.681,68.461C162.631,68.041 163.891,67.821 164.271,68.011C164.511,68.131 164.531,68.191 164.461,68.701C164.411,69.001 164.221,69.851 164.031,70.581C163.841,71.311 163.671,72.081 163.651,72.291C163.621,72.671 163.621,72.671 164.111,72.661C164.451,72.651 164.631,72.701 164.671,72.811C164.761,73.041 164.651,73.111 163.911,73.311C163.071,73.541 162.291,73.541 162.201,73.311C162.161,73.211 162.341,72.261 162.601,71.181C163.121,69.021 163.151,68.771 162.901,68.691C162.641,68.601 161.741,69.011 161.201,69.461C160.751,69.831 160.701,69.951 160.421,71.031C160.261,71.681 160.091,72.441 160.041,72.731C159.991,73.021 159.891,73.281 159.821,73.301C159.461,73.401 158.561,73.451 158.561,73.371L158.601,73.411ZM166.701,73.331C166.661,73.231 166.871,72.221 167.171,71.071C167.471,69.931 167.691,68.931 167.651,68.841C167.611,68.731 167.501,68.721 167.201,68.801C166.991,68.861 166.801,68.911 166.781,68.911C166.771,68.911 166.751,68.801 166.751,68.661C166.751,68.451 166.861,68.381 167.371,68.241C168.771,67.851 169.201,67.921 169.061,68.501C169.031,68.651 168.781,69.601 168.521,70.621C168.261,71.641 168.071,72.551 168.111,72.641C168.161,72.761 168.311,72.791 168.721,72.731C169.221,72.671 169.251,72.681 169.221,72.911C169.141,73.381 166.881,73.791 166.711,73.371L166.701,73.331ZM171.161,73.331C171.081,73.141 171.181,72.621 171.641,70.711C172.151,68.601 172.151,68.791 171.721,68.791C171.201,68.791 171.291,68.491 171.891,68.201C172.241,68.031 172.451,67.811 172.731,67.321C173.041,66.791 173.171,66.661 173.431,66.631C173.791,66.591 173.791,66.621 173.541,67.801L173.471,68.161L174.091,68.161C174.611,68.161 174.701,68.191 174.641,68.331C174.601,68.431 174.571,68.581 174.571,68.661C174.571,68.781 174.411,68.821 173.941,68.821L173.311,68.821L172.921,70.671C172.711,71.691 172.571,72.601 172.611,72.701C172.671,72.851 172.761,72.861 173.081,72.781C173.621,72.641 173.651,72.651 173.651,72.941C173.651,73.171 173.551,73.231 172.961,73.381C172.061,73.621 171.311,73.621 171.211,73.381L171.161,73.331ZM176.021,73.251C175.691,72.981 175.681,72.951 175.681,71.891C175.681,70.861 175.701,70.771 176.131,69.971C176.661,68.991 177.251,68.461 178.221,68.131C179.901,67.551 181.101,68.541 180.361,69.891C179.941,70.661 178.831,71.211 177.691,71.211C177.011,71.211 176.961,71.231 176.891,71.501C176.791,71.871 176.921,72.421 177.151,72.671C177.421,72.961 177.881,72.911 178.711,72.511C179.331,72.221 179.461,72.191 179.551,72.321C179.761,72.631 179.661,72.751 178.871,73.101C178.261,73.381 177.871,73.471 177.241,73.501C176.481,73.541 176.371,73.521 176.061,73.271L176.021,73.251ZM178.601,70.291C179.401,69.881 179.671,69.061 179.111,68.721C178.901,68.591 178.741,68.571 178.491,68.651C178.081,68.771 177.481,69.491 177.241,70.161L177.051,70.681L177.601,70.611C177.901,70.571 178.357,70.431 178.616,70.291L178.601,70.291ZM0.01,73.18C0.03,73.073 0.152,72.97 0.28,72.947C0.63,72.887 0.93,72.597 1.17,72.101C1.48,71.441 2.46,66.861 2.49,65.911C2.51,65.101 2.51,65.091 2.13,64.871C1.4,64.441 1.6,64.371 3.64,64.371C5.26,64.371 5.53,64.401 5.53,64.541C5.53,64.641 5.38,64.741 5.17,64.781C4.42,64.921 4.13,65.611 3.42,69.011C2.76,72.191 2.76,72.131 3.06,72.411C3.29,72.621 3.41,72.641 4.33,72.601C5.57,72.541 6.02,72.351 6.45,71.681C6.79,71.161 6.81,71.151 7.05,71.291C7.19,71.371 7.18,71.481 7.02,71.921C6.92,72.221 6.71,72.661 6.56,72.901L6.29,73.341L3.13,73.371C0.17,73.391 -0.03,73.381 0.01,73.201L0.01,73.18ZM59.734,73.213C59.734,73.127 59.934,72.967 60.184,72.856C60.494,72.716 60.704,72.506 60.884,72.16C61.224,71.515 62.244,66.838 62.264,65.85C62.284,65.104 62.274,65.08 61.904,64.862C61.114,64.392 61.294,64.362 64.894,64.362C68.194,64.362 68.264,64.368 68.194,64.579C68.154,64.689 68.054,65.129 67.974,65.539C67.854,66.169 67.794,66.289 67.574,66.319C67.364,66.349 67.314,66.299 67.314,66.059C67.314,65.329 66.854,65.119 65.194,65.119L64.054,65.119L63.734,66.519C63.554,67.289 63.384,67.999 63.354,68.109C63.304,68.279 63.404,68.299 64.344,68.299C65.524,68.299 65.874,68.179 66.214,67.669C66.524,67.209 66.924,67.179 66.834,67.609L66.564,68.919C66.404,69.719 66.314,69.929 66.164,69.929C66.044,69.929 65.944,69.809 65.894,69.599C65.854,69.419 65.704,69.209 65.554,69.139C65.274,68.999 63.414,68.929 63.284,69.059C63.204,69.129 62.854,70.709 62.704,71.699C62.634,72.169 62.654,72.229 62.924,72.399C63.164,72.549 63.434,72.569 64.264,72.539C65.494,72.479 65.934,72.299 66.44,71.629C66.66,71.339 66.87,71.169 66.963,71.209C67.193,71.289 67.167,71.489 66.819,72.259C66.299,73.409 66.589,73.329 62.969,73.329C60.319,73.329 59.799,73.299 59.799,73.169L59.734,73.213ZM119.724,73.215C119.724,73.128 119.904,73.001 120.114,72.935C120.864,72.698 121.114,72.072 121.854,68.517C122.494,65.457 122.484,64.967 121.734,64.745C121.604,64.705 121.514,64.615 121.544,64.545C121.584,64.455 122.504,64.41 124.874,64.389C128.094,64.359 128.154,64.359 128.074,64.569C128.034,64.689 127.934,65.119 127.854,65.529C127.734,66.159 127.674,66.279 127.454,66.309C127.234,66.339 127.194,66.289 127.194,65.999C127.194,65.299 126.624,65.079 125.014,65.129L124.084,65.159L123.754,66.579C123.574,67.359 123.424,68.069 123.424,68.139C123.424,68.339 125.224,68.319 125.654,68.109C125.834,68.019 126.054,67.799 126.134,67.609C126.224,67.399 126.374,67.269 126.504,67.269C126.784,67.269 126.784,67.189 126.474,68.669C126.264,69.709 126.184,69.909 126.004,69.909C125.874,69.909 125.794,69.829 125.794,69.709C125.794,69.199 124.694,68.809 123.674,68.969L123.224,69.039L122.984,70.269C122.564,72.429 122.584,72.629 123.224,72.869C123.934,73.139 123.524,73.239 121.634,73.269C120.084,73.299 119.784,73.279 119.784,73.139L119.724,73.215ZM50.454,70.853C49.924,70.63 49.464,69.94 49.464,69.377C49.464,68.504 50.294,67.724 51.224,67.727C52.334,67.731 53.014,68.359 53.014,69.371C53.024,70.661 51.754,71.401 50.464,70.861L50.454,70.853ZM110.564,70.905C110.364,70.822 110.044,70.571 109.864,70.345C109.594,70.012 109.534,69.831 109.544,69.365C109.564,68.357 110.234,67.735 111.314,67.735C111.854,67.735 112.034,67.79 112.394,68.065C113.214,68.675 113.344,69.695 112.694,70.415C112.154,71.019 111.334,71.208 110.584,70.905L110.564,70.905ZM39.96,67C39.73,66.762 39.71,66.787 41.05,65.366L41.502,64.886L42.174,65.026C42.544,65.104 42.847,65.2 42.847,65.24C42.847,65.314 40.317,67.218 40.22,67.218C40.19,67.218 40.07,67.121 39.95,67.001L39.96,67ZM100.032,67L99.769,66.804L100.659,65.858C101.149,65.338 101.589,64.912 101.649,64.912C101.939,64.912 102.949,65.182 102.929,65.252C102.899,65.324 100.699,66.97 100.419,67.132C100.349,67.168 100.179,67.109 100.039,67.002L100.032,67ZM178.528,67.002L178.243,66.802L179.167,65.857C179.674,65.337 180.132,64.912 180.184,64.912C180.424,64.912 181.484,65.176 181.474,65.232C181.474,65.292 179.244,66.965 178.954,67.127C178.884,67.167 178.694,67.112 178.541,67.002L178.528,67.002ZM10.008,66.438C9.528,65.992 9.996,65.132 10.718,65.132C11.222,65.132 11.484,65.377 11.484,65.847C11.484,66.58 10.558,66.951 10.007,66.437L10.008,66.438ZM89.696,66.516C89.406,66.312 89.423,65.633 89.726,65.351C90.212,64.901 91.142,65.201 91.142,65.811C91.142,66.471 90.252,66.911 89.702,66.531L89.696,66.516ZM168.12,66.438C167.63,65.984 168.11,65.132 168.85,65.132C169.59,65.132 169.91,65.902 169.37,66.4C169.003,66.738 168.45,66.755 168.11,66.438L168.12,66.438ZM64.66,63.298C64.48,63.112 64.52,63.045 65.374,62.181L66.284,61.261L66.959,61.411C67.329,61.491 67.629,61.581 67.629,61.621C67.619,61.731 65.249,63.421 65.039,63.471C64.929,63.501 64.759,63.431 64.659,63.321L64.66,63.298Z" style="fill-rule:nonzero;"/>
                    <path d="M103.924,57.108L104.2,56.446C104.667,55.249 105.15,54.336 105.85,53.333C106.59,52.271 108.22,50.707 108.897,50.408C109.73,50.04 110.765,49.911 112.047,50.014C113.147,50.104 116.524,50.617 117.887,50.904C118.925,51.12 120.445,51.141 121.16,50.947C122.537,50.575 123.353,49.854 123.74,48.669C124.038,47.759 124.035,46.929 123.733,46.379C123.327,45.639 123.396,45.439 124.383,44.569C124.869,44.129 125.268,43.729 125.269,43.679C125.269,43.379 124.589,42.209 124.419,42.199C124.309,42.199 124.099,42.099 123.949,41.989L123.669,41.779L124.249,41.499C125.049,41.119 125.639,40.529 125.639,40.109C125.639,39.929 125.469,39.489 125.259,39.129C124.859,38.439 124.759,37.779 124.979,37.389C125.119,37.129 125.379,37.019 126.619,36.689C127.659,36.409 128.039,36.119 128.189,35.499C128.309,34.969 128.249,34.629 127.909,33.989C127.629,33.469 125.809,30.879 125.289,30.249C124.579,29.399 123.709,27.929 123.459,27.139C123.209,26.359 123.199,26.309 123.389,25.309C123.779,23.179 123.549,21.419 122.439,17.989C121.609,15.429 121.389,14.809 121.139,14.329C120.669,13.469 120.729,13.269 121.689,12.539C122.149,12.189 122.569,11.819 122.629,11.709C122.919,11.209 122.589,10.239 122.049,9.969C121.699,9.799 121.509,9.919 121.159,10.519C120.889,10.979 120.779,11.059 120.499,11.059C120.029,11.059 119.949,10.879 120.249,10.509C120.589,10.069 120.569,9.999 120.019,9.929C119.609,9.879 119.399,9.729 118.509,8.889C117.329,7.769 116.529,7.249 114.949,6.569C114.219,6.259 113.969,6.109 114.229,6.149C114.459,6.179 115.259,6.239 116.019,6.279C118.209,6.379 118.739,6.109 119.249,4.639C119.589,3.639 119.759,3.179 118.959,2.479L116.1,0L181.608,0L181.608,57.108L103.924,57.108Z" style="fill:rgb(226,1,28);fill-rule:nonzero;"/>
                    <path d="M48.063,57.108C47.588,57.062 47.176,57.042 47.147,57.015C47.097,56.969 47.634,56.648 50.093,55.255C50.883,54.807 51.207,54.567 51.097,54.512C51.007,54.468 50.32,54.398 49.567,54.356C48.449,54.296 48.125,54.312 47.797,54.453C47.574,54.548 46.689,54.797 45.829,55.007C43.689,55.527 42.979,55.885 42.289,56.767L42.029,57.107L0,57.107L0,0L83.406,0L81.79,0.98C80.9,1.392 79.866,1.963 79.492,2.25C78.224,3.22 76.515,5.432 76.089,6.655C75.929,7.105 75.789,7.272 75.309,7.578C74.569,8.044 73.689,8.932 72.959,9.944C71.969,11.318 70.079,14.414 69.709,15.272C69.129,16.604 69.179,17.619 70.029,21.6C70.399,23.353 70.799,25.134 70.919,25.557C71.039,25.98 71.169,26.697 71.209,27.15C71.279,27.96 71.339,28.135 71.849,29.128C71.989,29.4 72.099,29.708 72.099,29.814C72.099,29.92 72.199,30.067 72.329,30.144C72.459,30.221 72.559,30.399 72.559,30.557C72.559,30.747 72.829,31.109 73.419,31.712C74.769,33.092 75.749,34.386 75.749,34.795C75.749,35.131 75.219,35.218 74.359,35.022C73.359,34.792 72.539,34.298 71.279,33.158C70.739,32.673 70.309,32.348 70.309,32.434C70.309,32.52 70.669,32.971 71.119,33.434C72.009,34.36 72.149,34.612 71.959,34.947C71.789,35.241 71.379,35.327 70.819,35.184C70.169,35.019 69.799,35.249 69.899,35.741C69.959,36.051 69.949,36.081 69.759,36.021C69.399,35.891 68.599,35.741 67.889,35.671C67.229,35.611 67.179,35.581 66.789,35.071C66.489,34.681 66.249,34.501 65.939,34.421C64.769,34.121 61.849,33.641 59.899,33.441C56.459,33.091 55.629,33.061 53.979,33.251C52.709,33.391 52.369,33.481 51.679,33.801C50.449,34.381 48.319,36.201 48.319,36.671C48.319,36.891 48.789,36.821 49.319,36.511C50.939,35.581 56.509,34.261 59.239,34.161C60.589,34.111 60.519,34.171 58.889,34.451C58.439,34.531 57.379,34.781 56.529,35.021C55.679,35.261 54.209,35.621 53.269,35.831C52.329,36.031 51.259,36.301 50.909,36.421L50.259,36.641L51.259,36.651C56.379,36.701 62.199,38.211 64.579,40.101C65.599,40.911 65.969,41.011 67.469,40.861C69.529,40.661 72.189,39.751 73.359,38.841C73.869,38.451 74.279,38.291 74.279,38.501C74.279,38.861 73.609,40.791 73.319,41.261C72.999,41.801 72.979,41.871 73.149,41.991C73.249,42.061 73.309,42.151 73.269,42.181C73.229,42.221 73.309,42.281 73.449,42.321C73.839,42.441 73.739,42.551 73.119,42.691C72.519,42.841 72.039,43.091 72.039,43.261C72.039,43.321 72.119,43.371 72.219,43.371C72.519,43.371 72.299,43.571 71.899,43.651C71.629,43.711 71.579,43.751 71.699,43.821C71.819,43.891 71.819,43.921 71.709,43.921C71.629,43.921 71.559,44.031 71.559,44.171C71.559,44.341 71.439,44.461 71.199,44.561C70.609,44.811 70.769,44.941 71.579,44.871C71.989,44.831 72.239,44.831 72.139,44.871C72.039,44.901 71.379,45.181 70.669,45.491C69.949,45.791 69.019,46.161 68.599,46.301C68.119,46.461 67.819,46.621 67.789,46.741C67.749,46.931 67.969,46.921 68.529,46.721C68.629,46.681 68.719,46.701 68.719,46.751C68.719,46.801 67.489,47.461 65.989,48.221C64.479,48.981 63.079,49.761 62.859,49.951C62.639,50.151 62.369,50.311 62.239,50.311C62.119,50.311 61.959,50.441 61.879,50.591C61.649,51.061 61.689,51.121 62.239,51.031C63.049,50.901 63.429,50.911 63.479,51.061C63.509,51.141 63.429,51.201 63.299,51.201C63.169,51.201 63.009,51.271 62.929,51.361C62.849,51.451 62.649,51.541 62.479,51.551C62.269,51.581 62.079,51.711 61.919,51.941C61.789,52.131 61.579,52.321 61.449,52.351C61.319,52.381 61.502,52.391 61.859,52.361C67.169,51.991 68.159,51.811 70.302,50.801C72.128,49.941 74.022,48.651 75.372,47.371C75.762,47.001 76.122,46.701 76.172,46.701C76.355,46.701 76.255,47.311 75.985,47.861C75.515,48.801 74.535,49.661 72.515,50.911C71.495,51.541 70.395,52.141 70.069,52.231C69.055,52.531 67.419,52.851 65.699,53.081C60.106,53.831 57.965,54.401 55.845,55.711C55.487,55.921 55.115,56.091 55.015,56.071C54.915,56.061 54.645,56.191 54.425,56.371C53.795,56.881 54.255,56.791 55.575,56.161C56.935,55.511 57.565,55.411 56.495,56.011C55.185,56.751 54.195,57.221 53.215,57.221L48,57.221L48.063,57.108ZM41.115,50.738C41.327,50.655 42.029,50.288 42.675,49.924C43.322,49.56 44.089,49.16 44.382,49.037L46.212,48.267C47.709,47.639 49.907,47.047 50.032,47.237C50.077,47.303 50.405,47.377 50.762,47.4C51.259,47.432 51.346,47.462 51.142,47.53C50.996,47.577 50.876,47.66 50.876,47.714C50.876,47.912 51.981,47.854 52.446,47.629C52.629,47.539 53.041,47.439 53.362,47.399C53.762,47.349 53.946,47.279 53.946,47.169C53.946,47.039 54.048,47.019 54.408,47.079C54.905,47.159 55.972,46.969 58.848,46.299C60.793,45.839 62.268,45.379 63.563,44.829L64.5,44.429L63.563,43.869C61.278,42.509 58.983,41.669 53.946,40.359C53.069,40.129 52.299,39.889 52.234,39.829C52.156,39.759 52.194,39.749 52.352,39.799C52.855,39.969 53.238,39.999 53.238,39.869C53.238,39.709 52.858,39.579 52.11,39.479C51.427,39.389 50.986,39.199 51.46,39.199C52.195,39.199 50.932,38.759 49.518,38.539C48.471,38.369 48.411,38.329 48.848,38.129C49.228,37.959 49.638,37.309 49.531,37.049C49.441,36.819 49.331,36.849 48.761,37.199C47.671,37.879 46.671,38.999 46.111,40.159C45.791,40.819 45.901,40.879 47.551,40.949C48.911,40.999 48.931,41.009 48.581,41.179C48.391,41.269 48.001,41.389 47.711,41.429C46.751,41.559 46.221,41.989 46.701,42.239C46.841,42.309 46.791,42.369 46.441,42.529C46.051,42.699 46.031,42.739 46.211,42.829C46.331,42.889 46.671,42.919 46.971,42.899C47.391,42.869 47.581,42.909 47.781,43.069L48.041,43.279L47.521,43.579C47.231,43.749 46.911,44.049 46.801,44.239C46.691,44.429 46.301,44.889 45.921,45.259C45.551,45.629 45.241,46.009 45.241,46.109C45.241,46.199 44.701,46.689 44.031,47.179C42.241,48.509 41.461,49.249 41.461,49.599C41.461,49.789 41.361,49.949 41.181,50.059C40.621,50.399 40.331,50.789 40.641,50.789C40.711,50.789 40.941,50.719 41.151,50.639L41.115,50.738ZM54.928,49.454C55.37,49.399 55.883,49.271 56.066,49.17L56.4,48.986L55.83,48.722L55.26,48.458L54.692,48.672C54.379,48.79 53.946,48.949 53.73,49.025C52.858,49.332 52.745,49.745 53.562,49.631C53.872,49.591 54.485,49.511 54.928,49.461L54.928,49.454ZM34.935,44.456C37.565,41.896 39.423,40.376 41.78,38.856C42.58,38.34 43.146,38.041 43.174,38.119C43.25,38.329 43.594,38.269 44.152,37.939C44.794,37.559 45.115,37.169 45.916,35.829C46.746,34.429 47.062,34.079 48.261,33.219C48.831,32.819 49.651,32.209 50.101,31.879C50.751,31.399 50.901,31.319 50.851,31.509C50.811,31.649 50.841,31.749 50.931,31.749C51.201,31.749 52.471,31.239 52.511,31.119C52.581,30.919 51.301,30.719 50.351,30.779C49.621,30.819 49.371,30.899 48.461,31.349C46.341,32.419 44.801,33.569 41.871,36.299C39.761,38.259 38.101,39.579 37.261,39.949C36.991,40.069 36.781,40.329 36.451,40.949C35.811,42.169 34.651,43.919 33.561,45.339C32.531,46.679 32.311,47.139 33.111,46.279C33.391,45.989 34.221,45.149 34.971,44.419L34.935,44.456ZM61.267,56.48C64.427,55.868 64.777,55.822 66.994,55.732C69.484,55.63 69.802,55.57 71.3,54.915C71.78,54.705 71.968,54.667 72.035,54.765C72.151,54.938 72.965,54.525 74.552,53.49C75.202,53.067 76.119,52.525 76.592,52.287C77.305,51.927 77.522,51.867 77.866,51.927C78.232,51.99 78.341,51.947 78.808,51.567C80.104,50.504 81.21,50.013 82.315,50.01C82.645,50.01 82.758,50.054 82.758,50.185C82.758,50.297 82.823,50.339 82.935,50.299C83.265,50.179 83.115,50.309 82.269,50.899C81.289,51.569 81.379,51.779 82.379,51.129C83.339,50.509 83.349,50.509 83.349,50.759C83.349,50.899 82.979,51.259 82.309,51.779C80.779,52.959 79.699,53.939 78.059,55.629L76.589,57.099L57.9,57.099L61.265,56.469L61.267,56.48ZM61.297,34.108C61.411,34.08 61.597,34.08 61.71,34.108C61.824,34.136 61.73,34.158 61.504,34.158C61.276,34.158 61.184,34.136 61.297,34.108L61.297,34.108Z" style="fill:rgb(0,49,137);fill-rule:nonzero;"/>
                    <path d="M116.38,29.93C115.864,29.856 116.13,29.678 116.755,29.678C117.381,29.678 117.711,29.454 117.711,29.03C117.711,28.83 117.671,28.798 117.471,28.857C117.301,28.907 117.181,28.865 117.061,28.714C116.961,28.574 116.701,28.474 116.321,28.427C115.651,28.344 114.561,27.739 114.751,27.557C114.821,27.495 115.171,27.421 115.521,27.394C116.141,27.346 116.181,27.324 116.301,26.972C116.401,26.709 116.531,26.582 116.751,26.532C116.931,26.494 117.201,26.349 117.361,26.209C117.531,26.069 118.061,25.709 118.541,25.419C119.361,24.919 119.871,24.389 119.691,24.219C119.501,24.039 117.731,23.849 116.891,23.909C115.921,23.979 114.251,24.309 113.561,24.559C112.851,24.809 113.051,24.589 114.041,24.049C115.371,23.309 117.931,22.629 119.341,22.629C119.891,22.629 121.731,23.029 121.951,23.199C122.381,23.529 121.911,24.689 121.121,25.269L120.791,25.509L121.331,26.049L121.051,26.259C120.901,26.369 120.691,26.469 120.591,26.469C120.491,26.469 120.231,26.619 120.021,26.809C119.701,27.099 119.661,27.189 119.751,27.419C119.821,27.589 119.821,27.759 119.731,27.909C119.651,28.049 119.631,28.359 119.681,28.719C119.781,29.449 119.641,29.709 119.061,29.859C118.641,29.969 117.081,29.989 116.401,29.889L116.38,29.93Z" style="fill:rgb(127,127,127);fill-rule:nonzero;"/>
                </g>
            </g>
        </g>
    </g>
</svg>
