<svg viewBox="0 0 270 270" xmlns="http://www.w3.org/2000/svg"><path d="M99.4 151.2c0 7.1-5.8 12.9-12.9 12.9s-12.9-5.8-12.9-12.9 5.8-12.9 12.9-12.9h12.9zm6.5 0c0-7.1 5.8-12.9 12.9-12.9s12.9 5.8 12.9 12.9v32.3c0 7.1-5.8 12.9-12.9 12.9s-12.9-5.8-12.9-12.9z" fill="#e01e5a"/><path d="M118.8 99.4c-7.1 0-12.9-5.8-12.9-12.9s5.8-12.9 12.9-12.9 12.9 5.8 12.9 12.9v12.9zm0 6.5c7.1 0 12.9 5.8 12.9 12.9s-5.8 12.9-12.9 12.9H86.5c-7.1 0-12.9-5.8-12.9-12.9s5.8-12.9 12.9-12.9z" fill="#36c5f0"/><path d="M170.6 118.8c0-7.1 5.8-12.9 12.9-12.9s12.9 5.8 12.9 12.9-5.8 12.9-12.9 12.9h-12.9zm-6.5 0c0 7.1-5.8 12.9-12.9 12.9s-12.9-5.8-12.9-12.9V86.5c0-7.1 5.8-12.9 12.9-12.9s12.9 5.8 12.9 12.9z" fill="#2eb67d"/><path d="M151.2 170.6c7.1 0 12.9 5.8 12.9 12.9s-5.8 12.9-12.9 12.9-12.9-5.8-12.9-12.9v-12.9zm0-6.5c-7.1 0-12.9-5.8-12.9-12.9s5.8-12.9 12.9-12.9h32.3c7.1 0 12.9 5.8 12.9 12.9s-5.8 12.9-12.9 12.9z" fill="#ecb22e"/></svg>