<svg viewBox="0 0 400 400" xmlns="http://www.w3.org/2000/svg" fill-rule="evenodd" clip-rule="evenodd" stroke-linecap="round" stroke-linejoin="round" stroke-miterlimit="1.5"><circle cx="200" cy="200" r="140.946" fill="#c4f4ff"/><path d="M124.617 104.89c.838-42.002 34.294-75.836 75.383-75.836s74.545 33.834 75.383 75.836h.016v16.879a34.385 34.385 0 0 0 34.384 34.384h.001c-.001 45.082-49.152 81.628-109.784 81.628-60.632 0-109.784-36.546-109.784-81.628h.001c18.99 0 34.384-15.394 34.384-34.384V104.89h.016z" fill="#205081" stroke="#205081" stroke-width="5"/><path d="M119.482 219.806c.895-21.895 36.63-39.531 80.518-39.531s79.623 17.636 80.518 39.531h.017v53.442h-161.07v-53.442h.017z" fill="#fff" stroke="#205081" stroke-width="5"/><path d="M219.26 175.413c0-10.63-8.63-19.26-19.26-19.26s-19.26 8.63-19.26 19.26v5.136c0 10.63 8.63 19.26 19.26 19.26s19.26-8.63 19.26-19.26v-5.136z" fill="#c07c64" stroke="#205081" stroke-width="5"/><ellipse cx="200" cy="110.943" rx="55.355" ry="64.196" fill="#c07c64"/><clipPath id="a"><ellipse cx="200" cy="110.943" rx="55.355" ry="64.196"/></clipPath><g clip-path="url(#a)" fill="#205081" stroke="#205081" stroke-width="5"><ellipse cx="177.53" cy="116.466" rx="4.173" ry="7.041"/><ellipse cx="222.47" cy="116.466" rx="4.173" ry="7.041"/></g><ellipse cx="200" cy="110.943" rx="55.355" ry="64.196" fill="none" stroke="#205081" stroke-width="5"/><path d="M261.24 90.668c0-28.312-27.418-51.263-61.24-51.263s-61.24 22.951-61.24 51.263h122.48z" fill="#205081" stroke="#205081" stroke-width="5"/><path d="M303.364 230.337c0-6.824-5.541-12.364-12.365-12.364H109.001c-6.824 0-12.365 5.54-12.365 12.364v98.918c0 6.824 5.541 12.365 12.365 12.365h181.998c6.824 0 12.365-5.541 12.365-12.365v-98.918zM303.364 348.17a6.555 6.555 0 0 1-6.551 6.551H103.187a6.555 6.555 0 0 1-6.551-6.551 6.554 6.554 0 0 1 6.551-6.55h193.626a6.554 6.554 0 0 1 6.551 6.55z" fill="#ddd" stroke="#205081" stroke-width="5"/><path d="M186.302 146.779c1.295 3.759 7.031 6.467 13.698 6.467 6.667 0 12.403-2.708 13.698-6.467h-27.396z" fill="#205081" stroke="#205081" stroke-width="5"/></svg>