<svg clip-rule="evenodd" fill-rule="evenodd" stroke-linecap="round" stroke-linejoin="round" stroke-miterlimit="1.5" viewBox="0 0 400 400" xmlns="http://www.w3.org/2000/svg"><clipPath id="a"><path d="M206.136 244.645l-80.491-80.491c-4.738-4.737-4.178-12.99 1.249-18.417s13.679-5.987 18.417-1.249l40.754 40.753c-.39-3.005-.812-6.437 3.498-10.784 5.594-5.644 13.758-5.281 18.98-.06-.642-2.039-2.653-8.104 2.946-13.703 5.598-5.598 13.151-4.88 18.038.007-1.795-3.215-.184-9.95 2.992-13.126 5.415-5.415 14.461-4.634 19.188.093l30.548 30.547c17.039 23.825 14.407 50.208 8.264 66.604 0 0-4.42 4.192 0 0 5.632-5.342-24.144 22.188-24.144 22.188-17.895 12.246-34.729 13.484-47.015 12.431l-62.966-14.07c-6.976-.84-11.179-7.331-9.381-14.486 1.799-7.155 8.922-12.282 15.898-11.442z"/></clipPath><circle cx="200" cy="200" fill="#c4f4ff" r="140.946"/><path d="M206.05 119.162c-23.748-23.748-62.309-23.748-86.057 0s-23.748 62.309 0 86.057l40.057 40.058c23.748 23.748 62.309 23.748 86.058 0 23.748-23.749 23.748-62.31 0-86.058z" fill="#fff" stroke="#205081" stroke-width="5"/><path d="M206.136 244.645l-80.491-80.491c-4.738-4.737-4.178-12.99 1.249-18.417s13.679-5.987 18.417-1.249l40.754 40.753c-.39-3.005-.812-6.437 3.498-10.784 5.594-5.644 13.758-5.281 18.98-.06-.642-2.039-2.653-8.104 2.946-13.703 5.598-5.598 13.151-4.88 18.038.007-1.795-3.215-.184-9.95 2.992-13.126 5.415-5.415 14.461-4.634 19.188.093l30.548 30.547c17.039 23.825 14.407 50.208 8.264 66.604 0 0-4.42 4.192 0 0 5.632-5.342-24.144 22.188-24.144 22.188-17.895 12.246-34.729 13.484-47.015 12.431l-62.966-14.07c-6.976-.84-11.179-7.331-9.381-14.486 1.799-7.155 8.922-12.282 15.898-11.442z" fill="#ffdcc4"/><g stroke="#205081" stroke-width="5"><g clip-path="url(#a)" fill="none"><path d="M183.05 182.219l21.155 21.155m3.983-29.331l13.412 13.411m7.895-26.791l9.448 9.448"/></g><path d="M206.136 244.645l-80.491-80.491c-4.738-4.737-4.178-12.99 1.249-18.417s13.679-5.987 18.417-1.249l40.754 40.753c-.39-3.005-.812-6.437 3.498-10.784 5.594-5.644 13.758-5.281 18.98-.06-.642-2.039-2.653-8.104 2.946-13.703 5.598-5.598 13.151-4.88 18.038.007-1.795-3.215-.184-9.95 2.992-13.126 5.415-5.415 14.461-4.634 19.188.093l30.548 30.547c17.039 23.825 14.407 50.208 8.264 66.604 0 0-4.42 4.192 0 0 5.632-5.342-24.144 22.188-24.144 22.188-17.895 12.246-34.729 13.484-47.015 12.431l-62.966-14.07c-6.976-.84-11.179-7.331-9.381-14.486 1.799-7.155 8.922-12.282 15.898-11.442z" fill="none"/><path d="M304.16 229.246a7.717 7.717 0 0 0-10.908 0l-43.63 43.63a7.717 7.717 0 0 0 0 10.908l60.24 60.239a7.716 7.716 0 0 0 10.907 0l43.631-43.63a7.717 7.717 0 0 0 0-10.908z" fill="#205081"/><path d="M119.993 119.162l-5.597-5.597a19.905 19.905 0 0 1 0-28.151l3.648-3.648c5.154-5.154 5.154-13.511 0-18.665l-.001-.001a13.198 13.198 0 0 0-18.665 0L72.042 90.437c-9.928 9.927-26.023 9.927-35.95 0" fill="none"/></g></svg>