<svg viewBox="0 0 6259 3475" xmlns="http://www.w3.org/2000/svg" xml:space="preserve" fill-rule="evenodd" clip-rule="evenodd" stroke-linejoin="round" stroke-miterlimit="2">
  <path d="m434.212 3115.43 1.929-5.983c-25.663-4.821-28.942-4.821-18.717-32.8l10.421-28.746h28.363c12.733 0 12.929 5.208 10.995 19.1h7.334l16.979-46.5h-7.333c-6.367 10.996-11.384 19.1-25.275 19.1h-27.975l14.854-40.708c4.633-12.93 7.333-15.63 24.7-15.63h12.346c17.945 0 20.066 4.821 20.066 22.959h7.142l5.979-31.642H409.516l-1.929 5.979c20.641 4.246 22.575 6.175 12.925 32.804l-23.154 63.284c-9.646 26.433-13.696 28.558-37.43 32.8l-1.737 5.983h76.021Zm147.796-77.562c3.662-12.542 1.733-23.542-7.913-23.542-11.383 0-14.279 8.683-25.854 33.575v-14.279c0-10.225-3.279-19.296-12.542-19.296-10.804 0-20.646 16.787-28.171 33.379h5.017c5.208-7.525 10.033-11.962 13.892-11.962 4.633 0 7.141 7.141 0 22.962l-20.838 46.304c-3.858 8.684.192 14.279 8.684 14.279 5.208 0 7.525-1.35 9.645-6.945l20.455-54.217c5.787-7.142 10.995-13.313 17.558-20.258h20.067Zm93.766-27.98-8.104-.579-9.067 8.875h-1.929c-43.991 0-82.004 49.396-82.004 85.284 0 10.033 6.175 15.82 15.821 15.82 11.387 0 22.575-16.208 35.117-33.57l-.58 6.175c-1.541 17.749 3.863 27.395 13.121 27.395 10.804 0 20.646-16.787 28.171-33.379h-5.017c-5.208 7.525-10.033 11.963-13.891 11.963-4.05 0-6.946-7.334 0-22.959l28.362-65.025Zm-81.229 79.3c0-23.729 26.433-55.954 41.292-55.954 3.279 0 6.366.388 9.066 1.158l-15.437 41.096c-8.875 10.809-22.571 23.929-28.942 23.929-3.662 0-5.979-3.087-5.979-10.229m97.433-60.004h17.755l-28.171 76.983c-2.509 6.563.962 13.121 7.716 13.121 16.017 0 41.871-15.821 50.938-37.429h-5.017c-7.137 7.525-20.837 17.558-32.608 19.679l25.854-72.354h26.433l3.284-11h-25.663l9.838-27.783h-10.225l-18.329 27.783-21.805 3.088v7.912Zm125.996 52.867h-6.562c-8.296 9.841-17.171 17.558-26.046 17.558-9.071 0-13.7-5.404-13.7-17.558 0-5.017.579-10.034 1.546-14.663l53.446-17.558c10.416-24.7-2.125-35.504-16.788-35.504-25.275 0-54.025 42.254-54.025 79.3 0 16.596 7.913 25.662 20.258 25.662 14.471 0 29.521-14.083 41.871-37.237m-18.329-53.446c7.138 0 13.313 5.4 10.033 19.1l-33.187 7.721c5.787-15.438 15.433-26.821 23.154-26.821m118.467 9.262c3.666-12.541 1.737-23.541-7.909-23.541-11.387 0-14.279 8.683-25.858 33.575v-14.279c0-10.225-3.279-19.296-12.542-19.296-10.804 0-20.641 16.787-28.166 33.379h5.016c5.209-7.525 10.034-11.963 13.892-11.963 4.629 0 7.138 7.142 0 22.963l-20.837 46.304c-3.863 8.683.191 14.279 8.679 14.279 5.212 0 7.525-1.35 9.65-6.946l20.45-54.216c5.787-7.142 11-13.313 17.558-20.259h20.067Zm.383 67.142c-3.858 8.683.192 14.279 8.683 14.279 5.209 0 7.525-1.35 9.646-6.946l20.454-54.216c9.455-11.579 28.942-23.925 36.659-23.925 5.596 0 4.825 4.629 1.158 11.575l-31.45 60.391c-3.087 5.984.963 13.121 7.717 13.121 15.437 0 33.766-13.891 41.1-33.379h-5.017c-5.017 7.138-13.508 15.05-21.417 16.4l27.013-54.604c3.471-6.946 5.208-13.504 5.208-18.717 0-8.875-5.016-14.662-14.279-14.662-13.312 0-26.821 15.05-42.833 33.575v-14.279c0-10.225-3.279-19.296-12.542-19.296-5.787 0-11.383 5.016-16.592 12.154v1.933c10.034-.579 14.471 14.471 7.33 30.292l-20.838 46.304Zm169.983-118.079c6.946 0 12.734-5.596 12.734-12.738 0-6.945-5.788-12.733-12.734-12.733-7.137 0-12.733 5.788-12.733 12.733 0 7.142 5.596 12.738 12.733 12.738m-5.404 38.587c2.125-7.137-2.7-11.191-6.366-11.191-15.434 0-33.763 13.891-41.096 33.379h5.016c5.017-7.138 13.505-15.05 21.417-16.4l-29.521 76.792c-2.7 7.141 2.7 11.191 6.367 11.191 14.662 0 31.837-14.083 39.167-33.379h-5.017c-5.017 7.138-13.504 15.05-21.417 16.4l31.45-76.792Zm23.925 3.667h17.75l-28.171 76.983c-2.508 6.563.967 13.121 7.721 13.121 16.013 0 41.867-15.821 50.938-37.429h-5.017c-7.142 7.525-20.842 17.558-32.608 19.679l25.854-72.354h26.433l3.279-11h-25.662l9.842-27.783h-10.225l-18.33 27.783-21.804 3.088v7.912Zm115.379-24.696 37.625-35.116v-4.055h-20.262l-23.15 39.171h5.787Zm10.613 77.563h-6.563c-8.295 9.841-17.17 17.558-26.045 17.558-9.071 0-13.7-5.404-13.7-17.558 0-5.017.579-10.034 1.545-14.663l53.446-17.558c10.417-24.7-2.125-35.504-16.787-35.504-25.275 0-54.025 42.254-54.025 79.3 0 16.596 7.908 25.662 20.258 25.662 14.471 0 29.521-14.083 41.871-37.237m-18.329-53.446c7.137 0 13.312 5.4 10.033 19.1l-33.187 7.721c5.787-15.438 15.433-26.821 23.154-26.821M472.415 2723.94l37.625-25.854v-4.054h-22.767l-20.842 29.908h5.984Zm-15.438 80.846c12.738 0 12.929 5.208 11 19.1h7.333l16.98-46.5h-7.334c-6.366 11-11.383 19.1-25.275 19.1h-27.979l14.088-38.779c4.629-12.929 7.329-15.438 24.695-15.438l12.35.001c17.942-.001 20.063 4.825 20.063 22.766h7.142l5.979-31.642H409.515l-1.93 5.984c20.646 4.241 22.575 6.171 12.925 32.8l-23.15 63.283c-9.65 26.433-13.7 28.558-37.433 32.804l-1.737 5.979h118.47l21.225-33.57h-8.104c-13.508 12.733-30.487 24.887-54.221 24.887-31.45 0-28.554-1.35-18.133-30.1l11.188-30.675h28.362Zm134.871 82.579c0-12.35-10.996-16.787-28.942-22.187-15.437-4.634-22.383-5.984-22.383-11 0-4.05 3.283-8.875 9.842-12.346 25.275-1.354 41.675-24.121 41.675-43.221 0-4.054-.771-7.525-2.121-10.612h21.416l3.28-11h-33.959c-4.05-2.509-8.875-3.859-13.7-3.859-26.816 0-44.183 23.542-44.183 42.642 0 14.471 9.262 23.542 20.454 25.662-12.542 5.596-19.487 12.155-19.487 19.876 0 4.437 1.541 7.524 5.208 10.416-28.942 8.492-40.325 18.138-40.325 31.838 0 13.312 17.558 18.908 38.396 18.908 35.308 0 64.829-19.104 64.829-35.117m-41.871-52.866c-6.367 0-8.875-5.405-8.875-11.58 0-17.17 9.263-42.445 23.733-42.445 6.367 0 8.875 5.404 8.875 11.575 0 17.175-9.262 42.45-23.733 42.45m-39.937 62.321c0-10.225 9.841-16.592 23.925-22.188 4.629 2.313 11.575 4.821 20.837 7.908 14.663 4.825 20.258 6.755 20.258 11.192 0 9.454-16.012 16.596-37.816 16.596-18.329 0-27.204-3.863-27.204-13.508m196.416-128.117-8.104-.579-9.071 8.875h-1.929c-43.992 0-82 49.396-82 85.283 0 10.033 6.175 15.821 15.821 15.821 11.383 0 22.575-16.208 35.117-33.571l-.58 6.175c-1.541 17.75 3.859 27.396 13.121 27.396 10.804 0 20.646-16.783 28.171-33.379h-5.017c-5.212 7.525-10.033 11.962-13.891 11.962-4.054 0-6.946-7.329 0-22.958l28.362-65.025Zm-81.229 79.3c0-23.729 26.433-55.954 41.288-55.954 3.279 0 6.366.387 9.07 1.158l-15.437 41.1c-8.875 10.804-22.575 23.925-28.942 23.925-3.666 0-5.979-3.087-5.979-10.229m102.258 13.121 53.83-141.042-1.738-2.125-33.762 3.863v4.05l6.558 5.016c5.983 4.629 4.054 9.067-1.35 23.346l-42.063 110.75c-3.087 5.983.967 13.121 7.717 13.121 15.438 0 31.838-13.892 39.171-33.379h-5.017c-5.016 7.141-15.437 15.05-23.346 16.4m102.646-115.38c6.946 0 12.734-5.595 12.734-12.737 0-6.946-5.788-12.733-12.734-12.733-7.137 0-12.733 5.787-12.733 12.733 0 7.142 5.596 12.737 12.733 12.737m-5.404 38.588c2.125-7.138-2.7-11.192-6.367-11.192-15.433 0-33.766 13.892-41.095 33.379h5.016c5.017-7.137 13.504-15.05 21.417-16.4l-29.521 76.792c-2.7 7.142 2.7 11.192 6.367 11.192 14.662 0 31.837-14.084 39.166-33.379h-5.016c-5.017 7.141-13.504 15.05-21.417 16.4l31.45-76.792Zm23.925 3.667h17.75l-28.171 76.983c-2.508 6.562.967 13.121 7.721 13.121 16.013 0 41.867-15.821 50.938-37.429h-5.017c-7.142 7.525-20.842 17.558-32.608 19.679l25.854-72.354h26.433l3.279-11h-25.662l9.841-27.784h-10.225l-18.333 27.784-21.8 3.087v7.913Zm115.379-24.696 37.625-35.117v-4.054h-20.262l-23.15 39.171h5.787Zm10.613 77.562h-6.563c-8.296 9.842-17.171 17.559-26.046 17.559-9.07 0-13.7-5.405-13.7-17.559 0-5.016.58-10.033 1.542-14.662l53.446-17.559c10.421-24.7-2.121-35.504-16.783-35.504-25.275 0-54.025 42.254-54.025 79.3 0 16.596 7.908 25.663 20.258 25.663 14.471 0 29.521-14.084 41.871-37.238m-18.329-53.446c7.137 0 13.312 5.405 10.029 19.1l-33.184 7.721c5.788-15.437 15.434-26.821 23.155-26.821M479.361 2492.22h-70.233l-1.93 5.984c20.646 4.241 22.575 6.171 12.93 32.8l-22.767 63.283c-9.65 26.433-13.7 28.558-37.433 32.804l-1.738 5.979h106.892l23.154-41.291h-8.104c-13.121 14.471-28.554 32.608-52.288 32.608-17.946 0-20.066-3.087-10.421-30.1l22.771-63.283c9.454-26.434 13.696-28.559 37.429-32.8l1.738-5.984Zm77.754 12.35c6.946 0 12.733-5.595 12.733-12.737 0-6.946-5.787-12.733-12.733-12.733-7.137 0-12.733 5.787-12.733 12.733 0 7.142 5.596 12.737 12.733 12.737m-5.4 38.588c2.121-7.138-2.704-11.192-6.371-11.192-15.433 0-33.762 13.892-41.096 33.379h5.017c5.017-7.137 13.504-15.05 21.417-16.4l-29.521 76.792c-2.7 7.142 2.7 11.192 6.367 11.192 14.666 0 31.837-14.084 39.17-33.379h-5.016c-5.017 7.137-13.509 15.05-21.421 16.4l31.454-76.792Zm104.958 10.225c0-15.629-5.787-21.417-16.591-21.417-13.509 0-26.242 14.279-38.975 31.646l32.221-84.704-1.738-2.125-33.767 3.862v4.05l6.563 5.017c5.979 4.629 4.05 9.454-1.35 23.346l-34.733 89.529c-2.509 6.558-5.596 14.275-5.596 16.4 0 9.258 12.541 17.942 23.925 17.942 26.241 0 70.041-47.271 70.041-83.546m-60.779 67.917c-5.208 0-12.733-4.821-12.733-9.067 0-1.35 2.317-7.333 5.208-14.858l8.684-22.959c9.262-11 23.345-22.766 31.258-22.766 4.821 0 8.487 3.083 8.487 10.225 0 21.029-19.679 59.425-40.904 59.425m131.009-21.609h-6.559c-8.3 9.842-17.175 17.559-26.05 17.559-9.066 0-13.7-5.405-13.7-17.559 0-5.016.579-10.033 1.546-14.662l53.446-17.559c10.417-24.7-2.121-35.504-16.788-35.504-25.275 0-54.025 42.254-54.025 79.3 0 16.596 7.913 25.663 20.259 25.663 14.471 0 29.521-14.084 41.871-37.238m-18.33-53.446c7.138 0 13.313 5.405 10.034 19.1l-33.188 7.721c5.788-15.437 15.438-26.821 23.154-26.821m118.467 9.263c3.667-12.542 1.738-23.542-7.908-23.542-11.384 0-14.279 8.684-25.854 33.575v-14.279c0-10.225-3.284-19.296-12.542-19.296-10.804 0-20.646 16.788-28.171 33.379h5.017c5.208-7.525 10.033-11.962 13.891-11.962 4.63 0 7.138 7.142 0 22.962l-20.837 46.305c-3.858 8.683.192 14.279 8.683 14.279 5.209 0 7.525-1.35 9.646-6.946l20.454-54.217c5.788-7.137 10.996-13.312 17.554-20.258h20.067Zm13.892-8.683h14.083l-28.171 76.983c-2.508 6.562.967 13.121 7.721 13.121 16.013 0 41.867-15.821 50.938-37.429h-5.017c-7.142 7.525-20.838 17.558-32.608 19.679l25.854-72.354h26.433l3.279-11h-25.658l9.837-27.784h-10.225l-18.329 27.784-18.137 3.087v7.913Zm110.554-24.696 37.625-35.117v-4.054h-20.258l-23.155 39.171h5.788Zm10.612 77.562h-6.558c-8.3 9.842-17.175 17.559-26.05 17.559-9.067 0-13.7-5.405-13.7-17.559 0-5.016.579-10.033 1.546-14.662l53.446-17.559c10.416-24.7-2.121-35.504-16.788-35.504-25.275 0-54.025 42.254-54.025 79.3 0 16.596 7.913 25.663 20.259 25.663 14.47 0 29.52-14.084 41.87-37.238m-18.329-53.446c7.138 0 13.313 5.405 10.034 19.1l-33.188 7.721c5.788-15.437 15.438-26.821 23.154-26.821M363.31 882.003h66.387l62.671 106.804 62.675-106.804h66.379v259.596h-52.658V956.915l-57.854 95.68h-37.088l-57.85-95.68v184.684H363.31V882.003Z" fill-rule="nonzero"/>
  <path d="M697.425 882.004h52.663V1141.6h-52.663z"/>
  <path d="M826.473 882.003h67.496l116.079 185.796V882.003h52.658v259.596H995.21L879.135 955.061v186.538h-52.662V882.003Z" fill-rule="nonzero"/>
  <path d="M1139.08 882.004h52.662V1141.6h-52.662z"/>
  <path d="M1282.96 1070.4c15.575 20.025 36.346 31.891 57.483 31.891 20.767 0 33.379-11.125 33.379-30.037 0-46.358-118.675-35.971-118.675-122.379 0-41.167 33.746-75.288 83.071-75.288 38.938 0 68.975 17.434 90.859 43.763l-38.567 34.491c-15.208-19.658-32.267-32.266-51.921-32.266-18.175 0-30.037 11.866-30.037 27.075 0 46.354 118.67 35.6 118.67 123.491-.741 48.213-38.57 77.88-86.037 77.88-43.758 0-73.429-15.946-96.421-43.388l38.196-35.233ZM1457.62 882.003h212.871v47.837h-80.104v211.759h-52.658V929.84h-80.109v-47.837ZM1725 809.686h54.146l41.908 50.067h-48.217L1725 809.686Zm-4.45 72.317h151.308v44.871h-98.65v60.079h83.817v44.875h-83.817v64.9h98.65v44.871H1720.55V882.003ZM1989.4 926.876v64.9h29.671c22.25 0 35.229-11.867 35.229-33.008 0-19.655-12.979-31.892-35.229-31.892H1989.4Zm-52.662-44.875h79.367c57.108 0 92.341 29.3 92.341 77.512 0 31.15-15.204 54.513-41.533 67.121l81.587 114.967h-63.045l-68.98-104.954H1989.4v104.954h-52.662v-259.6ZM2184.82 882.003h151.309v44.875h-98.646v60.075h83.812v44.875h-83.812v64.9h98.646v44.871H2184.82V882.003ZM415.971 1309.01v163.916h50.067c48.212 0 83.07-35.97 83.07-81.958 0-46.358-34.858-81.958-83.071-81.958h-50.066Zm-52.663-47.838h101.988c82.329 0 137.954 59.704 137.954 129.796 0 70.092-55.625 129.8-137.954 129.8H363.308v-259.596ZM810.909 1261.17h52.663v157.983c0 68.237-40.054 109.029-105.325 109.029-64.896 0-104.946-40.792-104.946-109.029V1261.17h52.662v162.433c0 34.862 19.65 55.258 52.659 55.258 32.262 0 52.287-20.396 52.287-55.258V1261.17ZM1085.31 1306.04v64.899l35.233.001c22.25 0 35.6-11.867 35.6-33.009 0-19.654-13.35-31.891-35.6-31.891h-35.233Zm-52.663-44.875h85.671c57.113 0 91.971 29.3 91.971 77.512 0 47.838-34.858 77.133-91.971 77.133h-33.008v104.955h-52.663v-259.6ZM1370.85 1408.4l-35.604-97.533-35.6 97.533h71.204Zm-70.092-147.229h68.979l98.275 259.596h-55.996l-24.85-67.492h-103.837l-24.85 67.492h-55.996l98.275-259.596ZM1564.42 1306.04v64.899l29.671.001c22.25 0 35.229-11.867 35.229-33.009 0-19.654-12.979-31.891-35.229-31.891h-29.671Zm-52.662-44.875h79.367c57.108 0 92.341 29.3 92.341 77.512 0 31.15-15.204 54.513-41.533 67.121l81.587 114.967h-63.045l-68.98-104.955h-27.075v104.955h-52.662v-259.6ZM1721.65 1261.17h212.871v47.837h-80.104v211.758h-52.659v-211.758h-80.108v-47.837ZM1984.57 1261.17h151.309v44.875h-98.646v60.075h83.812v44.875h-83.812v64.9h98.646v44.87H1984.57V1261.17ZM2200.76 1261.17h67.496l116.079 185.795V1261.17h52.658v259.595h-67.496l-116.075-186.537v186.537h-52.662V1261.17ZM2649.1 1408.4l-35.604-97.533-35.6 97.533h71.204Zm-70.092-147.229h68.979l98.275 259.596h-55.995l-24.851-67.492h-103.837l-24.85 67.492h-55.996l98.275-259.596ZM2842.67 1306.04l-.001 64.899 29.671.001c22.25 0 35.23-11.867 35.23-33.009 0-19.654-12.98-31.891-35.23-31.891h-29.67Zm-52.663-44.875h79.367c57.108 0 92.341 29.3 92.341 77.512 0 31.15-15.204 54.513-41.533 67.121l81.588 114.967h-63.046l-68.98-104.955h-27.075v104.955h-52.662v-259.6Z" fill-rule="nonzero"/>
  <path d="M3038.09 1261.17h52.662v259.596h-52.662z"/>
  <path d="m3302.87 1408.4-35.604-97.533-35.6 97.533h71.204Zm-70.092-147.229h68.979l98.275 259.596h-55.996l-24.85-67.492h-103.837l-24.85 67.492h-55.996l98.275-259.596ZM3391.12 1261.17h212.871v47.837h-80.104v211.758h-52.658v-211.758h-80.109v-47.837ZM499.044 1787.57l-35.604-97.533-35.6 97.533h71.204Zm-70.092-147.225h68.979l98.275 259.596H540.21l-24.85-67.496H411.523l-24.85 67.496h-55.996l98.275-259.596ZM640.32 1640.34l76.767 202.854 76.77-202.854h55.996l-98.275 259.596h-68.983l-98.271-259.596h55.996ZM893.591 1640.34H1044.9v44.875h-98.646v60.071h83.812v44.875h-83.812v64.9h98.646v44.875H893.591V1640.34ZM1287.43 1822.43l41.537 31.892c-23.737 32.262-62.304 53.033-109.404 53.033-81.958 0-137.954-63.046-137.954-137.216 0-74.171 55.996-137.213 137.954-137.213 47.1 0 85.667 21.138 109.404 52.658l-41.537 32.263c-14.838-21.138-38.196-35.604-67.867-35.604-48.95 0-83.808 38.2-83.808 87.896s34.858 87.891 83.808 87.891c29.671 0 53.029-14.462 67.867-35.6M1478.39 1640.34h52.662v211.754h98.646v47.842H1478.39V1640.34ZM1679.75 1640.34h151.308v44.875h-98.646v60.071h83.813v44.875h-83.813v64.9h98.646v44.875H1679.75V1640.34ZM1910.78 1828.73c15.575 20.029 36.346 31.892 57.483 31.892 20.767 0 33.379-11.125 33.379-30.038 0-46.358-118.675-35.97-118.675-122.383 0-41.162 33.746-75.279 83.071-75.279 38.938 0 68.975 17.425 90.858 43.758l-38.566 34.488c-15.209-19.654-32.267-32.263-51.921-32.263-18.175 0-30.038 11.871-30.038 27.071 0 46.358 118.671 35.604 118.671 123.496-.741 48.212-38.571 77.879-86.037 77.879-43.759 0-73.429-15.946-96.421-43.392l38.196-35.229ZM2187.41 1640.34h212.87v47.838h-80.104v211.758h-52.658v-211.758h-80.108v-47.838ZM2450.33 1640.34h151.308v44.875h-98.646v60.071h83.813v44.875h-83.813v64.9h98.646v44.875H2450.33V1640.34ZM2719.19 1685.21v64.896h29.67c22.25 0 35.23-11.862 35.23-33.004 0-19.654-12.98-31.892-35.23-31.892h-29.67Zm-52.663-44.875h79.367c57.108 0 92.341 29.3 92.341 77.509 0 31.154-15.204 54.516-41.533 67.121l81.588 114.966h-63.046l-68.979-104.95h-27.075v104.95h-52.663v-259.596ZM2967.27 1685.21v64.896h29.671c22.25 0 35.229-11.862 35.229-33.004 0-19.654-12.979-31.892-35.229-31.892h-29.671Zm-52.663-44.875h79.367c57.108 0 92.342 29.3 92.342 77.509 0 31.154-15.204 54.516-41.534 67.121l81.588 114.966h-63.046l-68.979-104.95h-27.075v104.95h-52.663v-259.596Z" fill-rule="nonzero"/>
  <path d="M3162.7 1640.34h52.662v259.596H3162.7z"/>
  <path d="M3265.04 1640.34h212.871v47.838h-80.104v211.758h-52.658v-211.758h-80.109v-47.838ZM3715.24 1770.14c0-49.696-34.859-87.896-83.442-87.896-48.95 0-83.813 38.2-83.813 87.895 0 49.696 34.863 87.892 83.813 87.892 48.583 0 83.442-38.196 83.442-87.892m54.145 0c0 74.171-56 137.217-137.587 137.217-81.958 0-137.958-63.046-137.958-137.217 0-74.17 56-137.216 137.958-137.216 81.587 0 137.587 63.046 137.587 137.216" fill-rule="nonzero"/>
  <path d="M3823.52 1640.34h52.662v259.596h-52.662z"/>
  <path d="M4005.22 1685.21v64.896h29.671c22.25 0 35.229-11.862 35.229-33.004 0-19.654-12.979-31.892-35.229-31.892h-29.671Zm-52.662-44.875h79.367c57.108 0 92.341 29.3 92.341 77.509 0 31.154-15.204 54.516-41.533 67.121l81.587 114.966h-63.045l-68.98-104.95h-27.075v104.95h-52.662v-259.596ZM4200.65 1640.34h151.308v44.875h-98.645v60.071h83.812v44.875h-83.812v64.9h98.645v44.875H4200.65V1640.34ZM4431.67 1828.73c15.575 20.029 36.346 31.892 57.484 31.892 20.766 0 33.379-11.125 33.379-30.038 0-46.358-118.675-35.97-118.675-122.383 0-41.162 33.746-75.279 83.071-75.279 38.937 0 68.975 17.425 90.858 43.758l-38.567 34.488c-15.208-19.654-32.266-32.263-51.921-32.263-18.175 0-30.037 11.871-30.037 27.071 0 46.358 118.671 35.604 118.671 123.496-.742 48.212-38.571 77.879-86.038 77.879-43.758 0-73.429-15.946-96.421-43.392l38.196-35.229ZM363.31 2019.51h151.308v44.875h-98.646v60.07h83.813v44.875h-83.813v64.9h98.646v44.875H363.31V2019.51ZM558.366 2019.51h212.871v47.837h-80.104v211.758l-52.659.001v-211.759h-80.108v-47.837ZM974.064 2067.35v163.917h50.067c48.212 0 83.071-35.975 83.071-81.958 0-46.359-34.859-81.959-83.071-81.959h-50.067Zm-52.662-47.837h101.987c82.329 0 137.954 59.704 137.954 129.796 0 70.087-55.625 129.795-137.954 129.795H921.402v-259.591ZM1215.85 2019.51h151.308v44.875h-98.646v60.07h83.813v44.875h-83.813v64.9h98.646v44.875H1215.85V2019.51ZM1532.16 2019.51h52.662v211.754h98.646v47.841l-151.308.001V2019.51ZM1880.38 2166.73l-35.604-97.534-35.6 97.534h71.204Zm-70.092-147.225h68.98l98.275 259.595-55.996.001-24.85-67.496h-103.838l-24.85 67.495-55.996.001 98.275-259.596ZM2174.06 2067.35v163.917h50.067c48.212 0 83.071-35.975 83.071-81.958 0-46.359-34.859-81.959-83.071-81.959h-50.067Zm-52.662-47.837h101.987c82.329 0 137.954 59.704 137.954 129.796 0 70.087-55.625 129.795-137.954 129.795h-101.987v-259.591ZM2467.02 1997.25l41.908-50.066h54.142l-48.213 50.066h-47.837Zm-51.179 22.255h151.308v44.87h-98.65v60.075h83.817v44.875h-83.817v64.9h98.65v44.875h-151.308v-259.595ZM2809.68 2201.6l41.538 31.892c-23.738 32.262-62.304 53.033-109.404 53.033-81.959 0-137.955-63.046-137.955-137.217 0-74.17 55.996-137.212 137.955-137.212 47.1 0 85.666 21.137 109.404 52.658l-41.538 32.263c-14.837-21.138-38.196-35.604-67.866-35.604-48.95 0-83.809 38.2-83.809 87.895 0 49.696 34.859 87.892 83.809 87.892 29.67 0 53.029-14.462 67.866-35.6M2900.52 2019.51h151.308v44.875h-98.646v60.07h83.813v44.875h-83.813v64.9h98.646v44.875H2900.52V2019.51ZM3116.71 2019.51h67.495l116.08 185.795V2019.51h52.658v259.595l-67.496.001-116.075-186.542v186.541h-52.662V2019.51ZM3402.62 2019.51h212.871v47.837h-80.104v211.758l-52.658.001v-211.759h-80.109v-47.837ZM3718.2 2064.38v64.896h29.67c22.25 0 35.23-11.863 35.23-33.004 0-19.655-12.98-31.892-35.23-31.892h-29.67Zm-52.663-44.875h79.367c57.108 0 92.341 29.3 92.341 77.508 0 31.154-15.204 54.517-41.533 67.121l81.588 114.967h-63.046l-68.979-104.95H3718.2v104.95h-52.663v-259.596ZM4060.48 2166.73l-35.605-97.534-35.6 97.534h71.204Zm-70.091-147.225h68.979l98.275 259.595-55.996.001-24.85-67.496H3972.96l-24.85 67.495-55.996.001 98.275-259.596ZM4201.38 2019.51h52.662v211.754h98.646v47.841l-151.308.001V2019.51Z" fill-rule="nonzero"/>
  <path d="M4402.74 2019.51h52.662v259.596h-52.662z"/>
  <path d="M4546.63 2207.9c15.575 20.029 36.345 31.892 57.483 31.892 20.767 0 33.379-11.125 33.379-30.038 0-46.358-118.675-35.971-118.675-122.383 0-41.163 33.746-75.279 83.071-75.279 38.937 0 68.975 17.425 90.858 43.758l-38.566 34.487c-15.209-19.654-32.267-32.262-51.921-32.262-18.175 0-30.038 11.871-30.038 27.071 0 46.358 118.671 35.604 118.671 123.496-.742 48.212-38.571 77.879-86.037 77.879-43.759 0-73.43-15.946-96.421-43.392l38.196-35.229ZM4884.09 2166.73l-35.604-97.534-35.6 97.534h71.204Zm-70.092-147.225h68.98l98.275 259.595-55.996.001-24.85-67.496h-103.838l-24.85 67.495-55.996.001 98.275-259.596ZM4972.34 2019.51h212.871v47.837h-80.104v211.758l-52.659.001v-211.759h-80.108v-47.837Z" fill-rule="nonzero"/>
  <path d="M5235.26 2019.51h52.663v259.596h-52.663z"/>
  <path d="M5563.45 2149.3c0-49.696-34.858-87.896-83.442-87.896-48.95 0-83.812 38.2-83.812 87.896s34.862 87.892 83.812 87.892c48.584 0 83.442-38.196 83.442-87.892m54.146 0c0 74.171-56 137.217-137.588 137.217-81.958 0-137.958-63.046-137.958-137.217 0-74.171 56-137.217 137.958-137.217 81.588.001 137.588 63.046 137.588 137.217M5671.72 2019.51h67.496l116.079 185.795V2019.51h52.659v259.595l-67.496.001-116.075-186.542v186.541h-52.663V2019.51Z" fill-rule="nonzero"/>
  <path d="M626.245 598.955c-.659-.663 1.979 0 2.641-1.321h-5.283c-.658 0-.658-.662-.658-1.321-3.305.659-7.267 1.979-10.567 2.642-4.621 1.321-8.583 4.621-13.867 5.942-7.262 2.641-13.204 8.583-21.129 11.225-.662 0-.662-.659-.662-1.321.662-1.979 3.304-2.638 4.625-4.621 0-.658 0-1.321-.663-1.321 5.283-7.262 12.546-11.225 19.15-17.167v-1.983c1.979-2.642 5.283-3.962 6.604-7.262.659-1.98 3.3-4.621 6.604-5.942-.662-.663-1.983-.663-1.983-1.983-2.642 0-5.283 1.32-7.925-.659 1.233-1.233 2.646-1.908 4.142-2.346-.571-.116-1.079-.4-1.5-.958-.659-1.317 1.275-2.792 3.304-3.3 2.642-.658 5.942-.658 7.921-2.642-4.621-.658-9.904 1.321-14.525-1.32 3.3-8.584 8.583-15.846 16.508-19.809.658 0 1.979 0 1.979.659 0 3.304-1.979 5.945-5.283 6.604 5.283 1.321 10.567 1.321 15.85 3.962-.663 1.321-1.983.663-2.642.663 3.3 1.979 7.263.658 10.567 3.3-1.983 1.979-3.963 0-5.946 0 20.471 5.941 42.263 10.566 59.429 23.771-14.525 7.262-29.712 10.566-45.562 13.866-1.979 0-3.3 0-5.284-.658 0 .658 0 1.979-.658 1.979-2.642 0-4.621 0-6.6 1.321-2.646 1.321-6.608 1.979-8.587 0m-13.521 45.933c-.054.038-.113.075-.167.117-2.471 1.737-4.933 3.512-7.537 5.025-2.825 1.642-5.78 2.887-8.713 4.279a.62.62 0 0 0-.083-.162.874.874 0 0 0-1.117-.267c-2.5 1.354-4.625 3.137-6.646 5.062-.308.292-.612.592-.916.888a.351.351 0 0 0-.055.054.531.531 0 0 1-.054.05c-.312.308-.625.621-.937.933a3.76 3.76 0 0 0-.109.113c-.02.017-.025.037-.041.058-.471.467-.925.938-1.438 1.546-.329.388-.441.629-.883.921-.408.275-1.542.267-1.438-.492.005-.046 0-.087.009-.129-.392.204-.784.408-1.175.6-.363.171-.696.371-1.029.567a.999.999 0 0 0-.455-.067.837.837 0 0 0-.479.158 43.12 43.12 0 0 0-2.383 2.013 33.695 33.695 0 0 0-3.833 4.071l-.059.062c-.041.059-.087.121-.129.184a5.516 5.516 0 0 0-.196.254c-.071.091-.146.179-.212.271l-.063.083c-.158.217-.3.437-.45.658a.826.826 0 0 1-.025.038c-.112.125-.3.212-.541.262-.088-.133-.184-.262-.267-.396-.063-.104-.121-.212-.183-.316a15.96 15.96 0 0 1-.563-1.059c-.004-.016-.012-.029-.017-.041-.054-.109-.108-.217-.158-.329a49.223 49.223 0 0 0 2.071-2.375l.133-.159.688-.85c.371-.471.741-.941 1.104-1.412.133-.175.271-.35.404-.521a78.872 78.872 0 0 0 2.067-2.792.51.51 0 0 0 .046-.071 28.673 28.673 0 0 0 1.191-1.833c.259-.433.5-.871.725-1.317l.05-.1a1.98 1.98 0 0 0 .071-.137c.038-.079.071-.163.108-.246.234-.496.438-1.008.625-1.537.021-.059.042-.117.059-.171.05-.146.104-.288.15-.434.071-.237.141-.483.204-.729l.004-.004c.013-.05.021-.104.038-.158.079-.321.166-.634.229-.967a.662.662 0 0 0-.079-.446c.708-1.241 1.6-2.433 2.616-3.566-.1.062-.208.112-.304.175-.946.608-1.571 1.458-2.45 2.116-.721.538-2.046-.354-1.192-.991.58-.434 1.017-.904 1.5-1.359.025-.037.038-.075.071-.108 1.088-1.071 2.125-2.446 3.367-3.354.758-.554 1.417-1.017 2.033-1.546.096-.087.192-.175.288-.267.458-.604.958-1.154 1.479-1.662a.354.354 0 0 1 .067-.067c6.32-6.1 16.958-5.829 25.295-9.716 3.3-1.321 7.263.658 10.563 0 1.983 0 3.962 0 5.942 1.32-5.93 3.234-11.413 6.88-16.821 10.275m11.833 5.455c-.3.725-.971 1.35-1.629 1.929.825.166 1.404.533.871 1.021-1.534 1.408-2.992 2.816-5.004 3.491-.142.046-.542.109-1.017.138a75.591 75.591 0 0 1-2.463 2.308c-.783.696-4.412.192-3.304-.792 1.675-1.483 3.229-3.095 4.884-4.608.933-.85 1.916-1.671 2.745-2.629.459-.529.838-1.05 1.417-1.463.542-.379 4.033-.687 3.5.605m-30.667-98.93c-.662 1.321-1.391 1.459-1.983 2.642-.658 1.321-1.321 1.979-2.642 2.638-.658 0-1.32 0-1.32-.659.662-2.641 2.641-5.283 5.283-5.941.662 0 .662.658.662 1.32m-54.808 43.58s-.658-.659-.658-1.321c8.583-11.225 15.187-21.792 21.129-33.675 8.583-4.621 15.708-11.355 22.45-18.488 11.225-11.887 23.112-22.454 36.979-29.058 5.283-1.979 11.883-1.317 17.167.662-1.979 2.642-5.284 1.979-7.925 3.963-.659 0-1.321 0-1.979-.663.658-.658.658-1.321.658-1.979-6.6 7.263-15.846 10.567-21.129 19.15-3.963 6.604-6.604 15.188-15.188 17.167-2.641.662.663-1.979-.658-1.321-20.471 12.546-34.996 27.733-50.846 45.563m101.029 14.529c-1.321 0-3.962.658-3.3-.663.659-3.3 5.279-3.3 7.921-4.621 1.321-.662 3.304-1.983 4.625-1.321 1.321 1.98 3.3 1.321 4.621 2.642-3.963 3.963-9.246 1.979-13.867 3.963m101.546 47.3c3.75-3.75 7.533-7.775 11.3-11.817h-.083c7.016-7.942 13.891-15.512 22.025-22.479 2.479-2.213 4.883-4.167 7.179-5.742.662-.662.662-1.983 1.321-2.641-3.3 1.32-5.284 3.962-8.584 5.283-.658 0-1.32-.663-.658-1.321 2.35-1.767 4.704-3.529 7.054-5.292-.146.009-.3.009-.45.009-.662 0-.662-.659-.662-1.321-8.584-1.321-15.188 4.621-21.129 9.904-1.321.663-2.642-.658-3.305-.658-9.904 3.3-17.166 11.883-27.07 15.846v-1.321c-3.963 1.321-7.809 3.716-11.888 4.625-5.942 1.316-11.225.658-16.508.658-8 .8-16.004 2.563-24.009 4.275-.229.058-.462.113-.691.175-4.292 1.171-8.346 2.775-12.304 4.954-.155.084-.3.171-.45.259-.33.412-.65.808-.955 1.145-1.42 1.559-2.645 2.992-4.529 3.95-4.062 2.067-7.371 5.663-10.95 8.58-.258.212-.65.312-1.058.337-3.542 3.396-7.038 6.842-10.638 10.179-.254.238-1.275.367-2.012.242.017-.021.042-.033.054-.063.125-.208.254-.416.379-.629.559-.929 1.125-1.858 1.696-2.783a128.443 128.443 0 0 1 1.958-3.067 77.284 77.284 0 0 1 2.809-4.021c.258-.337.187-.641-.025-.866-.209-.221-.559-.346-.913-.342 3.296-3.196 7.209-5.925 11.084-8.275v-.112c-.442.154-1.08-.2-.746-.663.416-.587.746-1.208 1.137-1.804.075-.192.142-.392.213-.588-.167-.175-.338-.345-.5-.52-1.067.7-2.2 1.354-3.104 2.17-1.58 1.425-2.817 4.334-5.213 4.309-.158-.004-.625-.029-1.004-.146-.283-.05-.533-.129-.692-.233.029-.05.059-.105.084-.155l.1-.179c.033-.058.062-.117.095-.171.105-.191.209-.379.313-.571.108-.187.208-.379.317-.566.087-.154.166-.308.254-.458.158-.28.308-.563.466-.838.113-.2.234-.4.346-.6.284-.487.567-.971.854-1.454.134-.234.271-.471.409-.7.233-.4.462-.804.7-1.204.325-.546-.017-.996-.496-1.18a15.042 15.042 0 0 1 4.521-3.937h-.2c2.529-1.275 5.058-2.821 7.587-4.242.363-.316.721-.633 1.092-.946-3.771 1.267-7.158 2.98-10.504 5.188 0 0-.871.354-1.117.6 0 0-.758.283-1.646-.6a.78.78 0 0 1-.158-.488c.662-1.32 2.642-1.983 3.962-3.304.659 0 1.321 0 1.321.663 21.129-16.509 50.184-12.546 74.617-21.129 1.979-1.321 3.958-2.642 5.942-3.963 3.3-1.321 5.941-4.621 9.904-6.604 5.283-3.962 9.246-8.583 11.225-15.188 0-.658-.659-1.32-.659-1.32a101.686 101.686 0 0 1-29.054 21.791c-13.866 7.263-29.054 5.942-43.583 7.925.662-1.321 1.983-1.321 3.3-1.321 0-1.983 1.325-2.641 2.646-3.962h1.979c.658 0 .658-1.321 1.321-1.321 1.321 0 3.3-.662 2.641-.662-1.983-2.642-5.941 1.983-9.245 0 1.32-1.321.658-3.3 1.983-3.959h2.637c0-1.325 1.321-2.641 1.321-2.641 9.909-5.946 19.15-10.567 28.396-15.85-1.983 0-3.3 1.983-5.283.662 1.321 0 0-1.983 1.321-1.983 7.262-1.979 13.208-5.942 20.47-8.584-2.641 0-4.625 1.98-7.262 0 1.321-.662 1.979-1.979 3.958-1.979v-1.983c0-.658.663-.658 1.321-.658-.658 0-1.321-.663-1.321-.663.663-1.321 2.642-.658 3.963-1.979-.659 0-1.979 0-1.979-.663 1.979-2.641 5.283-3.3 8.583-3.962-.663-1.321-2.642 0-2.642-1.321 0-.658.663-.658 1.321-.658h-1.321c-1.321-.659-.658-1.984-.658-2.642 3.962-4.621 3.962-10.567 5.942-15.846-.663 0-1.321 0-1.321-.662-6.604 7.262-17.171 9.904-27.075 12.546h-3.3c-3.3 1.321-7.925 1.321-11.225-.659-2.642-1.321-3.963-3.304-6.604-5.283-5.284-3.3-10.567-5.942-16.509-7.925-16.504-5.283-33.675-7.921-50.841-7.263 7.262-3.962 15.275-4.299 23.108-6.604 11.229-3.3 21.792-7.262 33.675-6.604-1.979-.658-4.621 0-6.6 0-9.246-.658-18.492 1.984-28.396 3.963-6.6 1.321-12.546 3.962-19.146 5.283-3.962 1.321-5.946 5.283-10.566 4.621v-1.979c6.604-7.925 14.525-15.846 25.091-16.509 11.888-1.979 23.113 0 34.996 1.321 8.583.663 16.508 2.642 25.092 4.621 3.304 0 3.962 5.283 6.604 5.946 3.962 1.321 7.925 0 11.887 2.642 0-1.321-.662-2.642 0-3.963 2.638-2.642 5.942.658 8.584-.662 5.283-3.3-4.621-9.242-7.263-13.867 0-.658.659-1.321.659-1.321 5.283 4.625 9.245 9.904 15.845 13.208 3.305 1.321 11.23 3.3 9.909-.662-3.304-7.263-9.909-13.204-15.188-19.808v-2.642c-1.321 0-1.321-.658-1.983-1.321v-2.642c-2.642-1.32-1.979-3.962-3.3-5.941-1.979-3.3-.663-7.925-1.979-11.888-1.321-3.962-1.984-7.262-2.646-11.225-1.979-11.225-4.621-21.129-5.942-31.696-1.316-12.541 7.267-22.45 13.209-33.675 4.62-7.925 9.904-15.845 18.487-21.129 1.983-7.925 7.267-14.525 12.546-21.129 5.275-6.446 14.037-10.371 20.383-13.208 9.225-4.121 17.546-6.696 17.55-6.7H344.39V698.03h320.925c12.571-9.05 25.125-13.35 42.675-21.996 8.284-4.083 27.242-12.787 33.667-19.212" fill="#000091" fill-rule="nonzero"/>
  <path d="M1305.33 348.598H929.438c.005 0 .709.117 3.571 1.65 3.05 1.638 7 3.75 9.479 5.05 4.846 2.534 9.559 5.709 12.592 10.563 1.321 1.983 3.304 5.946 1.983 8.587-1.32 3.3-1.983 8.584-5.283 9.905-3.962 1.979-9.246 1.979-13.867 1.32-2.641 0-5.283-.662-7.925-1.32 9.905 3.962 19.15 8.583 25.755 17.829.658 1.321 3.3 1.979 5.941 1.979.663 0 .663 1.321.663 1.979-1.325 1.325-2.642 1.983-1.984 3.963h1.984c3.3-1.321 2.637-7.921 7.262-5.942 3.3 1.979 4.621 6.604 2.642 9.904-2.642 2.642-5.283 4.625-7.925 6.604-.658 1.321-.658 3.3 0 4.621 1.979 2.642 2.642 5.283 3.3 7.925 1.983 4.621 2.642 9.904 4.625 14.525 2.642 9.908 5.279 19.813 4.621 29.717 0 5.283-2.642 9.904-.663 15.187 1.321 5.284 4.625 9.246 7.267 13.867 2.637 3.962 5.283 6.604 7.262 10.567 3.963 6.6 11.225 13.204 7.925 21.129-1.983 4.621-9.245 3.962-13.866 6.604-3.963 3.3-.663 8.583 1.316 11.883 3.305 5.942-3.958 9.904-8.583 11.888 1.321 1.979 3.963 1.321 4.625 2.641.658 3.3 3.958 5.28 1.979 8.584-2.641 3.962-10.562 5.941-6.604 11.883 2.642 4.625.933 9.758-.658 14.529-1.979 5.942-7.263 8.584-11.888 9.904-3.962 1.321-8.583 1.321-12.546.659-1.316-.659-2.637-1.317-3.958-1.317-11.229-1.325-22.454-4.625-33.679-4.625-3.3.663-6.604 1.321-9.242 2.642a58.42 58.42 0 0 0-7.996 7.071c-.025.025-.05.054-.079.083a56.504 56.504 0 0 0-1.437 1.6 38.56 38.56 0 0 0-.85 1.012c-.192.225-.379.455-.563.684a62.463 62.463 0 0 0-5.2 7.608l-.291.504a63.303 63.303 0 0 0-5.509 13.042c-4.491 15.121-2.529 28.092.625 31.242.875.879 21.792 7.337 36.363 13.816 6.837 3.042 11.616 5.388 15.587 7.888h369.121V348.598Z" fill="#e1000f" fill-rule="nonzero"/>
  <path d="M951.798 476.075c2.642.658 6.604.658 6.604 1.979-1.321 5.283-9.25 6.604-13.208 11.887h-1.984c-1.979 1.321-1.32 4.625-3.3 4.625-1.983-.662-3.966 0-5.941.659 2.641 2.641 5.941 4.625 9.904 3.962.662 0 1.979 1.321 1.979 2.642 0 0 .658 0 1.321-.663.662 0 1.325 0 1.325.663v2.641c-1.988 2.642-5.288 1.317-7.929 1.984 5.283 1.316 10.571 1.316 15.187 0 3.963-1.321 0-7.929 2.646-11.229-1.321 0 0-1.98-1.321-1.98 1.321-1.32 2.638-3.304 3.959-3.962 1.325 0 3.304-.663 3.962-1.983 0-1.317-2.637-1.98-1.979-3.305 3.962-2.637 7.262-6.6 5.946-10.562-.663-1.979-5.946-1.979-9.25-3.3-3.3-1.321-7.263 0-11.221.658-3.304 0-6.608 1.984-9.908 2.642-4.621 1.321-8.584 3.962-12.546 6.604 4.625-1.983 9.246-2.642 14.525-3.962 3.966 0 7.329-.975 11.229 0" fill="#9d9d9c" fill-rule="nonzero"/>
</svg>
