<?xml version="1.0" encoding="UTF-8" standalone="no"?><!DOCTYPE svg PUBLIC "-//W3C//DTD SVG 1.1//EN" "http://www.w3.org/Graphics/SVG/1.1/DTD/svg11.dtd"><svg width="100%" height="100%" viewBox="0 0 5696 3459" version="1.1" xmlns="http://www.w3.org/2000/svg" xmlns:xlink="http://www.w3.org/1999/xlink" xml:space="preserve" xmlns:serif="http://www.serif.com/" style="fill-rule:evenodd;clip-rule:evenodd;stroke-linejoin:round;stroke-miterlimit:2;"><g><path d="M425.879,3107.1l1.929,-5.979c-25.662,-4.825 -28.946,-4.825 -18.716,-32.805l10.42,-28.745l28.363,-0c12.733,-0 12.925,5.208 10.996,19.1l7.333,-0l16.979,-46.5l-7.333,-0c-6.367,11 -11.383,19.104 -25.275,19.104l-27.975,-0l14.854,-40.713c4.633,-12.929 7.334,-15.629 24.696,-15.629l12.35,0c17.946,0 20.067,4.825 20.067,22.958l7.137,0l5.984,-31.641l-106.509,-0l-1.929,5.983c20.646,4.242 22.575,6.171 12.929,32.8l-23.154,63.283c-9.65,26.438 -13.7,28.559 -37.433,32.805l-1.738,5.979l76.025,-0Zm147.792,-77.563c3.667,-12.541 1.737,-23.541 -7.908,-23.541c-11.384,-0 -14.28,8.683 -25.855,33.575l0,-14.279c0,-10.226 -3.287,-19.296 -12.541,-19.296c-10.809,-0 -20.646,16.787 -28.171,33.379l5.017,-0c5.208,-7.525 10.033,-11.963 13.891,-11.963c4.629,0 7.138,7.142 0,22.963l-20.837,46.308c-3.859,8.679 0.191,14.275 8.683,14.275c5.208,0 7.525,-1.35 9.646,-6.946l20.45,-54.216c5.792,-7.138 11,-13.313 17.558,-20.259l20.067,0Zm93.771,-27.979l-8.105,-0.579l-9.066,8.875l-1.929,-0c-43.992,-0 -82.004,49.396 -82.004,85.283c-0,10.034 6.174,15.821 15.82,15.821c11.384,0 22.575,-16.204 35.117,-33.571l-0.579,6.175c-1.542,17.75 3.858,27.396 13.121,27.396c10.804,0 20.645,-16.783 28.171,-33.379l-5.017,-0c-5.209,7.525 -10.034,11.962 -13.892,11.962c-4.054,0 -6.946,-7.329 0,-22.958l28.363,-65.025Zm-81.23,79.3c0,-23.729 26.434,-55.954 41.288,-55.954c3.283,-0 6.367,0.388 9.071,1.158l-15.438,41.1c-8.875,10.804 -22.575,23.925 -28.941,23.925c-3.667,0 -5.98,-3.087 -5.98,-10.229Zm97.434,-60.004l17.75,-0l-28.167,76.983c-2.508,6.563 0.963,13.121 7.717,13.121c16.012,0 41.867,-15.821 50.937,-37.429l-5.016,0c-7.138,7.525 -20.838,17.558 -32.609,19.679l25.854,-72.354l26.434,-0l3.279,-11l-25.658,-0l9.837,-27.783l-10.225,-0l-18.329,27.783l-21.804,3.088l-0,7.912Zm125.996,52.867l-6.563,-0c-8.296,9.841 -17.171,17.558 -26.046,17.558c-9.07,-0 -13.7,-5.404 -13.7,-17.558c0,-5.017 0.58,-10.034 1.542,-14.663l53.446,-17.558c10.421,-24.696 -2.121,-35.504 -16.783,-35.504c-25.28,-0 -54.026,42.258 -54.026,79.3c0,16.596 7.909,25.662 20.259,25.662c14.471,0 29.521,-14.083 41.871,-37.237Zm-18.334,-53.446c7.142,-0 13.317,5.404 10.034,19.1l-33.184,7.721c5.788,-15.438 15.434,-26.821 23.15,-26.821Zm118.471,9.262c3.667,-12.541 1.738,-23.541 -7.912,-23.541c-11.384,-0 -14.275,8.683 -25.855,33.575l0,-14.279c0,-10.226 -3.279,-19.296 -12.541,-19.296c-10.804,-0 -20.646,16.787 -28.171,33.379l5.017,-0c5.212,-7.525 10.033,-11.963 13.891,-11.963c4.634,0 7.142,7.142 0,22.963l-20.837,46.308c-3.859,8.679 0.196,14.275 8.683,14.275c5.209,0 7.525,-1.35 9.646,-6.946l20.454,-54.216c5.788,-7.138 10.996,-13.313 17.559,-20.259l20.066,0Zm0.383,67.146c-3.858,8.679 0.192,14.275 8.684,14.275c5.208,0 7.525,-1.35 9.646,-6.946l20.454,-54.216c9.454,-11.575 28.941,-23.925 36.658,-23.925c5.596,-0 4.825,4.629 1.158,11.575l-31.45,60.391c-3.087,5.984 0.963,13.121 7.717,13.121c15.438,0 33.767,-13.892 41.096,-33.379l-5.017,-0c-5.016,7.142 -13.504,15.05 -21.416,16.4l27.012,-54.604c3.475,-6.946 5.213,-13.504 5.213,-18.713c-0,-8.875 -5.017,-14.666 -14.279,-14.666c-13.313,-0 -26.821,15.05 -42.834,33.575l0,-14.279c0,-10.226 -3.279,-19.296 -12.542,-19.296c-5.787,-0 -11.383,5.016 -16.595,12.158l-0,1.929c10.033,-0.579 14.47,14.471 7.333,30.292l-20.838,46.308Zm169.98,-118.083c6.95,-0 12.737,-5.596 12.737,-12.738c0,-6.946 -5.787,-12.733 -12.737,-12.733c-7.138,-0 -12.734,5.787 -12.734,12.733c0,7.142 5.596,12.738 12.734,12.738Zm-5.404,38.587c2.129,-7.137 -2.696,-11.191 -6.363,-11.191c-15.437,-0 -33.767,13.891 -41.096,33.379l5.017,-0c5.017,-7.138 13.504,-15.05 21.417,-16.4l-29.521,76.796c-2.705,7.137 2.7,11.187 6.366,11.187c14.663,0 31.834,-14.083 39.167,-33.379l-5.017,-0c-5.016,7.142 -13.504,15.05 -21.416,16.4l31.446,-76.792Zm23.929,3.667l17.75,-0l-28.175,76.983c-2.505,6.563 0.971,13.121 7.721,13.121c16.016,0 41.87,-15.821 50.937,-37.429l-5.017,0c-7.137,7.525 -20.837,17.558 -32.604,19.679l25.854,-72.354l26.434,-0l3.279,-11l-25.663,-0l9.842,-27.783l-10.229,-0l-18.329,27.783l-21.8,3.088l-0,7.912Zm115.379,-24.696l37.621,-35.116l-0,-4.055l-20.259,0l-23.154,39.171l5.792,0Zm10.608,77.563l-6.558,-0c-8.296,9.841 -17.171,17.558 -26.046,17.558c-9.071,-0 -13.7,-5.404 -13.7,-17.558c-0,-5.017 0.579,-10.034 1.542,-14.663l53.446,-17.558c10.42,-24.696 -2.121,-35.504 -16.784,-35.504c-25.279,-0 -54.025,42.258 -54.025,79.3c0,16.596 7.908,25.662 20.258,25.662c14.471,0 29.521,-14.083 41.867,-37.237Zm-18.329,-53.446c7.142,-0 13.317,5.404 10.033,19.1l-33.183,7.721c5.788,-15.438 15.433,-26.821 23.15,-26.821Z" style="fill:#111517;fill-rule:nonzero;"/><path d="M464.083,2715.61l37.621,-25.854l0,-4.05l-22.767,0l-20.837,29.904l5.983,0Zm-15.437,80.846c12.733,0 12.929,5.209 10.996,19.1l7.333,0l16.979,-46.5l-7.333,0c-6.367,11 -11.384,19.104 -25.275,19.104l-27.975,0l14.083,-38.783c4.633,-12.925 7.334,-15.433 24.696,-15.433l12.35,-0c17.946,-0 20.067,4.82 20.067,22.766l7.137,0l5.984,-31.646l-106.509,0l-1.929,5.984c20.646,4.246 22.575,6.175 12.929,32.8l-23.154,63.287c-9.65,26.434 -13.7,28.555 -37.433,32.8l-1.738,5.98l118.471,-0l21.225,-33.571l-8.104,-0c-13.504,12.733 -30.483,24.891 -54.217,24.891c-31.454,0 -28.558,-1.35 -18.137,-30.1l11.191,-30.679l28.363,0Zm134.871,82.579c-0,-12.345 -11,-16.783 -28.946,-22.187c-15.433,-4.629 -22.379,-5.979 -22.379,-10.996c-0,-4.054 3.279,-8.879 9.841,-12.35c25.275,-1.35 41.675,-24.117 41.675,-43.221c0,-4.05 -0.771,-7.525 -2.125,-10.612l21.421,-0l3.279,-10.996l-33.958,-0c-4.054,-2.509 -8.875,-3.859 -13.7,-3.859c-26.821,0 -44.183,23.538 -44.183,42.638c-0,14.475 9.258,23.542 20.446,25.663c-12.538,5.595 -19.484,12.158 -19.484,19.874c0,4.438 1.546,7.525 5.208,10.417c-28.941,8.492 -40.325,18.138 -40.325,31.838c0,13.312 17.559,18.908 38.396,18.908c35.313,-0 64.834,-19.1 64.834,-35.117Zm-41.875,-52.866c-6.367,-0 -8.871,-5.4 -8.871,-11.575c-0,-17.171 9.262,-42.45 23.733,-42.45c6.367,-0 8.875,5.404 8.875,11.579c0,17.171 -9.262,42.446 -23.737,42.446Zm-39.938,62.32c0,-10.224 9.842,-16.591 23.925,-22.187c4.634,2.317 11.575,4.825 20.842,7.913c14.662,4.82 20.258,6.749 20.258,11.187c0,9.458 -16.016,16.596 -37.816,16.596c-18.33,-0 -27.209,-3.859 -27.209,-13.509Zm196.417,-128.112l-8.104,-0.579l-9.067,8.875l-1.929,-0c-43.992,-0 -82.004,49.392 -82.004,85.279c-0,10.033 6.175,15.825 15.825,15.825c11.383,0 22.575,-16.208 35.112,-33.575l-0.575,6.175c-1.546,17.75 3.858,27.4 13.117,27.4c10.808,0 20.646,-16.788 28.171,-33.379l-5.017,-0c-5.208,7.521 -10.033,11.962 -13.892,11.962c-4.05,0 -6.946,-7.333 0,-22.962l28.363,-65.021Zm-81.229,79.3c-0,-23.733 26.433,-55.954 41.291,-55.954c3.28,-0 6.367,0.383 9.067,1.158l-15.433,41.096c-8.875,10.804 -22.575,23.925 -28.942,23.925c-3.667,-0 -5.983,-3.087 -5.983,-10.225Zm102.258,13.121l53.833,-141.046l-1.737,-2.121l-33.767,3.858l0,4.05l6.563,5.017c5.979,4.633 4.05,9.071 -1.35,23.35l-42.063,110.75c-3.087,5.979 0.963,13.121 7.717,13.121c15.437,0 31.837,-13.892 39.166,-33.379l-5.016,-0c-5.017,7.137 -15.434,15.046 -23.346,16.4Zm102.646,-115.383c6.95,-0 12.737,-5.596 12.737,-12.734c0,-6.946 -5.787,-12.733 -12.737,-12.733c-7.138,-0 -12.733,5.787 -12.733,12.733c-0,7.138 5.595,12.734 12.733,12.734Zm-5.4,38.587c2.121,-7.138 -2.7,-11.188 -6.367,-11.188c-15.437,0 -33.767,13.892 -41.1,33.38l5.017,-0c5.017,-7.142 13.508,-15.05 21.416,-16.4l-29.52,76.791c-2.7,7.138 2.704,11.192 6.37,11.192c14.663,0 31.834,-14.087 39.167,-33.379l-5.017,-0c-5.016,7.137 -13.508,15.046 -21.416,16.4l31.45,-76.796Zm23.921,3.667l17.754,-0l-28.171,76.987c-2.508,6.559 0.962,13.121 7.717,13.121c16.016,0 41.87,-15.825 50.937,-37.433l-5.017,-0c-7.137,7.525 -20.837,17.558 -32.608,19.679l25.854,-72.354l26.434,-0l3.283,-10.996l-25.662,-0l9.837,-27.783l-10.225,-0l-18.329,27.783l-21.804,3.087l-0,7.909Zm115.379,-24.696l37.625,-35.117l-0,-4.05l-20.258,0l-23.155,39.167l5.788,-0Zm10.612,77.562l-6.558,0c-8.296,9.842 -17.175,17.559 -26.05,17.559c-9.067,-0 -13.696,-5.4 -13.696,-17.559c0,-5.016 0.575,-10.033 1.542,-14.662l53.446,-17.559c10.42,-24.695 -2.121,-35.5 -16.788,-35.5c-25.275,0 -54.025,42.255 -54.025,79.301c0,16.591 7.913,25.662 20.263,25.662c14.471,0 29.521,-14.087 41.866,-37.242Zm-18.329,-53.445c7.138,-0 13.313,5.404 10.034,19.104l-33.188,7.716c5.788,-15.437 15.437,-26.82 23.154,-26.82Z" style="fill:#111517;fill-rule:nonzero;"/><path d="M471.029,2483.88l-70.237,0l-1.93,5.98c20.65,4.245 22.58,6.174 12.93,32.799l-22.767,63.288c-9.65,26.433 -13.7,28.558 -37.433,32.8l-1.738,5.983l106.896,0l23.154,-41.291l-8.104,-0c-13.121,14.47 -28.558,32.608 -52.288,32.608c-17.945,0 -20.07,-3.088 -10.42,-30.1l22.766,-63.288c9.455,-26.433 13.7,-28.554 37.434,-32.799l1.737,-5.98Zm77.754,12.346c6.946,0 12.734,-5.596 12.734,-12.733c-0,-6.946 -5.788,-12.733 -12.734,-12.733c-7.141,-0 -12.737,5.787 -12.737,12.733c-0,7.137 5.596,12.733 12.737,12.733Zm-5.408,38.592c2.125,-7.142 -2.696,-11.192 -6.367,-11.192c-15.433,0 -33.762,13.892 -41.091,33.379l5.016,0c5.017,-7.137 13.504,-15.05 21.417,-16.4l-29.521,76.792c-2.704,7.138 2.7,11.192 6.367,11.192c14.662,-0 31.833,-14.084 39.167,-33.38l-5.017,0c-5.017,7.138 -13.504,15.05 -21.417,16.401l31.446,-76.792Zm104.967,10.225c-0,-15.629 -5.792,-21.417 -16.596,-21.417c-13.504,0 -26.242,14.279 -38.975,31.642l32.221,-84.7l-1.734,-2.125l-33.766,3.858l-0,4.054l6.558,5.017c5.983,4.629 4.054,9.454 -1.35,23.346l-34.729,89.525c-2.508,6.562 -5.596,14.279 -5.596,16.4c0,9.262 12.542,17.946 23.925,17.946c26.242,-0 70.042,-47.271 70.042,-83.546Zm-60.78,67.916c-5.208,0 -12.733,-4.824 -12.733,-9.066c0,-1.35 2.313,-7.333 5.208,-14.858l8.684,-22.963c9.258,-10.996 23.346,-22.767 31.254,-22.767c4.825,0 8.492,3.088 8.492,10.229c-0,21.03 -19.68,59.425 -40.905,59.425Zm131.009,-21.608l-6.563,0c-8.295,9.838 -17.17,17.559 -26.046,17.559c-9.07,-0 -13.699,-5.405 -13.699,-17.559c-0,-5.017 0.579,-10.033 1.541,-14.667l53.446,-17.558c10.421,-24.696 -2.121,-35.5 -16.783,-35.5c-25.275,0 -54.025,42.254 -54.025,79.3c-0,16.596 7.908,25.663 20.258,25.663c14.471,-0 29.521,-14.084 41.871,-37.238Zm-18.329,-53.446c7.137,0 13.312,5.4 10.029,19.1l-33.183,7.717c5.787,-15.433 15.433,-26.817 23.154,-26.817Zm118.466,9.259c3.667,-12.542 1.738,-23.538 -7.912,-23.538c-11.384,0 -14.275,8.684 -25.854,33.571l-0,-14.275c-0,-10.229 -3.28,-19.296 -12.542,-19.296c-10.804,0 -20.646,16.788 -28.171,33.379l5.017,0c5.212,-7.525 10.033,-11.962 13.896,-11.962c4.629,-0 7.137,7.137 -0,22.962l-20.842,46.304c-3.858,8.684 0.196,14.28 8.683,14.28c5.213,-0 7.525,-1.35 9.65,-6.946l20.45,-54.217c5.788,-7.142 11,-13.317 17.559,-20.262l20.066,-0Zm13.888,-8.68l14.087,0l-28.171,76.984c-2.508,6.562 0.967,13.121 7.717,13.121c16.017,-0 41.871,-15.821 50.938,-37.434l-5.017,0c-7.138,7.525 -20.837,17.559 -32.604,19.684l25.854,-72.355l26.433,0l3.279,-10.999l-25.662,-0l9.842,-27.784l-10.225,0l-18.334,27.784l-18.137,3.087l-0,7.912Zm110.558,-24.699l37.625,-35.117l0,-4.05l-20.262,-0l-23.15,39.167l5.787,-0Zm10.613,77.566l-6.563,0c-8.296,9.838 -17.171,17.559 -26.046,17.559c-9.07,-0 -13.7,-5.405 -13.7,-17.559c0,-5.017 0.58,-10.033 1.542,-14.667l53.446,-17.558c10.421,-24.696 -2.121,-35.5 -16.784,-35.5c-25.274,0 -54.025,42.254 -54.025,79.3c0,16.596 7.909,25.663 20.259,25.663c14.471,-0 29.521,-14.084 41.871,-37.238Zm-18.329,-53.446c7.137,0 13.312,5.4 10.029,19.1l-33.184,7.717c5.788,-15.433 15.434,-26.817 23.155,-26.817Z" style="fill:#111517;fill-rule:nonzero;"/><path d="M626.3,599.454c-0.658,-0.658 1.979,0 2.642,-1.317l-5.284,0c-0.658,0 -0.658,-0.662 -0.658,-1.325c-3.304,0.663 -7.267,1.984 -10.567,2.642c-4.621,1.321 -8.583,4.625 -13.866,5.946c-7.263,2.642 -13.205,8.583 -21.129,11.225c-0.663,-0 -0.663,-0.663 -0.663,-1.321c0.663,-1.983 3.304,-2.641 4.621,-4.625c-0,-0.658 -0,-1.316 -0.659,-1.316c5.284,-7.267 12.546,-11.226 19.151,-17.171l-0,-1.979c1.979,-2.642 5.283,-3.963 6.604,-7.267c0.658,-1.979 3.3,-4.621 6.604,-5.942c-0.663,-0.658 -1.983,-0.658 -1.983,-1.979c-2.642,-0 -5.284,1.321 -7.926,-0.663c1.234,-1.229 2.646,-1.908 4.142,-2.345c-0.571,-0.113 -1.083,-0.396 -1.5,-0.955c-0.658,-1.32 1.275,-2.795 3.304,-3.299c2.642,-0.663 5.942,-0.663 7.921,-2.642c-4.621,-0.663 -9.904,1.321 -14.525,-1.321c3.3,-8.588 8.584,-15.85 16.509,-19.812c0.658,-0 1.979,-0 1.979,0.662c-0,3.3 -1.979,5.942 -5.284,6.604c5.284,1.321 10.567,1.321 15.85,3.958c-0.662,1.325 -1.983,0.663 -2.641,0.663c3.3,1.979 7.262,0.662 10.562,3.3c-1.979,1.983 -3.958,0 -5.942,0c20.471,5.946 42.263,10.567 59.43,23.771c-14.525,7.267 -29.713,10.566 -45.563,13.866c-1.979,0 -3.3,0 -5.283,-0.658c-0,0.658 -0,1.983 -0.658,1.983c-2.642,0 -4.621,0 -6.605,1.317c-2.641,1.321 -6.604,1.983 -8.583,0Zm-13.521,45.938c-0.054,0.037 -0.112,0.075 -0.167,0.112c-2.47,1.742 -4.933,3.517 -7.537,5.029c-2.825,1.638 -5.783,2.884 -8.713,4.275c-0.02,-0.054 -0.045,-0.108 -0.083,-0.158c-0.225,-0.308 -0.687,-0.5 -1.116,-0.267c-2.501,1.355 -4.63,3.138 -6.646,5.059c-0.309,0.295 -0.613,0.591 -0.917,0.891c-0.021,0.017 -0.038,0.034 -0.054,0.05c-0.017,0.017 -0.038,0.034 -0.054,0.05c-0.313,0.313 -0.625,0.621 -0.938,0.938c-0.037,0.033 -0.075,0.071 -0.112,0.108c-0.017,0.021 -0.021,0.042 -0.038,0.058c-0.471,0.471 -0.925,0.942 -1.437,1.546c-0.329,0.392 -0.442,0.634 -0.884,0.925c-0.408,0.271 -1.545,0.267 -1.437,-0.496c0.004,-0.041 -0,-0.087 0.004,-0.129c-0.388,0.204 -0.779,0.413 -1.171,0.6c-0.362,0.175 -0.696,0.371 -1.029,0.567c-0.146,-0.054 -0.3,-0.075 -0.458,-0.067c-0.167,0.009 -0.334,0.05 -0.475,0.163c-0.809,0.629 -1.609,1.304 -2.384,2.008c-1.379,1.25 -2.679,2.613 -3.833,4.075c-0.021,0.021 -0.038,0.042 -0.058,0.059c-0.042,0.062 -0.088,0.124 -0.13,0.183c-0.066,0.087 -0.133,0.171 -0.2,0.258c-0.066,0.088 -0.141,0.179 -0.208,0.271c-0.021,0.029 -0.042,0.054 -0.062,0.083c-0.159,0.213 -0.3,0.438 -0.45,0.654c-0.009,0.013 -0.017,0.03 -0.025,0.042c-0.113,0.125 -0.3,0.213 -0.542,0.258c-0.087,-0.129 -0.183,-0.258 -0.267,-0.391c-0.062,-0.104 -0.12,-0.213 -0.183,-0.321c-0.2,-0.342 -0.388,-0.696 -0.562,-1.058c-0.009,-0.013 -0.013,-0.025 -0.021,-0.038c-0.05,-0.108 -0.104,-0.217 -0.155,-0.329c0.717,-0.767 1.405,-1.567 2.071,-2.375c0.046,-0.054 0.092,-0.108 0.134,-0.163c0.229,-0.279 0.458,-0.562 0.687,-0.845c0.371,-0.471 0.742,-0.942 1.104,-1.413c0.134,-0.175 0.271,-0.35 0.404,-0.525c0.725,-0.946 1.421,-1.862 2.067,-2.787c0.017,-0.025 0.033,-0.05 0.046,-0.071c0.1,-0.138 0.192,-0.279 0.288,-0.417c0.316,-0.466 0.62,-0.942 0.904,-1.421c0.254,-0.429 0.496,-0.866 0.721,-1.316c0.02,-0.034 0.037,-0.063 0.054,-0.096c0.021,-0.046 0.046,-0.092 0.071,-0.138c0.037,-0.079 0.07,-0.166 0.108,-0.246c0.229,-0.495 0.437,-1.012 0.625,-1.541c0.021,-0.054 0.042,-0.113 0.058,-0.171c0.05,-0.142 0.1,-0.283 0.15,-0.433c0.071,-0.238 0.142,-0.479 0.204,-0.725l0.005,-0.005c0.012,-0.054 0.02,-0.108 0.037,-0.162c0.079,-0.317 0.167,-0.633 0.229,-0.967c0.033,-0.175 -0.012,-0.316 -0.079,-0.446c0.708,-1.237 1.6,-2.429 2.617,-3.562c-0.1,0.058 -0.209,0.108 -0.305,0.171c-0.945,0.608 -1.57,1.458 -2.45,2.117c-0.72,0.537 -2.045,-0.355 -1.191,-0.988c0.579,-0.433 1.017,-0.908 1.5,-1.363c0.025,-0.037 0.037,-0.07 0.071,-0.108c1.087,-1.071 2.125,-2.446 3.366,-3.35c0.759,-0.554 1.417,-1.016 2.034,-1.55c0.095,-0.083 0.191,-0.175 0.287,-0.262c0.459,-0.609 0.954,-1.155 1.479,-1.667c0.021,-0.021 0.042,-0.046 0.067,-0.067c6.321,-6.1 16.958,-5.825 25.296,-9.716c3.3,-1.321 7.262,0.662 10.562,-0c1.984,-0 3.963,-0 5.942,1.321c-5.929,3.233 -11.412,6.883 -16.821,10.279Zm11.833,5.454c-0.299,0.725 -0.974,1.35 -1.629,1.925c0.825,0.171 1.404,0.533 0.871,1.025c-1.533,1.404 -2.991,2.812 -5.004,3.492c-0.142,0.045 -0.542,0.108 -1.017,0.137c-0.808,0.783 -1.62,1.562 -2.462,2.308c-0.783,0.696 -4.413,0.192 -3.304,-0.791c1.675,-1.484 3.229,-3.1 4.883,-4.609c0.929,-0.854 1.917,-1.671 2.746,-2.629c0.458,-0.533 0.837,-1.054 1.417,-1.462c0.541,-0.384 4.033,-0.692 3.499,0.604Zm-30.666,-98.934c-0.663,1.321 -1.392,1.463 -1.984,2.642c-0.658,1.321 -1.32,1.983 -2.641,2.642c-0.658,-0 -1.321,-0 -1.321,-0.659c0.663,-2.641 2.642,-5.283 5.283,-5.945c0.663,-0 0.663,0.662 0.663,1.32Zm-54.808,43.584c-0,-0 -0.659,-0.663 -0.659,-1.321c8.583,-11.229 15.183,-21.792 21.129,-33.679c8.584,-4.621 15.709,-11.35 22.45,-18.488c11.225,-11.887 23.113,-22.45 36.98,-29.054c5.279,-1.979 11.883,-1.321 17.166,0.663c-1.979,2.637 -5.283,1.979 -7.925,3.958c-0.658,0 -1.321,0 -1.979,-0.658c0.658,-0.663 0.658,-1.321 0.658,-1.984c-6.6,7.267 -15.845,10.567 -21.129,19.15c-3.962,6.605 -6.604,15.188 -15.187,17.171c-2.642,0.658 0.662,-1.983 -0.659,-1.321c-20.471,12.546 -34.995,27.734 -50.845,45.563Zm101.029,14.525c-1.321,-0 -3.963,0.658 -3.3,-0.658c0.658,-3.305 5.279,-3.305 7.92,-4.625c1.321,-0.659 3.301,-1.98 4.625,-1.321c1.321,1.983 3.301,1.321 4.621,2.641c-3.962,3.963 -9.246,1.984 -13.866,3.963Zm101.541,47.304c3.75,-3.75 7.538,-7.779 11.305,-11.821l-0.084,0c7.017,-7.937 13.892,-15.508 22.025,-22.479c2.479,-2.213 4.879,-4.163 7.179,-5.742c0.663,-0.658 0.663,-1.979 1.321,-2.641c-3.3,1.32 -5.283,3.962 -8.583,5.283c-0.663,-0 -1.321,-0.658 -0.663,-1.321c2.354,-1.762 4.709,-3.525 7.059,-5.291c-0.146,0.008 -0.3,0.008 -0.454,0.008c-0.659,-0 -0.659,-0.658 -0.659,-1.317c-8.583,-1.325 -15.187,4.621 -21.129,9.904c-1.321,0.659 -2.642,-0.662 -3.304,-0.662c-9.904,3.304 -17.167,11.887 -27.071,15.85l0,-1.321c-3.962,1.321 -7.812,3.717 -11.888,4.621c-5.941,1.321 -11.225,0.658 -16.508,0.658c-8.004,0.804 -16.004,2.567 -24.008,4.275c-0.229,0.063 -0.463,0.113 -0.692,0.175c-4.292,1.175 -8.346,2.775 -12.304,4.954c-0.154,0.084 -0.304,0.171 -0.45,0.263c-0.329,0.412 -0.65,0.808 -0.958,1.142c-1.417,1.562 -2.642,2.991 -4.525,3.95c-4.063,2.066 -7.371,5.662 -10.95,8.583c-0.259,0.208 -0.65,0.312 -1.059,0.333c-3.546,3.396 -7.037,6.846 -10.637,10.179c-0.254,0.238 -1.275,0.367 -2.013,0.246c0.017,-0.025 0.042,-0.037 0.054,-0.062c0.125,-0.209 0.255,-0.421 0.38,-0.63c0.558,-0.933 1.125,-1.862 1.691,-2.787c0.642,-1.029 1.292,-2.054 1.963,-3.067c0.9,-1.362 1.825,-2.712 2.808,-4.016c0.258,-0.342 0.188,-0.646 -0.025,-0.867c-0.208,-0.221 -0.558,-0.35 -0.912,-0.346c3.296,-3.196 7.208,-5.921 11.083,-8.275l-0,-0.108c-0.442,0.15 -1.079,-0.2 -0.746,-0.667c0.417,-0.583 0.746,-1.204 1.138,-1.8c0.075,-0.196 0.141,-0.391 0.212,-0.587c-0.166,-0.175 -0.337,-0.346 -0.5,-0.521c-1.066,0.696 -2.2,1.35 -3.104,2.167c-1.579,1.425 -2.817,4.337 -5.217,4.308c-0.154,-0 -0.625,-0.025 -1,-0.142c-0.283,-0.05 -0.533,-0.129 -0.691,-0.237c0.025,-0.05 0.058,-0.1 0.083,-0.15c0.033,-0.063 0.067,-0.121 0.1,-0.184c0.033,-0.054 0.062,-0.112 0.096,-0.171c0.104,-0.187 0.208,-0.379 0.312,-0.566c0.109,-0.192 0.209,-0.379 0.317,-0.571c0.083,-0.15 0.167,-0.304 0.254,-0.458c0.154,-0.28 0.308,-0.559 0.467,-0.838c0.112,-0.2 0.233,-0.396 0.346,-0.596c0.283,-0.487 0.566,-0.97 0.854,-1.458c0.133,-0.233 0.271,-0.467 0.408,-0.7c0.233,-0.4 0.463,-0.804 0.7,-1.2c0.325,-0.55 -0.017,-1 -0.496,-1.179c1.225,-1.588 2.721,-2.917 4.521,-3.942l-0.2,0c2.529,-1.271 5.058,-2.821 7.584,-4.237c0.366,-0.317 0.724,-0.638 1.091,-0.946c-3.766,1.262 -7.154,2.979 -10.5,5.183c0,0 -0.871,0.354 -1.116,0.6c-0,0 -0.759,0.288 -1.646,-0.6c-0.092,-0.121 -0.159,-0.271 -0.159,-0.487c0.659,-1.321 2.642,-1.98 3.963,-3.3c0.658,-0 1.317,-0 1.317,0.658c21.133,-16.508 50.187,-12.546 74.62,-21.129c1.98,-1.321 3.959,-2.642 5.942,-3.963c3.3,-1.321 5.942,-4.62 9.904,-6.604c5.283,-3.958 9.246,-8.583 11.225,-15.183c0,-0.663 -0.658,-1.321 -0.658,-1.321c-8.583,9.242 -18.492,16.504 -29.054,21.787c-13.867,7.267 -29.054,5.946 -43.584,7.925c0.663,-1.32 1.984,-1.32 3.3,-1.32c0,-1.98 1.321,-2.642 2.646,-3.963l1.979,0c0.659,0 0.659,-1.321 1.321,-1.321c1.321,0 3.3,-0.658 2.642,-0.658c-1.983,-2.642 -5.942,1.979 -9.246,-0c1.321,-1.321 0.658,-3.304 1.979,-3.962l2.642,-0c-0,-1.321 1.321,-2.642 1.321,-2.642c9.904,-5.942 19.15,-10.567 28.396,-15.846c-1.984,-0 -3.305,1.979 -5.284,0.658c1.321,0 0,-1.979 1.321,-1.979c7.262,-1.983 13.208,-5.946 20.471,-8.583c-2.642,-0 -4.625,1.979 -7.263,-0c1.317,-0.663 1.98,-1.983 3.959,-1.983l-0,-1.98c-0,-0.662 0.662,-0.662 1.32,-0.662c-0.658,-0 -1.32,-0.659 -1.32,-0.659c0.662,-1.32 2.641,-0.662 3.962,-1.983c-0.658,0 -1.979,0 -1.979,-0.658c1.979,-2.642 5.283,-3.304 8.583,-3.963c-0.662,-1.321 -2.641,0 -2.641,-1.321c-0,-0.658 0.662,-0.658 1.321,-0.658l-1.321,0c-1.321,-0.662 -0.659,-1.983 -0.659,-2.641c3.959,-4.625 3.959,-10.567 5.942,-15.851c-0.663,0 -1.321,0 -1.321,-0.658c-6.604,7.263 -17.171,9.904 -27.075,12.546l-3.3,0c-3.304,1.321 -7.925,1.321 -11.225,-0.662c-2.642,-1.321 -3.962,-3.3 -6.604,-5.284c-5.283,-3.3 -10.567,-5.942 -16.508,-7.921c-16.509,-5.283 -33.675,-7.925 -50.842,-7.266c7.263,-3.959 15.275,-4.296 23.108,-6.6c11.225,-3.305 21.792,-7.267 33.675,-6.605c-1.979,-0.662 -4.62,0 -6.6,0c-9.245,-0.662 -18.491,1.98 -28.396,3.963c-6.6,1.321 -12.545,3.963 -19.145,5.283c-3.963,1.321 -5.946,5.28 -10.567,4.621l-0,-1.983c6.604,-7.921 14.525,-15.846 25.092,-16.504c11.883,-1.984 23.112,-0 34.996,1.32c8.583,0.659 16.508,2.638 25.091,4.621c3.304,0 3.963,5.284 6.604,5.942c3.963,1.321 7.925,0 11.884,2.642c-0,-1.321 -0.659,-2.642 -0,-3.963c2.641,-2.642 5.946,0.663 8.587,-0.658c5.283,-3.304 -4.621,-9.246 -7.262,-13.867c-0,-0.662 0.658,-1.321 0.658,-1.321c5.283,4.621 9.246,9.904 15.846,13.204c3.304,1.321 11.229,3.305 9.904,-0.658c-3.3,-7.262 -9.904,-13.208 -15.183,-19.812l-0,-2.638c-1.321,0 -1.321,-0.662 -1.984,-1.321l0,-2.641c-2.641,-1.321 -1.979,-3.963 -3.3,-5.942c-1.983,-3.304 -0.662,-7.925 -1.983,-11.888c-1.317,-3.962 -1.979,-7.262 -2.642,-11.224c-1.979,-11.226 -4.621,-21.13 -5.941,-31.696c-1.321,-12.546 7.266,-22.45 13.208,-33.675c4.621,-7.925 9.904,-15.846 18.488,-21.13c1.983,-7.924 7.266,-14.529 12.545,-21.129c5.275,-6.445 14.038,-10.371 20.384,-13.208c9.225,-4.121 17.546,-6.696 17.55,-6.7l-453.171,-0l-0,349.433l320.925,0c12.571,-9.05 25.125,-13.35 42.675,-21.995c8.283,-4.084 27.241,-12.792 33.662,-19.213Z" style="fill:#27397b;fill-rule:nonzero;"/><path d="M1305.39,349.1l-375.891,-0c0.004,-0 0.708,0.117 3.566,1.654c3.055,1.638 7.005,3.75 9.484,5.046c4.846,2.533 9.558,5.708 12.592,10.567c1.32,1.979 3.304,5.941 1.983,8.583c-1.321,3.3 -1.983,8.583 -5.284,9.904c-3.962,1.984 -9.245,1.984 -13.866,1.321c-2.642,0 -5.283,-0.662 -7.925,-1.321c9.904,3.963 19.15,8.583 25.754,17.829c0.658,1.321 3.3,1.98 5.942,1.98c0.662,-0 0.662,1.32 0.662,1.983c-1.325,1.321 -2.646,1.979 -1.983,3.962l1.983,0c3.3,-1.32 2.638,-7.925 7.263,-5.945c3.3,1.983 4.62,6.604 2.641,9.908c-2.641,2.637 -5.283,4.616 -7.925,6.6c-0.662,1.321 -0.662,3.3 0,4.621c1.98,2.641 2.642,5.283 3.3,7.925c1.984,4.62 2.642,9.904 4.625,14.525c2.642,9.904 5.28,19.812 4.621,29.716c0,5.284 -2.642,9.904 -0.662,15.188c1.321,5.283 4.625,9.246 7.266,13.866c2.638,3.963 5.284,6.605 7.263,10.563c3.962,6.604 11.225,13.208 7.925,21.133c-1.984,4.621 -9.246,3.959 -13.867,6.6c-3.962,3.304 -0.662,8.588 1.317,11.888c3.304,5.942 -3.963,9.904 -8.583,11.883c1.32,1.983 3.962,1.325 4.62,2.642c0.663,3.304 3.963,5.283 1.984,8.587c-2.642,3.963 -10.567,5.942 -6.604,11.884c2.641,4.62 0.933,9.758 -0.659,14.529c-1.979,5.942 -7.262,8.583 -11.887,9.904c-3.963,1.321 -8.584,1.321 -12.546,0.658c-1.321,-0.658 -2.642,-1.321 -3.958,-1.321c-11.23,-1.32 -22.455,-4.62 -33.68,-4.62c-3.3,0.662 -6.604,1.321 -9.241,2.641c-2.988,2.192 -5.642,4.567 -7.996,7.067c-0.025,0.029 -0.05,0.058 -0.079,0.087c-0.496,0.525 -0.971,1.063 -1.438,1.6c-0.292,0.334 -0.571,0.671 -0.854,1.013c-0.187,0.225 -0.375,0.454 -0.562,0.683c-1.925,2.413 -3.655,4.959 -5.196,7.609c-0.1,0.166 -0.196,0.337 -0.292,0.504c-0.175,0.304 -0.342,0.616 -0.512,0.925c-2.167,4.012 -3.809,8.108 -4.996,12.116c-4.492,15.121 -2.529,28.092 0.625,31.242c0.875,0.875 21.791,7.338 36.362,13.817c6.838,3.041 11.617,5.383 15.584,7.887l369.124,0l0,-349.433Z" style="fill:#e91d24;fill-rule:nonzero;"/><path d="M951.854,476.575c2.642,0.662 6.6,0.662 6.6,1.983c-1.321,5.279 -9.246,6.6 -13.208,11.888l-1.979,-0c-1.98,1.317 -1.321,4.621 -3.3,4.621c-1.984,-0.663 -3.967,-0 -5.942,0.658c2.637,2.642 5.942,4.625 9.9,3.962c0.667,0 1.983,1.325 1.983,2.646c0,0 0.659,0 1.321,-0.666c0.663,-0 1.321,-0 1.321,0.666l-0,2.638c-1.983,2.642 -5.283,1.321 -7.925,1.983c5.283,1.321 10.567,1.321 15.188,0c3.962,-1.321 -0,-7.925 2.641,-11.229c-1.321,-0 0,-1.979 -1.321,-1.979c1.321,-1.321 2.642,-3.3 3.963,-3.963c1.325,0 3.3,-0.658 3.962,-1.983c0,-1.317 -2.637,-1.979 -1.979,-3.3c3.959,-2.638 7.258,-6.604 5.942,-10.567c-0.663,-1.979 -5.942,-1.979 -9.246,-3.3c-3.3,-1.32 -7.263,0 -11.225,0.663c-3.304,-0 -6.604,1.979 -9.904,2.637c-4.621,1.321 -8.584,3.963 -12.55,6.604c4.625,-1.979 9.25,-2.641 14.529,-3.962c3.967,-0 7.329,-0.975 11.229,-0Z" style="fill:#929595;fill-rule:nonzero;"/><path d="M360.262,1143.01l52.659,0l-0,-184.675l57.85,95.675l37.083,0l57.85,-95.675l0,184.675l52.658,0l0,-259.583l-66.379,-0l-62.671,106.8l-62.67,-106.8l-66.38,-0l0,259.583Z" style="fill:#111517;fill-rule:nonzero;"/><rect x="694.379" y="883.425" width="52.658" height="259.584" style="fill:#111517;fill-rule:nonzero;"/><path d="M823.429,1143.01l52.659,0l-0,-186.529l116.07,186.529l67.492,0l-0,-259.583l-52.658,-0l-0,185.788l-116.071,-185.788l-67.492,-0l0,259.583Z" style="fill:#111517;fill-rule:nonzero;"/><rect x="1136.04" y="883.425" width="52.658" height="259.584" style="fill:#111517;fill-rule:nonzero;"/><path d="M1241.72,1107.04c22.992,27.441 52.658,43.387 96.417,43.387c47.466,-0 85.291,-29.667 86.033,-77.875c-0,-87.888 -118.667,-77.133 -118.667,-123.487c0,-15.205 11.867,-27.071 30.038,-27.071c19.654,-0 36.712,12.608 51.916,32.262l38.567,-34.487c-21.879,-26.33 -51.917,-43.759 -90.854,-43.759c-49.321,0 -83.067,34.117 -83.067,75.28c0,86.404 118.667,76.02 118.667,122.375c-0,18.912 -12.608,30.037 -33.375,30.037c-21.138,0 -41.904,-11.867 -57.479,-31.892l-38.196,35.23Z" style="fill:#111517;fill-rule:nonzero;"/><path d="M1454.58,931.262l80.1,0l0,211.746l52.658,0l0,-211.746l80.1,0l0,-47.837l-212.858,-0l0,47.837Z" style="fill:#111517;fill-rule:nonzero;"/><path d="M1769.79,861.175l48.209,0l-41.904,-50.063l-54.142,0l47.837,50.063Zm-52.287,281.833l151.3,0l-0,-44.871l-98.642,0l0,-64.895l83.809,-0l-0,-44.871l-83.809,-0l0,-60.075l98.642,-0l-0,-44.871l-151.3,-0l0,259.583Z" style="fill:#111517;fill-rule:nonzero;"/><path d="M1933.69,1143.01l52.658,0l-0,-104.945l27.071,-0l68.975,104.945l63.042,0l-81.584,-114.958c26.329,-12.608 41.533,-35.971 41.533,-67.121c0,-48.208 -35.229,-77.504 -92.337,-77.504l-79.358,-0l-0,259.583Zm82.325,-214.712c22.25,-0 35.229,12.237 35.229,31.892c-0,21.137 -12.979,33.004 -35.229,33.004l-29.667,-0l-0,-64.896l29.667,-0Z" style="fill:#111517;fill-rule:nonzero;"/><path d="M2181.78,1143.01l151.3,0l-0,-44.871l-98.642,0l0,-64.895l83.809,-0l-0,-44.871l-83.809,-0l0,-60.075l98.642,-0l-0,-44.871l-151.3,-0l-0,259.583Z" style="fill:#111517;fill-rule:nonzero;"/><path d="M360.262,1529.67l101.98,0c82.325,0 137.95,-59.704 137.95,-129.792c-0,-70.087 -55.625,-129.791 -137.95,-129.791l-101.98,-0l0,259.583Zm102.721,-211.746c48.209,0 83.067,35.6 83.067,81.954c0,45.984 -34.858,81.954 -83.067,81.954l-50.062,0l-0,-163.908l50.062,0Z" style="fill:#111517;fill-rule:nonzero;"/><path d="M654.7,1529.68l151.3,0l0,-44.871l-98.642,0l0,-64.896l83.809,0l-0,-44.87l-83.809,-0l0,-60.075l98.642,-0l0,-44.875l-151.3,-0l0,259.587Z" style="fill:#111517;fill-rule:nonzero;"/><path d="M971.017,1529.68l151.3,0l-0,-47.837l-98.642,-0l0,-211.746l-52.658,-0l-0,259.583Z" style="fill:#111517;fill-rule:nonzero;"/><path d="M1182.02,1376.9l5.562,-106.8l-52.658,-0l5.933,106.8l41.163,-0Z" style="fill:#111517;fill-rule:nonzero;"/><path d="M1192.78,1529.68l55.996,0l24.846,-67.492l103.833,0l24.846,67.492l55.996,0l-98.271,-259.583l-68.975,-0l-98.271,259.583Zm97.158,-112.362l35.6,-97.529l35.6,97.529l-71.2,-0Z" style="fill:#111517;fill-rule:nonzero;"/><path d="M1502.05,1529.68l52.658,0l0,-184.675l57.85,95.675l37.083,0l57.85,-95.675l0,184.675l52.659,0l-0,-259.583l-66.379,-0l-62.671,106.8l-62.671,-106.8l-66.379,-0l-0,259.583Z" style="fill:#111517;fill-rule:nonzero;"/><path d="M1935.17,1247.85l48.208,-50.063l-54.141,0l-41.905,50.063l47.838,-0Zm-99.013,281.833l151.3,0l0,-44.871l-98.641,0l-0,-64.896l83.808,0l0,-44.87l-83.808,-0l-0,-60.075l98.641,-0l0,-44.871l-151.3,-0l0,259.583Z" style="fill:#111517;fill-rule:nonzero;"/><path d="M2052.36,1529.68l52.659,0l-0,-186.529l116.07,186.529l67.492,0l0,-259.583l-52.658,-0l-0,185.787l-116.071,-185.787l-67.492,-0l0,259.583Z" style="fill:#111517;fill-rule:nonzero;"/><path d="M2332.33,1529.68l55.996,0l24.846,-67.492l103.833,0l24.846,67.492l55.996,0l-98.271,-259.583l-68.975,-0l-98.271,259.583Zm97.159,-112.362l35.599,-97.529l35.6,97.529l-71.199,-0Z" style="fill:#111517;fill-rule:nonzero;"/><path d="M2755.08,1487.78c-50.804,0 -87.516,-38.196 -87.516,-87.888c-0,-49.691 34.858,-87.887 83.808,-87.887c29.666,0 53.029,14.463 67.862,35.6l41.534,-32.262c-23.734,-31.521 -62.3,-52.659 -109.396,-52.659c-81.954,0 -137.95,63.042 -137.95,137.208c-0,74.167 57.479,137.209 141.658,137.209c48.579,-0 89,-20.767 113.104,-53.029l0,-110.509l-118.666,0l-0,47.838l66.008,-0l0,43.758c-14.833,14.092 -35.971,22.621 -60.446,22.621Z" style="fill:#111517;fill-rule:nonzero;"/><path d="M2930.48,1529.68l151.3,0l0,-44.871l-98.641,0l-0,-64.896l83.808,0l-0,-44.87l-83.808,-0l-0,-60.075l98.641,-0l0,-44.871l-151.3,-0l0,259.583Z" style="fill:#111517;fill-rule:nonzero;"/><path d="M3146.68,1529.68l52.658,0l0,-184.675l57.85,95.675l37.084,0l57.85,-95.675l-0,184.675l52.658,0l-0,-259.583l-66.379,-0l-62.671,106.8l-62.671,-106.8l-66.379,-0l0,259.583Z" style="fill:#111517;fill-rule:nonzero;"/><path d="M3480.79,1529.68l151.3,0l-0,-44.871l-98.642,0l0,-64.896l83.808,0l0,-44.87l-83.808,-0l0,-60.075l98.642,-0l-0,-44.871l-151.3,-0l-0,259.583Z" style="fill:#111517;fill-rule:nonzero;"/><path d="M3696.98,1529.68l52.659,0l-0,-186.529l116.07,186.529l67.492,0l0,-259.583l-52.658,-0l-0,185.787l-116.071,-185.787l-67.492,-0l0,259.583Z" style="fill:#111517;fill-rule:nonzero;"/><path d="M3982.89,1317.93l80.1,0l-0,211.746l52.658,0l-0,-211.746l80.1,0l-0,-47.837l-212.858,-0l-0,47.837Z" style="fill:#111517;fill-rule:nonzero;"/><path d="M360.262,1916.34l101.98,-0c82.325,-0 137.95,-59.705 137.95,-129.792c-0,-70.088 -55.625,-129.792 -137.95,-129.792l-101.98,0l0,259.584Zm102.721,-211.746c48.209,-0 83.067,35.6 83.067,81.954c0,45.983 -34.858,81.954 -83.067,81.954l-50.062,0l-0,-163.908l50.062,-0Z" style="fill:#111517;fill-rule:nonzero;"/><path d="M807.854,1819.19c0,34.858 -20.025,55.254 -52.287,55.254c-33.005,-0 -52.659,-20.396 -52.659,-55.254l0,-162.426l-52.658,0l-0,157.975c-0,68.234 40.05,109.026 104.946,109.026c65.266,-0 105.316,-40.792 105.316,-109.026l0,-157.975l-52.658,0l0,162.426Z" style="fill:#111517;fill-rule:nonzero;"/><path d="M1002.9,1704.6l80.1,0l0,211.746l52.658,-0l0,-211.746l80.1,0l0,-47.838l-212.858,0l0,47.838Z" style="fill:#111517;fill-rule:nonzero;"/><path d="M1265.82,1916.35l151.3,-0l-0,-44.871l-98.642,-0l0,-64.896l83.809,0l-0,-44.871l-83.809,0l0,-60.075l98.642,0l-0,-44.871l-151.3,0l-0,259.584Z" style="fill:#111517;fill-rule:nonzero;"/><path d="M1482.02,1916.35l52.658,-0l-0,-104.946l27.071,-0l68.975,104.946l63.041,-0l-81.583,-114.958c26.329,-12.609 41.533,-35.971 41.533,-67.121c0,-48.209 -35.229,-77.505 -92.337,-77.505l-79.358,0l-0,259.584Zm82.325,-214.713c22.25,0 35.229,12.238 35.229,31.892c-0,21.137 -12.979,33.004 -35.229,33.004l-29.667,0l-0,-64.896l29.667,0Z" style="fill:#111517;fill-rule:nonzero;"/><path d="M1730.1,1916.35l52.658,-0l0,-104.946l27.071,-0l68.975,104.946l63.042,-0l-81.583,-114.958c26.329,-12.609 41.533,-35.971 41.533,-67.121c-0,-48.209 -35.229,-77.505 -92.338,-77.505l-79.358,0l-0,259.584Zm82.325,-214.713c22.25,0 35.229,12.238 35.229,31.892c0,21.137 -12.979,33.004 -35.229,33.004l-29.667,0l0,-64.896l29.667,0Z" style="fill:#111517;fill-rule:nonzero;"/><rect x="1978.18" y="1656.76" width="52.658" height="259.583" style="fill:#111517;fill-rule:nonzero;"/><path d="M2080.53,1704.6l80.1,0l0,211.746l52.659,-0l-0,-211.746l80.1,0l-0,-47.838l-212.859,0l0,47.838Z" style="fill:#111517;fill-rule:nonzero;"/><path d="M2447.28,1649.35c-81.954,-0 -137.95,63.041 -137.95,137.208c0,74.167 55.996,137.209 137.95,137.209c81.584,-0 137.58,-63.042 137.58,-137.209c-0,-74.167 -55.996,-137.208 -137.58,-137.208Zm0,225.096c-48.95,-0 -83.808,-38.196 -83.808,-87.888c0,-49.692 34.858,-87.887 83.808,-87.887c48.58,-0 83.438,38.195 83.438,87.887c-0,49.692 -34.858,87.888 -83.438,87.888Z" style="fill:#111517;fill-rule:nonzero;"/><rect x="2639" y="1656.76" width="52.658" height="259.583" style="fill:#111517;fill-rule:nonzero;"/><path d="M2768.05,1916.35l52.658,-0l0,-104.946l27.071,-0l68.975,104.946l63.042,-0l-81.584,-114.958c26.33,-12.609 41.534,-35.971 41.534,-67.121c-0,-48.209 -35.229,-77.505 -92.338,-77.505l-79.358,0l-0,259.584Zm82.325,-214.713c22.25,0 35.229,12.238 35.229,31.892c0,21.137 -12.979,33.004 -35.229,33.004l-29.667,0l0,-64.896l29.667,0Z" style="fill:#111517;fill-rule:nonzero;"/><path d="M3016.13,1916.35l151.3,-0l0,-44.871l-98.641,-0l-0,-64.896l83.808,0l0,-44.871l-83.808,0l-0,-60.075l98.641,0l0,-44.871l-151.3,0l0,259.584Z" style="fill:#111517;fill-rule:nonzero;"/><path d="M3332.45,1916.35l151.3,-0l-0,-44.871l-98.642,-0l0,-64.896l83.809,0l-0,-44.871l-83.809,0l0,-60.075l98.642,0l-0,-44.871l-151.3,0l0,259.584Z" style="fill:#111517;fill-rule:nonzero;"/><path d="M3527.5,1704.6l80.1,0l0,211.746l52.659,-0l-0,-211.746l80.1,0l-0,-47.838l-212.859,0l0,47.838Z" style="fill:#111517;fill-rule:nonzero;"/><path d="M360.262,2303.01l101.98,0c82.325,0 137.95,-59.704 137.95,-129.791c-0,-70.088 -55.625,-129.792 -137.95,-129.792l-101.98,0l0,259.583Zm102.721,-211.745c48.209,-0 83.067,35.6 83.067,81.954c0,45.983 -34.858,81.954 -83.067,81.954l-50.062,0l-0,-163.908l50.062,-0Z" style="fill:#111517;fill-rule:nonzero;"/><path d="M654.7,2303.01l151.3,0l0,-44.87l-98.642,-0l0,-64.896l83.809,-0l-0,-44.871l-83.809,-0l0,-60.075l98.642,-0l0,-44.871l-151.3,0l0,259.583Z" style="fill:#111517;fill-rule:nonzero;"/><path d="M971.017,2303.01l151.3,0l-0,-47.837l-98.642,0l0,-211.746l-52.658,0l-0,259.583Z" style="fill:#111517;fill-rule:nonzero;"/><path d="M1150.87,2303.01l55.996,0l24.845,-67.491l103.834,-0l24.846,67.491l55.996,0l-98.271,-259.583l-68.975,0l-98.271,259.583Zm97.158,-112.362l35.6,-97.529l35.6,97.529l-71.2,0Z" style="fill:#111517;fill-rule:nonzero;"/><path d="M1560.26,2303.01l101.979,0c82.325,0 137.95,-59.704 137.95,-129.791c-0,-70.088 -55.625,-129.792 -137.95,-129.792l-101.979,0l-0,259.583Zm102.72,-211.745c48.209,-0 83.067,35.6 83.067,81.954c0,45.983 -34.858,81.954 -83.067,81.954l-50.062,0l-0,-163.908l50.062,-0Z" style="fill:#111517;fill-rule:nonzero;"/><path d="M1953.71,2021.18l48.209,-50.062l-54.142,-0l-41.904,50.062l47.837,0Zm-99.012,281.833l151.3,0l0,-44.87l-98.642,-0l0,-64.896l83.809,-0l-0,-44.871l-83.809,-0l0,-60.075l98.642,-0l0,-44.871l-151.3,0l-0,259.583Z" style="fill:#111517;fill-rule:nonzero;"/><path d="M2180.66,2261.11c-48.951,0 -83.809,-38.196 -83.809,-87.887c0,-49.692 34.858,-87.888 83.809,-87.888c29.666,0 53.029,14.463 67.862,35.6l41.533,-32.262c-23.733,-31.521 -62.3,-52.658 -109.395,-52.658c-81.955,-0 -137.95,63.041 -137.95,137.208c-0,74.166 55.995,137.208 137.95,137.208c47.095,0 85.662,-20.766 109.395,-53.029l-41.533,-31.892c-14.833,21.138 -38.196,35.6 -67.862,35.6Z" style="fill:#111517;fill-rule:nonzero;"/><path d="M2339.38,2303.01l151.3,0l0,-44.87l-98.642,-0l0,-64.896l83.809,-0l-0,-44.871l-83.809,-0l0,-60.075l98.642,-0l0,-44.871l-151.3,0l0,259.583Z" style="fill:#111517;fill-rule:nonzero;"/><path d="M2555.57,2303.01l52.658,0l0,-186.529l116.071,186.529l67.492,0l-0,-259.583l-52.659,0l0,185.788l-116.071,-185.788l-67.491,0l-0,259.583Z" style="fill:#111517;fill-rule:nonzero;"/><path d="M2841.48,2091.27l80.1,-0l0,211.745l52.659,0l-0,-211.745l80.1,-0l-0,-47.838l-212.859,0l0,47.838Z" style="fill:#111517;fill-rule:nonzero;"/><path d="M3104.4,2303.01l52.658,0l0,-104.945l27.071,-0l68.975,104.945l63.042,0l-81.584,-114.958c26.329,-12.608 41.534,-35.971 41.534,-67.121c-0,-48.208 -35.229,-77.504 -92.338,-77.504l-79.358,0l-0,259.583Zm82.325,-214.712c22.25,-0 35.229,12.237 35.229,31.892c0,21.137 -12.979,33.004 -35.229,33.004l-29.667,-0l0,-64.896l29.667,-0Z" style="fill:#111517;fill-rule:nonzero;"/><path d="M3330.97,2303.01l55.996,0l24.846,-67.491l103.833,-0l24.846,67.491l55.995,0l-98.27,-259.583l-68.975,0l-98.271,259.583Zm97.158,-112.362l35.6,-97.529l35.6,97.529l-71.2,0Z" style="fill:#111517;fill-rule:nonzero;"/><path d="M3640.24,2303.01l151.3,0l-0,-47.837l-98.642,0l0,-211.746l-52.658,0l-0,259.583Z" style="fill:#111517;fill-rule:nonzero;"/><rect x="3841.6" y="2043.43" width="52.658" height="259.583" style="fill:#111517;fill-rule:nonzero;"/><path d="M3947.29,2267.04c22.991,27.441 52.658,43.387 96.416,43.387c47.467,0 85.292,-29.667 86.034,-77.875c-0,-87.887 -118.667,-77.133 -118.667,-123.487c0,-15.204 11.867,-27.071 30.038,-27.071c19.654,-0 36.712,12.608 51.916,32.262l38.567,-34.487c-21.879,-26.329 -51.917,-43.758 -90.854,-43.758c-49.321,-0 -83.067,34.116 -83.067,75.279c-0,86.404 118.667,76.02 118.667,122.375c-0,18.912 -12.609,30.037 -33.375,30.037c-21.138,0 -41.904,-11.866 -57.479,-31.891l-38.196,35.229Z" style="fill:#111517;fill-rule:nonzero;"/><path d="M4154.59,2303.01l55.995,0l24.846,-67.491l103.833,-0l24.846,67.491l55.996,0l-98.271,-259.583l-68.975,0l-98.27,259.583Zm97.158,-112.362l35.6,-97.529l35.6,97.529l-71.2,0Z" style="fill:#111517;fill-rule:nonzero;"/><path d="M4411.2,2091.27l80.1,-0l-0,211.745l52.659,0l-0,-211.745l80.1,-0l-0,-47.838l-212.859,0l-0,47.838Z" style="fill:#111517;fill-rule:nonzero;"/><rect x="4674.12" y="2043.43" width="52.659" height="259.583" style="fill:#111517;fill-rule:nonzero;"/><path d="M4918.87,2036.01c-81.953,-0 -137.949,63.041 -137.949,137.208c-0,74.166 55.996,137.208 137.949,137.208c81.584,0 137.58,-63.042 137.58,-137.208c-0,-74.167 -55.996,-137.208 -137.58,-137.208Zm0,225.095c-48.949,0 -83.808,-38.196 -83.808,-87.887c0,-49.692 34.859,-87.888 83.808,-87.888c48.58,0 83.438,38.196 83.438,87.888c0,49.691 -34.858,87.887 -83.438,87.887Z" style="fill:#111517;fill-rule:nonzero;"/><path d="M5110.58,2303.01l52.659,0l-0,-186.529l116.071,186.529l67.491,0l0,-259.583l-52.658,0l-0,185.788l-116.071,-185.788l-67.492,0l0,259.583Z" style="fill:#111517;fill-rule:nonzero;"/></g></svg>