<?xml version="1.0" encoding="utf-8"?>
<!-- Generator: Adobe Illustrator 24.1.2, SVG Export Plug-In . SVG Version: 6.00 Build 0)  -->
<svg version="1.1" id="Calque_1" xmlns="http://www.w3.org/2000/svg" xmlns:xlink="http://www.w3.org/1999/xlink" x="0px" y="0px"
	 viewBox="0 0 177.2 160.5" style="enable-background:new 0 0 177.2 160.5;" xml:space="preserve">
<style type="text/css">
	.st0{fill:#FFFFFF;}
	.st1{fill:#000091;}
	.st2{fill:#E1000F;}
	.st3{fill:#9C9B9B;}
</style>
<g id="Calque_1_1_">
	<path id="Devise_Républicaine" d="M69.2,153.1c0.5,0,1,0.5,0.8,1.6l-2.7,0.6C67.7,154.1,68.5,153.1,69.2,153.1 M70.6,157.5h-0.5
		c-0.7,0.7-1.4,1.4-2.1,1.4s-1.1-0.5-1.1-1.4c0-0.4,0-0.8,0.1-1.2l4.3-1.4c0.9-2-0.1-2.9-1.3-2.9s-4.4,3.4-4.4,6.4
		c0,1.3,0.7,2.1,1.6,2.1S69.6,159.3,70.6,157.5 M69.8,151.2l3-2.8V148h-1.6l-1.9,3.2H69.8z M60.5,153.2h1.4l-2.3,6.2
		c-0.2,0.4,0,0.9,0.4,1c0.1,0,0.1,0,0.2,0.1c1.8-0.3,3.4-1.4,4.2-3.1h-0.5c-0.7,0.8-1.6,1.4-2.6,1.6l2.1-5.8h2.1l0.3-0.9h-2.1
		l0.8-2.2h-0.8l-1.5,2.2l-1.7,0.2C60.5,152.5,60.5,153.2,60.5,153.2z M58.5,152.9c0.2-0.6-0.2-0.9-0.5-0.9c-1.5,0.2-2.8,1.2-3.3,2.7
		h0.4c0.4-0.6,1-1.1,1.7-1.3l-2.4,6.2c-0.1,0.4,0.1,0.8,0.5,0.9H55c1.1,0,2.5-1.2,3.1-2.7h-0.4c-0.4,0.6-1,1-1.7,1.3L58.5,152.9z
		 M59,149.8c0.6-0.1,1-0.5,1-1.1c0-0.5-0.5-1-1-1c-0.6,0-1,0.4-1.1,1C57.9,149.3,58.4,149.8,59,149.8L59,149.8 M45.2,159.3
		c-0.2,0.4-0.1,0.9,0.3,1.1c0.1,0.1,0.3,0.1,0.4,0.1c0.5,0,0.6-0.1,0.8-0.6l1.7-4.4c0.8-0.9,1.8-1.6,2.9-1.9c0.5,0,0.4,0.4,0.1,0.9
		l-2.5,4.9c-0.2,0.3-0.1,0.8,0.2,1c0.1,0.1,0.3,0.1,0.4,0.1c1.5-0.2,2.8-1.3,3.3-2.7h-0.4c-0.4,0.6-1,1-1.7,1.3l2.2-4.4
		c0.2-0.5,0.4-1,0.4-1.5c0.1-0.6-0.4-1.1-1-1.2c-0.1,0-0.1,0-0.2,0c-1,0-2.1,1.2-3.4,2.7v-1.2c0-0.8-0.3-1.5-1-1.5
		c-0.6,0.1-1.1,0.5-1.4,1l0,0c0.8,0,1.2,1.2,0.6,2.5L45.2,159.3z M45.2,153.9c0.3-1,0.1-1.9-0.6-1.9s-1.2,0.7-2.1,2.7v-1.2
		c0-0.8-0.3-1.5-1-1.5s-1.7,1.3-2.3,2.7h0.4c0.4-0.6,0.8-1,1.1-1s0.6,0.6,0,1.9l-1.7,3.7c-0.2,0.4-0.1,0.9,0.3,1.1
		c0.1,0.1,0.3,0.1,0.4,0.1c0.5,0,0.6-0.1,0.8-0.6l1.7-4.4c0.4-0.6,0.9-1.1,1.4-1.6H45.2z M35.6,153.1c0.6,0,1.1,0.5,0.9,1.6
		l-2.7,0.6C34.2,154.1,35,153.1,35.6,153.1 M37.1,157.5h-0.5c-0.7,0.7-1.4,1.4-2.1,1.4s-1.1-0.5-1.1-1.4c0-0.4,0-0.8,0.1-1.2
		l4.3-1.4c0.9-2-0.1-2.9-1.3-2.9s-4.4,3.4-4.4,6.4c0,1.3,0.6,2.1,1.6,2.1S36.1,159.3,37.1,157.5 M27,153.2h1.4l-2.3,6.2
		c-0.2,0.4,0,0.9,0.4,1c0.1,0,0.1,0,0.2,0.1c1.8-0.2,3.4-1.4,4.1-3.1h-0.4c-0.7,0.8-1.6,1.4-2.6,1.6l2.1-5.8H32l0.3-0.9h-2.1
		l0.8-2.2h-0.8l-1.5,2.2l-1.7,0.2V153.2z M19.1,158c0-1.9,2.1-4.5,3.3-4.5h0.7l-1.2,3.3c-0.7,0.9-1.8,2-2.3,2S19.1,158.5,19.1,158
		 M25.6,151.5H25l-0.7,0.7h-0.2c-3.6,0-6.6,4-6.6,6.9c-0.1,0.7,0.4,1.2,1.1,1.3c0.1,0,0.1,0,0.2,0c0.9,0,1.8-1.3,2.8-2.7v0.4
		c-0.1,1.5,0.4,2.3,1.1,2.3s1.7-1.4,2.3-2.7h-0.4c-0.4,0.6-0.8,0.9-1.1,0.9c-0.3,0-0.6-0.6,0-1.8L25.6,151.5z M18.1,153.8
		c0.3-1,0.1-1.9-0.7-1.9s-1.1,0.7-2.1,2.7v-1.2c0-0.8-0.2-1.5-1-1.5s-1.6,1.3-2.2,2.7h0.4c0.4-0.6,0.8-1,1.1-1s0.6,0.6,0,1.9
		l-1.7,3.7c-0.3,0.7,0,1.2,0.7,1.2s0.6-0.1,0.8-0.6l1.6-4.4c0.4-0.6,0.9-1.1,1.5-1.6L18.1,153.8z M6.1,160l0.2-0.4
		c-2.1-0.4-2.3-0.4-1.5-2.7l0.8-2.2h2.3c1,0,1.1,0.4,0.9,1.5h0.6l1.4-3.7h-0.6c-0.5,0.9-0.9,1.5-2.1,1.5H5.9l1.2-3.3
		c0.3-1,0.6-1.2,2-1.2h1c1.4,0,1.6,0.4,1.6,1.8h0.6l0.4-2.5H4.1v0.5c1.7,0.3,1.8,0.5,1,2.6L3.3,157c-0.8,2.2-1.1,2.3-3.1,2.7v0.4
		L6.1,160z M48.3,133.7c0.6,0,1.1,0.4,0.8,1.5l-2.7,0.6C46.9,134.6,47.7,133.7,48.3,133.7 M49.8,138h-0.6c-0.4,0.8-1.2,1.3-2.1,1.4
		c-0.7,0-1.1-0.4-1.1-1.4c0-0.4,0.1-0.8,0.2-1.2l4.3-1.4c0.8-2-0.2-2.9-1.4-2.9s-4.3,3.4-4.3,6.4c0,1.4,0.6,2.1,1.6,2.1
		S48.8,139.9,49.8,138 M48.9,131.7l3.1-2.8v-0.3h-1.7l-1.9,3.1H48.9z M39.6,133.7H41l-2.2,6.2c-0.2,0.6,0,1.1,0.6,1.1
		c1.8-0.2,3.3-1.4,4.1-3h-0.4c-0.7,0.7-1.6,1.3-2.6,1.6l2-5.9h2.2l0.2-0.9h-2l0.8-2.2h-0.9l-1.4,2.2l-1.8,0.3L39.6,133.7z
		 M37.7,133.4c0.1-0.6-0.2-0.9-0.5-0.9c-1.6,0.2-2.9,1.2-3.4,2.7h0.4c0.4-0.7,1.1-1.1,1.8-1.3l-2.4,6.2c-0.2,0.6,0.2,0.9,0.5,0.9
		c1.5-0.2,2.7-1.3,3.2-2.7h-0.4c-0.4,0.7-1.1,1.1-1.8,1.3L37.7,133.4z M38.1,130.3c0.5,0.1,0.9-0.3,1-0.8c0-0.1,0-0.1,0-0.2
		c0-0.6-0.4-1-1-1s-1,0.4-1,1c-0.1,0.5,0.3,0.9,0.8,1C38,130.3,38,130.3,38.1,130.3 M29.8,139.6l4.4-11.4H34l-2.7,0.3v0.3l0.5,0.4
		c0.5,0.4,0.4,0.7-0.1,1.9l-3.4,8.9c-0.2,0.4,0,0.9,0.4,1c0.1,0,0.1,0,0.2,0.1c1.5-0.2,2.8-1.2,3.2-2.7h-0.4
		c-0.4,0.7-1.1,1.1-1.9,1.3 M21.6,138.7c0-2,2.1-4.6,3.3-4.6h0.7l-1.2,3.4c-0.7,0.8-1.8,1.9-2.4,1.9s-0.4-0.3-0.4-0.8 M28.1,132.2
		h-0.6l-0.8,0.7h-0.1c-3.6,0-6.6,4-6.6,6.9c-0.1,0.7,0.4,1.2,1.1,1.3h0.1c1,0,1.9-1.3,2.9-2.7v0.5c-0.1,1.4,0.3,2.2,1.1,2.2
		c0.8,0,1.6-1.4,2.3-2.7h-0.4c-0.5,0.6-0.9,1-1.2,1c-0.3,0-0.5-0.6,0-1.9L28.1,132.2z M12.3,142.5c0-0.8,0.8-1.3,1.9-1.8l1.7,0.6
		c1.2,0.4,1.6,0.6,1.6,1s-1.3,1.3-3,1.3S12.3,143.3,12.3,142.5 M15.5,137.5c-0.5,0-0.7-0.5-0.7-1s0.7-3.4,1.9-3.4s0.7,0.4,0.7,0.9
		S16.7,137.5,15.5,137.5 M18.9,141.7c0-1-0.9-1.3-2.4-1.8s-1.8-0.4-1.8-0.8c0-0.5,0.3-0.9,0.8-1c1.9-0.1,3.3-1.6,3.4-3.5
		c0-0.3-0.1-0.6-0.2-0.9h1.7l0.3-0.9H18l-1.1-0.3c-1.9,0-3.5,1.6-3.6,3.5c-0.1,1,0.6,1.8,1.6,2c-1,0.5-1.5,1-1.5,1.6
		c0,0.3,0.1,0.7,0.4,0.9c-2.3,0.7-3.3,1.4-3.3,2.5s1.4,1.6,3.1,1.6S18.9,143,18.9,141.7 M8,135.1c1,0,1,0.4,0.9,1.5h0.6l1.3-3.7
		h-0.6c-0.5,0.8-0.9,1.5-2,1.5H5.9l1.2-3.1c0.3-1.1,0.6-1.3,2-1.3h1c1.4,0,1.6,0.4,1.6,1.9h0.6l0.4-2.6H4.1v0.5
		c1.7,0.3,1.8,0.5,1,2.6l-1.8,5.1c-0.8,2.2-1.1,2.4-3.1,2.7v0.5h9.4l1.7-2.7h-0.7c-1.1,1.2-2.7,1.9-4.4,2c-2.5,0-2.3-0.1-1.4-2.5
		l0.9-2.4H8z M9.2,128.5l3.1-2v-0.4h-1.9l-1.7,2.4H9.2z M47.3,114.2c0.6,0,1.1,0.4,0.8,1.5l-2.7,0.7
		C45.9,115.1,46.7,114.2,47.3,114.2 M48.8,118.5h-0.6c-0.5,0.8-1.2,1.3-2.1,1.4c-0.7,0-1.1-0.4-1.1-1.4s0.1-0.8,0.1-1.2l4.4-1.4
		c0.8-2-0.2-2.9-1.4-2.9s-4.4,3.5-4.4,6.4s0.7,2.1,1.7,2.1S47.8,120.4,48.8,118.5 M47.9,112.2l3-2.8v-0.3h-1.6l-1.9,3.1
		C47.4,112.2,47.9,112.2,47.9,112.2z M39,114.2h1.1l-2.3,6.3c-0.2,0.3,0,0.8,0.3,0.9c0.1,0.1,0.2,0.1,0.4,0.1c1.8-0.3,3.3-1.4,4.1-3
		h-0.4c-0.7,0.8-1.7,1.3-2.7,1.6l2.1-5.9h2.2l0.2-0.8h-2l0.7-2.3h-0.8l-1.5,2.3l-1.4,0.2V114.2z M37.9,114.9c0.3-1,0.1-1.9-0.7-1.9
		s-1.1,0.7-2.1,2.8v-1.2c0-0.8-0.2-1.6-1-1.6s-1.7,1.4-2.3,2.7h0.4c0.5-0.6,0.9-0.9,1.2-0.9c0.3,0,0.5,0.5,0,1.8l-1.7,3.8
		c-0.3,0.7,0,1.1,0.7,1.1c0.4,0.1,0.7-0.2,0.8-0.5l1.6-4.4l1.4-1.7L37.9,114.9z M28.3,114.2c0.6,0,1.1,0.4,0.8,1.5l-2.7,0.7
		C26.9,115.1,27.7,114.2,28.3,114.2 M29.8,118.5h-0.6c-0.4,0.8-1.2,1.3-2.1,1.4c-0.7,0-1.1-0.4-1.1-1.4c0-0.4,0.1-0.8,0.2-1.2
		l4.3-1.4c0.8-2-0.2-2.9-1.4-2.9s-4.3,3.5-4.3,6.4s0.6,2.1,1.6,2.1S28.8,120.4,29.8,118.5 M19.2,120.3c-0.4,0-1-0.4-1-0.8
		s0.2-0.6,0.4-1.2l0.7-1.8c0.7-0.9,1.9-1.9,2.5-1.9s0.7,0.3,0.7,0.9S20.9,120.3,19.2,120.3 M24.1,114.8c0-1.3-0.5-1.8-1.3-1.8
		s-2.2,1.2-3.2,2.6l2.6-6.8v-0.2l-2.8,0.3v0.3l0.6,0.4c0.5,0.4,0.3,0.8-0.1,1.9l-2.9,7.2c-0.2,0.5-0.4,0.9-0.5,1.4
		c0,0.7,1,1.4,1.9,1.4C19.3,121.5,24.1,117.7,24.1,114.8 M15.6,113.9c0.2-0.3,0.1-0.7-0.2-0.8c-0.1,0-0.2-0.1-0.3-0.1
		c-1.5,0.2-2.8,1.3-3.3,2.7h0.4c0.4-0.6,1-1,1.7-1.3l-2.4,6.2c-0.1,0.4,0.1,0.8,0.5,0.9h0.1c1.5-0.2,2.7-1.3,3.1-2.7h-0.4
		c-0.4,0.6-1,1.1-1.7,1.3L15.6,113.9z M16.1,110.8c0.6,0,1-0.4,1-1s-0.4-1-1-1c-0.6,0-1,0.4-1,1S15.5,110.8,16.1,110.8 M9.8,109.8
		H4.1v0.5c1.6,0.4,1.8,0.5,1,2.7l-1.8,5.1c-0.8,2.1-1.1,2.3-3.1,2.6v0.5h8.4l1.9-3.3H9.8c-1,1.1-2.3,2.6-4.2,2.6s-1.6-0.2-0.8-2.4
		l1.8-5.1c0.8-2.2,1.1-2.3,3-2.7L9.8,109.8z"/>
	<path d="M0,63.2V42.6h6.3c1.9-0.1,3.8,0.4,5.4,1.6c1.3,1.1,2.1,2.8,2,4.5c0,1.2-0.3,2.3-0.9,3.3c-0.6,0.9-1.4,1.6-2.4,2.1l6.4,9.1
		h-5l-5.5-8.3H4.2v8.3C4.2,63.2,0,63.2,0,63.2z M6.5,46.1H4.2v5.2h2.3c0.8,0.1,1.5-0.2,2.1-0.7c0.5-0.5,0.8-1.2,0.8-1.9
		s-0.3-1.4-0.8-1.9C8,46.3,7.3,46.1,6.5,46.1z"/>
	<path d="M19.4,63.2V42.6h12.1v3.5h-7.9v4.8h6.7v3.6h-6.7v5.1h7.9v3.6C31.5,63.2,19.4,63.2,19.4,63.2z M27.3,40.8h-3.8l3.3-4h4.4
		L27.3,40.8z"/>
	<path d="M36.3,63.2V42.6h6.9c1.9-0.1,3.8,0.5,5.3,1.6c2.5,2.3,2.7,6.1,0.4,8.6c-0.1,0.1-0.2,0.3-0.4,0.4c-1.5,1.2-3.4,1.8-5.3,1.7
		h-2.7v8.3C40.5,63.2,36.3,63.2,36.3,63.2z M43.3,46.1h-2.8v5.2h2.8c0.8,0.1,1.5-0.2,2.1-0.7c0.5-0.5,0.8-1.2,0.8-1.9
		s-0.3-1.4-0.8-1.9C44.8,46.3,44.1,46.1,43.3,46.1z"/>
	<path d="M66.1,55.5V42.6h4.2v12.5c0.1,2.4-0.7,4.6-2.3,6.4c-3.5,3.1-8.7,3.1-12.2,0c-1.5-1.8-2.3-4.1-2.2-6.4V42.6h4.2v12.9
		c-0.1,1.2,0.3,2.3,1.1,3.2c0.8,0.8,1.9,1.3,3,1.2c1.2,0.1,2.3-0.4,3.1-1.2C65.8,57.8,66.2,56.7,66.1,55.5z"/>
	<path d="M75.5,63.2V42.6h5.9c1.8-0.1,3.6,0.4,5,1.5c1.3,1,2,2.5,1.9,4.1c0,0.8-0.2,1.6-0.6,2.3s-0.9,1.3-1.6,1.7
		c1,0.4,1.9,1.2,2.5,2.1c0.6,0.8,0.9,1.8,0.9,2.8c0.1,1.8-0.7,3.4-2.1,4.5c-1.6,1.2-3.6,1.7-5.6,1.6C81.8,63.2,75.5,63.2,75.5,63.2z
		 M81.4,46.1h-1.7v4.6h1.7c0.7,0,1.4-0.2,1.9-0.6c0.9-0.9,0.9-2.5,0-3.4l0,0C82.8,46.3,82.1,46.1,81.4,46.1z M82,54.3h-2.3v5.3H82
		c0.8,0.1,1.7-0.2,2.3-0.7c0.6-0.5,0.9-1.2,0.9-2s-0.3-1.5-0.9-2C83.6,54.5,82.8,54.2,82,54.3z"/>
	<path d="M93.7,63.2V42.6h4.2v16.8h7.9v3.8C105.8,63.2,93.7,63.2,93.7,63.2z"/>
	<path d="M109.5,63.2V42.6h4.2v20.6C113.7,63.2,109.5,63.2,109.5,63.2z"/>
	<path d="M136.8,62.7c0.6,0.6,1.4,1.1,2.2,1.5c0.7,0.3,1.4,0.5,2.1,0.5h0.7l0.8-0.2v3.6l-1,0.3h-1.2c-1.1,0-2.3-0.3-3.3-0.7
		c-1.2-0.5-2.2-1.2-3.2-2.1l-2.4-2.1l-1.4,0.2h-1.5c-1.5,0-3-0.3-4.4-0.9c-1.3-0.6-2.5-1.3-3.5-2.3c-1.9-2.1-3-4.8-3-7.7
		s1.1-5.6,3-7.7c1-1,2.2-1.8,3.5-2.3c1.4-0.6,2.9-0.9,4.4-0.9s3.1,0.3,4.5,0.9c1.3,0.6,2.5,1.3,3.5,2.3c1.9,2.1,3,4.8,3,7.7
		c0,1.7-0.4,3.3-1.1,4.8c-0.7,1.5-1.7,2.8-3,3.8L136.8,62.7z M128.6,59.9c1.8,0,3.5-0.8,4.8-2c0.6-0.7,1-1.4,1.4-2.2
		c0.7-1.8,0.7-3.8,0-5.6c-0.3-0.8-0.8-1.5-1.4-2.2c-0.6-0.6-1.3-1.1-2.1-1.5c-0.9-0.3-1.8-0.5-2.7-0.5s-1.8,0.2-2.6,0.5
		s-1.5,0.8-2.1,1.5c-0.6,0.6-1.1,1.4-1.4,2.2c-0.7,1.8-0.7,3.8,0,5.6c0.3,0.8,0.8,1.6,1.4,2.2c0.6,0.7,1.3,1.1,2.1,1.4
		C126.8,59.7,127.7,59.9,128.6,59.9z"/>
	<path d="M155.8,55.5V42.6h4.2v12.5c0.1,2.4-0.7,4.6-2.3,6.4c-3.5,3.1-8.7,3.1-12.2,0c-1.6-1.8-2.4-4-2.3-6.4V42.6h4.2v12.9
		c-0.1,1.2,0.4,2.4,1.2,3.2s1.9,1.3,3,1.2c1.2,0.1,2.3-0.4,3.1-1.2C155.5,57.8,155.9,56.7,155.8,55.5z"/>
	<path d="M165.2,63.2V42.6h12v3.5h-7.8v4.8h6.6v3.6h-6.6v5.1h7.8v3.6C177.2,63.2,165.2,63.2,165.2,63.2z"/>
	<path d="M0,94.4V73.8h12v3.5H4.2v4.8h6.7v3.6H4.2v8.7H0z"/>
	<path d="M15.7,94.4V73.8H22c1.9-0.1,3.8,0.4,5.4,1.6c1.3,1.1,2.1,2.8,2,4.5c0,1.2-0.3,2.3-0.9,3.3c-0.6,0.9-1.4,1.6-2.4,2.1
		l6.5,9.1h-5l-5.5-8.3h-2.2v8.3H15.7z M22.3,77.3h-2.4v5.2h2.4c0.7,0.1,1.5-0.2,2-0.7s0.8-1.2,0.8-1.9c0-0.7-0.3-1.4-0.8-1.9
		C23.7,77.5,23,77.3,22.3,77.3z"/>
	<path d="M33.5,94.4l7.8-20.6h5.5l7.8,20.6h-4.5l-2-5.4h-8.2l-2,5.4H33.5z M41.2,85.5h5.6L44,77.7L41.2,85.5z"/>
	<path d="M57.8,94.4V73.8h5.3l9.3,14.7V73.8h4.2v20.6h-5.4l-9.3-14.8v14.8H57.8z"/>
	<path d="M91.5,91.1c1.1,0,2.2-0.3,3.2-0.8c0.9-0.5,1.6-1.2,2.2-2l3.3,2.5c-0.8,1.1-1.8,2-3,2.7s-2.6,1.2-4,1.4l-2.6,4.3h-3.7
		l2.6-4.4c-1.3-0.2-2.6-0.6-3.7-1.3c-1-0.7-2-1.5-2.8-2.4c-0.8-1-1.4-2.1-1.8-3.3c-0.4-1.2-0.6-2.4-0.6-3.7c0-2.9,1.1-5.6,3-7.7
		c1-1,2.2-1.8,3.5-2.3c1.4-0.6,2.9-0.9,4.4-0.9c1.8,0,3.5,0.4,5.1,1.1c1.4,0.7,2.7,1.8,3.6,3.1l-3.3,2.5c-0.6-0.8-1.3-1.5-2.2-2
		c-1-0.5-2.1-0.8-3.2-0.8c-0.9,0-1.8,0.2-2.6,0.5c-0.8,0.4-1.6,0.9-2.2,1.5c-0.5,0.7-1,1.4-1.3,2.2c-0.7,1.8-0.7,3.8,0,5.6
		c0.3,0.8,0.8,1.5,1.3,2.2c0.6,0.6,1.4,1.1,2.2,1.4C89.7,90.9,90.6,91.1,91.5,91.1z"/>
	<path d="M101.1,94.4l7.8-20.6h5.5l7.8,20.6h-4.4l-2-5.4h-8.2l-2,5.4H101.1z M108.9,85.5h5.6l-2.8-7.8L108.9,85.5z"/>
	<path d="M125.4,94.4V73.8h4.2v20.6H125.4z"/>
	<path d="M133.5,91.6l3.1-2.8c0.6,0.7,1.3,1.3,2.1,1.8c0.7,0.5,1.6,0.7,2.5,0.7c0.7,0,1.4-0.2,1.9-0.6c0.5-0.5,0.7-1.1,0.7-1.8
		c0-0.9-0.6-1.8-1.5-2.1l-3.2-1.6c-1.2-0.5-2.3-1.3-3.3-2.1c-1-1.1-1.5-2.5-1.4-3.9c0-0.8,0.1-1.6,0.5-2.3c0.3-0.8,0.7-1.4,1.3-2
		c0.6-0.5,1.3-0.9,2.1-1.2c0.8-0.4,1.8-0.5,2.7-0.5c1.4,0,2.8,0.3,4.1,0.9c1.2,0.7,2.2,1.5,3.1,2.6l-3.1,2.7
		c-0.5-0.7-1.2-1.4-1.9-1.9c-0.7-0.4-1.4-0.7-2.2-0.7c-0.6,0-1.3,0.2-1.7,0.7c-0.5,0.4-0.7,0.9-0.7,1.5c0,0.9,0.6,1.8,1.5,2.1
		l3.2,1.6c1.2,0.5,2.3,1.3,3.3,2.2c1,1,1.6,2.4,1.5,3.9c-0.1,0.9-0.3,1.8-0.6,2.6c-0.4,0.7-0.9,1.4-1.5,2c-0.6,0.5-1.3,0.9-2.1,1.2
		c-0.9,0.3-1.8,0.4-2.7,0.4c-1.5,0-3-0.3-4.4-0.9C135.5,93.5,134.4,92.6,133.5,91.6z"/>
	<path d="M152.5,94.4V73.8h12v3.5h-7.9v4.8h6.7v3.6h-6.7v5.1h7.9v3.6H152.5z"/>
	<g id="Marianne">
		<path id="Fond-2" class="st0" d="M32.2,25l0.9-0.9l0,0c0.5-0.6,1.2-1.3,1.8-1.8l0.6-0.5c0.1-0.1,0.1-0.1,0.1-0.2L34.9,22
			c0,0-0.1,0,0-0.1l0.5-0.4h-0.1c-0.7,0-1.3,0.3-1.7,0.8h-0.2c-0.8,0.3-1.4,1-2.2,1.3l0,0l-1,0.4c-0.4,0.1-0.9,0.1-1.3,0l-2,0.4l0,0
			l-1,0.4h-0.1c0,0.1,0,0.1-0.1,0.1l-0.3,0.3c-0.3,0.2-0.6,0.4-0.9,0.7h-0.1l-0.9,0.9h-0.1c0.1,0,0.1-0.1,0.2-0.2
			c0-0.1,0-0.1,0.1-0.2s0.2-0.3,0.2-0.4l0,0l0.9-0.6l0,0c-0.1,0-0.1,0-0.1-0.1h-0.2c-0.1,0.2-0.2,0.4-0.4,0.4l0,0
			c0-0.1,0-0.1,0.1-0.1l0,0l0.4-0.3l0,0l0.6-0.4h0.1l-0.9,0.4h-0.1c0,0,0,0.1-0.1,0l0,0l0.3-0.3h0.1c1.7-1.3,4.1-1,6.1-1.7l0.5-0.3
			c0.2-0.1,0.4-0.4,0.8-0.5c0.4-0.3,0.7-0.8,0.9-1.3h-0.1c-0.7,0.3-1.5,0.5-2.3,0.5c-1.1,0.4-2.4,0.6-3.6,0.6h0.3
			c0-0.1,0.1-0.2,0.2-0.3h0.2c0-0.1,0-0.1,0.1-0.1h0.2c-0.2-0.2-0.5,0.2-0.8,0s0.1-0.2,0.2-0.3h0.2c0-0.1,0-0.1,0.1-0.2
			c0.8-0.5,1.6-0.8,2.3-1.3s-0.2,0.2-0.4,0.1c-0.2-0.1,0-0.2,0.1-0.2c0.6-0.2,1.2-0.4,1.7-0.7c-0.2,0-0.4,0.2-0.6,0H31v-0.2
			c0-0.1,0-0.1,0.1-0.1H31l0.3-0.2h-0.1c0.2-0.2,0.4-0.3,0.7-0.3c-0.1-0.1-0.3,0-0.3-0.1s0.1-0.1,0.2-0.1h-0.2c-0.1,0-0.1,0-0.1-0.1
			s0-0.1,0.1-0.1l0,0c0.2-0.4,0.4-0.9,0.5-1.3H32c-0.6,0.5-1.4,0.9-2.2,1.1h-0.3c-0.3,0.1-0.6,0.1-0.9-0.1l-0.5-0.4l-1.4-0.7
			c-1.3-0.5-2.7-0.9-4.1-1c0.6-0.2,1.3-0.4,1.9-0.5c0.9-0.4,1.8-0.5,2.7-0.5c-0.2-0.1-0.4,0-0.5,0c-0.8,0-1.6,0.1-2.3,0.3l-1.6,0.4
			c-0.3,0.1-0.5,0.5-0.8,0.4v-0.2c0.5-0.7,1.2-1.2,2-1.3c0.9-0.1,1.9-0.1,2.8,0.1l2.1,0.4c0.2,0,0.3,0.4,0.5,0.5s0.6,0,1,0.2
			s-0.1-0.2,0-0.3s0.4,0,0.7-0.1s-0.4-0.7-0.6-1.1l0,0c0.4,0.4,0.8,0.7,1.3,1c0.3,0.2,0.9,0.3,0.8,0c-0.3-0.6-0.7-1.1-1.2-1.6v-0.2
			h-0.2v-0.5c-0.2-0.1-0.1-0.3-0.3-0.4s0-0.7-0.1-1s-0.2-0.6-0.2-0.9c-0.2-0.9-0.4-1.7-0.5-2.6c-0.1-1,0.6-1.8,1.1-2.7
			c0.3-0.7,0.8-1.3,1.5-1.7c0.2-0.6,0.5-1.2,1-1.7c0.4-0.5,1-0.9,1.6-1.1L36.8,0h10.7l0.2,0.2l0.8,0.4c0.4,0.2,0.7,0.5,1,0.8
			c0.1,0.2,0.3,0.5,0.2,0.7s-0.2,0.7-0.4,0.8c-0.4,0.2-0.8,0.2-1.2,0.2l-0.6-0.2c0.8,0.3,1.6,0.8,2.1,1.5l0.5,0.2l0,0
			C50,4.7,49.9,4.8,50,4.9h0.1c0.3-0.1,0.2-0.6,0.6-0.4C51,4.6,51.1,4.9,51,5.1c0,0.1-0.1,0.1-0.1,0.2l-0.6,0.5
			c-0.1,0.1-0.1,0.3,0,0.4l0.3,0.6L50.9,8c0.3,0.8,0.4,1.6,0.4,2.4c0,0.4-0.2,0.8-0.1,1.2c0.2,0.4,0.4,0.8,0.6,1.2
			c0.3,0.2,0.5,0.5,0.6,0.8c0.3,0.5,0.9,1.1,0.7,1.7s-0.8,0.3-1.2,0.6c-0.4,0.3,0,0.7,0.2,0.9c0.2,0.2-0.4,0.8-0.7,1
			s0.3,0.1,0.3,0.2s0.4,0.4,0.2,0.7c-0.2,0.3-0.9,0.5-0.5,1s0,0.8-0.1,1.1c-0.2,0.4-0.5,0.7-1,0.8c-0.3,0.2-0.7,0.2-1,0.1H49
			c-0.9-0.2-1.8-0.3-2.7-0.4l-0.8,0.2l-0.6,0.6h-0.3l-0.4,0.6l0,0c0,0.1,0,0.1-0.1,0.1l-0.4,1c-0.3,1.2-0.2,2.3,0.1,2.5
			s1.8,0.6,2.9,1.2l1.3,0.6H26c1.1-0.7,2.3-1.3,3.5-1.8c1-0.4,1.9-0.9,2.7-1.6 M24,20.9c-0.1,0-0.3,0.1-0.3,0s0.4-0.3,0.7-0.4
			c0.3-0.1,0.2-0.2,0.3-0.1l0.4,0.2C24.8,20.9,24.4,20.8,24,20.9 M15.8,19.7L15.8,19.7c0.6-0.8,1.2-1.7,1.7-2.7
			c0.6-0.4,1.2-0.8,1.8-1.3c0.8-1,1.9-1.8,3-2.4c0.5-0.1,1-0.1,1.4,0.1c-0.2,0.2-0.5,0.2-0.7,0.3h-0.1v-0.2
			c-0.5,0.6-1.3,0.9-1.7,1.6s-0.5,1.2-1.2,1.3s0-0.1-0.1-0.1c-1.5,1.1-2.9,2.3-4.1,3.7 M20.2,16.5c0,0.1-0.1,0.1-0.1,0.2
			s-0.1,0.2-0.2,0.2h-0.1C19.8,16.7,20,16.4,20.2,16.5L20.2,16.5 M22.7,24.4c0,0.1-0.1,0.1-0.1,0.2s0.1,0,0.1,0.1l-0.4,0.2
			c-0.1,0-0.1,0-0.1,0.1H22c-0.1,0.1-0.4,0.1-0.3,0l0.4-0.4c0.1-0.1,0.2-0.1,0.2-0.2L22.7,24.4 M21.8,24L21.8,24l-0.7,0.4l-0.7,0.3
			h-0.1l-0.5,0.4h-0.3c0,0.1,0,0.1-0.1,0.1h-0.1c0,0.1,0,0.1-0.1,0.1h-0.1c-0.1,0.1-0.2,0.1-0.2,0.2l-0.3,0.3h-0.3l0.2-0.2h0.2
			c0-0.1,0.1-0.2,0.2-0.2l0,0l0,0c0-0.1,0-0.1,0.1-0.1l0,0c0.1-0.1,0.1-0.1,0.1-0.2l0,0c0.1-0.1,0.2-0.2,0.2-0.3l0,0L19.1,25
			C19,25,19,25,19,24.9c0.1,0,0.1,0,0.1-0.1h0.1l0.2-0.3h0.2v-0.2l0,0c0.6-0.5,1.4-0.4,2.1-0.8s0.6,0.1,0.8,0H23l-1.3,0.9
			 M22.8,20.7c-0.1-0.1,0.1,0,0.2-0.2h-0.4l-0.9,0.3l-1.1,0.4c-0.5,0.3-1.1,0.6-1.7,0.9c-0.1,0-0.1,0-0.1-0.1l0.4-0.3l0,0
			c0.4-0.5,0.9-1,1.5-1.4v-0.2c0.2-0.2,0.4-0.4,0.6-0.6c0.1-0.2,0.3-0.4,0.5-0.5h-0.2c-0.2,0-0.4,0.1-0.6-0.1l0.3-0.2h-0.1
			c-0.1-0.2,0.1-0.3,0.3-0.3l0.6-0.2c-0.4-0.1-0.8,0.1-1.2-0.1c0.2-0.7,0.7-1.3,1.4-1.6h0.1c0,0.3-0.1,0.5-0.4,0.5l1.3,0.4
			c0,0.1,0,0.1-0.1,0.1s-0.1,0-0.1-0.1c0.2,0.2,0.6,0.1,0.8,0.3c0.2,0.2-0.3,0-0.4,0c1.6,0.5,3.4,0.8,4.8,1.9
			c-1.2,0.4-2.4,0.5-3.7,0.5h-0.5c-0.2,0-0.4,0-0.5,0.2h-0.7"/>
		<path id="Rouge" class="st1" d="M32.2,25l0.9-0.9l0,0c0.5-0.6,1.2-1.3,1.8-1.8l0.6-0.5c0.1-0.1,0.1-0.1,0.1-0.2L34.9,22
			c0,0-0.1,0,0-0.1l0.5-0.4h-0.1c-0.7,0-1.3,0.3-1.7,0.8h-0.2c-0.8,0.3-1.4,1-2.2,1.3l0,0l-1,0.4c-0.4,0.1-0.9,0.1-1.3,0l-2,0.4l0,0
			l-1,0.4h-0.1c0,0.1,0,0.1-0.1,0.1l-0.3,0.3l-0.9,0.7c-0.1,0-0.1,0-0.1,0.1l-0.9,0.8h-0.1c0.1,0,0.1-0.1,0.2-0.2
			c0-0.1,0-0.1,0.1-0.2s0.2-0.3,0.2-0.4l0,0l0.9-0.6l0,0c-0.1,0-0.1,0-0.1-0.1h-0.2c-0.1,0.2-0.2,0.4-0.4,0.4l0,0
			c0-0.1,0-0.1,0.1-0.1l0,0l0.4-0.3l0,0l0.6-0.4h0.1l-0.9,0.4h-0.1c0,0,0,0.1-0.1,0l0,0l0.3-0.3h0.1c1.7-1.3,4.1-1,6.1-1.7l0.5-0.3
			c0.2-0.1,0.4-0.4,0.8-0.5c0.4-0.3,0.7-0.8,0.9-1.3h-0.1c-0.7,0.3-1.5,0.5-2.3,0.5c-1.1,0.4-2.4,0.6-3.6,0.6h0.3
			c0-0.1,0.1-0.2,0.2-0.3h0.2c0-0.1,0-0.1,0.1-0.1h0.2c-0.2-0.2-0.5,0.2-0.8,0s0.1-0.2,0.2-0.3h0.2c0-0.1,0-0.1,0.1-0.2
			c0.8-0.5,1.6-0.8,2.3-1.3s-0.2,0.2-0.4,0.1c-0.2-0.1,0-0.2,0.1-0.2c0.6-0.2,1.2-0.4,1.7-0.7c-0.2,0-0.4,0.2-0.6,0H31v-0.2
			c0-0.1,0-0.1,0.1-0.1H31l0.3-0.2h-0.1c0.2-0.2,0.4-0.3,0.7-0.3c-0.1-0.1-0.3,0-0.3-0.1s0.1-0.1,0.2-0.1h-0.2c-0.1,0-0.1,0-0.1-0.1
			s0-0.1,0.1-0.1l0,0c0.2-0.4,0.4-0.9,0.5-1.3H32c-0.6,0.5-1.4,0.9-2.2,1.1h-0.3c-0.3,0.1-0.6,0.1-0.9-0.1l-0.5-0.4l-1.4-0.7
			c-1.3-0.5-2.7-0.9-4.1-1c0.6-0.2,1.3-0.4,1.9-0.5c0.9-0.4,1.8-0.5,2.7-0.5c-0.2-0.1-0.4,0-0.5,0c-0.8,0-1.6,0.1-2.3,0.3l-1.6,0.4
			c-0.3,0.1-0.5,0.5-0.8,0.4v-0.2c0.5-0.7,1.2-1.2,2-1.3c0.9-0.1,1.9-0.1,2.8,0.1l2.1,0.4c0.2,0,0.3,0.4,0.5,0.5s0.6,0,1,0.2
			s-0.1-0.2,0-0.3s0.4,0,0.7-0.1s-0.4-0.7-0.6-1.1l0,0c0.5,0.3,0.8,0.8,1.3,1c0.5,0.2,0.9,0.3,0.8,0c-0.3-0.6-0.7-1.1-1.2-1.6v-0.2
			h-0.2v-0.5c-0.2-0.1-0.1-0.3-0.2-0.4s-0.1-0.7-0.2-1s-0.2-0.6-0.2-0.9c-0.2-0.9-0.4-1.7-0.5-2.6c-0.1-1,0.6-1.8,1.1-2.7
			c0.3-0.7,0.8-1.3,1.5-1.7c0.2-0.6,0.5-1.2,1-1.7c0.4-0.5,1-0.9,1.6-1.1L36.8,0H0v28.4h26c1.1-0.7,2.3-1.3,3.5-1.8
			C30.5,26.2,31.4,25.7,32.2,25 M24,21.2c-0.1,0-0.3,0.1-0.3,0s0.4-0.3,0.7-0.4c0.3-0.1,0.2-0.2,0.3-0.1l0.4,0.2
			C24.8,21.2,24.4,21.1,24,21.2 M15.8,20L15.8,20c0.6-0.8,1.2-1.7,1.7-2.7c0.7-0.4,1.3-1,1.8-1.6c0.8-1,1.9-1.8,3-2.4
			c0.5-0.1,1-0.1,1.4,0.1c-0.2,0.2-0.5,0.2-0.7,0.3h-0.1v-0.2c-0.5,0.6-1.3,0.9-1.7,1.6s-0.5,1.2-1.2,1.3s0-0.1-0.1-0.1
			C18.4,17.4,17,18.6,15.8,20 M20.2,16.5c0,0.1-0.1,0.1-0.1,0.2s-0.1,0.2-0.2,0.2h-0.1C19.8,16.7,20,16.4,20.2,16.5L20.2,16.5
			 M22.7,24.4c0,0.1-0.1,0.1-0.1,0.2s0.1,0,0.1,0.1l-0.4,0.2H22c-0.1,0.1-0.4,0.1-0.3,0l0.4-0.4c0.1-0.1,0.2-0.1,0.2-0.2
			c0.1,0,0.1,0,0.1-0.1h0.3 M21.8,23.8L21.8,23.8l-0.7,0.4l-0.7,0.3h-0.1l-0.5,0.4h-0.3c0,0.1,0,0.1-0.1,0.1h-0.1
			c0,0.1,0,0.1-0.1,0.1h-0.1c-0.1,0.1-0.2,0.1-0.2,0.2l-0.3,0.3h-0.3l0.2-0.2h0.2c0-0.1,0.1-0.2,0.2-0.2l0,0l0,0
			c0-0.1,0-0.1,0.1-0.1l0,0c0.1-0.1,0.1-0.1,0.1-0.2l0,0c0.1-0.1,0.2-0.2,0.2-0.3l0,0l-0.2,0.2c-0.1,0-0.1,0-0.1-0.1
			c0.1,0,0.1,0,0.1-0.1h0.1l0.2-0.3h0.2v-0.2l0,0c0.6-0.5,1.4-0.4,2.1-0.8s0.6,0.1,0.8,0H23l-1.3,0.9 M22.8,20.5
			c-0.1-0.1,0.1,0,0.2-0.2h-0.4l-0.9,0.3L20.6,21c-0.5,0.3-1.1,0.6-1.7,0.9c-0.1,0-0.1,0-0.1-0.1l0.4-0.3l0,0c0.4-0.5,0.9-1,1.5-1.4
			v-0.2c0.2-0.2,0.4-0.4,0.6-0.6c0.1-0.2,0.3-0.4,0.5-0.5h-0.2c-0.2,0-0.4,0.1-0.6-0.1l0.3-0.2h-0.1c-0.1-0.2,0.1-0.3,0.3-0.3
			l0.6-0.2c-0.4-0.1-0.8,0.1-1.2-0.1c0.2-0.7,0.7-1.3,1.4-1.6h0.1c0,0.3-0.1,0.5-0.4,0.5l1.3,0.4c0,0.1,0,0.1-0.1,0.1
			s-0.1,0-0.1-0.1c0.2,0.2,0.6,0.1,0.8,0.3c0.2,0.2-0.3,0-0.4,0c1.6,0.5,3.4,0.8,4.8,1.9c-1.2,0.4-2.4,0.7-3.7,0.7h-0.5
			c-0.2,0-0.4,0-0.5,0.2h-0.7"/>
		<path id="Bleu" class="st2" d="M77.9,0H47.5l0.2,0.2l0.8,0.4c0.4,0.2,0.7,0.5,1,0.8c0.1,0.2,0.3,0.5,0.2,0.7s-0.2,0.7-0.4,0.8
			c-0.4,0.2-0.8,0.2-1.2,0.2l-0.6-0.2c0.8,0.3,1.6,0.8,2.1,1.5l0.5,0.2l0,0C50,4.7,49.9,4.8,50,4.9h0.1c0.3-0.1,0.2-0.6,0.6-0.4
			C51,4.6,51.1,4.9,51,5.1c0,0.1-0.1,0.1-0.1,0.2l-0.6,0.5c-0.1,0.1-0.1,0.3,0,0.4l0.3,0.6L50.9,8c0.3,0.8,0.4,1.6,0.4,2.4
			c0,0.4-0.2,0.8,0,1.2c0.1,0.4,0.3,0.8,0.5,1.2c0.3,0.2,0.5,0.5,0.6,0.8c0.4,0.5,0.9,1.1,0.7,1.7s-0.8,0.3-1.2,0.6
			c-0.4,0.3,0,0.7,0.2,0.9c0.2,0.2-0.4,0.8-0.7,1s0.3,0.1,0.3,0.2s0.4,0.4,0.2,0.7c-0.2,0.3-0.9,0.5-0.5,1s0,0.8-0.1,1.1
			c-0.2,0.4-0.5,0.7-1,0.8c-0.3,0.2-0.7,0.2-1,0.1H49c-0.9-0.2-1.8-0.3-2.7-0.4l-0.8,0.2l-0.6,0.6h-0.3l-0.4,0.6l0,0
			c0,0.1,0,0.1-0.1,0.1l-0.4,1c-0.3,1.2-0.2,2.3,0.1,2.5s1.8,0.6,2.9,1.2l1.3,0.6h29.9V0z"/>
		<path id="Yeux" class="st3" d="M49.3,10.4h0.5c-0.1,0.5-0.7,0.6-1.1,1h-0.1c-0.2,0.1-0.1,0.4-0.3,0.4s-0.3,0-0.5,0
			c0.2,0.3,0.5,0.4,0.8,0.4l0.2,0.2H49v0.3c-0.2,0.2-0.4,0.1-0.6,0.2h1.2c0.3-0.2,0-0.7,0.2-1s0-0.1-0.1-0.1s0.2-0.3,0.3-0.3
			s0.3-0.1,0.3-0.2s-0.2-0.2-0.1-0.3s0.6-0.5,0.5-0.8s-0.5-0.2-0.8-0.3s-0.6,0-0.9,0.1l-0.8,0.2l-1,0.5c0.4-0.2,0.8-0.3,1.2-0.3
			C48.7,10.3,49,10.3,49.3,10.4"/>
	</g>
</g>
</svg>
