<?xml version="1.0" encoding="UTF-8" standalone="no"?>
<svg
   xmlns:dc="http://purl.org/dc/elements/1.1/"
   xmlns:cc="http://creativecommons.org/ns#"
   xmlns:rdf="http://www.w3.org/1999/02/22-rdf-syntax-ns#"
   xmlns:svg="http://www.w3.org/2000/svg"
   xmlns="http://www.w3.org/2000/svg"
   xmlns:sodipodi="http://sodipodi.sourceforge.net/DTD/sodipodi-0.dtd"
   xmlns:inkscape="http://www.inkscape.org/namespaces/inkscape"
   clip-rule="evenodd"
   fill-rule="evenodd"
   stroke-linejoin="round"
   stroke-miterlimit="1.414"
   viewBox="0 0 683 61"
   version="1.1"
   id="svg4"
   sodipodi:docname="logo-black.svg"
   inkscape:version="0.92.3 (2405546, 2018-03-11)">
  <metadata
     id="metadata10">
    <rdf:RDF>
      <cc:Work
         rdf:about="">
        <dc:format>image/svg+xml</dc:format>
        <dc:type
           rdf:resource="http://purl.org/dc/dcmitype/StillImage" />
        <dc:title></dc:title>
      </cc:Work>
    </rdf:RDF>
  </metadata>
  <defs
     id="defs8" />
  <sodipodi:namedview
     pagecolor="#ffffff"
     bordercolor="#666666"
     borderopacity="1"
     objecttolerance="10"
     gridtolerance="10"
     guidetolerance="10"
     inkscape:pageopacity="0"
     inkscape:pageshadow="2"
     inkscape:window-width="1853"
     inkscape:window-height="1025"
     id="namedview6"
     showgrid="false"
     inkscape:zoom="1.5180793"
     inkscape:cx="338.72643"
     inkscape:cy="152.68181"
     inkscape:window-x="1987"
     inkscape:window-y="27"
     inkscape:window-maximized="1"
     inkscape:current-layer="svg4" />
  <path
     d="M7.027 46.583V19.676H0v-3.755h7.027V5.158h4.407v10.763h7.325v3.755h-7.325v26.907zm19.176 0V15.921h4.407v4.372c1.469-2.878 4.03-4.541 7.682-4.989.477-.037.993-.075 1.548-.112v4.092c-6.153.56-9.23 3.699-9.23 9.417v17.882zm52.406-30.662v30.662h-4.407v-5.382c-2.62 3.289-5.657 5.232-9.111 5.83-1.072.187-2.224.28-3.454.28-5.36 0-9.707-1.719-13.042-5.157-2.938-2.952-4.407-6.558-4.407-10.818 0-4.858 1.806-8.857 5.419-11.996 3.216-2.765 7.127-4.148 11.732-4.148 5.201 0 9.33 1.85 12.387 5.549l.476.617v-5.437zm-17.151 3.083c-3.891 0-7.107 1.382-9.647 4.148-1.628 1.719-2.621 3.718-2.978 5.998-.119.635-.179 1.27-.179 1.905 0 3.924 1.509 7.101 4.526 9.53 2.422 1.943 5.261 2.915 8.516 2.915 3.891 0 7.067-1.42 9.529-4.26 1.985-2.28 2.977-4.989 2.977-8.129 0-3.811-1.489-6.913-4.466-9.305-2.343-1.868-5.102-2.802-8.278-2.802zM89.09 46.583V15.921h4.407V19.9c2.74-3.139 6.233-4.708 10.481-4.708 4.685 0 8.377 1.588 11.077 4.765 1.707 2.13 2.64 4.951 2.799 8.464.04.635.06 1.326.06 2.074v16.088h-4.407V30.495c0-3.625-.715-6.353-2.144-8.184-1.866-2.168-4.506-3.27-7.921-3.307-3.414 0-6.054 1.139-7.92 3.419a2.305 2.305 0 0 0-.298.336c-1.151 1.57-1.727 3.887-1.727 6.951v16.873zm36.625-9.025h4.347c.199 3.139 1.608 5.045 4.228 5.717.596.15 1.231.225 1.906.225 2.184 0 3.772-.878 4.764-2.635.477-.785.715-1.682.715-2.691 0-1.756-.695-3.083-2.084-3.979-.953-.598-2.363-1.234-4.229-1.906-2.977-1.159-4.744-1.944-5.3-2.355a7.446 7.446 0 0 1-.714-.616c-1.628-1.42-2.442-3.251-2.442-5.494 0-3.101 1.27-5.474 3.811-7.119 1.588-1.009 3.395-1.513 5.42-1.513 3.454 0 6.014 1.233 7.682 3.699.913 1.308 1.409 2.841 1.489 4.597h-4.467c-.238-2.915-1.826-4.41-4.764-4.484-1.866 0-3.236.766-4.109 2.298a3.936 3.936 0 0 0-.596 2.13c0 1.756.993 3.102 2.978 4.036.794.374 2.839 1.196 6.134 2.466 3.772 1.495 5.657 4.111 5.657 7.848 0 3.513-1.389 6.166-4.168 7.96-1.628 1.046-3.554 1.569-5.777 1.569-4.089 0-7.067-1.42-8.933-4.26-.992-1.569-1.508-3.4-1.548-5.493zm28.764-21.637h4.407v5.269c3.096-3.849 7.364-5.849 12.803-5.998 5.122 0 9.35 1.7 12.685 5.101 2.978 3.027 4.466 6.708 4.466 11.043 0 4.671-1.766 8.557-5.3 11.659-3.295 2.878-7.285 4.316-11.97 4.316-5.558 0-9.786-1.999-12.684-5.997v16.031h-4.407zm17.032 3.083c-3.97 0-7.246 1.382-9.826 4.148-2.065 2.279-3.097 4.933-3.097 7.959 0 3.999 1.528 7.213 4.585 9.642 2.343 1.831 5.142 2.747 8.397 2.747 4.089 0 7.385-1.42 9.886-4.26 1.945-2.243 2.918-4.877 2.918-7.904 0-3.999-1.529-7.194-4.586-9.586-1.508-1.196-3.255-1.999-5.24-2.41a13.756 13.756 0 0 0-3.037-.336zm42.401-3.812c5.241 0 9.489 1.719 12.744 5.157 2.779 2.99 4.169 6.652 4.169 10.987 0 4.97-1.787 8.987-5.36 12.052l-1.906 1.401c-2.739 1.682-5.836 2.522-9.29 2.522-5.439 0-9.826-1.737-13.161-5.213-2.858-2.989-4.288-6.67-4.288-11.043 0-4.708 1.787-8.595 5.36-11.659 3.216-2.803 7.127-4.204 11.732-4.204zm0 3.812c-4.089 0-7.365 1.438-9.826 4.316-1.429 1.719-2.323 3.699-2.68 5.942a15.42 15.42 0 0 0-.119 1.906c0 4.185 1.588 7.455 4.764 9.809 2.263 1.682 4.963 2.523 8.099 2.523 4.089 0 7.305-1.476 9.648-4.429 1.707-2.167 2.56-4.727 2.56-7.679 0-4.111-1.508-7.362-4.526-9.754-1.747-1.383-3.791-2.223-6.134-2.522a14.275 14.275 0 0 0-1.786-.112zm26.143 27.579V15.921h4.407v4.372c1.469-2.878 4.03-4.541 7.682-4.989.477-.037.993-.075 1.549-.112v4.092c-6.154.56-9.231 3.699-9.231 9.417v17.882zm26.739 0V19.676h-7.027v-3.755h7.027V5.158h4.407v10.763h7.325v3.755h-7.325v26.907zm22.868-5.606c-1.786 0-3.275 1.402-3.275 3.195 0 1.626 1.489 3.027 3.216 3.027 1.846 0 3.394-1.345 3.394-3.027 0-1.737-1.548-3.195-3.335-3.195zm45.439-35.819v41.425h-7.266v-4.036c-2.818 2.989-6.153 4.578-10.004 4.764h-.894c-4.843 0-8.873-1.681-12.089-5.045-2.977-3.101-4.466-6.857-4.466-11.267 0-4.858 1.727-8.912 5.181-12.164 3.136-2.952 6.908-4.428 11.315-4.428 4.129 0 7.444 1.159 9.945 3.475.119.15.238.281.357.393V5.158h7.921zm-17.092 16.088c-3.215 0-5.776 1.214-7.682 3.643-1.31 1.682-1.965 3.607-1.965 5.774 0 3.251 1.25 5.848 3.752 7.792 1.747 1.345 3.771 2.018 6.074 2.018 3.136 0 5.657-1.215 7.563-3.644 1.35-1.719 2.025-3.7 2.025-5.942 0-3.288-1.29-5.867-3.871-7.735-1.866-1.196-3.831-1.831-5.896-1.906zm58.004-5.718v31.055h-7.265v-4.036c-2.62 2.803-5.677 4.372-9.171 4.708-.556.038-1.151.056-1.787.056-5.201 0-9.389-1.737-12.565-5.213-2.7-2.989-4.05-6.633-4.05-10.93 0-5.158 1.826-9.306 5.479-12.445 3.097-2.616 6.868-3.924 11.315-3.924 4.327 0 7.762 1.42 10.302 4.261.159.186.318.392.477.616v-4.148zm-17.21 6.11c-3.494 0-6.134 1.308-7.921 3.924-1.151 1.644-1.727 3.569-1.727 5.774 0 3.475 1.39 6.035 4.169 7.679 1.588.972 3.454 1.458 5.598 1.458 3.136 0 5.538-.935 7.206-2.803 1.469-1.869 2.263-3.999 2.382-6.39 0-3.551-1.35-6.222-4.05-8.016-1.628-1.084-3.513-1.626-5.657-1.626zm27.275 24.945V22.311h-3.871v-6.783h3.871V5.158h7.92v10.37h4.764v6.783h-4.764v24.272zm52.584-31.055v31.055h-7.265v-4.036c-2.62 2.803-5.677 4.372-9.171 4.708-.556.038-1.151.056-1.787.056-5.201 0-9.389-1.737-12.565-5.213-2.7-2.989-4.05-6.633-4.05-10.93 0-5.158 1.826-9.306 5.479-12.445 3.097-2.616 6.868-3.924 11.315-3.924 4.327 0 7.762 1.42 10.303 4.261.158.186.317.392.476.616v-4.148zm-17.21 6.11c-3.494 0-6.134 1.308-7.921 3.924-1.151 1.644-1.727 3.569-1.727 5.774 0 3.475 1.39 6.035 4.169 7.679 1.588.972 3.454 1.458 5.598 1.458 3.136 0 5.538-.935 7.206-2.803 1.469-1.869 2.263-3.999 2.382-6.39 0-3.551-1.35-6.222-4.05-8.016-1.628-1.084-3.513-1.626-5.657-1.626zm30.312 19.339c-1.787 0-3.276 1.402-3.276 3.195 0 1.626 1.489 3.027 3.216 3.027 1.846 0 3.395-1.345 3.395-3.027 0-1.737-1.549-3.195-3.335-3.195zm39.245-25.449h7.563v25.169c0 5.68-1.112 9.884-3.335 12.612-3.176 3.775-7.762 5.662-13.757 5.662-6.312 0-11.156-1.981-14.53-5.942a15.482 15.482 0 0 1-2.442-3.924h8.992c1.906 1.981 4.189 3.065 6.849 3.251.437.038.913.056 1.429.056 5.876 0 8.953-3.307 9.231-9.921-2.541 2.802-5.479 4.372-8.814 4.708a17.29 17.29 0 0 1-2.025.112c-5.082 0-9.171-1.775-12.267-5.325-2.621-3.027-3.931-6.745-3.931-11.155 0-4.97 1.767-9.006 5.3-12.108 3.018-2.616 6.67-3.924 10.958-3.924 4.764 0 8.357 1.551 10.779 4.653zm-9.886 6.11c-3.613 0-6.233 1.402-7.861 4.204-.873 1.532-1.31 3.308-1.31 5.326 0 3.849 1.469 6.577 4.407 8.184 1.389.747 3.017 1.121 4.883 1.121 3.732 0 6.432-1.383 8.099-4.148.874-1.458 1.31-3.177 1.31-5.157 0-3.663-1.389-6.353-4.168-8.072-1.35-.86-2.898-1.346-4.645-1.458zm42.58-6.839c5.161 0 9.449 1.701 12.863 5.101 3.176 3.14 4.765 6.933 4.765 11.38 0 4.372-1.747 8.146-5.241 11.323-3.454 3.139-7.563 4.708-12.327 4.708-4.884 0-9.052-1.625-12.506-4.876-3.335-3.177-5.003-6.97-5.003-11.38 0-4.521 1.747-8.37 5.241-11.547 3.414-3.139 7.484-4.709 12.208-4.709zm.06 6.839c-2.978 0-5.44 1.14-7.385 3.42-1.429 1.719-2.144 3.68-2.144 5.885 0 3.177 1.251 5.718 3.752 7.624 1.707 1.27 3.653 1.906 5.836 1.906 3.057 0 5.538-1.177 7.444-3.532 1.39-1.719 2.085-3.681 2.085-5.886 0-3.027-1.211-5.493-3.633-7.399-1.747-1.345-3.732-2.018-5.955-2.018zm54.371-6.11v31.055h-7.325v-2.971c-2.303 2.13-4.804 3.326-7.504 3.587l-1.965.112c-4.446 0-7.801-1.532-10.064-4.596-1.509-2.093-2.323-4.933-2.442-8.52a30.558 30.558 0 0 1-.059-2.018V15.528h7.92v15.191c0 3.924.536 6.521 1.608 7.792 1.032 1.308 2.581 1.962 4.645 1.962 2.819 0 4.824-.953 6.015-2.859.834-1.196 1.25-3.681 1.25-7.455V15.528zm19.473 31.055l-13.28-31.055h8.814l7.623 20.572 7.503-20.572h8.933l-13.28 31.055zm24.037-5.604c-1.681 0-3.082 1.401-3.082 3.194 0 1.625 1.401 3.026 3.026 3.026 1.737 0 3.193-1.345 3.193-3.026 0-1.737-1.456-3.194-3.137-3.194zm13.399-21.654h6.17l-6.238 28.885c-1.627 7.459-3.865 11.188-6.78 11.188-.814 0-1.356-.475-1.356-1.153 0-.203.067-.339.271-.678.271-.474.339-.746.339-1.152 0-1.492-1.221-2.645-2.712-2.645-1.424 0-2.509 1.288-2.509 2.916 0 2.305 2.373 4.136 5.356 4.136 6.171 0 10.985-6.781 13.969-19.46l5.085-22.037h7.526l.407-2.17h-7.391c2.035-10.849 4.679-15.663 8.476-15.663.949 0 1.492.339 1.492.881 0 .136-.068.339-.271.678-.339.543-.407.882-.407 1.424 0 1.628 1.017 2.712 2.509 2.712 1.559 0 2.915-1.288 2.915-2.78 0-2.508-2.508-4.407-5.899-4.407-3.322 0-6.035 1.492-8.543 4.679-2.035 2.712-3.458 5.831-5.56 12.476h-6.374zm27.665 27.258c3.729-11.866 4.882-14.646 8.001-19.867 2.373-3.865 4.272-5.967 5.425-5.967.474 0 .813.271 1.152.949.543 1.153 1.085 1.492 2.441 1.492 2.035 0 3.187-1.221 3.187-3.391 0-2.169-1.288-3.526-3.187-3.526-1.559 0-3.458 1.018-5.221 2.916-2.848 2.848-5.695 6.984-6.78 9.629l-1.017 2.508 3.797-14.917-.204-.136c-4.95.882-5.695 1.018-10.645 1.831v1.153c1.491-.271 1.763-.339 2.305-.339 1.492 0 2.373.678 2.373 1.898 0 .882-.542 3.662-1.085 5.696l-5.763 20.071z"
     fill="#fff"
     fill-rule="nonzero"
     id="path2"
     style="fill:#000000" />
</svg>
