<svg aria-hidden="true" xmlns="http://www.w3.org/2000/svg" viewBox="0 0 1069 921" xml:space="preserve">
  <path d="M291.5 816.9c1.7 0 3.2 1.3 2.4 4.6l-8 1.9c1.5-3.8 3.8-6.5 5.6-6.5m4.4 12.8h-1.6c-2 2.4-4.1 4.2-6.3 4.2s-3.3-1.3-3.3-4.2c0-1.2.1-2.4.4-3.5L298 822c2.5-5.9-.5-8.5-4-8.5-6.1 0-13 10.1-13 19 0 4 1.9 6.2 4.9 6.2 3.4-.1 7.1-3.5 10-9m-2.5-18.6 9-8.4v-1h-4.9l-5.6 9.4h1.5zm-27.7 5.9h4.3l-6.8 18.5c-.6 1.6.2 3.1 1.9 3.1 3.8 0 10-3.8 12.2-9h-1.2c-1.7 1.8-5 4.2-7.8 4.7l6.2-17.4h6.3l.8-2.6h-6.2l2.4-6.7h-2.5l-4.4 6.7-5.2.7v2zm-5.8-.9c.5-1.7-.6-2.7-1.5-2.7-3.7 0-8.1 3.3-9.9 8h1.2c1.2-1.7 3.2-3.6 5.1-3.9l-7.1 18.4c-.6 1.7.6 2.7 1.5 2.7 3.5 0 7.6-3.4 9.4-8h-1.2c-1.2 1.7-3.2 3.6-5.1 3.9l7.6-18.4zm1.3-9.2c1.7 0 3.1-1.3 3.1-3.1 0-1.7-1.4-3.1-3.1-3.1-1.7 0-3.1 1.4-3.1 3.1.1 1.7 1.4 3.1 3.1 3.1m-40.8 28.3c-.9 2.1 0 3.4 2.1 3.4 1.3 0 1.8-.3 2.3-1.7l4.9-13c2.3-2.8 6.9-5.7 8.8-5.7 1.3 0 1.2 1.1.3 2.8l-7.5 14.5c-.7 1.4.2 3.1 1.9 3.1 3.7 0 8.1-3.3 9.9-8h-1.2c-1.2 1.7-3.2 3.6-5.1 3.9l6.5-13.1c.8-1.7 1.3-3.2 1.3-4.5 0-2.1-1.2-3.5-3.4-3.5-3.2 0-6.4 3.6-10.3 8.1v-3.4c0-2.5-.8-4.6-3-4.6-1.4 0-2.7 1.2-4 2.9v.5c2.4-.1 3.5 3.5 1.8 7.3l-5.3 11zm-.1-16.1c.9-3 .4-5.6-1.9-5.6-2.7 0-3.4 2.1-6.2 8.1v-3.4c0-2.5-.8-4.6-3-4.6-2.6 0-5 4-6.8 8h1.2c1.3-1.8 2.4-2.9 3.3-2.9 1.1 0 1.7 1.7 0 5.5l-5 11.1c-.9 2.1 0 3.4 2.1 3.4 1.3 0 1.8-.3 2.3-1.7l4.9-13c1.4-1.7 2.6-3.2 4.2-4.9h4.9zm-28.4-2.2c1.7 0 3.2 1.3 2.4 4.6l-8 1.9c1.4-3.8 3.8-6.5 5.6-6.5m4.4 12.8h-1.6c-2 2.4-4.1 4.2-6.3 4.2s-3.3-1.3-3.3-4.2c0-1.2.1-2.4.4-3.5l12.8-4.2c2.5-5.9-.5-8.5-4-8.5-6.1 0-13 10.1-13 19 0 4 1.9 6.2 4.9 6.2 3.5-.1 7.1-3.5 10.1-9M166.1 817h4.3l-6.8 18.5c-.6 1.6.2 3.1 1.9 3.1 3.8 0 10-3.8 12.2-9h-1.2c-1.7 1.8-5 4.2-7.8 4.7l6.2-17.4h6.3l.8-2.6h-6.2l2.4-6.7h-2.5l-4.4 6.7-5.2.7v2zm-23.4 14.4c0-5.7 6.3-13.4 9.9-13.4.8 0 1.5.1 2.2.3l-3.7 9.9c-2.1 2.6-5.4 5.7-6.9 5.7-1 0-1.5-.8-1.5-2.5m19.5-19-1.9-.1-2.2 2.1h-.5c-10.6 0-19.7 11.9-19.7 20.5 0 2.4 1.5 3.8 3.8 3.8 2.7 0 5.4-3.9 8.4-8.1l-.1 1.5c-.4 4.3.9 6.6 3.1 6.6 2.6 0 5-4 6.8-8h-1.2c-1.3 1.8-2.4 2.9-3.3 2.9-1 0-1.7-1.8 0-5.5l6.8-15.7zm-22.5 6.7c.9-3 .4-5.6-1.9-5.6-2.7 0-3.4 2.1-6.2 8.1v-3.4c0-2.5-.8-4.6-3-4.6-2.6 0-5 4-6.8 8h1.2c1.3-1.8 2.4-2.9 3.3-2.9 1.1 0 1.7 1.7 0 5.5l-5 11.1c-.9 2.1 0 3.4 2.1 3.4 1.3 0 1.8-.3 2.3-1.7l4.9-13c1.4-1.7 2.6-3.2 4.2-4.9h4.9zm-35.5 18.6.5-1.4c-6.2-1.2-6.9-1.2-4.5-7.9l2.5-6.9h6.8c3.1 0 3.1 1.3 2.6 4.6h1.8l4.1-11.2h-1.8c-1.5 2.6-2.7 4.6-6.1 4.6h-6.7l3.6-9.8c1.1-3.1 1.8-3.8 5.9-3.8h3c4.3 0 4.8 1.2 4.8 5.5h1.7l1.4-7.6H98.3l-.5 1.4c5 1 5.4 1.5 3.1 7.9l-5.6 15.2c-2.3 6.3-3.3 6.9-9 7.9l-.4 1.4h18.3zM229.5 759c1.7 0 3.2 1.3 2.4 4.6l-8 1.9c1.4-3.8 3.8-6.5 5.6-6.5m4.4 12.8h-1.6c-2 2.4-4.1 4.2-6.3 4.2s-3.3-1.3-3.3-4.2c0-1.2.1-2.4.4-3.5l12.8-4.2c2.5-5.9-.5-8.5-4-8.5-6.1 0-13 10.1-13 19 0 4 1.9 6.2 4.9 6.2 3.5-.1 7.2-3.4 10.1-9m-2.5-18.6 9-8.4v-1h-4.9l-5.6 9.4h1.5zm-27.7 5.9h4.3l-6.8 18.5c-.6 1.6.2 3.1 1.9 3.1 3.8 0 10-3.8 12.2-9H214c-1.7 1.8-5 4.2-7.8 4.7l6.2-17.4h6.3l.8-2.6h-6.2l2.4-6.7h-2.5l-4.4 6.7-5.2.7v2zm-5.8-.9c.5-1.7-.6-2.7-1.5-2.7-3.7 0-8.1 3.3-9.9 8h1.2c1.2-1.7 3.2-3.6 5.1-3.9l-7.1 18.4c-.6 1.7.6 2.7 1.5 2.7 3.5 0 7.6-3.4 9.4-8h-1.2c-1.2 1.7-3.2 3.6-5.1 3.9l7.6-18.4zm1.3-9.2c1.7 0 3.1-1.3 3.1-3.1 0-1.7-1.4-3.1-3.1-3.1-1.7 0-3.1 1.4-3.1 3.1.1 1.7 1.4 3.1 3.1 3.1m-24.6 27.7 12.9-33.9-.4-.5-8.1.9v1l1.6 1.2c1.4 1.1 1 2.2-.3 5.6l-10.1 26.6c-.7 1.4.2 3.1 1.9 3.1 3.7 0 7.6-3.3 9.4-8h-1.2c-1.3 1.7-3.8 3.6-5.7 4m-24.5-3.2c0-5.7 6.3-13.4 9.9-13.4.8 0 1.5.1 2.2.3l-3.7 9.9c-2.1 2.6-5.4 5.7-6.9 5.7-1 0-1.5-.8-1.5-2.5m19.4-19-1.9-.1-2.2 2.1h-.4c-10.6 0-19.7 11.9-19.7 20.5 0 2.4 1.5 3.8 3.8 3.8 2.7 0 5.4-3.9 8.4-8.1l-.1 1.5c-.4 4.3.9 6.6 3.1 6.6 2.6 0 5-4 6.8-8h-1.2c-1.3 1.8-2.4 2.9-3.3 2.9-1 0-1.7-1.8 0-5.5l6.7-15.7zm-47.1 30.7c0-2.5 2.4-4 5.7-5.3 1.1.6 2.8 1.2 5 1.9 3.5 1.2 4.9 1.6 4.9 2.7 0 2.3-3.8 4-9.1 4-4.4 0-6.5-.9-6.5-3.3m9.6-14.9c-1.5 0-2.1-1.3-2.1-2.8 0-4.1 2.2-10.2 5.7-10.2 1.5 0 2.1 1.3 2.1 2.8 0 4.1-2.2 10.2-5.7 10.2m10 12.7c0-3-2.6-4-6.9-5.3-3.7-1.1-5.4-1.4-5.4-2.6 0-1 .8-2.1 2.4-3 6.1-.3 10-5.8 10-10.4 0-1-.2-1.8-.5-2.5h5.1l.8-2.6h-8.2c-1-.6-2.1-.9-3.3-.9-6.4 0-10.6 5.6-10.6 10.2 0 3.5 2.2 5.6 4.9 6.2-3 1.3-4.7 2.9-4.7 4.8 0 1.1.4 1.8 1.3 2.5-6.9 2-9.7 4.4-9.7 7.6 0 3.2 4.2 4.5 9.2 4.5 8.6-.1 15.6-4.7 15.6-8.5m-32.3-19.9c3.1 0 3.1 1.3 2.6 4.6h1.8l4.1-11.2h-1.8c-1.5 2.6-2.7 4.6-6.1 4.6h-6.7l3.4-9.3c1.1-3.1 1.8-3.7 5.9-3.7h3c4.3 0 4.8 1.2 4.8 5.5h1.7l1.4-7.6H98.3l-.5 1.4c5 1 5.4 1.5 3.1 7.9l-5.6 15.2c-2.3 6.3-3.3 6.9-9 7.9l-.4 1.4h28.4l5.1-8.1h-1.9c-3.2 3.1-7.3 6-13 6-7.5 0-6.9-.3-4.4-7.2l2.7-7.4h6.9zm3.7-19.4 9-6.2v-1h-5.5l-5 7.2h1.5zM226.5 701.1c1.7 0 3.2 1.3 2.4 4.6l-8 1.9c1.4-3.8 3.8-6.5 5.6-6.5m4.4 12.8h-1.6c-2 2.4-4.1 4.2-6.3 4.2s-3.3-1.3-3.3-4.2c0-1.2.1-2.4.4-3.5l12.8-4.2c2.5-5.9-.5-8.5-4-8.5-6.1 0-13 10.1-13 19 0 4 1.9 6.2 4.9 6.2 3.5 0 7.1-3.4 10.1-9m-2.5-18.6 9-8.4v-1h-4.9l-5.6 9.4h1.5zm-26.6 5.9h3.4l-6.8 18.5c-.6 1.6.2 3.1 1.9 3.1 3.8 0 10-3.8 12.2-9h-1.2c-1.7 1.8-5 4.2-7.8 4.7l6.2-17.4h6.3l.8-2.6h-6.2l2.4-6.7h-2.5l-4.4 6.7-4.4.7v2zm-3.3 2.1c.9-3 .4-5.6-1.9-5.6-2.7 0-3.4 2.1-6.2 8.1v-3.4c0-2.5-.8-4.6-3-4.6-2.6 0-5 4-6.8 8h1.2c1.3-1.8 2.4-2.9 3.3-2.9 1.1 0 1.7 1.7 0 5.5l-5 11.1c-.9 2.1 0 3.4 2.1 3.4 1.3 0 1.8-.3 2.3-1.7l4.9-13c1.4-1.7 2.6-3.2 4.2-4.9h4.9zm-28.4-2.2c1.7 0 3.2 1.3 2.4 4.6l-8 1.9c1.4-3.8 3.7-6.5 5.6-6.5m4.4 12.8h-1.6c-2 2.4-4.1 4.2-6.3 4.2s-3.3-1.3-3.3-4.2c0-1.2.1-2.4.4-3.5l12.8-4.2c2.5-5.9-.5-8.5-4-8.5-6.1 0-13 10.1-13 19 0 4 1.9 6.2 4.9 6.2 3.5 0 7.1-3.4 10.1-9m-31.5 5.2c-1.3 0-3.1-1.2-3.1-2.2 0-.3.6-1.8 1.3-3.6l2.1-5.5c2.2-2.6 5.6-5.5 7.5-5.5 1.2 0 2 .7 2 2.5 0 5.1-4.7 14.3-9.8 14.3m14.6-16.3c0-3.8-1.4-5.1-4-5.1-3.2 0-6.3 3.4-9.4 7.6l7.7-20.3-.4-.5-8.1.9v1l1.6 1.2c1.4 1.1 1 2.3-.3 5.6l-8.3 21.5c-.6 1.6-1.3 3.4-1.3 3.9 0 2.2 3 4.3 5.7 4.3 6.3 0 16.8-11.4 16.8-20.1m-25.2-2.4c.5-1.7-.6-2.7-1.5-2.7-3.7 0-8.1 3.3-9.9 8h1.2c1.2-1.7 3.2-3.6 5.1-3.9l-7.1 18.4c-.6 1.7.6 2.7 1.5 2.7 3.5 0 7.6-3.4 9.4-8H130c-1.2 1.7-3.2 3.6-5.1 3.9l7.5-18.4zm1.3-9.3c1.7 0 3.1-1.3 3.1-3.1 0-1.7-1.4-3.1-3.1-3.1-1.7 0-3.1 1.4-3.1 3.1.1 1.8 1.4 3.1 3.1 3.1m-18.7-3H98.2l-.5 1.4c5 1 5.4 1.5 3.1 7.9l-5.5 15.2c-2.3 6.3-3.3 6.9-9 7.9l-.4 1.4h25.7l5.6-9.9h-1.9c-3.1 3.5-6.9 7.8-12.5 7.8-4.3 0-4.8-.7-2.5-7.2l5.5-15.2c2.3-6.3 3.3-6.9 9-7.9l.2-1.4zM86.5 211.5h15.9l15.4 26.5 15.4-26.5h15.9v63h-12.8v-45.2l-14 23.6h-9l-14-23.6v45.2H86.5v-63zM166.8 211.5h12.8v63h-12.8v-63zM197.3 211.5h16.4l28.2 45.5v-45.5h12.8v63h-16.4L210.1 229v45.5h-12.8v-63zM272.4 211.5h12.8v63h-12.8v-63zM306.5 257.2c3.8 4.9 8.8 7.7 13.9 7.7 5 0 8.1-2.7 8.1-7.2 0-11.6-28.6-8.5-28.6-29.8 0-10 8.3-18.3 20.3-18.3 9.4 0 16.6 4.2 22 10.6l-9.4 8.5c-3.7-4.8-7.8-7.9-12.6-7.9-4.5 0-7.5 2.9-7.5 6.7 0 11.4 28.6 8.2 28.6 29.8-.2 11.9-9.4 19-21 19-10.6 0-17.7-3.9-23.3-10.5l9.5-8.6zM348.1 211.5h51.7v11.6h-19.4v51.4h-12.8v-51.4h-19.4v-11.6zM411.1 211.5h36.7v10.6h-23.9V237h20.3v10.6h-20.3v16.2h23.9v10.6h-36.7v-62.9zm1.1-17.5h13.1l10.2 12.1h-11.7L412.2 194zM462.7 211.5H482c13.9 0 22.4 7.1 22.4 18.8 0 7.6-3.7 13.3-10.2 16.3l19.7 27.9h-15L482.1 249h-6.6v25.5h-12.8v-63zm12.8 10.6v16.3h7.2c5.4 0 8.5-3.1 8.5-8.3 0-4.8-3.1-8-8.5-8h-7.2zM522.1 211.5h36.7v10.6h-23.9V237h20.3v10.6h-20.3v16.2h23.9v10.6h-36.7v-62.9zM86.5 303.5h24.7c20 0 33.5 14.5 33.5 31.5s-13.5 31.5-33.5 31.5H86.5v-63zm12.8 11.6v39.8h12.1c11.7 0 20.2-8.7 20.2-19.9s-8.5-19.9-20.2-19.9H99.3zM157.2 303.5h36.7v10.6H170V329h20.3v10.6H170v16.2h23.9v10.6h-36.7v-62.9zM232.3 303.5h12.8v51.4H269v11.6h-36.7v-63zM299 303.5h16.7l23.8 63H326l-6-16.4h-25.2l-6 16.4h-13.6l23.8-63zm17 35.7-8.6-23.7-8.6 23.7H316zM366.4 303.5h51.7v11.6h-19.4v51.4h-12.8v-51.4h-19.4v-11.6zM429.4 303.5h19.3c13.9 0 22.4 7.1 22.4 18.8 0 7.6-3.7 13.3-10.2 16.3l19.7 27.9h-15L448.8 341h-6.6v25.5h-12.8v-63zm12.8 10.6v16.3h7.2c5.4 0 8.5-3.1 8.5-8.3 0-4.8-3.2-8-8.5-8h-7.2zM507.5 303.5h16.7l23.8 63h-13.6l-6-16.4h-25.2l-6 16.4h-13.6l23.9-63zm17 35.7-8.6-23.7-8.6 23.7h17.2zM557.9 303.5h16.4l28.2 45.5v-45.5h12.8v63h-16.4L570.6 321v45.5h-12.8v-63zM636.5 349.2c3.8 4.9 8.8 7.7 13.9 7.7 5 0 8.1-2.7 8.1-7.2 0-11.6-28.6-8.5-28.6-29.8 0-10 8.3-18.3 20.3-18.3 9.5 0 16.7 4.2 22 10.6l-9.4 8.5c-3.7-4.8-7.8-7.9-12.6-7.9-4.5 0-7.5 2.9-7.5 6.7 0 11.4 28.6 8.2 28.6 29.8-.2 11.9-9.4 19-21 19-10.6 0-17.7-3.9-23.3-10.5l9.5-8.6zM685 303.5h12.8v63H685v-63zM709.1 303.5h51.7v11.6h-19.4v51.4h-12.8v-51.4h-19.4v-11.6zM772.1 303.5h12.8v63h-12.8v-63zM864 335c0 18-13.6 33.3-33.4 33.3-19.9 0-33.5-15.3-33.5-33.3 0-18 13.6-33.3 33.5-33.3S864 317 864 335zm-13.1 0c0-12.1-8.5-21.3-20.2-21.3-11.9 0-20.3 9.3-20.3 21.3 0 12.1 8.5 21.3 20.3 21.3 11.7 0 20.2-9.2 20.2-21.3zM876.4 303.5h16.4L921 349v-45.5h12.8v63h-16.4L889.2 321v45.5h-12.8v-63zM86.5 395.5h36.7v10.6H99.3V421h20.3v10.6H99.3v16.2h23.9v10.6H86.5v-62.9zm12.5-5.4 10.2-12.1h13.1l-11.7 12.1H99zM181.3 439.7l10.1 7.7c-5.8 7.8-15.1 12.9-26.5 12.9-19.9 0-33.5-15.3-33.5-33.3 0-18 13.6-33.3 33.5-33.3 11.4 0 20.8 5.1 26.5 12.8l-10.1 7.8c-3.6-5.1-9.3-8.6-16.5-8.6-11.9 0-20.3 9.3-20.3 21.3 0 12.1 8.5 21.3 20.3 21.3 7.2 0 12.9-3.5 16.5-8.6zM263.6 427c0 18-13.6 33.3-33.4 33.3-19.9 0-33.5-15.3-33.5-33.3 0-18 13.6-33.3 33.5-33.3 19.8 0 33.4 15.3 33.4 33.3zm-13.2 0c0-12.1-8.5-21.3-20.2-21.3-11.9 0-20.3 9.3-20.3 21.3 0 12.1 8.5 21.3 20.3 21.3s20.2-9.2 20.2-21.3zM275.9 395.5h12.8v51.4h23.9v11.6h-36.7v-63zM383.2 427c0 18-13.6 33.3-33.4 33.3-19.9 0-33.5-15.3-33.5-33.3 0-18 13.6-33.3 33.5-33.3 19.8 0 33.4 15.3 33.4 33.3zm-13.2 0c0-12.1-8.5-21.3-20.2-21.3-11.9 0-20.3 9.3-20.3 21.3 0 12.1 8.5 21.3 20.3 21.3S370 439.1 370 427zM440.8 442.9v-11h-16V421h28.8v26.5c-5.8 7.8-15.7 12.9-27.4 12.9-20.4 0-34.4-15.3-34.4-33.3 0-18 13.6-33.3 33.5-33.3 11.4 0 20.8 5.1 26.5 12.8l-10.1 7.8c-3.6-5.1-9.3-8.6-16.5-8.6-11.9 0-20.3 9.3-20.3 21.3 0 12.1 8.9 21.3 21.2 21.3 6-.1 11.1-2.1 14.7-5.5zM467.9 395.5h12.8v63h-12.8v-63zM564.4 462.9c1.3 0 3.2-.2 4.5-.7V473c-2.1.8-3.9 1.2-6.7 1.2-7 0-13.5-2.9-19.7-8.3l-7.5-6.7c-2.7.7-5.6 1.1-8.6 1.1-19.9 0-33.5-15.3-33.5-33.3 0-18 13.6-33.3 33.5-33.3 19.8 0 33.4 15.3 33.4 33.3 0 10.5-4.7 20.2-12.4 26.3l3.8 3.6c4.9 4.4 9.2 6 13.2 6zM546.7 427c0-12.1-8.5-21.3-20.2-21.3-11.9 0-20.3 9.3-20.3 21.3 0 12.1 8.5 21.3 20.3 21.3 11.7 0 20.2-9.2 20.2-21.3zM609.3 395.5h12.8v38.3c0 16.6-9.7 26.5-25.6 26.5-15.8 0-25.5-9.9-25.5-26.5v-38.3h12.8v39.4c0 8.5 4.8 13.4 12.8 13.4 7.8 0 12.7-5 12.7-13.4v-39.4zM638.1 395.5h36.7v10.6h-23.9V421h20.3v10.6h-20.3v16.2h23.9v10.6h-36.7v-62.9zM86.5 487.5h36.7v10.6H99.3V513h20.3v10.6H99.3v16.2h23.9v10.6H86.5v-62.9zM133.1 487.5h51.7v11.6h-19.4v51.4h-12.8v-51.4h-19.4v-11.6zM219.6 487.5h24.7c20 0 33.5 14.5 33.5 31.5s-13.5 31.5-33.5 31.5h-24.7v-63zm12.7 11.6v39.8h12.1c11.7 0 20.2-8.7 20.2-19.9s-8.5-19.9-20.2-19.9h-12.1zM290.2 487.5h36.7v10.6H303V513h20.3v10.6H303v16.2h23.9v10.6h-36.7v-62.9zM365.4 487.5h12.8v51.4h23.9v11.6h-36.7v-63zM432 487.5h16.7l23.8 63H459l-6-16.4h-25.2l-6 16.4h-13.6l23.8-63zm17.1 35.7-8.6-23.7-8.6 23.7h17.2zM550.5 531.7l10.1 7.7c-5.8 7.8-15.1 12.9-26.5 12.9-19.9 0-33.5-15.3-33.5-33.3 0-18 13.6-33.3 33.5-33.3 11.4 0 20.8 5.1 26.5 12.8l-10.1 7.8c-3.6-5.1-9.3-8.6-16.5-8.6-11.9 0-20.3 9.3-20.3 21.3 0 12.1 8.5 21.3 20.3 21.3 7.2 0 12.9-3.5 16.5-8.6zM632.7 519c0 18-13.6 33.3-33.4 33.3-19.9 0-33.5-15.3-33.5-33.3 0-18 13.6-33.3 33.5-33.3s33.4 15.3 33.4 33.3zm-13.1 0c0-12.1-8.5-21.3-20.2-21.3-11.9 0-20.3 9.3-20.3 21.3 0 12.1 8.5 21.3 20.3 21.3 11.7 0 20.2-9.2 20.2-21.3zM645.1 487.5h12.8v25.1h31.8v-25.1h12.8v63h-12.8v-26.3h-31.8v26.3h-12.8v-63zM720.1 487.5h36.7v10.6h-23.9V513h20.3v10.6h-20.3v16.2h23.9v10.6h-36.7v-62.9zm12.5-5.4 10.2-12.1h13.1l-11.7 12.1h-11.6zM775.4 533.2c3.8 4.9 8.8 7.7 13.9 7.7 5 0 8.1-2.7 8.1-7.2 0-11.6-28.6-8.5-28.6-29.8 0-10 8.3-18.3 20.3-18.3 9.5 0 16.7 4.2 22 10.6l-9.4 8.5c-3.7-4.8-7.8-7.9-12.6-7.9-4.5 0-7.5 2.9-7.5 6.7 0 11.4 28.6 8.2 28.6 29.8-.2 11.9-9.4 19-21 19-10.6 0-17.7-3.9-23.3-10.5l9.5-8.6zM823.9 487.5h12.8v63h-12.8v-63zM915.9 519c0 18-13.6 33.3-33.4 33.3-19.9 0-33.5-15.3-33.5-33.3 0-18 13.6-33.3 33.5-33.3 19.8 0 33.4 15.3 33.4 33.3zm-13.2 0c0-12.1-8.5-21.3-20.2-21.3-11.9 0-20.3 9.3-20.3 21.3 0 12.1 8.5 21.3 20.3 21.3s20.2-9.2 20.2-21.3zM928.2 487.5h16.4l28.2 45.5v-45.5h12.8v63h-16.4L941 505v45.5h-12.8v-63zM86.5 579.5h24.7c20 0 33.5 14.5 33.5 31.5s-13.5 31.5-33.5 31.5H86.5v-63zm12.8 11.6v39.8h12.1c11.7 0 20.2-8.7 20.2-19.9s-8.5-19.9-20.2-19.9H99.3zM157.2 579.5h36.7v10.6H170V605h20.3v10.6H170v16.2h23.9v10.6h-36.7v-62.9zM212.5 625.2c3.8 4.9 8.8 7.7 13.9 7.7 5 0 8.1-2.7 8.1-7.2 0-11.6-28.6-8.5-28.6-29.8 0-10 8.3-18.3 20.3-18.3 9.5 0 16.7 4.2 22 10.6l-9.4 8.5c-3.7-4.8-7.8-7.9-12.6-7.9-4.5 0-7.5 2.9-7.5 6.7 0 11.4 28.6 8.2 28.6 29.8-.2 11.9-9.4 19-21 19-10.6 0-17.7-3.9-23.3-10.5l9.5-8.6zM278 579.5h51.7v11.6h-19.4v51.4h-12.8v-51.4H278v-11.6zM341 579.5h36.7v10.6h-23.9V605h20.3v10.6h-20.3v16.2h23.9v10.6H341v-62.9zM392.6 579.5h19.3c13.9 0 22.4 7.1 22.4 18.8 0 7.6-3.7 13.3-10.2 16.3l19.7 27.9h-15L412 617h-6.6v25.5h-12.8v-63zm12.8 10.6v16.3h7.2c5.4 0 8.5-3.2 8.5-8.3 0-4.8-3.1-8-8.5-8h-7.2zM452 579.5h19.3c13.9 0 22.4 7.1 22.4 18.8 0 7.6-3.7 13.3-10.2 16.3l19.7 27.9h-15L471.4 617h-6.6v25.5H452v-63zm12.8 10.6v16.3h7.2c5.4 0 8.5-3.2 8.5-8.3 0-4.8-3.1-8-8.5-8h-7.2zM511.4 579.5h12.8v63h-12.8v-63zM535.5 579.5h51.7v11.6h-19.4v51.4H555v-51.4h-19.4v-11.6zM657 611c0 18-13.6 33.3-33.4 33.3-19.9 0-33.5-15.3-33.5-33.3 0-18 13.6-33.3 33.5-33.3S657 593 657 611zm-13.1 0c0-12.1-8.5-21.3-20.2-21.3-11.9 0-20.3 9.3-20.3 21.3 0 12.1 8.5 21.3 20.3 21.3 11.7 0 20.2-9.2 20.2-21.3zM669.4 579.5h12.8v63h-12.8v-63zM699.9 579.5h19.3c13.9 0 22.4 7.1 22.4 18.8 0 7.6-3.7 13.3-10.2 16.3l19.7 27.9h-15L719.2 617h-6.6v25.5h-12.8v-63zm12.8 10.6v16.3h7.2c5.4 0 8.5-3.2 8.5-8.3 0-4.8-3.2-8-8.5-8h-7.2zM759.3 579.5H796v10.6h-23.9V605h20.3v10.6h-20.3v16.2H796v10.6h-36.7v-62.9zM814.5 625.2c3.8 4.9 8.8 7.7 13.9 7.7 5 0 8.1-2.7 8.1-7.2 0-11.6-28.6-8.5-28.6-29.8 0-10 8.3-18.3 20.3-18.3 9.5 0 16.7 4.2 22 10.6l-9.4 8.5c-3.7-4.8-7.8-7.9-12.6-7.9-4.5 0-7.5 2.9-7.5 6.7 0 11.4 28.6 8.2 28.6 29.8-.2 11.9-9.4 19-21 19-10.6 0-17.7-3.9-23.3-10.5l9.5-8.6z"/>
  <path d="M179.1 157.8c.9-.9 1.8-1.9 2.7-2.8 1.7-1.9 3.3-3.7 5.3-5.4.6-.5 1.2-1 1.7-1.4.2-.2.2-.5.3-.6-.8.3-1.3 1-2.1 1.3-.2 0-.3-.2-.2-.3.6-.4 1.1-.8 1.7-1.3h-.1c-.2 0-.2-.2-.2-.3-2.1-.3-3.6 1.1-5.1 2.4-.3.2-.6-.2-.8-.2-2.4.8-4.1 2.9-6.5 3.8v-.3c-1 .3-1.9.9-2.9 1.1-1.4.3-2.7.2-4 .2-1.9.2-3.8.6-5.8 1h-.2c-1 .3-2 .7-3 1.2 0 0-.1 0-.1.1-.1.1-.2.2-.2.3-.3.4-.6.7-1.1.9-1 .5-1.8 1.4-2.6 2.1-.1.1-.2.1-.3.1-.9.8-1.7 1.6-2.6 2.4-.1.1-.3.1-.5.1 0-.1.1-.1.1-.2.1-.2.3-.4.4-.7.2-.2.3-.5.5-.7.2-.3.4-.7.7-1 .1-.1 0-.2 0-.2-.1-.1-.1-.1-.2-.1.8-.8 1.7-1.4 2.7-2-.1 0-.3 0-.2-.2.1-.1.2-.3.3-.4 0 0 0-.1.1-.1l-.1-.1c-.3.2-.5.3-.7.5-.4.3-.7 1-1.3 1h-.2c-.1 0-.1 0-.2-.1 0 0 0-.1.1-.1l.1-.1s0-.1.1-.1c0-.1.1-.1.1-.2l.1-.1c.1-.1.1-.2.2-.3 0-.1.1-.1.1-.2.1-.1.1-.2.2-.3.1-.1 0-.2-.1-.3.3-.4.7-.7 1.1-.9.6-.3 1.2-.7 1.8-1 .1-.1.2-.2.3-.2-.9.3-1.7.7-2.5 1.2 0 0-.2.1-.3.1 0 0-.2.1-.4-.1v-.1c.2-.3.6-.5 1-.8.2 0 .3 0 .3.2 5.1-4 12-3 17.9-5.1.5-.3 1-.6 1.4-1 .8-.3 1.4-1.1 2.4-1.6 1.3-1 2.2-2.1 2.7-3.6 0-.2-.2-.3-.2-.3-2.1 2.2-4.4 4-7 5.2-3.3 1.7-7 1.4-10.5 1.9.2-.3.5-.3.8-.3 0-.5.3-.6.6-1h.5c.2 0 .2-.3.3-.3.3 0 .8-.2.6-.2-.5-.6-1.4.5-2.2 0 .3-.3.2-.8.5-1h.6c0-.3.3-.6.3-.6 2.4-1.4 4.6-2.5 6.8-3.8-.5 0-.8.5-1.3.2.3 0 0-.5.3-.5 1.7-.5 3.2-1.4 4.9-2.1-.6 0-1.1.5-1.7 0 .3-.2.5-.5 1-.5v-.5c0-.2.2-.2.3-.2-.2 0-.3-.2-.3-.2.2-.3.6-.2 1-.5-.2 0-.5 0-.5-.2.5-.6 1.3-.8 2.1-1-.2-.3-.6 0-.6-.3 0-.2.2-.2.3-.2h-.3c-.3-.2-.2-.5-.2-.6 1-1.1 1-2.5 1.4-3.8-.2 0-.3 0-.3-.2-1.6 1.7-4.1 2.4-6.5 3h-.8c-.8.3-1.9.3-2.7-.2-.6-.3-1-.8-1.6-1.3-1.3-.8-2.5-1.4-4-1.9-4-1.3-8.1-1.9-12.2-1.7 1.7-1 3.7-1 5.5-1.6 2.7-.8 5.2-1.7 8.1-1.6-.5-.2-1.1 0-1.6 0-2.2-.2-4.4.5-6.8 1-1.6.3-3 1-4.6 1.3-1 .3-1.4 1.3-2.5 1.1v-.5c1.6-1.9 3.5-3.8 6-4 2.9-.5 5.5 0 8.4.3 2.1.2 4 .6 6 1.1.8 0 1 1.3 1.6 1.4 1 .3 1.9 0 2.9.6 0-.3-.2-.6 0-1 .6-.6 1.4.2 2.1-.2 1.3-.8-1.1-2.2-1.7-3.3 0-.2.2-.3.2-.3 1.3 1.1 2.2 2.4 3.8 3.2.8.3 2.7.8 2.4-.2-.8-1.7-2.4-3.2-3.6-4.8v-.6c-.3 0-.3-.2-.5-.3v-.6c-.6-.3-.5-1-.8-1.4-.5-.8-.2-1.9-.5-2.9s-.5-1.7-.6-2.7c-.5-2.7-1.1-5.1-1.4-7.6-.3-3 1.7-5.4 3.2-8.1 1.1-1.9 2.4-3.8 4.4-5.1.5-1.9 1.7-3.5 3-5.1 1.3-1.5 3.4-2.5 4.9-3.2 2.2-1 4.2-1.6 4.2-1.6H83.8v83.9h77c3-2.2 6-3.2 10.2-5.3 2-.7 6.6-2.8 8.1-4.3zm-24.3-11.4c-.3 0-1 .2-.8-.2.2-.8 1.3-.8 1.9-1.1.3-.2.8-.5 1.1-.3.3.5.8.3 1.1.6-1 1-2.2.5-3.3 1zm-24.3-3.5s-.2-.2-.2-.3c2.1-2.7 3.6-5.2 5.1-8.1 2.1-1.1 3.8-2.7 5.4-4.4 2.7-2.9 5.5-5.4 8.9-7 1.3-.5 2.9-.3 4.1.2-.5.6-1.3.5-1.9 1-.2 0-.3 0-.5-.2.2-.2.2-.3.2-.5-1.6 1.7-3.8 2.5-5.1 4.6-1 1.6-1.6 3.6-3.6 4.1-.6.2.2-.5-.2-.3-4.9 3-8.4 6.6-12.2 10.9zm13.2-10.4c-.2.3-.3.4-.5.6-.2.3-.3.5-.6.6-.2 0-.3 0-.3-.2.2-.6.6-1.3 1.3-1.4.1 0 .1.2.1.4zm7.3 23.7c-.1.2-.2.3-.4.5.2 0 .3.1.2.2-.4.3-.7.7-1.2.8h-.2l-.6.6c-.2.2-1.1 0-.8-.2.4-.4.8-.7 1.2-1.1.2-.2.5-.4.7-.6.1-.1.2-.3.3-.4.1 0 1-.1.8.2zm-2.8-1.3c-.6.4-1.2.9-1.8 1.2-.7.4-1.4.7-2.1 1-.1-.1-.2-.1-.3-.1-.6.3-1.1.8-1.6 1.2l-.2.2c-.1.1-.2.1-.2.2-.1.1-.2.2-.3.4-.1.1-.1.2-.2.2-.1.1-.4.1-.3-.1-.1 0-.2.1-.3.1-.1 0-.2.1-.2.1h-.2c-.2.2-.4.3-.6.5-.3.3-.6.6-.9 1v.1l-.1.1c0 .1-.1.1-.1.2l-.1.1s0-.1-.1-.1v-.1c0-.1-.1-.2-.1-.3v-.1c.2-.2.3-.4.5-.6l.2-.2.3-.3.1-.1c.2-.2.3-.4.5-.7 0 0 0-.1.1-.1.1-.1.1-.2.2-.3.1-.1.1-.2.2-.3v-.1c.1-.1.1-.2.2-.4V157.3c0-.1 0-.2.1-.2v-.1l.6-.9h-.1c-.2.1-.4.3-.6.5-.2.1-.5-.1-.3-.2.1-.1.2-.2.4-.3.3-.3.5-.6.8-.8.2-.1.3-.2.5-.4l.1-.1c.1-.1.2-.3.4-.4 1.5-1.5 4.1-1.4 6.1-2.3.8-.3 1.7.2 2.5 0 .5 0 1 0 1.4.3-1.9.8-3.2 1.7-4.5 2.5zm3.2-11c-.2-.2.5 0 .6-.3h-1.3c-.2 0-.2-.2-.2-.3-.8.2-1.7.5-2.5.6-1.1.3-2.1 1.1-3.3 1.4-1.7.6-3.2 2.1-5.1 2.7-.2 0-.2-.2-.2-.3.2-.5.8-.6 1.1-1.1 0-.2 0-.3-.2-.3 1.3-1.7 3-2.7 4.6-4.1v-.5c.5-.6 1.3-1 1.6-1.7.2-.5.8-1.1 1.6-1.4-.2-.2-.5-.2-.5-.5-.6 0-1.3.3-1.9-.2.3-.3.6-.5 1-.6-.1 0-.3-.1-.4-.2-.2-.3.3-.7.8-.8.6-.2 1.4-.2 1.9-.6-1.1-.2-2.4.3-3.5-.3.8-2.1 2.1-3.8 4-4.8.2 0 .5 0 .5.2 0 .8-.5 1.4-1.3 1.6 1.3.3 2.5.3 3.8 1-.2.3-.5.2-.6.2.8.5 1.7.2 2.5.8-.5.5-1 0-1.4 0 4.9 1.4 10.1 2.5 14.3 5.7-3.5 1.7-7.1 2.5-10.9 3.3-.5 0-.8 0-1.3-.2 0 .2 0 .5-.2.5-.6 0-1.1 0-1.6.3-.4.2-1.4.3-1.9-.1z" fill="#000091"/>
  <path d="M314.4 83.8h-90.2s.2 0 .9.4 1.7.9 2.3 1.2c1.2.6 2.3 1.4 3 2.5.3.5.8 1.4.5 2.1-.3.8-.5 2.1-1.3 2.4-1 .5-2.2.5-3.3.3-.6 0-1.3-.2-1.9-.3 2.4 1 4.6 2.1 6.2 4.3.2.3.8.5 1.4.5.2 0 .2.3.2.5-.3.3-.6.5-.5 1h.5c.8-.3.6-1.9 1.7-1.4.8.5 1.1 1.6.6 2.4-.6.6-1.3 1.1-1.9 1.6-.2.3-.2.8 0 1.1.5.6.6 1.3.8 1.9.5 1.1.6 2.4 1.1 3.5.6 2.4 1.3 4.8 1.1 7.1 0 1.3-.6 2.4-.2 3.6.3 1.3 1.1 2.2 1.7 3.3.6 1 1.3 1.6 1.7 2.5 1 1.6 2.7 3.2 1.9 5.1-.5 1.1-2.2 1-3.3 1.6-1 .8-.2 2.1.3 2.9.8 1.4-1 2.4-2.1 2.9.3.5 1 .3 1.1.6.2.8 1 1.3.5 2.1-.6 1-2.5 1.4-1.6 2.9.6 1.1.2 2.3-.2 3.5-.5 1.4-1.7 2.1-2.9 2.4-1 .3-2.1.3-3 .2-.3-.2-.6-.3-1-.3-2.7-.3-5.4-1.1-8.1-1.1-.8.2-1.6.3-2.2.6-.7.5-1.4 1.1-1.9 1.7-.1.1-.2.3-.3.4-.1.1-.1.2-.2.2 0 .1-.1.1-.1.2-.5.6-.9 1.2-1.2 1.8 0 0 0 .1-.1.1 0 .1-.1.1-.1.2-.5 1-.9 1.9-1.2 2.9-1.1 3.6-.6 6.7.1 7.5.2.2 5.2 1.8 8.7 3.3 1.6.7 2.8 1.3 3.7 1.9h88.6V83.8z" fill="#e1000f"/>
  <path d="M229.6 114.4c.6.2 1.6.2 1.6.5-.3 1.3-2.2 1.6-3.2 2.9h-.5c-.5.3-.3 1.1-.8 1.1-.5-.2-1 0-1.4.2.6.6 1.4 1.1 2.4 1 .2 0 .5.3.5.6 0 0 .2 0 .3-.2.2 0 .3 0 .3.2v.6c-.5.6-1.3.3-1.9.5 1.3.3 2.5.3 3.6 0 1-.3 0-1.9.6-2.7-.3 0 0-.5-.3-.5.3-.3.6-.8 1-1 .3 0 .8-.2 1-.5 0-.3-.6-.5-.5-.8 1-.6 1.7-1.6 1.4-2.5-.2-.5-1.4-.5-2.2-.8-.8-.3-1.7 0-2.7.2-.8 0-1.6.5-2.4.6-1.1.3-2.1 1-3 1.6 1.1-.5 2.2-.6 3.5-1 .9 0 1.7-.3 2.7 0z" fill="#9d9d9c"/>
</svg>
