<?xml version="1.0" encoding="UTF-8" standalone="no"?>
<!-- Generator: Adobe Illustrator 22.1.0, SVG Export Plug-In . SVG Version: 6.00 Build 0)  -->

<svg
   version="1.1"
   id="Calque_1"
   x="0px"
   y="0px"
   viewBox="0 0 204.77569 201.27397"
   xml:space="preserve"
   sodipodi:docname="Ministère_chargé_des_Transports.svg"
   inkscape:version="1.1 (1:1.1+202106031931+af4d65493e)"
   width="204.77568"
   height="201.27397"
   xmlns:inkscape="http://www.inkscape.org/namespaces/inkscape"
   xmlns:sodipodi="http://sodipodi.sourceforge.net/DTD/sodipodi-0.dtd"
   xmlns="http://www.w3.org/2000/svg"
   xmlns:svg="http://www.w3.org/2000/svg"><defs
   id="defs74"><clipPath
     clipPathUnits="userSpaceOnUse"
     id="clipPath1069"><rect
       style="fill:#ffffff;stroke:#000000;stroke-width:0.7;stroke-linejoin:round;stroke-miterlimit:1.5"
       id="rect1071"
       width="204.77568"
       height="201.27397"
       x="42.176662"
       y="41.602772" /></clipPath></defs><sodipodi:namedview
   id="namedview72"
   pagecolor="#ffffff"
   bordercolor="#666666"
   borderopacity="1.0"
   inkscape:pageshadow="2"
   inkscape:pageopacity="0.0"
   inkscape:pagecheckerboard="0"
   showgrid="false"
   inkscape:zoom="2.5361552"
   inkscape:cx="45.147079"
   inkscape:cy="99.954451"
   inkscape:window-width="1848"
   inkscape:window-height="1016"
   inkscape:window-x="1992"
   inkscape:window-y="27"
   inkscape:window-maximized="1"
   inkscape:current-layer="Calque_1"
   fit-margin-top="0"
   fit-margin-left="0"
   fit-margin-right="0"
   fit-margin-bottom="0" />
<style
   type="text/css"
   id="style2">
	.st0{fill:#FFFFFF;}
	.st1{fill:#000091;}
	.st2{fill:#E1000F;}
	.st3{fill:#9D9D9C;}
</style>





<g
   id="g963"
   clip-path="url(#clipPath1069)"
   transform="translate(-42.176662,-41.602772)"><rect
     class="st0"
     width="204.77568"
     height="201.27397"
     id="rect4"
     x="42.176662"
     y="41.602772"
     style="stroke-width:0.710741" /><path
     id="Devise_Républicaine_9_"
     d="m 114.4,232.4 c 0.6,0 1.1,0.4 0.8,1.6 l -2.7,0.6 c 0.5,-1.3 1.3,-2.2 1.9,-2.2 m 1.5,4.4 h -0.5 c -0.7,0.8 -1.4,1.5 -2.2,1.5 -0.8,0 -1.1,-0.4 -1.1,-1.5 0,-0.4 0,-0.8 0.1,-1.2 l 4.4,-1.5 c 0.9,-2 -0.2,-2.9 -1.4,-2.9 -2.1,0 -4.5,3.5 -4.5,6.6 0,1.4 0.7,2.1 1.7,2.1 1.3,0 2.5,-1.2 3.5,-3.1 m -0.8,-6.4 3.1,-2.9 v -0.3 h -1.7 l -1.9,3.2 z m -9.6,2 h 1.5 l -2.3,6.4 c -0.2,0.5 0.1,1.1 0.6,1.1 1.3,0 3.5,-1.3 4.2,-3.1 h -0.4 c -0.6,0.6 -1.7,1.5 -2.7,1.6 l 2.1,-6 h 2.2 l 0.3,-0.9 h -2.1 l 0.8,-2.3 h -0.8 l -1.5,2.3 -1.8,0.3 v 0.6 z m -2,-0.3 c 0.2,-0.6 -0.2,-0.9 -0.5,-0.9 -1.3,0 -2.8,1.1 -3.4,2.8 h 0.4 c 0.4,-0.6 1.1,-1.2 1.8,-1.4 l -2.4,6.4 c -0.2,0.6 0.2,0.9 0.5,0.9 1.2,0 2.6,-1.2 3.2,-2.8 h -0.4 c -0.4,0.6 -1.1,1.2 -1.8,1.4 z m 0.5,-3.2 c 0.6,0 1.1,-0.5 1.1,-1.1 0,-0.6 -0.5,-1.1 -1.1,-1.1 -0.6,0 -1.1,0.5 -1.1,1.1 0,0.7 0.5,1.1 1.1,1.1 m -14.1,9.8 c -0.3,0.7 0,1.2 0.7,1.2 0.4,0 0.6,-0.1 0.8,-0.6 l 1.7,-4.5 c 0.8,-1 2.4,-2 3,-2 0.5,0 0.4,0.4 0.1,1 l -2.6,5 c -0.3,0.5 0.1,1.1 0.6,1.1 1.3,0 2.8,-1.1 3.4,-2.8 h -0.4 c -0.4,0.6 -1.1,1.2 -1.8,1.4 l 2.2,-4.5 c 0.3,-0.6 0.4,-1.1 0.4,-1.5 0,-0.7 -0.4,-1.2 -1.2,-1.2 -1.1,0 -2.2,1.2 -3.5,2.8 v -1.2 c 0,-0.8 -0.3,-1.6 -1,-1.6 -0.5,0 -0.9,0.4 -1.4,1 v 0.2 c 0.8,0 1.2,1.2 0.6,2.5 z m 0,-5.5 c 0.3,-1 0.1,-1.9 -0.7,-1.9 -0.9,0 -1.2,0.7 -2.1,2.8 v -1.2 c 0,-0.8 -0.3,-1.6 -1,-1.6 -0.9,0 -1.7,1.4 -2.3,2.8 h 0.4 c 0.4,-0.6 0.8,-1 1.1,-1 0.4,0 0.6,0.6 0,1.9 l -1.7,3.8 c -0.3,0.7 0,1.2 0.7,1.2 0.4,0 0.6,-0.1 0.8,-0.6 l 1.7,-4.5 c 0.5,-0.6 0.9,-1.1 1.5,-1.7 z m -9.8,-0.8 c 0.6,0 1.1,0.4 0.8,1.6 l -2.7,0.6 c 0.4,-1.3 1.2,-2.2 1.9,-2.2 m 1.5,4.4 h -0.5 c -0.7,0.8 -1.4,1.5 -2.2,1.5 -0.8,0 -1.1,-0.4 -1.1,-1.5 0,-0.4 0,-0.8 0.1,-1.2 l 4.4,-1.5 c 0.9,-2 -0.2,-2.9 -1.4,-2.9 -2.1,0 -4.5,3.5 -4.5,6.6 0,1.4 0.7,2.1 1.7,2.1 1.2,0 2.5,-1.2 3.5,-3.1 m -10.4,-4.4 h 1.5 l -2.3,6.4 c -0.2,0.5 0.1,1.1 0.6,1.1 1.3,0 3.5,-1.3 4.2,-3.1 h -0.4 c -0.6,0.6 -1.7,1.5 -2.7,1.6 l 2.1,-6 h 2.2 l 0.3,-0.9 h -2.1 l 0.8,-2.3 h -0.8 l -1.5,2.3 -1.8,0.3 v 0.6 z m -8.1,5 c 0,-2 2.2,-4.6 3.4,-4.6 0.3,0 0.5,0 0.8,0.1 l -1.3,3.4 c -0.7,0.9 -1.9,2 -2.4,2 -0.3,0 -0.5,-0.3 -0.5,-0.9 m 6.7,-6.6 h -0.7 l -0.8,0.7 h -0.2 c -3.6,0 -6.8,4.1 -6.8,7.1 0,0.8 0.5,1.3 1.3,1.3 0.9,0 1.9,-1.3 2.9,-2.8 v 0.5 c -0.1,1.5 0.3,2.3 1.1,2.3 0.9,0 1.7,-1.4 2.3,-2.8 h -0.4 c -0.4,0.6 -0.8,1 -1.1,1 -0.3,0 -0.6,-0.6 0,-1.9 z m -7.7,2.4 c 0.3,-1 0.1,-1.9 -0.7,-1.9 -0.9,0 -1.2,0.7 -2.1,2.8 v -1.2 c 0,-0.8 -0.3,-1.6 -1,-1.6 -0.9,0 -1.7,1.4 -2.3,2.8 h 0.4 c 0.4,-0.6 0.8,-1 1.1,-1 0.4,0 0.6,0.6 0,1.9 l -1.7,3.8 c -0.3,0.7 0,1.2 0.7,1.2 0.4,0 0.6,-0.1 0.8,-0.6 l 1.7,-4.5 c 0.5,-0.6 0.9,-1.1 1.5,-1.7 z m -12.2,6.4 0.2,-0.5 c -2.1,-0.4 -2.4,-0.4 -1.5,-2.7 l 0.9,-2.4 h 2.3 c 1.1,0 1.1,0.4 0.9,1.6 h 0.6 l 1.4,-3.8 H 54 c -0.5,0.9 -0.9,1.6 -2.1,1.6 h -2.3 l 1.2,-3.4 c 0.4,-1.1 0.6,-1.3 2,-1.3 h 1 c 1.5,0 1.7,0.4 1.7,1.9 h 0.6 l 0.5,-2.6 h -8.8 l -0.2,0.5 c 1.7,0.4 1.9,0.5 1.1,2.7 l -1.9,5.2 c -0.8,2.2 -1.1,2.4 -3.1,2.7 l -0.1,0.5 z M 93,212.4 c 0.6,0 1.1,0.4 0.8,1.6 l -2.7,0.6 c 0.5,-1.2 1.3,-2.2 1.9,-2.2 m 1.6,4.5 H 94 c -0.7,0.8 -1.4,1.5 -2.2,1.5 -0.8,0 -1.1,-0.4 -1.1,-1.5 0,-0.4 0,-0.8 0.1,-1.2 l 4.4,-1.5 c 0.9,-2 -0.2,-2.9 -1.4,-2.9 -2.1,0 -4.5,3.5 -4.5,6.6 0,1.4 0.7,2.1 1.7,2.1 1.3,-0.1 2.5,-1.2 3.6,-3.1 m -0.9,-6.4 3.1,-2.9 v -0.3 h -1.7 l -1.9,3.2 z m -9.6,2 h 1.5 l -2.3,6.4 c -0.2,0.5 0.1,1.1 0.6,1.1 1.3,0 3.5,-1.3 4.2,-3.1 h -0.4 c -0.6,0.6 -1.7,1.5 -2.7,1.6 l 2.1,-6 h 2.2 l 0.3,-0.9 h -2.1 l 0.8,-2.3 h -0.8 l -1.5,2.3 -1.8,0.3 v 0.6 z m -1.9,-0.3 c 0.2,-0.6 -0.2,-0.9 -0.5,-0.9 -1.3,0 -2.8,1.1 -3.4,2.8 h 0.4 c 0.4,-0.6 1.1,-1.2 1.8,-1.4 L 78,219 c -0.2,0.6 0.2,0.9 0.5,0.9 1.2,0 2.6,-1.2 3.2,-2.8 h -0.4 c -0.4,0.6 -1.1,1.2 -1.8,1.4 z m 0.4,-3.2 c 0.6,0 1.1,-0.5 1.1,-1.1 0,-0.6 -0.5,-1.1 -1.1,-1.1 -0.6,0 -1.1,0.5 -1.1,1.1 0.1,0.6 0.5,1.1 1.1,1.1 m -8.5,9.5 4.5,-11.7 -0.1,-0.2 -2.8,0.3 v 0.3 l 0.5,0.4 c 0.5,0.4 0.3,0.8 -0.1,1.9 l -3.5,9.2 c -0.3,0.5 0.1,1.1 0.6,1.1 1.3,0 2.6,-1.1 3.2,-2.8 H 76 c -0.4,0.8 -1.2,1.4 -1.9,1.5 m -8.4,-1 c 0,-2 2.2,-4.6 3.4,-4.6 0.3,0 0.5,0 0.8,0.1 l -1.3,3.4 c -0.7,0.9 -1.9,2 -2.4,2 -0.4,-0.1 -0.5,-0.4 -0.5,-0.9 m 6.7,-6.6 h -0.7 l -0.8,0.7 h -0.2 c -3.6,0 -6.8,4.1 -6.8,7.1 0,0.8 0.5,1.3 1.3,1.3 0.9,0 1.9,-1.3 2.9,-2.8 v 0.5 c -0.1,1.5 0.3,2.3 1.1,2.3 0.9,0 1.7,-1.4 2.3,-2.8 h -0.4 c -0.4,0.6 -0.8,1 -1.1,1 -0.3,0 -0.6,-0.6 0,-1.9 z m -16.3,10.6 c 0,-0.8 0.8,-1.4 2,-1.8 0.4,0.2 1,0.4 1.7,0.7 1.2,0.4 1.7,0.6 1.7,0.9 0,0.8 -1.3,1.4 -3.1,1.4 -1.5,-0.1 -2.3,-0.4 -2.3,-1.2 m 3.3,-5.2 c -0.5,0 -0.7,-0.4 -0.7,-1 0,-1.4 0.8,-3.5 2,-3.5 0.5,0 0.7,0.4 0.7,1 0,1.4 -0.8,3.5 -2,3.5 m 3.5,4.4 c 0,-1 -0.9,-1.4 -2.4,-1.8 -1.3,-0.4 -1.9,-0.5 -1.9,-0.9 0,-0.3 0.3,-0.7 0.8,-1 2.1,-0.1 3.4,-2 3.4,-3.6 0,-0.3 -0.1,-0.6 -0.2,-0.9 h 1.8 l 0.3,-0.9 H 62 c -0.3,-0.2 -0.7,-0.3 -1.1,-0.3 -2.2,0 -3.7,1.9 -3.7,3.5 0,1.2 0.8,1.9 1.7,2.1 -1,0.5 -1.6,1 -1.6,1.6 0,0.4 0.1,0.6 0.4,0.9 -2.4,0.7 -3.3,1.5 -3.3,2.6 0,1.1 1.5,1.6 3.2,1.6 2.9,0 5.3,-1.6 5.3,-2.9 m -11.2,-6.8 c 1.1,0 1.1,0.4 0.9,1.6 h 0.6 l 1.4,-3.8 H 54 c -0.5,0.9 -0.9,1.6 -2.1,1.6 h -2.3 l 1.2,-3.2 c 0.4,-1.1 0.6,-1.3 2,-1.3 h 1 c 1.5,0 1.7,0.4 1.7,1.9 h 0.6 l 0.5,-2.6 h -8.8 l -0.2,0.5 c 1.7,0.4 1.9,0.5 1.1,2.7 l -1.9,5.2 c -0.8,2.2 -1.1,2.4 -3.1,2.7 l -0.1,0.5 h 9.8 l 1.8,-2.8 H 54.5 C 53.4,218 52,219 50,219 c -2.6,0 -2.4,-0.1 -1.5,-2.5 l 0.9,-2.5 h 2.3 z m 1.3,-6.7 3.1,-2.1 v -0.3 h -1.9 l -1.7,2.5 H 53 Z m 39,-14.7 c 0.6,0 1.1,0.4 0.8,1.6 l -2.7,0.6 c 0.5,-1.3 1.3,-2.2 1.9,-2.2 m 1.5,4.4 H 93 c -0.7,0.8 -1.4,1.5 -2.2,1.5 -0.8,0 -1.1,-0.4 -1.1,-1.5 0,-0.4 0,-0.8 0.1,-1.2 l 4.4,-1.5 c 0.9,-2 -0.2,-2.9 -1.4,-2.9 -2.1,0 -4.5,3.5 -4.5,6.6 0,1.4 0.7,2.1 1.7,2.1 1.3,0 2.5,-1.2 3.5,-3.1 m -0.9,-6.4 3.1,-2.9 v -0.3 H 94 l -1.9,3.2 z m -9.1,2 h 1.2 l -2.3,6.4 c -0.2,0.5 0.1,1.1 0.6,1.1 1.3,0 3.5,-1.3 4.2,-3.1 h -0.4 c -0.6,0.6 -1.7,1.5 -2.7,1.6 l 2.1,-6 h 2.2 l 0.3,-0.9 h -2.1 l 0.8,-2.3 h -0.8 l -1.5,2.3 -1.5,0.3 v 0.6 z m -1.1,0.8 c 0.3,-1 0.1,-1.9 -0.7,-1.9 -0.9,0 -1.2,0.7 -2.1,2.8 V 193 c 0,-0.8 -0.3,-1.6 -1,-1.6 -0.9,0 -1.7,1.4 -2.3,2.8 h 0.4 c 0.4,-0.6 0.8,-1 1.1,-1 0.4,0 0.6,0.6 0,1.9 l -1.7,3.8 c -0.3,0.7 0,1.2 0.7,1.2 0.4,0 0.6,-0.1 0.8,-0.6 l 1.7,-4.5 c 0.5,-0.6 0.9,-1.1 1.5,-1.7 z m -9.8,-0.8 c 0.6,0 1.1,0.4 0.8,1.6 l -2.7,0.6 c 0.4,-1.3 1.2,-2.2 1.9,-2.2 m 1.5,4.4 h -0.5 c -0.7,0.8 -1.4,1.5 -2.2,1.5 -0.8,0 -1.1,-0.4 -1.1,-1.5 0,-0.4 0,-0.8 0.1,-1.2 l 4.4,-1.5 c 0.9,-2 -0.2,-2.9 -1.4,-2.9 -2.1,0 -4.5,3.5 -4.5,6.6 0,1.4 0.7,2.1 1.7,2.1 1.2,0 2.4,-1.2 3.5,-3.1 m -10.9,1.8 c -0.4,0 -1.1,-0.4 -1.1,-0.7 0,-0.1 0.2,-0.6 0.4,-1.2 l 0.7,-1.9 c 0.8,-0.9 1.9,-1.9 2.6,-1.9 0.4,0 0.7,0.3 0.7,0.8 0.1,1.7 -1.5,4.9 -3.3,4.9 m 5.1,-5.6 c 0,-1.3 -0.5,-1.8 -1.4,-1.8 -1.1,0 -2.2,1.2 -3.2,2.6 l 2.7,-7 -0.1,-0.2 -2.8,0.3 v 0.3 l 0.5,0.4 c 0.5,0.4 0.3,0.8 -0.1,1.9 L 61,197 c -0.2,0.5 -0.5,1.2 -0.5,1.4 0,0.8 1,1.5 2,1.5 2.1,0.1 5.8,-3.8 5.8,-6.8 m -8.7,-0.9 c 0.2,-0.6 -0.2,-0.9 -0.5,-0.9 -1.3,0 -2.8,1.1 -3.4,2.8 h 0.4 c 0.4,-0.6 1.1,-1.2 1.8,-1.4 l -2.4,6.4 c -0.2,0.6 0.2,0.9 0.5,0.9 1.2,0 2.6,-1.2 3.2,-2.8 h -0.4 c -0.4,0.6 -1.1,1.2 -1.8,1.4 z M 60,189 c 0.6,0 1.1,-0.5 1.1,-1.1 0,-0.6 -0.5,-1.1 -1.1,-1.1 -0.6,0 -1.1,0.5 -1.1,1.1 0.1,0.7 0.5,1.1 1.1,1.1 m -6.4,-1 h -5.8 l -0.2,0.5 c 1.7,0.4 1.9,0.5 1.1,2.7 l -1.9,5.2 c -0.8,2.2 -1.1,2.4 -3.1,2.7 l -0.1,0.5 h 8.8 l 1.9,-3.4 h -0.7 c -1.1,1.2 -2.4,2.7 -4.3,2.7 -1.5,0 -1.7,-0.3 -0.9,-2.5 l 1.9,-5.2 c 0.8,-2.2 1.1,-2.4 3.1,-2.7 z" /><g
     id="g63">
	<path
   d="M 45.7,108.3 V 87.1 h 5.4 l 5.1,8.7 5.1,-8.7 h 5.4 v 21.2 H 62.4 V 93.2 l -4.7,7.8 h -3 L 50,93.2 v 15.1 z"
   id="path7" />
	<path
   d="M 72.7,108.3 V 87.1 H 77 v 21.2 z"
   id="path9" />
	<path
   d="M 82.9,108.3 V 87.1 h 5.5 l 9.5,15.1 V 87.1 h 4.3 v 21.2 H 96.7 L 87.2,93.1 v 15.2 z"
   id="path11" />
	<path
   d="M 108.1,108.3 V 87.1 h 4.3 v 21.2 z"
   id="path13" />
	<path
   d="m 116.4,105.4 3.1,-2.9 c 0.6,0.8 1.3,1.4 2.2,1.9 0.8,0.5 1.7,0.7 2.5,0.7 0.8,0 1.5,-0.2 2,-0.7 0.5,-0.4 0.7,-1 0.7,-1.8 0,-0.9 -0.5,-1.7 -1.5,-2.2 -1,-0.5 -2.1,-1 -3.3,-1.6 -1.2,-0.6 -2.3,-1.3 -3.3,-2.2 -1,-0.9 -1.5,-2.2 -1.5,-4 0,-0.8 0.2,-1.6 0.5,-2.4 0.3,-0.8 0.8,-1.4 1.4,-2 0.6,-0.6 1.3,-1 2.1,-1.3 0.8,-0.3 1.7,-0.5 2.8,-0.5 1.6,0 3,0.3 4.2,1 1.2,0.7 2.3,1.5 3.2,2.6 l -3.1,2.8 c -0.6,-0.8 -1.3,-1.4 -2,-1.9 -0.7,-0.5 -1.4,-0.7 -2.3,-0.7 -0.7,0 -1.3,0.2 -1.8,0.6 -0.5,0.4 -0.7,0.9 -0.7,1.6 0,0.9 0.5,1.7 1.5,2.2 1,0.5 2.1,1 3.3,1.6 1.2,0.6 2.3,1.3 3.3,2.3 1,0.9 1.5,2.3 1.5,4 0,1 -0.2,1.9 -0.6,2.7 -0.4,0.8 -0.9,1.5 -1.5,2 -0.6,0.5 -1.4,1 -2.2,1.3 -0.8,0.3 -1.8,0.4 -2.7,0.4 -1.8,0 -3.3,-0.3 -4.6,-0.9 -1.2,-0.7 -2.3,-1.5 -3.2,-2.6 z"
   id="path15" />
	<path
   d="m 133.4,91 v -3.9 h 17.3 V 91 h -6.5 v 17.3 H 140 V 91 Z"
   id="path17" />
	<path
   d="M 154.6,108.3 V 87.1 h 12.3 v 3.7 h -8 v 4.9 h 6.8 v 3.7 h -6.8 v 5.3 h 8 v 3.7 h -12.3 z m 4.2,-23 -3.9,-4.1 h 4.4 l 3.4,4.1 z"
   id="path19" />
	<path
   d="M 171.9,108.3 V 87.1 h 6.5 c 2.3,0 4.2,0.6 5.5,1.7 1.3,1.1 2,2.7 2,4.6 0,1.3 -0.3,2.4 -0.9,3.3 -0.6,0.9 -1.4,1.7 -2.5,2.2 l 6.6,9.4 H 184 l -5.6,-8.6 h -2.2 v 8.6 z m 6.7,-17.5 h -2.4 v 5.3 h 2.4 c 0.9,0 1.6,-0.2 2.1,-0.7 0.5,-0.5 0.8,-1.1 0.8,-2 0,-0.8 -0.3,-1.4 -0.8,-1.9 -0.5,-0.5 -1.2,-0.7 -2.1,-0.7 z"
   id="path21" />
	<path
   d="M 191.8,108.3 V 87.1 h 12.3 v 3.7 h -8 v 4.9 h 6.8 v 3.7 h -6.8 v 5.3 h 8 v 3.7 h -12.3 z"
   id="path23" />
	<path
   d="m 55.2,136.8 c 1.2,0 2.3,-0.3 3.2,-0.8 0.9,-0.5 1.7,-1.2 2.3,-2.1 l 3.4,2.6 c -1,1.3 -2.2,2.4 -3.7,3.1 -1.5,0.8 -3.3,1.2 -5.2,1.2 -1.7,0 -3.2,-0.3 -4.6,-0.9 -1.4,-0.6 -2.6,-1.4 -3.6,-2.4 -1,-1 -1.8,-2.2 -2.3,-3.6 -0.5,-1.4 -0.8,-2.8 -0.8,-4.3 0,-1.5 0.3,-2.9 0.8,-4.3 0.5,-1.4 1.3,-2.5 2.3,-3.6 1,-1 2.2,-1.8 3.6,-2.4 1.4,-0.6 2.9,-0.9 4.6,-0.9 1.9,0 3.6,0.4 5.2,1.2 1.5,0.8 2.8,1.8 3.7,3.1 l -3.4,2.6 c -0.6,-0.9 -1.4,-1.6 -2.3,-2.1 -0.9,-0.5 -2,-0.8 -3.2,-0.8 -1,0 -1.9,0.2 -2.8,0.6 -0.8,0.4 -1.6,0.9 -2.2,1.5 -0.6,0.6 -1.1,1.4 -1.4,2.3 -0.3,0.9 -0.5,1.8 -0.5,2.8 0,1 0.2,2 0.5,2.8 0.3,0.9 0.8,1.6 1.4,2.3 0.6,0.6 1.3,1.1 2.2,1.5 0.9,0.5 1.8,0.6 2.8,0.6 z"
   id="path25" />
	<path
   d="m 67.8,140.3 v -21.2 h 4.3 v 8.4 h 10.7 v -8.4 h 4.3 v 21.2 h -4.3 v -8.8 H 72.1 v 8.8 z"
   id="path27" />
	<path
   d="m 90.3,140.3 8,-21.2 h 5.6 l 8,21.2 h -4.6 l -2,-5.5 h -8.5 l -2,5.5 z m 7.9,-9.2 h 5.8 l -2.9,-7.9 z"
   id="path29" />
	<path
   d="m 115.2,140.3 v -21.2 h 6.5 c 2.3,0 4.2,0.6 5.5,1.7 1.3,1.1 2,2.7 2,4.6 0,1.3 -0.3,2.4 -0.9,3.3 -0.6,0.9 -1.4,1.7 -2.5,2.2 l 6.6,9.4 h -5.1 l -5.6,-8.6 h -2.2 v 8.6 z m 6.7,-17.5 h -2.4 v 5.3 h 2.4 c 0.9,0 1.6,-0.2 2.1,-0.7 0.5,-0.5 0.8,-1.1 0.8,-2 0,-0.8 -0.3,-1.4 -0.8,-1.9 -0.4,-0.5 -1.2,-0.7 -2.1,-0.7 z"
   id="path31" />
	<path
   d="m 144.7,136.8 c 1,0 1.9,-0.2 2.8,-0.5 0.8,-0.3 1.6,-0.8 2.2,-1.3 v -3.6 h -5.4 v -3.9 h 9.7 v 9 c -1,1.3 -2.3,2.4 -3.9,3.1 -1.6,0.7 -3.4,1.2 -5.3,1.2 -1.7,0 -3.3,-0.3 -4.7,-0.9 -1.4,-0.6 -2.6,-1.4 -3.6,-2.4 -1,-1 -1.8,-2.2 -2.4,-3.6 -0.6,-1.4 -0.8,-2.8 -0.8,-4.3 0,-1.5 0.3,-2.9 0.8,-4.3 0.5,-1.4 1.3,-2.5 2.3,-3.6 1,-1 2.2,-1.8 3.6,-2.4 1.4,-0.6 2.9,-0.9 4.6,-0.9 1.9,0 3.6,0.4 5.2,1.2 1.5,0.8 2.8,1.8 3.7,3.1 l -3.4,2.6 c -0.6,-0.9 -1.4,-1.6 -2.3,-2.1 -0.9,-0.5 -2,-0.8 -3.2,-0.8 -1,0 -1.9,0.2 -2.8,0.6 -0.8,0.4 -1.6,0.9 -2.2,1.5 -0.6,0.6 -1.1,1.4 -1.4,2.3 -0.3,0.9 -0.5,1.8 -0.5,2.8 0,1 0.2,2 0.5,2.8 0.4,0.9 0.8,1.6 1.5,2.3 0.6,0.6 1.4,1.1 2.3,1.5 0.7,0.5 1.6,0.6 2.7,0.6 z"
   id="path33" />
	<path
   d="M 158.7,140.3 V 119.1 H 171 v 3.7 h -8 v 4.9 h 6.8 v 3.7 H 163 v 5.3 h 8 v 3.7 h -12.3 z m 8,-23 h -3.9 l 3.4,-4.1 h 4.4 z"
   id="path35" />
	<path
   d="m 183.8,140.3 v -21.2 h 8.3 c 1.7,0 3.2,0.3 4.6,0.8 1.4,0.6 2.6,1.3 3.6,2.3 1,1 1.7,2.1 2.3,3.4 0.5,1.3 0.8,2.6 0.8,4.1 0,1.4 -0.3,2.8 -0.8,4.1 -0.5,1.3 -1.3,2.4 -2.3,3.4 -1,1 -2.2,1.7 -3.6,2.3 -1.4,0.6 -2.9,0.8 -4.6,0.8 z m 8.4,-17.3 h -4.1 v 13.4 h 4.1 c 1,0 1.9,-0.2 2.7,-0.5 0.8,-0.3 1.5,-0.8 2.1,-1.4 0.6,-0.6 1.1,-1.3 1.4,-2.1 0.3,-0.8 0.5,-1.7 0.5,-2.6 0,-0.9 -0.2,-1.8 -0.5,-2.6 -0.3,-0.8 -0.8,-1.5 -1.4,-2.1 -0.6,-0.6 -1.3,-1.1 -2.1,-1.4 -0.8,-0.5 -1.7,-0.7 -2.7,-0.7 z"
   id="path37" />
	<path
   d="m 207.5,140.3 v -21.2 h 12.3 v 3.7 h -8 v 4.9 h 6.8 v 3.7 h -6.8 v 5.3 h 8 v 3.7 h -12.3 z"
   id="path39" />
	<path
   d="m 223,137.3 3.1,-2.9 c 0.6,0.8 1.3,1.4 2.2,1.9 0.8,0.5 1.7,0.7 2.5,0.7 0.8,0 1.5,-0.2 2,-0.7 0.5,-0.4 0.7,-1 0.7,-1.8 0,-0.9 -0.5,-1.7 -1.5,-2.2 -1,-0.5 -2.1,-1 -3.3,-1.6 -1.2,-0.6 -2.3,-1.3 -3.3,-2.2 -1,-0.9 -1.5,-2.2 -1.5,-4 0,-0.8 0.2,-1.6 0.5,-2.4 0.3,-0.8 0.8,-1.4 1.4,-2 0.6,-0.6 1.3,-1 2.1,-1.3 0.8,-0.3 1.7,-0.5 2.8,-0.5 1.6,0 3,0.3 4.2,1 1.2,0.7 2.3,1.5 3.2,2.6 l -3.1,2.8 c -0.6,-0.8 -1.3,-1.4 -2,-1.9 -0.7,-0.5 -1.4,-0.7 -2.3,-0.7 -0.7,0 -1.3,0.2 -1.8,0.6 -0.4,0.4 -0.7,0.9 -0.7,1.6 0,0.9 0.5,1.7 1.5,2.2 1,0.5 2.1,1 3.3,1.6 1.2,0.6 2.3,1.3 3.3,2.3 1,0.9 1.5,2.3 1.5,4 0,1 -0.2,1.9 -0.6,2.7 -0.4,0.8 -0.9,1.5 -1.5,2 -0.6,0.5 -1.4,1 -2.2,1.3 -0.8,0.3 -1.8,0.4 -2.7,0.4 -1.8,0 -3.3,-0.3 -4.6,-0.9 -1.2,-0.6 -2.3,-1.5 -3.2,-2.6 z"
   id="path41" />
	<path
   d="m 43.6,155 v -3.9 h 17.3 v 3.9 h -6.5 v 17.3 H 50.1 V 155 Z"
   id="path43" />
	<path
   d="M 64.7,172.2 V 151 h 6.5 c 2.3,0 4.2,0.6 5.5,1.7 1.3,1.1 2,2.7 2,4.6 0,1.3 -0.3,2.4 -0.9,3.3 -0.6,0.9 -1.4,1.7 -2.5,2.2 l 6.6,9.4 h -5.1 l -5.6,-8.6 H 69 v 8.6 z m 6.7,-17.5 H 69 v 5.3 h 2.4 c 0.9,0 1.6,-0.2 2.1,-0.7 0.5,-0.5 0.8,-1.1 0.8,-2 0,-0.8 -0.3,-1.4 -0.8,-1.9 -0.5,-0.4 -1.2,-0.7 -2.1,-0.7 z"
   id="path45" />
	<path
   d="m 82.9,172.2 8,-21.2 h 5.6 l 8,21.2 h -4.6 l -2,-5.5 h -8.5 l -2,5.5 z m 7.9,-9.1 h 5.8 l -2.9,-7.9 z"
   id="path47" />
	<path
   d="M 107.8,172.2 V 151 h 5.5 l 9.5,15.1 V 151 h 4.3 v 21.2 h -5.5 L 112.1,157 v 15.2 z"
   id="path49" />
	<path
   d="m 131,169.3 3.1,-2.9 c 0.6,0.8 1.3,1.4 2.2,1.9 0.8,0.5 1.7,0.7 2.5,0.7 0.8,0 1.5,-0.2 2,-0.7 0.5,-0.4 0.7,-1 0.7,-1.8 0,-0.9 -0.5,-1.7 -1.5,-2.2 -1,-0.5 -2.1,-1 -3.3,-1.6 -1.2,-0.6 -2.3,-1.3 -3.3,-2.2 -1,-0.9 -1.5,-2.2 -1.5,-4 0,-0.8 0.2,-1.6 0.5,-2.4 0.3,-0.8 0.8,-1.4 1.4,-2 0.6,-0.6 1.3,-1 2.1,-1.3 0.8,-0.3 1.7,-0.5 2.8,-0.5 1.6,0 3,0.3 4.2,1 1.2,0.7 2.3,1.5 3.2,2.6 l -3.1,2.8 c -0.6,-0.8 -1.3,-1.4 -2,-1.9 -0.7,-0.5 -1.4,-0.7 -2.3,-0.7 -0.7,0 -1.3,0.2 -1.8,0.6 -0.4,0.4 -0.7,0.9 -0.7,1.6 0,0.9 0.5,1.7 1.5,2.2 1,0.5 2.1,1 3.3,1.6 1.2,0.6 2.3,1.3 3.3,2.3 1,0.9 1.5,2.3 1.5,4 0,1 -0.2,1.9 -0.6,2.7 -0.4,0.8 -0.9,1.5 -1.5,2 -0.6,0.5 -1.4,1 -2.2,1.3 -0.8,0.3 -1.8,0.4 -2.7,0.4 -1.8,0 -3.3,-0.3 -4.6,-0.9 -1.1,-0.6 -2.2,-1.5 -3.2,-2.6 z"
   id="path51" />
	<path
   d="M 150.4,172.2 V 151 h 7 c 2.3,0 4.1,0.6 5.5,1.7 1.4,1.1 2,2.7 2,4.6 0,1.9 -0.7,3.5 -2,4.6 -1.3,1.1 -3.2,1.7 -5.5,1.7 h -2.7 v 8.6 z m 7.2,-17.5 h -2.9 v 5.3 h 2.9 c 0.9,0 1.6,-0.2 2.1,-0.7 0.5,-0.5 0.8,-1.1 0.8,-2 0,-0.8 -0.3,-1.4 -0.8,-1.9 -0.5,-0.4 -1.2,-0.7 -2.1,-0.7 z"
   id="path53" />
	<path
   d="m 178.3,150.5 c 1.7,0 3.2,0.3 4.5,0.9 1.4,0.6 2.6,1.4 3.6,2.4 1,1 1.8,2.2 2.3,3.6 0.5,1.4 0.8,2.8 0.8,4.3 0,1.5 -0.3,2.9 -0.8,4.3 -0.5,1.4 -1.3,2.5 -2.3,3.6 -1,1 -2.2,1.8 -3.6,2.4 -1.4,0.6 -2.9,0.9 -4.5,0.9 -1.7,0 -3.2,-0.3 -4.6,-0.9 -1.4,-0.6 -2.6,-1.4 -3.6,-2.4 -1,-1 -1.8,-2.2 -2.3,-3.6 -0.5,-1.4 -0.8,-2.8 -0.8,-4.3 0,-1.5 0.3,-2.9 0.8,-4.3 0.5,-1.4 1.3,-2.5 2.3,-3.6 1,-1 2.2,-1.8 3.6,-2.4 1.4,-0.6 3,-0.9 4.6,-0.9 z m 0,18.3 c 1,0 1.9,-0.2 2.7,-0.6 0.8,-0.4 1.6,-0.9 2.1,-1.5 0.6,-0.6 1.1,-1.4 1.4,-2.3 0.3,-0.9 0.5,-1.8 0.5,-2.8 0,-1 -0.2,-1.9 -0.5,-2.8 -0.3,-0.9 -0.8,-1.6 -1.4,-2.3 -0.6,-0.6 -1.3,-1.1 -2.1,-1.5 -0.8,-0.4 -1.7,-0.6 -2.7,-0.6 -1,0 -1.9,0.2 -2.8,0.6 -0.8,0.4 -1.6,0.9 -2.2,1.5 -0.6,0.6 -1.1,1.4 -1.4,2.3 -0.3,0.9 -0.5,1.8 -0.5,2.8 0,1 0.2,2 0.5,2.8 0.3,0.9 0.8,1.6 1.4,2.3 0.6,0.6 1.3,1.1 2.2,1.5 0.9,0.4 1.8,0.6 2.8,0.6 z"
   id="path55" />
	<path
   d="M 193.6,172.2 V 151 h 6.5 c 2.3,0 4.2,0.6 5.5,1.7 1.4,1.1 2,2.7 2,4.6 0,1.3 -0.3,2.4 -0.9,3.3 -0.6,0.9 -1.4,1.7 -2.5,2.2 l 6.6,9.4 h -5.1 l -5.6,-8.6 h -2.2 v 8.6 z m 6.7,-17.5 h -2.4 v 5.3 h 2.4 c 0.9,0 1.6,-0.2 2.1,-0.7 0.5,-0.5 0.8,-1.1 0.8,-2 0,-0.8 -0.3,-1.4 -0.8,-1.9 -0.4,-0.4 -1.1,-0.7 -2.1,-0.7 z"
   id="path57" />
	<path
   d="m 210.4,155 v -3.9 h 17.4 v 3.9 h -6.5 v 17.3 H 217 V 155 Z"
   id="path59" />
	<path
   d="m 229.2,169.3 3.1,-2.9 c 0.6,0.8 1.3,1.4 2.2,1.9 0.8,0.5 1.7,0.7 2.5,0.7 0.8,0 1.5,-0.2 2,-0.7 0.5,-0.4 0.7,-1 0.7,-1.8 0,-0.9 -0.5,-1.7 -1.5,-2.2 -1,-0.5 -2.1,-1 -3.3,-1.6 -1.2,-0.6 -2.3,-1.3 -3.3,-2.2 -1,-0.9 -1.5,-2.2 -1.5,-4 0,-0.8 0.2,-1.6 0.5,-2.4 0.3,-0.8 0.8,-1.4 1.4,-2 0.6,-0.6 1.3,-1 2.1,-1.3 0.8,-0.3 1.7,-0.5 2.8,-0.5 1.6,0 3,0.3 4.2,1 1.2,0.7 2.3,1.5 3.2,2.6 l -3.1,2.8 c -0.6,-0.8 -1.3,-1.4 -2,-1.9 -0.7,-0.5 -1.4,-0.7 -2.3,-0.7 -0.7,0 -1.3,0.2 -1.8,0.6 -0.4,0.4 -0.7,0.9 -0.7,1.6 0,0.9 0.5,1.7 1.5,2.2 1,0.5 2.1,1 3.3,1.6 1.2,0.6 2.3,1.3 3.3,2.3 1,0.9 1.5,2.3 1.5,4 0,1 -0.2,1.9 -0.6,2.7 -0.4,0.8 -0.9,1.5 -1.5,2 -0.6,0.5 -1.4,1 -2.2,1.3 -0.8,0.3 -1.8,0.4 -2.7,0.4 -1.8,0 -3.3,-0.3 -4.6,-0.9 -1.2,-0.6 -2.3,-1.5 -3.2,-2.6 z"
   id="path61" />
</g><path
     class="st1"
     d="m 76.6,69.2 c 0.3,-0.3 0.6,-0.6 0.9,-1 v 0 c 0.6,-0.7 1.2,-1.3 1.8,-1.9 0.2,-0.2 0.4,-0.3 0.6,-0.5 0.1,-0.1 0.1,-0.2 0.1,-0.2 -0.3,0.1 -0.4,0.3 -0.7,0.4 -0.1,0 -0.1,-0.1 -0.1,-0.1 0.2,-0.1 0.4,-0.3 0.6,-0.4 0,0 0,0 0,0 -0.1,0 -0.1,-0.1 -0.1,-0.1 -0.7,-0.1 -1.3,0.4 -1.8,0.8 -0.1,0.1 -0.2,-0.1 -0.3,-0.1 -0.8,0.3 -1.4,1 -2.3,1.3 0,-0.1 0,-0.1 0,-0.1 -0.3,0.1 -0.6,0.3 -1,0.4 -0.5,0.1 -0.9,0.1 -1.4,0.1 -0.7,0.1 -1.3,0.2 -2,0.4 0,0 0,0 -0.1,0 -0.4,0.1 -0.7,0.2 -1,0.4 0,0 0,0 0,0 0,0 -0.1,0.1 -0.1,0.1 -0.1,0.1 -0.2,0.2 -0.4,0.3 -0.3,0.2 -0.6,0.5 -0.9,0.7 0,0 -0.1,0 -0.1,0 -0.3,0.3 -0.6,0.6 -0.9,0.8 0,0 -0.1,0 -0.2,0 0,0 0,0 0,0 0,0 0,0 0,-0.1 0,-0.1 0.1,-0.2 0.1,-0.2 0.1,-0.1 0.1,-0.2 0.2,-0.3 0.1,-0.1 0.2,-0.2 0.2,-0.3 0,0 0,-0.1 0,-0.1 0,0 0,0 -0.1,0 0.3,-0.3 0.6,-0.5 0.9,-0.7 0,0 0,0 0,0 0,0 -0.1,0 -0.1,-0.1 0,0 0.1,-0.1 0.1,-0.1 0,0 0,0 0,0 0,0 0,0 0,0 -0.1,0.1 -0.2,0.1 -0.3,0.2 -0.1,0.1 -0.2,0.4 -0.4,0.4 0,0 -0.1,0 -0.1,0 0,0 0,0 -0.1,0 0,0 0,0 0,0 0,0 0,0 0,0 0,0 0,0 0,0 0,0 0,0 0,0 0,0 0,0 0,0 0,0 0,0 0,0 0,0 0,0 0,-0.1 0,0 0,0 0,0 0,0 0,-0.1 0.1,-0.1 0,0 0,0 0,-0.1 0,0 0,-0.1 0.1,-0.1 0,0 0,-0.1 0,-0.1 0.1,-0.1 0.2,-0.2 0.4,-0.3 v 0 c 0.2,-0.1 0.4,-0.2 0.6,-0.4 0,0 0.1,-0.1 0.1,-0.1 -0.3,0.1 -0.6,0.2 -0.9,0.4 0,0 -0.1,0 -0.1,0 0,0 -0.1,0 -0.1,0 0,0 0,0 0,0 0.1,-0.1 0.2,-0.2 0.3,-0.3 0.1,0 0.1,0 0.1,0.1 1.8,-1.4 4.2,-1 6.2,-1.8 0.2,-0.1 0.3,-0.2 0.5,-0.3 0.3,-0.1 0.5,-0.4 0.8,-0.5 0.4,-0.3 0.8,-0.7 0.9,-1.3 0,-0.1 -0.1,-0.1 -0.1,-0.1 -0.7,0.8 -1.5,1.4 -2.4,1.8 -1.2,0.6 -2.4,0.5 -3.6,0.7 0.1,-0.1 0.2,-0.1 0.3,-0.1 0,-0.2 0.1,-0.2 0.2,-0.3 0.1,0 0.1,0 0.2,0 0.1,0 0.1,-0.1 0.1,-0.1 0.1,0 0.3,-0.1 0.2,-0.1 -0.2,-0.2 -0.5,0.2 -0.8,0 0.1,-0.1 0.1,-0.3 0.2,-0.3 0.1,0 0.2,0 0.2,0 0,-0.1 0.1,-0.2 0.1,-0.2 0.8,-0.5 1.6,-0.9 2.4,-1.3 -0.2,0 -0.3,0.2 -0.4,0.1 0.1,0 0,-0.2 0.1,-0.2 0.6,-0.2 1.1,-0.5 1.7,-0.7 -0.2,0 -0.4,0.2 -0.6,0 0.1,-0.1 0.2,-0.2 0.3,-0.2 0,-0.1 0,-0.1 0,-0.2 0,-0.1 0.1,-0.1 0.1,-0.1 -0.1,0 -0.1,-0.1 -0.1,-0.1 0.1,-0.1 0.2,-0.1 0.3,-0.2 -0.1,0 -0.2,0 -0.2,-0.1 0.2,-0.2 0.4,-0.3 0.7,-0.3 C 76.1,62 76,62.1 76,62 c 0,-0.1 0.1,-0.1 0.1,-0.1 -0.1,0 -0.1,0 -0.1,0 -0.1,-0.1 -0.1,-0.2 -0.1,-0.2 0.3,-0.4 0.3,-0.9 0.5,-1.3 -0.1,0 -0.1,0 -0.1,-0.1 -0.5,0.6 -1.4,0.8 -2.3,1 -0.1,0 -0.2,0 -0.3,0 -0.3,0.1 -0.7,0.1 -0.9,-0.1 -0.2,-0.1 -0.3,-0.3 -0.5,-0.4 -0.4,-0.3 -0.9,-0.5 -1.4,-0.7 -1.4,-0.4 -2.8,-0.7 -4.2,-0.6 0.6,-0.3 1.3,-0.4 1.9,-0.5 0.9,-0.3 1.8,-0.6 2.8,-0.5 -0.2,-0.1 -0.4,0 -0.5,0 -0.8,-0.1 -1.5,0.2 -2.4,0.3 -0.5,0.1 -1,0.3 -1.6,0.4 -0.3,0.1 -0.5,0.4 -0.9,0.4 0,0 0,-0.1 0,-0.2 0.5,-0.7 1.2,-1.3 2.1,-1.4 1,-0.2 1.9,0 2.9,0.1 0.7,0.1 1.4,0.2 2.1,0.4 0.3,0 0.3,0.4 0.6,0.5 0.3,0.1 0.7,0 1,0.2 0,-0.1 -0.1,-0.2 0,-0.3 0.2,-0.2 0.5,0.1 0.7,-0.1 0.4,-0.3 -0.4,-0.8 -0.6,-1.2 0,-0.1 0.1,-0.1 0.1,-0.1 0.4,0.4 0.8,0.8 1.3,1.1 0.3,0.1 0.9,0.3 0.8,-0.1 -0.3,-0.6 -0.8,-1.1 -1.3,-1.6 0,-0.1 0,-0.2 0,-0.2 -0.1,0 -0.1,-0.1 -0.2,-0.1 0,-0.1 0,-0.2 0,-0.2 -0.2,-0.1 -0.2,-0.3 -0.3,-0.5 -0.2,-0.3 -0.1,-0.7 -0.2,-1 -0.1,-0.3 -0.2,-0.6 -0.2,-0.9 -0.2,-0.9 -0.4,-1.8 -0.5,-2.6 -0.1,-1 0.6,-1.9 1.1,-2.8 0.4,-0.7 0.8,-1.3 1.5,-1.8 0.2,-0.7 0.6,-1.2 1,-1.8 0.4,-0.5 1.2,-0.9 1.7,-1.1 0.8,-0.3 1.5,-0.6 1.5,-0.6 H 43.6 v 29 h 26.7 c 1,-0.8 2.1,-1.1 3.5,-1.8 0.7,-0.1 2.2,-0.8 2.8,-1.3 z m -8.5,-3.9 c -0.1,0 -0.3,0.1 -0.3,-0.1 0.1,-0.3 0.4,-0.3 0.7,-0.4 0.1,-0.1 0.3,-0.2 0.4,-0.1 0.1,0.2 0.3,0.1 0.4,0.2 -0.3,0.4 -0.8,0.2 -1.2,0.4 z M 59.7,64 c 0,0 -0.1,-0.1 -0.1,-0.1 0.7,-0.9 1.3,-1.8 1.8,-2.8 0.7,-0.4 1.3,-0.9 1.9,-1.5 0.9,-1 1.9,-1.9 3.1,-2.4 0.4,-0.2 1,-0.1 1.4,0.1 -0.2,0.2 -0.4,0.2 -0.7,0.3 -0.1,0 -0.1,0 -0.2,-0.1 0.1,-0.1 0.1,-0.1 0.1,-0.2 -0.5,0.6 -1.3,0.9 -1.8,1.6 -0.3,0.5 -0.5,1.3 -1.3,1.4 -0.2,0.1 0.1,-0.2 -0.1,-0.1 -1.5,1.1 -2.7,2.4 -4.1,3.8 z m 4.6,-3.6 c -0.1,0.1 -0.1,0.1 -0.2,0.2 -0.1,0.1 -0.1,0.2 -0.2,0.2 -0.1,0 -0.1,0 -0.1,-0.1 0.1,-0.2 0.2,-0.4 0.4,-0.5 0.1,0.1 0.1,0.2 0.1,0.2 z m 2.5,8.2 c 0,0.1 -0.1,0.1 -0.1,0.2 0.1,0 0.1,0 0.1,0.1 -0.1,0.1 -0.2,0.2 -0.4,0.3 0,0 0,0 -0.1,0 -0.1,0.1 -0.1,0.1 -0.2,0.2 -0.1,0.1 -0.4,0 -0.3,-0.1 0.1,-0.1 0.3,-0.3 0.4,-0.4 0.1,-0.1 0.2,-0.1 0.2,-0.2 0,0 0.1,-0.1 0.1,-0.1 0.1,0 0.4,-0.1 0.3,0 z m -0.9,-0.4 c 0,0 0,0 0,0 -0.2,0.2 -0.4,0.3 -0.6,0.4 -0.2,0.1 -0.5,0.2 -0.7,0.4 0,0 0,0 0,0 0,0 -0.1,0 -0.1,0 -0.2,0.1 -0.4,0.3 -0.6,0.4 0,0 -0.1,0 -0.1,0.1 v 0 0 c 0,0 -0.1,0.1 -0.1,0.1 0,0 0,0 0,0 v 0 c 0,0 -0.1,0.1 -0.1,0.1 0,0 0,0.1 -0.1,0.1 0,0 -0.1,0 -0.1,0 0,0 0,0 0,0 0,0 -0.1,0 -0.1,0 0,0 -0.1,0 -0.1,0 0,0 0,0 0,0 0,0 0,0 0,0 -0.2,0 -0.2,0.1 -0.3,0.2 -0.1,0.1 -0.2,0.2 -0.3,0.3 0,0 0,0 0,0 0,0 0,0 0,0 0,0 0,0 0,0 0,0 0,0 0,0 0,0 0,0 0,0 0,0 0,0 0,0.1 0,0 0,0 0,0 0,0 0,0 0,0 0,0 0,0 0,0 0,0 0,0 0,0 0,0 0,-0.1 0,-0.1 v 0 c 0,0 0,0 0,0 0.1,-0.1 0.1,-0.1 0.2,-0.2 0,0 0,0 0,0 0,0 0,0 0.1,-0.1 0,0 0.1,-0.1 0.1,-0.1 0,0 0,0 0,0 0.1,-0.1 0.1,-0.2 0.2,-0.2 0,0 0,0 0,0 0,0 0,0 0,0 0,0 0.1,-0.1 0.1,-0.1 0,0 0,-0.1 0.1,-0.1 0,0 0,0 0,0 0,0 0,0 0,0 0,0 0,0 0,0 0,0 0,-0.1 0.1,-0.1 0,0 0,0 0,0 0,0 0,0 0,0 0,0 0,0 0,-0.1 v 0 c 0,0 0,0 0,0 0,0 0,-0.1 0,-0.1 0,0 0,0 0,0 0.1,-0.1 0.1,-0.2 0.2,-0.3 0,0 0,0 0,0 -0.1,0.1 -0.1,0.1 -0.2,0.2 -0.1,0 -0.2,0 -0.1,-0.1 0,0 0.1,-0.1 0.1,-0.1 0,0 0,0 0,0 0.1,-0.1 0.2,-0.2 0.3,-0.3 0.1,0 0.1,-0.1 0.2,-0.1 0,0 0,0 0,0 0,-0.1 0.1,-0.1 0.1,-0.1 0,0 0,0 0,0 0.5,-0.5 1.4,-0.5 2.1,-0.8 0.3,-0.1 0.6,0.1 0.9,0 0.2,0 0.3,0 0.5,0.1 -0.8,-0.1 -1.3,0.2 -1.7,0.5 z M 67,64.4 c -0.1,-0.1 0.2,0 0.2,-0.1 -0.2,0 -0.3,0 -0.4,0 -0.1,0 -0.1,-0.1 -0.1,-0.1 -0.3,0.1 -0.6,0.2 -0.9,0.2 -0.4,0.1 -0.7,0.4 -1.2,0.5 -0.6,0.2 -1.1,0.7 -1.8,0.9 -0.1,0 -0.1,-0.1 -0.1,-0.1 0.1,-0.2 0.3,-0.2 0.4,-0.4 0,-0.1 0,-0.1 -0.1,-0.1 0.4,-0.6 1,-0.9 1.6,-1.4 0,-0.1 0,-0.1 0,-0.2 0.2,-0.2 0.4,-0.3 0.5,-0.6 0.1,-0.2 0.3,-0.4 0.5,-0.5 -0.1,-0.1 -0.2,-0.1 -0.2,-0.2 -0.2,0 -0.4,0.1 -0.7,-0.1 0.1,-0.1 0.2,-0.2 0.3,-0.2 0,0 -0.1,0 -0.1,-0.1 -0.1,-0.1 0.1,-0.2 0.3,-0.3 0.2,-0.1 0.5,-0.1 0.7,-0.2 -0.4,-0.1 -0.8,0.1 -1.2,-0.1 0.3,-0.7 0.7,-1.3 1.4,-1.6 0.1,0 0.2,0 0.2,0.1 0,0.3 -0.2,0.5 -0.4,0.5 0.4,0.1 0.9,0.1 1.3,0.3 -0.1,0.1 -0.2,0.1 -0.2,0.1 0.3,0.2 0.6,0.1 0.9,0.3 -0.2,0.2 -0.3,0 -0.5,0 1.7,0.5 3.5,0.9 4.9,2 -1.2,0.6 -2.5,0.9 -3.8,1.2 -0.2,0 -0.3,0 -0.4,-0.1 0,0.1 0,0.2 -0.1,0.2 -0.2,0 -0.4,0 -0.5,0.1 0,0.1 -0.4,0.1 -0.5,0 z"
     id="path65" /><path
     class="st2"
     d="m 92.1,43.6 c 0,0 0.1,0 0.3,0.1 0.3,0.1 0.6,0.3 0.8,0.4 0.4,0.2 0.8,0.5 1,0.9 0.1,0.2 0.3,0.5 0.2,0.7 -0.1,0.3 -0.2,0.7 -0.4,0.8 -0.3,0.2 -0.8,0.2 -1.2,0.1 -0.2,0 -0.4,-0.1 -0.7,-0.1 0.8,0.3 1.6,0.7 2.1,1.5 0.1,0.1 0.3,0.2 0.5,0.2 0.1,0 0.1,0.1 0.1,0.2 -0.1,0.1 -0.2,0.2 -0.2,0.3 0.1,0 0.1,0 0.2,0 0.3,-0.1 0.2,-0.7 0.6,-0.5 0.3,0.2 0.4,0.5 0.2,0.8 -0.2,0.2 -0.4,0.4 -0.7,0.5 -0.1,0.1 -0.1,0.3 0,0.4 0.2,0.2 0.2,0.4 0.3,0.7 0.2,0.4 0.2,0.8 0.4,1.2 0.2,0.8 0.4,1.6 0.4,2.5 0,0.4 -0.2,0.8 -0.1,1.3 0.1,0.4 0.4,0.8 0.6,1.2 0.2,0.3 0.4,0.5 0.6,0.9 0.3,0.5 0.9,1.1 0.7,1.8 -0.2,0.4 -0.8,0.3 -1.2,0.5 -0.3,0.3 -0.1,0.7 0.1,1 0.3,0.5 -0.3,0.8 -0.7,1 0.1,0.2 0.3,0.1 0.4,0.2 0.1,0.3 0.3,0.4 0.2,0.7 -0.2,0.3 -0.9,0.5 -0.5,1 0.2,0.4 0.1,0.8 -0.1,1.2 -0.2,0.5 -0.6,0.7 -1,0.8 -0.3,0.1 -0.7,0.1 -1,0.1 -0.1,-0.1 -0.2,-0.1 -0.3,-0.1 -0.9,-0.1 -1.9,-0.4 -2.8,-0.4 -0.3,0.1 -0.5,0.1 -0.8,0.2 -0.2,0.2 -0.5,0.4 -0.7,0.6 0,0 0,0 0,0 0,0 -0.1,0.1 -0.1,0.1 0,0 0,0.1 -0.1,0.1 0,0 0,0 0,0.1 -0.2,0.2 -0.3,0.4 -0.4,0.6 0,0 0,0 0,0 0,0 0,0.1 0,0.1 -0.2,0.3 -0.3,0.7 -0.4,1 -0.4,1.3 -0.2,2.3 0.1,2.6 0.1,0.1 1.8,0.6 3,1.1 0.6,0.3 1,0.4 1.3,0.7 h 30.7 v -29 H 92.1 Z"
     id="path67" /><path
     class="st3"
     d="m 94,54.2 c 0.2,0.1 0.5,0.1 0.5,0.2 -0.1,0.4 -0.8,0.5 -1.1,1 h -0.2 c -0.2,0.1 -0.1,0.4 -0.3,0.4 -0.2,-0.1 -0.3,0 -0.5,0.1 0.2,0.2 0.5,0.4 0.8,0.3 0.1,0 0.2,0.1 0.2,0.2 0,0 0.1,0 0.1,-0.1 0.1,0 0.1,0 0.1,0.1 v 0.2 c -0.2,0.2 -0.4,0.1 -0.7,0.2 0.4,0.1 0.9,0.1 1.3,0 0.3,-0.1 0,-0.7 0.2,-0.9 -0.1,0 0,-0.2 -0.1,-0.2 0.1,-0.1 0.2,-0.3 0.3,-0.3 0.1,0 0.3,-0.1 0.3,-0.2 0,-0.1 -0.2,-0.2 -0.2,-0.3 0.3,-0.2 0.6,-0.5 0.5,-0.9 -0.1,-0.2 -0.5,-0.2 -0.8,-0.3 -0.3,-0.1 -0.6,0 -0.9,0.1 -0.3,0 -0.6,0.2 -0.8,0.2 -0.4,0.1 -0.7,0.3 -1,0.5 0.4,-0.2 0.8,-0.2 1.2,-0.3 0.5,0 0.8,-0.1 1.1,0 z"
     id="path69" /></g>
</svg>
