<?xml version="1.0" encoding="UTF-8"?> <svg xmlns="http://www.w3.org/2000/svg" xmlns:xlink="http://www.w3.org/1999/xlink" width="112px" height="62px" viewBox="0 0 112 62"><!-- Generator: Sketch 55 (78076) - https://sketchapp.com --><title>Group 6</title><desc>Created with Sketch.</desc><defs><polygon id="path-1" points="0.271128713 0.174626752 39.7877228 0.174626752 39.7877228 62 0.271128713 62"></polygon></defs><g id="Symbols" stroke="none" stroke-width="1" fill="none" fill-rule="evenodd"><g id="Symboles/Composants/logo"><g id="Group-6"><g id="Group-3" transform="translate(72.000000, 0.000000)"><mask id="mask-2" fill="white"><use xlink:href="#path-1"></use></mask><g id="Clip-2"></g><path d="M23.1657822,31.0873529 C23.1657822,22.7201172 17.0505347,16.9075185 8.66677228,16.9075185 L8.46281188,16.9075185 C3.91706931,16.802079 0.271128713,13.1014293 0.271128713,8.54620637 C0.271128713,3.92266497 4.02994059,0.174626752 8.66716832,0.174626752 C13.3059802,0.174626752 17.0604356,3.91437197 17.0604356,8.53593885 C17.0604356,16.8992255 23.0081584,22.7201172 31.4113267,22.7201172 C36.0418218,22.7292 39.7879604,26.4705248 39.7879604,31.0873529 C39.7879604,35.7041809 36.0418218,39.4455057 31.4113267,39.4545885 C23.0081584,39.4545885 17.0604356,45.2754803 17.0604356,53.6387669 C17.0604356,58.2599389 13.3059802,62.000079 8.66716832,62.000079 C4.02994059,62.000079 0.271128713,58.2520408 0.271128713,53.6284994 C0.271128713,49.0732764 3.91706931,45.3722318 8.46281188,45.2671873 L8.66677228,45.2671873 C17.0505347,45.2671873 23.1657822,39.4545885 23.1657822,31.0873529" id="Fill-1" fill="#001E5A" mask="url(#mask-2)"></path></g><path d="M10.4066173,30.9909465 L21.277234,41.7245284 L15.375571,41.7245284 L4.90064922,30.9956555 L15.3759636,20.2573647 L21.277234,20.2573647 L10.4066173,30.9909465 Z M34.9287061,37.6936962 L48.5526994,37.6936962 C49.8579428,37.6936962 50.930794,36.6526333 50.930794,35.3466939 C50.930794,34.0325139 49.8469512,33.0118564 48.5499515,33.0118564 L40.6419429,33.0118564 C37.0249466,33.0118564 34.1196514,30.1421644 34.1196514,26.6344143 C34.1196514,23.1349048 37.0751936,20.2569723 40.7004335,20.2569723 L52.7997455,20.2569723 L52.7997455,24.2878045 L40.574031,24.2878045 C39.2758536,24.2878045 38.1967215,25.3225888 38.1967215,26.6285282 C38.1967215,28.1298876 38.9857559,28.9696443 40.1025732,28.9696443 L48.4840023,28.9696443 C52.1009986,28.9696443 55.0062938,31.8393363 55.0062938,35.3470864 C55.0062938,38.854444 52.0994284,41.7245284 48.4824321,41.7245284 L34.9287061,41.7245284 L34.9287061,37.6936962 Z M0,41.7245284 L4.07471475,41.7245284 L4.07471475,20.2573647 L0,20.2573647 L0,41.7245284 Z M60.0663201,41.7245284 L64.1414274,41.7245284 L64.1414274,20.2573647 L60.0663201,20.2573647 L60.0663201,41.7245284 Z M24.6586977,41.7245284 L28.7334124,41.7245284 L28.7334124,20.2573647 L24.6586977,20.2573647 L24.6586977,41.7245284 Z M60.0663201,18.0732124 L64.1414274,18.0732124 L64.1414274,14 L60.0663201,14 L60.0663201,18.0732124 Z M24.6586977,18.0732124 L28.7334124,18.0732124 L28.7334124,14 L24.6586977,14 L24.6586977,18.0732124 Z M73.0516274,30.9944782 C73.0516274,34.8440172 76.158303,37.9648513 79.9900265,37.9648513 C83.8229278,37.9648513 86.9288182,34.8440172 86.9288182,30.9944782 C86.9288182,27.1445469 83.8229278,24.0237128 79.9900265,24.0237128 C76.158303,24.0237128 73.0516274,27.1445469 73.0516274,30.9944782 L73.0516274,30.9944782 Z M68.9808382,30.9944782 C68.9808382,24.9164448 73.9101439,19.9889565 79.9900265,19.9889565 C86.0710869,19.9889565 91,24.9164448 91,30.9944782 C91,37.0725117 86.0710869,42 79.9900265,42 C73.9101439,42 68.9808382,37.0725117 68.9808382,30.9944782 L68.9808382,30.9944782 Z" id="Fill-4" fill="#001E5A"></path></g></g></g></svg> 