<?xml version="1.0" encoding="utf-8"?>
<!-- Generator: Adobe Illustrator 22.1.0, SVG Export Plug-In . SVG Version: 6.00 Build 0)  -->
<svg version="1.1" id="Calque_1" xmlns="http://www.w3.org/2000/svg" xmlns:xlink="http://www.w3.org/1999/xlink" x="0px" y="0px"
	 viewBox="0 0 798.8 476.1" style="enable-background:new 0 0 798.8 476.1;" xml:space="preserve">
<style type="text/css">
	.st0{fill:#878787;}
	.st1{fill:#FFFFFF;}
	.st2{fill:#0F9CD8;}
	.st3{fill:#008ECF;}
	.st4{fill:#004F9F;}
</style>
<g>
	<polygon class="st0" points="417.1,265.4 375.3,307.3 333.4,265.4 35.6,265.4 35.6,424 752.3,424 752.3,265.4 	"/>
	<g>
		<path class="st1" d="M131.9,399.2h-8.2l-36.8-51.7h-3.6v51.7h-7.2V290h14.1c9.1,0,18.1,0.1,25.7,5.5c8.1,5.5,11.4,14.2,11.4,23.5
			c0,19-13.6,28.8-32.3,28.5L131.9,399.2z M92.4,341c7,0,14.1-0.3,19.7-5.1c5.4-4.2,7.9-10.7,7.9-17.2c0-8.1-3.9-16.2-12-19.7
			c-6-2.8-13.6-2.5-20.2-2.5h-4.6V341H92.4z"/>
		<path class="st1" d="M190.2,296.5v39.7h45.4v6.5h-45.4v50h46.6v6.5H183V290h53.8v6.5H190.2z"/>
		<path class="st1" d="M300,399.2h-7.2V290h19.9c8.8,0,17.3,0.6,24.4,6.4c6.9,5.7,10.2,13.9,10.2,22.5c0,7.8-3.1,16.5-9.4,21.6
			c-6.9,5.8-16.3,7-25.1,7H300V399.2z M313,340.8c7.3,0,13.9-0.9,19.7-5.9c4.9-4.3,7.3-10,7.3-16.4c0-6.8-2.8-13.6-8.5-17.7
			c-5.7-4.2-12.9-4.3-19.7-4.3H300v44.3H313z"/>
		<path class="st1" d="M507.5,344.6c0,30.7-26.8,56.1-58.5,56.1s-58.5-25.4-58.5-56.1c0-30.7,26.6-56.1,58.5-56.1
			C480.7,288.5,507.5,313.9,507.5,344.6z M397.7,344.6c0,27,23.2,49.6,51.3,49.6c28,0,51.3-22.8,51.3-49.6c0-27-23.3-49.6-51.3-49.6
			C420.9,295,397.7,317.6,397.7,344.6z"/>
		<path class="st1" d="M614.7,399.2h-8.2l-36.8-51.7h-3.6v51.7h-7.2V290H573c9.1,0,18.1,0.1,25.7,5.5c8.1,5.5,11.4,14.2,11.4,23.5
			c0,19-13.6,28.8-32.3,28.5L614.7,399.2z M575.2,341c7,0,14.1-0.3,19.7-5.1c5.4-4.2,7.9-10.7,7.9-17.2c0-8.1-3.9-16.2-12-19.7
			c-6-2.8-13.6-2.5-20.2-2.5h-4.6V341H575.2z"/>
		<path class="st1" d="M688,399.2h-7.2V296.5h-29.2V290h65.5v6.5H688V399.2z"/>
	</g>
	<g>
		<path class="st2" d="M36.5,65.2h77.2l25.1,103.6h0.5l25.1-103.6h77.2v176h-51.3V128.3h-0.5l-30.6,112.9h-40.4L88.2,128.3h-0.5
			v112.9H36.5V65.2z"/>
		<path class="st2" d="M516.5,65.2h96.4c46.4,0,56.2,26.1,56.2,44.1c0,17.8-8.6,27.4-21.7,34.5c15.8,5.4,30.6,18,30.6,43.9
			c0,35.3-30.6,53.5-61.6,53.5h-99.9V65.2z M570.8,133.7h28.6c11.3,0,18.5-3.2,18.5-14.5c0-8.9-7.4-12.1-18.5-12.1h-28.6V133.7z
			 M570.8,199.3h31.8c11.3,0,21.2-3.2,21.2-16.8c0-10.4-6.2-16-19-16h-34V199.3z"/>
		<path class="st2" d="M699.2,65.2h54.2v176h-54.2V65.2z"/>
	</g>
	<g id="XMLID_14_">
		<path id="XMLID_29_" class="st3" d="M448.8,68.5c-20.5-20.5-47.4-30.8-74.3-30.8c-26.9,0-53.8,10.3-74.3,30.8
			c-4.8,4.8-9,9.9-12.7,15.4c14.6-21.3,39.1-35.3,66.9-35.3c44.8,0,81.1,36.3,81.1,81.1c0,14.4-3.8,27.9-10.3,39.6
			c-1.6,3-3.4,5.9-5.6,8.7c-4.1,5.5-8.8,10.4-14,14.7l-31.1,31.1l-33.8,33.8l33.8,33.8l74.3-74.3
			C489.8,176.1,489.8,109.5,448.8,68.5z"/>
		<path id="XMLID_27_" class="st4" d="M435.6,129.7c0-44.8-36.3-81.1-81.1-81.1c-27.8,0-52.3,14-66.9,35.3c-0.2,0.3-0.4,0.6-0.6,0.9
			c-0.6,0.9-1.2,1.8-1.8,2.8c0,0.1-0.1,0.1-0.1,0.2c-24.9,40.5-19.9,94.2,15.2,129.3l23.4,23.4l33.8-33.8L334,183.3
			c-22.3-22.3-22.3-58.7,0-81c10.8-10.8,25.2-16.8,40.5-16.8c15.3,0,29.7,6,40.5,16.8c18.1,18.1,21.5,45.5,10.3,67.1
			C431.8,157.6,435.6,144.1,435.6,129.7z"/>
	</g>
</g>
</svg>
