<svg id="Calque_1" data-name="Calque 1" xmlns="http://www.w3.org/2000/svg" viewBox="0 0 110.95596 54.77207"><defs><style>.cls-1{fill:#1a2141;}.cls-2{fill:#578aff;}</style></defs><title>Mobireport_Logo_STD_RVB</title><path class="cls-1" d="M14.12881,34.36538,6.708,14.45174V34.36538H.03871V2.4284H8.211l8.8768,23.43591L25.91712,2.4284h8.12534v31.937H27.37314V14.45174L19.95236,34.36538Z"/><path class="cls-1" d="M77.05433,2.4284H88.13755c5.82407,0,9.95761,3.42847,9.95761,8.50107,0,3.47537-1.50292,5.77664-3.80419,6.99763a7.96232,7.96232,0,0,1,4.69635,7.60839c0,5.2602-4.41495,8.82989-10.56732,8.82989H77.05433ZM88.09065,8.8627h-4.367v5.91787h4.367c1.78537,0,3.14758-.93959,3.14758-2.95894S89.876,8.8627,88.09065,8.8627ZM88.42,21.21486H83.72365v6.71623H88.42c2.11367,0,3.71039-1.03339,3.71039-3.33467S90.53367,21.21486,88.42,21.21486Z"/><path class="cls-1" d="M104.2444,2.4284h6.66932v31.937H104.2444Z"/><path class="cls-1" d="M18.373,43.312h3.51132c2.07772,0,3.527,1.16,3.527,3.12465a2.74306,2.74306,0,0,1-2.12566,2.80259c1.35284.65974,2.319,2.54412,2.64105,5.02466H24.02617c-.43462-2.56079-1.59412-4.33261-2.97926-4.33261h-.83744v4.33261H18.373Zm3.49517,1.75514H20.20947v3.109H21.8682a1.55687,1.55687,0,1,0,0-3.109Z"/><path class="cls-1" d="M31.67833,54.26391V43.312h6.056v1.75514H33.51476v2.80259h3.89747v1.75514H33.51476v2.88389h4.21953v1.75514Z"/><path class="cls-1" d="M43.93668,43.312h3.479a3.37759,3.37759,0,1,1,0,6.74853H45.77312v4.20337H43.93668Zm3.44671,1.75514H45.77312v3.23721h1.61027a1.6191,1.6191,0,1,0,0-3.23721Z"/><path class="cls-1" d="M61.62305,43.13483a5.65316,5.65316,0,1,1-5.6375,5.65313A5.53663,5.53663,0,0,1,61.62305,43.13483Zm0,9.46983a3.81724,3.81724,0,1,0-3.75312-3.8167A3.73676,3.73676,0,0,0,61.62305,52.60466Z"/><path class="cls-1" d="M73.093,43.312h3.51133c2.07719,0,3.52695,1.16,3.52695,3.12465a2.74347,2.74347,0,0,1-2.12618,2.80259c1.35284.65974,2.32,2.54412,2.64209,5.02466h-1.901c-.43462-2.56079-1.59464-4.33261-2.97978-4.33261h-.83692v4.33261H73.093Zm3.49465,1.75514H74.92939v3.109H76.5876a1.55692,1.55692,0,1,0,0-3.109Z"/><path class="cls-1" d="M87.96057,45.06715H85.17465V43.312h7.40828v1.75514H89.797v9.19676H87.96057Z"/><path class="cls-2" d="M55.16.02188A16.09219,16.09219,0,0,0,38.76265,16.43663c0,4.57628,3.96487,10.17,7.99484,14.67568l4.54758-4.54042c-2.65427-2.97951-5.70236-7.07059-5.70236-10.13526a9.53676,9.53676,0,1,1,19.06764,0c0,5.32031-9.13573,13.72882-9.49326,14.0549L50.57187,35.0891C53.16638,37.62375,55.16,39.2687,55.16,39.2687S71.5563,25.74382,71.5563,16.43663A16.09131,16.09131,0,0,0,55.16.02188"/></svg>