<svg viewBox="0 0 128 128" xmlns="http://www.w3.org/2000/svg"><path d="M27.707 111.509c-13.785 0-25-11.215-25-25s11.215-25 25-25 25 11.215 25 25-11.215 25-25 25zm0-44c-10.477 0-19 8.523-19 19s8.523 19 19 19 19-8.523 19-19-8.524-19-19-19zm72 44c-13.785 0-25-11.215-25-25s11.215-25 25-25 25 11.215 25 25-11.215 25-25 25zm0-44c-10.477 0-19 8.523-19 19s8.523 19 19 19 19-8.523 19-19-8.524-19-19-19z" fill="#26353f"/><path d="M86.317 50.943c-.533-.94-1.53-1.609-2.611-1.609h-36c-1.054 0-2.03.64-2.572 1.544l-21 35.044a2.88 2.88 0 0 0-.038 2.957c.533.94 1.53 1.456 2.611 1.456h31.324c-.382 0-.738-1.269-1.159-1.91-.78-1.189-1.578-2.459-1.826-3.882-.01-.057-.006-.208-.012-.208H32.005l17.4-29h29.003L64.621 78.399c1.978.567 3.703 1.864 4.908 3.527l16.75-27.939a3.04 3.04 0 0 0 .038-3.044z" fill="#26353f"/><path d="M59.043 81.963a3 3 0 0 1-2.75-1.799L38.958 40.712c-.664-1.518 1.231.545 2.749-.119 1.52-.666 1.5.083 2.748-2.286L61.79 77.759a2.999 2.999 0 0 1-1.546 3.95c-.392.173-.8.254-1.201.254z" fill="#26353f"/><path d="M40.129 44.509c-7.15 0-15.578-1.833-15.578-7v-7c0-5.167 8.427-7 15.578-7 3.667 0 8.497.481 12.367 1.226 4.723.909 9.055 2.237 9.055 5.774v7c0 3.537-4.332 4.865-9.055 5.774-3.87.745-8.701 1.226-12.367 1.226zm-9.578-7.682c1 .684 4.463 1.683 9.5 1.683 5.659 0 13.5-1.203 15.5-2.222v-4.557c-2-1.019-9.841-2.222-15.5-2.222-5.037 0-8.5.999-9.5 1.683z" fill="#26353f"/><path d="M40.207 36.509c-7.217 0-14.5-1.855-14.5-6a2 2 0 0 1 3.99-.205c.612.703 4.229 2.205 10.51 2.205 6.597 0 14.91-1.505 16.61-2.656a2 2 0 0 1 3.89.656c0 5.743-20.295 6-20.5 6zm59.5 53c-12.341 0-19-24.818-19-48.088 0-1.657 1.343-3.088 3-3.088h19c3.216 0 8 2.485 8 9.088 0 2.913-1.211 4.729-2.227 5.704-2.74 2.627-6.885 2.475-9.113 2.383-.259-.011-.483-.011-.661-.011a2.995 2.995 0 1 1 0-5.992c.245 0 .554.013.911.028 1.143.048 3.816.161 4.709-.696.094-.091.38-.452.38-1.418 0-2.783-1.531-3.087-2-3.087h-16c.553 24 7.783 39.088 13 39.088 1.657 0 3 1.387 3 3.044.001 1.659-1.343 3.045-2.999 3.045zm-36 6c-5.514 0-10-4.486-10-10s4.486-10 10-10 10 4.486 10 10-4.486 10-10 10zm0-14c-2.206 0-4 1.794-4 4s1.794 4 4 4 4-1.794 4-4-1.795-4-4-4z" fill="#26353f"/><path d="M63.551 105.509a3 3 0 0 1-3-3v-10a3 3 0 1 1 6 0v10a3 3 0 0 1-3 3z" fill="#26353f"/><path d="M68.707 105.334h-10a3 3 0 1 1 0-6h10a3 3 0 1 1 0 6z" fill="#26353f"/></svg>