<svg clip-rule="evenodd" fill-rule="evenodd" stroke-linejoin="round" stroke-miterlimit="1.41421" viewBox="0 0 19 20" xmlns="http://www.w3.org/2000/svg"><path d="m18.188 10.104-2.487-1.244v-5.309c0-.378-.307-.685-.685-.685h-.748v-2.181c0-.378-.307-.685-.685-.685h-8.599c-.378 0-.685.307-.685.685v2.181h-.748c-.378 0-.685.307-.685.685v5.309l-2.487 1.244c-.305.152-.452.506-.344.829l2.866 8.599c.094.279.355.468.65.468h11.465c.295 0 .557-.189.65-.468l2.866-8.599c.108-.323-.039-.677-.344-.829zm-12.519-8.734h7.229v1.496h-7.229zm-1.433 2.866h10.095v3.939l-4.741-2.37c-.193-.097-.42-.097-.613 0l-4.741 2.37zm-2.713 6.828 7.075-3.538v11.104h-4.553zm12.999 7.566h-4.553v-11.104l7.075 3.538z" fill-rule="nonzero" fill="#acb8c9"/></svg>