<svg viewBox="0 0 20 20" xmlns="http://www.w3.org/2000/svg" fill-rule="evenodd" clip-rule="evenodd" stroke-linecap="round" stroke-linejoin="bevel" stroke-miterlimit="1.5"><path d="M14.06.8a.3.3 0 0 0-.3-.3h-8.4a.3.3 0 0 0-.3.3v2.4a.3.3 0 0 0 .3.3h8.4a.3.3 0 0 0 .3-.3V.8z" fill="none" stroke="#acb8c9"/><path d="M9.637 6.003l.078.009.076.015.075.021.073.027.071.032 8.559 4.319.071.039.068.045.063.051.06.055.054.06.05.064.044.068.038.072.033.074.027.076.02.079.014.08.007.081.001.081-.006.081-.013.08-.019.079-.025.077-.031.074-3.27 6.988-.037.072-.043.069-.048.064-.054.061-.058.057-.062.051-.067.046-.07.041-.073.035-.075.028-.078.023-.079.016-.081.01-.08.003H4.269l-.08-.003-.081-.01-.079-.016-.078-.023-.075-.028-.073-.035-.07-.041-.067-.046-.062-.051-.058-.057-.054-.061-.048-.064-.043-.069-.037-.072-3.27-6.988-.031-.074-.025-.077-.019-.079-.013-.08-.005-.081v-.081l.007-.081.014-.08.02-.079.027-.076.033-.074.038-.072.044-.068.05-.064.054-.06.06-.055.063-.051.068-.045.071-.039 8.559-4.319.071-.032.073-.027.075-.021.076-.015.078-.009L9.56 6l.077.003zM1 11.319l3.269 6.987H14.85l3.269-6.987L9.56 7 1 11.319z" fill="#acb8c9"/><path d="M3.56 9.5v-6h12v6M9.56 6.5v11.806" fill="none" stroke="#acb8c9" stroke-linejoin="round"/></svg>