<svg clip-rule="evenodd" fill-rule="evenodd" stroke-linecap="round" stroke-linejoin="bevel" stroke-miterlimit="1.5" viewBox="0 0 24 24" xmlns="http://www.w3.org/2000/svg"><ellipse cx="7.5" cy="8.147" fill="none" rx="1.667" ry="1.647" stroke="#000" stroke-width="1.5"/><path d="m8.854 12.029c.633 0 1.146.508 1.146 1.133v2.264c0 .625-.513 1.133-1.146 1.133-.028 0-.054.011-.074.03-.019.02-.03.046-.03.074v4.219c0 .341-.28.618-.625.618h-1.25c-.345 0-.625-.277-.625-.618 0 0 0-3.561 0-4.219 0-.028-.011-.054-.03-.074-.02-.019-.046-.03-.074-.03-.633 0-1.146-.508-1.146-1.133v-2.264c0-.625.513-1.133 1.146-1.133z" fill="none" stroke="#000" stroke-width="1.5"/><path d="m16.75 8.75c0-.414-.336-.75-.75-.75s-.75.336-.75.75v10c0 .414.336.75.75.75s.75-.336.75-.75z"/><g fill="none" stroke="#000" stroke-width="1.5"><path d="m18 19.377c0-.208-.169-.377-.377-.377h-3.246c-.208 0-.377.169-.377.377v1.746c0 .208.169.377.377.377h3.246c.208 0 .377-.169.377-.377z"/><circle cx="16" cy="5.5" r="3"/></g></svg>