<svg viewBox="0 0 19 20" xmlns="http://www.w3.org/2000/svg" fill-rule="evenodd" clip-rule="evenodd" stroke-linecap="round" stroke-linejoin="bevel" stroke-miterlimit="1.5"><path d="M11.5 1.509A1.011 1.011 0 0 0 10.491.5H2.299a.967.967 0 0 0-.966.966v14.213H11.5V1.509zM12.333 18.336a.664.664 0 0 1-.664.664H1.164a.665.665 0 0 1-.664-.664v-1.992c0-.367.298-.665.664-.665h10.505c.367 0 .664.298.664.665v1.992z" fill="none" stroke="#26353f"/><path d="M9.333 5.668A.332.332 0 0 1 9.001 6H3.832a.332.332 0 0 1-.332-.332V3.012c0-.184.149-.333.332-.333h5.169c.184 0 .332.149.332.333v2.656z" fill="none" stroke="#26353f"/><path d="M7.983 8.168a.146.146 0 0 0-.129-.078H5.736a.145.145 0 0 0-.139.104L4.84 10.73a.141.141 0 0 0 .023.127c.027.037.07.058.116.058h1.188l-.479 2.398a.146.146 0 0 0 .142.174c.051 0 .1-.027.126-.073l1.867-3.278a.145.145 0 0 0-.126-.217h-.841l1.117-1.601a.145.145 0 0 0 .01-.15z" fill="#26353f" fill-rule="nonzero"/><path d="M12.333 11.34h.197a1.968 1.968 0 0 1 1.97 1.97v3.357c0 .559.453 1.012 1.012 1.012h.001a.983.983 0 0 0 .987-.987V9.5M18.5 5.872a.373.373 0 0 0-.372-.372h-3.272a.356.356 0 0 0-.356.356v1.66A1.985 1.985 0 0 0 16.484 9.5h.042A1.977 1.977 0 0 0 18.5 7.526V5.872zM15.5 4v1M17.5 4v1" fill="none" stroke="#26353f"/></svg>