<svg clip-rule="evenodd" fill-rule="evenodd" stroke-linejoin="round" stroke-miterlimit="1.41421" viewBox="0 0 14 20" xmlns="http://www.w3.org/2000/svg"><g fill="#acb8c9" fill-rule="nonzero"><path d="m10.272 16.506h-7.416c-1.174 0-2.148-.909-2.216-2.069l-.636-6.349c-.064-1.094.669-6.369 1.931-7.708.237-.252.499-.38.777-.38h7.705c.272 0 .528.122.76.363 1.236 1.284 2.016 6.658 1.95 8.453-.001.012-.002.024-.003.036l-.637 5.621c-.004.029-.01.058-.018.086-.071.231-.935 1.947-2.197 1.947zm.127-15.556-7.687.002c-.736.255-1.849 5.524-1.76 7.061l.636 6.348c.041.688.585 1.192 1.268 1.192h7.416c.527 0 1.138-.941 1.277-1.25l.627-5.54c.08-2.337-.999-7.542-1.777-7.813z"/><path d="m10.284 7.301h-7.439c-.255 0-.464-.201-.475-.455-.037-.827.374-3.863 1.144-4.669.216-.225.436-.272.583-.272h4.935c.147 0 .367.047.582.272.771.806 1.182 3.842 1.145 4.669-.011.254-.221.455-.475.455zm-6.954-.953h6.468c-.08-1.152-.516-3.125-.848-3.491h-4.771c-.332.366-.769 2.339-.849 3.491z"/><path d="m9.537 11.879c-.842 0-1.527-.685-1.527-1.527s.685-1.528 1.527-1.528c.841 0 1.526.686 1.526 1.528s-.685 1.527-1.526 1.527zm0-2.102c-.317 0-.575.258-.575.575s.258.575.575.575c.316 0 .574-.258.574-.575s-.258-.575-.574-.575z"/><path d="m3.623 11.879c-.841 0-1.526-.685-1.526-1.527s.685-1.528 1.526-1.528c.842 0 1.526.686 1.526 1.528s-.684 1.527-1.526 1.527zm0-2.102c-.317 0-.574.258-.574.575s.257.575.574.575.575-.258.575-.575-.258-.575-.575-.575z"/><path d="m9.54 13.331h-6.344c-.262 0-.475-.213-.475-.476s.213-.476.475-.476h6.344c.263 0 .476.213.476.476s-.213.476-.476.476z"/><path d="m9.54 14.919h-6.344c-.262 0-.475-.214-.475-.476 0-.264.213-.477.475-.477h6.344c.263 0 .476.213.476.477 0 .262-.213.476-.476.476z"/><path d="m10.809 18.41h-8.881c-.263 0-.476-.213-.476-.476s.213-.476.476-.476h8.881c.263 0 .476.213.476.476s-.213.476-.476.476z"/><path d="m12.322 20c-.134 0-.266-.056-.36-.164l-2.782-3.209c-.172-.199-.151-.5.048-.672.198-.172.498-.151.671.048l2.782 3.209c.172.199.151.499-.048.672-.09.078-.201.116-.311.116z"/><path d="m.575 20c-.11 0-.221-.038-.311-.116-.199-.173-.22-.473-.048-.672l2.782-3.209c.172-.199.473-.22.671-.048.199.172.22.473.048.672l-2.782 3.209c-.094.108-.227.164-.36.164z"/></g></svg>