<svg width="50" height="50" xmlns="http://www.w3.org/2000/svg">
  <circle fill="#1fac8c" cx="25" cy="25" r="25"/>
  <path fill="#fff" d="m26,20.63792c-2.757,0 -4.9995,2.18167 -4.9995,4.86208s2.2425,4.86063 4.9995,4.86063s4.9995,-2.18021 4.9995,-4.86063s-2.2425,-4.86208 -4.9995,-4.86208m0,11.18104c-3.585,0 -6.4995,-2.83354 -6.4995,-6.31896s2.9145,-6.32042 6.4995,-6.32042s6.4995,2.835 6.4995,6.32042c0,3.48542 -2.9145,6.31896 -6.4995,6.31896m-1.7895,9.72271l3.579,0c0.5685,-1.61 1.002,-3.57438 3.1605,-4.44792c2.244,-0.89979 3.999,0.28583 5.4525,0.98l2.529,-2.46167c-0.762,-1.52688 -1.899,-3.20688 -1.0035,-5.30979c0.8505,-1.99646 2.6085,-2.42521 4.572,-3.06104l0,-3.4825c-1.8525,-0.61396 -3.7065,-1.0325 -4.5705,-3.05958c-0.858,-2.0125 0.0855,-3.49271 1.0035,-5.31271l-2.5305,-2.45875c-1.6755,0.79771 -3.3315,1.83313 -5.463,0.97417c-2.061,-0.83271 -2.484,-2.52875 -3.15,-4.44354l-3.579,0c-0.636,1.79521 -1.056,3.59917 -3.1485,4.44208c-0.5475,0.22313 -1.077,0.32958 -1.6155,0.32958c-1.2645,0 -2.3085,-0.57167 -3.849,-1.30229l-2.5305,2.45875c0.861,1.71354 1.8765,3.26229 1.0035,5.31271c-0.8565,2.00521 -2.601,2.41208 -4.5705,3.05958l0,3.4825c1.839,0.60958 3.702,1.02813 4.5705,3.05958c0.8715,2.04604 -0.1125,3.54667 -1.0035,5.31271l2.5305,2.46021c2.175,-1.05729 3.5325,-1.75583 5.463,-0.97563c2.067,0.83417 2.4825,2.53458 3.15,4.44354m4.641,1.45833l-5.7045,0c-1.0215,-2.79708 -1.1775,-3.95646 -2.6595,-4.55438c-1.5075,-0.61104 -2.5965,0.1925 -5.199,1.38833l-4.0335,-3.92146c1.3095,-2.67896 2.0505,-3.59479 1.4295,-5.05313c-0.618,-1.44521 -1.788,-1.58521 -4.6845,-2.58563l0,-5.5475c2.859,-0.98875 4.068,-1.14042 4.6845,-2.58563c0.6165,-1.44521 -0.1065,-2.35229 -1.4295,-5.05458l4.0335,-3.92c2.6115,1.2075 3.699,1.99063 5.1975,1.38979c1.488,-0.60083 1.623,-1.72813 2.6625,-4.55583l5.703,0c1.023,2.79708 1.182,3.95792 2.661,4.55438c1.5015,0.60667 2.5635,-0.17354 5.2005,-1.38833l4.0305,3.92c-1.317,2.69354 -2.0415,3.61229 -1.428,5.05313c0.6165,1.44667 1.788,1.58521 4.6845,2.58708l0,5.54896c-2.859,0.98729 -4.0695,1.14042 -4.686,2.58563c-0.6045,1.42188 0.066,2.27646 1.431,5.05167l-4.032,3.92146c-2.592,-1.19583 -3.7005,-1.99792 -5.184,-1.39271c-1.482,0.59792 -1.62,1.67125 -2.6775,4.55875"/>
</svg>
