<svg width="50" height="50" xmlns="http://www.w3.org/2000/svg">
  <circle fill="#287233" cx="25" cy="25" r="25"/>
  <path fill="#fff" d="M28.431 14.598c-.773-.468-1.25-1.338-1.248-2.275v-.004c0-1.465-1.127-2.652-2.516-2.652s-2.517 1.187-2.517 2.652v.004c.003.939-.475 1.807-1.248 2.275-5.601 3.39-2.383 14.644-8.235 16.632v2.187h24V31.23c-5.853-1.988-2.634-13.242-8.236-16.632zm-3.764-3.681c.662 0 1.2.56 1.2 1.25s-.538 1.25-1.2 1.25-1.2-.56-1.2-1.25.537-1.25 1.2-1.25zm3.6 25c0 1.997-1.67 3.75-3.566 3.75s-3.634-1.753-3.634-3.75h7.2zm6.018-15.652c-.296-1.88-1.12-4.602-3.38-6.893l1.674-1.793c2.16 2.19 3.57 5.055 4.074 8.283l-2.368.403zm-21.618-.402c.505-3.229 1.914-6.093 4.074-8.284l1.675 1.793c-2.26 2.29-3.087 5.013-3.38 6.893l-2.37-.402z"/>
</svg>
