<svg xmlns="http://www.w3.org/2000/svg" viewBox="0 0 50 50">
  <circle fill="#1fac8c" cx="25" cy="25" r="25"></circle>
  <path fill="#fff" d="M 36.932 11.493 C 36.932 10.787 36.399 10.016 35.525 10.016 L 13.015 10.016 C 12.142 10.016 11.608 10.783 11.608 11.493 L 11.608 35.126 C 11.608 36.043 12.339 36.603 13.015 36.603 L 35.525 36.603 C 36.198 36.603 36.932 36.043 36.932 35.126 L 36.932 11.493 Z M 34.822 19.624 L 34.822 34.387 L 13.718 34.387 L 13.718 19.624 L 34.822 19.624 Z M 34.822 17.409 L 13.718 17.409 L 13.718 12.232 L 34.822 12.232 L 34.822 17.409 Z M 31.656 13.716 C 32.239 13.716 32.711 14.212 32.711 14.824 C 32.711 15.435 32.239 15.932 31.656 15.932 C 31.074 15.932 30.601 15.435 30.601 14.824 C 30.601 14.212 31.074 13.716 31.656 13.716 Z M 27.435 13.716 C 28.018 13.716 28.491 14.212 28.491 14.824 C 28.491 15.435 28.018 15.932 27.435 15.932 C 26.853 15.932 26.38 15.435 26.38 14.824 C 26.38 14.212 26.853 13.716 27.435 13.716 Z"></path>
</svg>