<svg clip-rule="evenodd" fill-rule="evenodd" stroke-linejoin="round" stroke-miterlimit="1.41421" viewBox="0 0 248 64" xmlns="http://www.w3.org/2000/svg" xmlns:xlink="http://www.w3.org/1999/xlink"><clipPath id="a"><path clip-rule="evenodd" d="m.888 0h246.489v64h-246.489z"/></clipPath><g clip-path="url(#a)" fill-rule="nonzero"><path d="m32.492 55.628c14.291-.916 25.833-.619 25.982.62.148 1.213-11.394 3.046-25.685 4.111-14.291.917-25.832.619-25.981-.619-.149-1.362 11.393-3.195 25.684-4.112" fill="#d8d4d3"/><path d="m58.176 17.808c0-.446-.445-.916-.916-1.065l-2.576-.297c-.619 0-1.213.446-1.213 1.065l.148 5.176-1.511.149-.916-18.229c-.149-3.369-11.096-5.201-22.489-4.434h-.446c-12.904.62-22.043 3.641-21.87 6.688l.916 18.377-1.511.149-.198-4.854c0-.62-.619-1.066-1.213-.917l-2.576.471c-.619 0-.917.619-.917 1.065l.298 6.538c0 .62.446 1.065 1.065 1.065l2.576-.148c.619-.149 1.065-.619 1.065-1.065v-.297l1.51-.149 1.214 23.703c0 1.065 1.065 1.981 2.13 1.981h1.362l.149 4.409c0 .768.768 1.362 1.511 1.362l2.576-.149c.916 0 1.51-.619 1.362-1.51l-.149-4.409 27.195-1.362.149 4.557c0 .768.768 1.362 1.511 1.362l2.576-.148c.767 0 1.51-.768 1.362-1.511l-.149-4.557h1.214c1.065 0 1.981-1.065 1.981-2.131l-1.213-23.851 1.51-.149c0 .768.62 1.214 1.065 1.066l2.576-.149c.619 0 1.065-.446 1.065-1.065zm-15.653 15.48c-.148-1.833 1.214-3.344 3.047-3.492 1.832-.149 3.343 1.213 3.492 3.046.148 1.833-1.214 3.492-3.047 3.492-1.832.149-3.343-1.213-3.492-3.046zm-13.969-31.282c4.855-.297 9.412-.148 9.412.297l.148 3.047c0 .148 0 .297-.445.297l-17.932.916c-.446 0-.297-.148-.297-.297l-.174-3.046c0-.471 3.814-.917 9.288-1.214zm-18.848 9.858c0-.917.619-1.66 1.511-1.66l35.715-1.832c.916 0 1.659.619 1.659 1.51l.619 13.078c0 .916-.619 1.659-1.51 1.659l-35.716 1.833c-.916 0-1.659-.619-1.659-1.511zm.916 23.108c-.148-1.833 1.362-3.344 3.047-3.492 1.832-.149 3.343 1.213 3.492 3.046s-1.214 3.493-3.047 3.493c-1.832.148-3.343-1.239-3.492-3.047zm20.508 11.839h-.297c-6.688.446-13.226-1.362-13.375-4.409v-.916c0-.916.619-1.659 1.511-1.659l23.108-1.214c.917 0 1.66.619 1.66 1.511l.148.916c.149 2.898-5.151 5.325-12.755 5.771z" fill="#282c33"/><path d="m239.155 38.91c-.619-1.065-1.511-1.833-2.725-2.724-1.213-.768-3.195-1.66-5.919-2.576-3.195-1.214-5.474-2.279-6.539-3.195-1.065-.917-1.659-2.279-1.659-3.79 0-1.51.767-2.575 2.13-3.343 1.337-.768 3.319-1.239 5.894-1.239 2.576 0 5.325.62 8.199 1.833l1.065-2.427c-2.898-1.214-6.069-1.833-9.264-1.833-3.343 0-6.068.619-7.901 1.982-1.832 1.362-2.897 3.046-2.897 5.325 0 1.362.297 2.575.916 3.64s1.511 1.833 2.724 2.725c1.214.768 3.344 1.659 6.391 2.898 2.897 1.065 4.854 1.981 6.068 3.046 1.213 1.065 1.833 2.279 1.833 3.79 0 1.659-.768 3.046-2.279 3.963-1.511 1.065-3.79 1.51-6.836 1.51-3.344 0-6.539-.767-9.56-2.278v3.046c2.427 1.214 5.622 1.833 9.56 1.833 3.789 0 6.687-.768 8.817-2.13 2.13-1.511 3.047-3.492 3.047-6.242-.174-1.684-.471-2.749-1.065-3.814m-51.666-18.823v19.764c0 7.282 3.492 11.096 10.328 11.096 5.003 0 8.52-1.51 10.477-4.706h.149l.445 4.112h2.279v-30.266h-2.724v16.718c0 4.111-.917 6.984-2.576 8.817-1.66 1.833-4.409 2.725-7.901 2.725-2.725 0-4.706-.768-5.92-2.13-1.213-1.363-1.981-3.641-1.981-6.688v-19.442zm-22.96 10.179c7.901 0 11.864 2.725 11.864 8.347 0 6.068-3.789 9.115-11.244 9.115h-9.586v-17.487h8.966zm-8.966-18.08h8.199c3.789 0 6.835.619 8.817 1.833 1.981 1.213 2.898 3.195 2.898 5.919 0 2.725-.917 4.706-2.576 5.92-1.66 1.213-4.557 1.981-8.347 1.981h-8.966v-15.653zm-2.724 38.117h12.458c4.557 0 8.05-1.065 10.477-3.046s3.789-4.855 3.789-8.669c0-2.724-.767-5.003-2.278-6.538-1.511-1.536-3.963-2.576-7.133-3.047v-.149c2.724-.445 4.854-1.51 6.241-3.046s2.13-3.492 2.13-5.919c0-3.493-1.213-6.069-3.492-7.753-2.279-1.659-6.068-2.576-11.096-2.576h-11.096z" fill="#282c33"/><path d="m132.48 50.303c-.149.62-.768 1.982-1.511 3.963-.768 1.982-1.362 3.493-1.981 4.409-.62.916-1.214 1.659-1.982 2.13-.768.446-1.511.619-2.427.619-1.214 0-2.427-.148-3.492-.446v2.428c1.362.445 2.427.619 3.492.619 1.362 0 2.576-.297 3.641-.768 1.065-.446 1.833-1.214 2.576-2.279s1.659-2.898 2.724-5.771l13.523-35.096h-2.898l-6.39 16.719c-1.832 4.706-3.046 8.346-3.789 10.625h-.149c-.446-1.833-1.833-5.325-3.641-10.477l-6.39-17.015h-2.898zm-35.245 0 15.208-37.374h.148c-.148 2.278-.297 4.557-.297 6.687v30.836h2.898v-40.718h-4.26l-14.44 35.715h-.148l-14.465-35.715h-4.408v40.569h2.724v-30.39c0-2.427 0-4.706-.149-6.984h.149l15.207 37.523z" fill="#546072"/><path d="m237.272 16.718c0-3.368 0-6.737 0-10.105h10.106v10.105c-3.369 0-6.737 0-10.106 0zm6.96-5.325c0-.025-.025-.025-.025-.025-.445-.718-.916-1.461-1.362-2.179-.025-.025-.025-.025-.049-.025-.248 0-.496 0-.743 0h-.025v4.731h.619c0-1.263 0-2.551 0-3.815.52.843 1.04 1.685 1.585 2.527.52-.842 1.04-1.684 1.56-2.502v3.815h.62c0-1.586 0-3.146 0-4.731h-.025c-.248 0-.495 0-.718 0-.025 0-.05 0-.05.025-.446.718-.916 1.461-1.362 2.179-.025-.025-.025-.025-.025 0zm-4.111 2.477c0-1.362 0-2.724 0-4.111h1.263c0-.223 0-.422 0-.62-1.04 0-2.105 0-3.146 0v.62h1.263v4.086c.199.025.422.025.62.025z" fill="#fff"/><g fill="#282c33"><path d="m244.232 11.393.025-.025c.446-.718.916-1.461 1.362-2.179.025-.025.025-.025.05-.025h.743v4.731c-.198 0-.421 0-.62 0 0-1.263 0-2.527 0-3.815-.52.843-1.04 1.685-1.56 2.502-.52-.842-1.04-1.684-1.585-2.526v3.814c-.223 0-.421 0-.619 0 0-1.585 0-3.146 0-4.731h.768c.024 0 .024 0 .049.025.446.718.917 1.461 1.362 2.18 0 .024 0 .024.025.049z"/><path d="m240.121 13.87c-.223 0-.421 0-.62 0 0-1.362 0-2.724 0-4.087-.421 0-.842 0-1.263 0 0-.223 0-.421 0-.619h3.146v.619c-.421 0-.842 0-1.263 0z"/></g></g></svg>