<svg viewBox="0 0 128 128" xmlns="http://www.w3.org/2000/svg" fill-rule="evenodd" clip-rule="evenodd" stroke-linecap="round" stroke-linejoin="bevel" stroke-miterlimit="1.5"><path d="M59.188 117.505c-9.31 0-16.886-7.576-16.886-16.887 0-9.31 7.575-16.886 16.886-16.886s16.887 7.575 16.887 16.886-7.576 16.887-16.887 16.887zm0-29.72c-7.076 0-12.833 5.757-12.833 12.833 0 7.077 5.757 12.834 12.833 12.834 7.077 0 12.834-5.757 12.834-12.834 0-7.076-5.758-12.833-12.834-12.833zm48.633 29.72c-9.311 0-16.886-7.576-16.886-16.887 0-9.31 7.575-16.886 16.886-16.886 9.31 0 16.886 7.575 16.886 16.886s-7.575 16.887-16.886 16.887zm0-29.72c-7.077 0-12.834 5.757-12.834 12.833 0 7.077 5.757 12.834 12.834 12.834 7.076 0 12.833-5.757 12.833-12.834 0-7.076-5.757-12.833-12.833-12.833z" fill="#26353f" fill-rule="nonzero"/><path d="M98.777 76.595c-.36-.635-1.034-1.087-1.764-1.087H72.697c-.712 0-1.371.433-1.738 1.043l-14.184 23.67a1.947 1.947 0 00-.026 1.998c.36.635 1.034.984 1.764.984H79.67c-.258 0-.499-.858-.783-1.29-.527-.804-1.066-1.661-1.233-2.623-.007-.038-.005-.14-.009-.14H62.091l11.753-19.588h19.59L84.122 95.14c1.336.383 2.501 1.26 3.315 2.383L98.751 78.65c.375-.63.385-1.416.026-2.056z" fill="#26353f" fill-rule="nonzero"/><path d="M80.354 97.548a2.03 2.03 0 01-1.857-1.215l-11.71-26.648c-.448-1.026.832.368 1.858-.08 1.026-.45 1.013.055 1.856-1.545L82.21 94.708a2.023 2.023 0 01-1.044 2.668c-.265.117-.54.172-.812.172z" fill="#26353f" fill-rule="nonzero"/><path d="M67.579 72.25c-4.83 0-10.522-1.239-10.522-4.729v-4.728c0-3.49 5.692-4.728 10.522-4.728 2.477 0 5.74.325 8.353.828 3.19.614 6.116 1.511 6.116 3.9v4.728c0 2.39-2.926 3.286-6.116 3.9-2.614.504-5.877.828-8.353.828zm-6.47-5.19c.676.463 3.015 1.137 6.417 1.137 3.823 0 9.119-.812 10.47-1.5v-3.078c-1.351-.689-6.647-1.501-10.47-1.501-3.402 0-5.741.674-6.417 1.136v3.807z" fill="#26353f" fill-rule="nonzero"/><path d="M67.632 66.846c-4.875 0-9.795-1.253-9.795-4.053v-.003c0-.741.61-1.351 1.351-1.351.69 0 1.276.529 1.345 1.216.413.474 2.856 1.489 7.099 1.489 4.455 0 10.07-1.017 11.219-1.794.188-.543.702-.91 1.276-.91.741 0 1.351.61 1.351 1.352v.001c0 3.88-13.708 4.053-13.846 4.053zm40.189 35.799c-8.336 0-12.834-16.764-12.834-32.481 0-1.12.907-2.086 2.027-2.086h12.833c2.172 0 5.404 1.678 5.404 6.138 0 1.968-.818 3.195-1.504 3.853-1.851 1.774-4.651 1.672-6.156 1.61-.175-.008-.326-.008-.446-.008a2.033 2.033 0 01-2.024-2.023c0-1.11.913-2.024 2.024-2.024.165 0 .374.009.615.019.772.032 2.578.109 3.18-.47.064-.062.257-.306.257-.958 0-1.88-1.034-2.085-1.35-2.085H99.038c.374 16.21 5.257 26.402 8.781 26.402 1.12 0 2.026.937 2.026 2.056.001 1.12-.907 2.057-2.025 2.057zm-24.316 4.052a6.762 6.762 0 01-6.755-6.754 6.762 6.762 0 016.755-6.755 6.762 6.762 0 016.754 6.755 6.762 6.762 0 01-6.754 6.754zm0-9.456a2.705 2.705 0 00-2.702 2.702 2.705 2.705 0 002.702 2.702 2.705 2.705 0 002.701-2.702 2.705 2.705 0 00-2.701-2.702z" fill="#26353f" fill-rule="nonzero"/><path d="M83.4 113.452a2.036 2.036 0 01-2.027-2.026v-6.755c0-1.112.914-2.026 2.026-2.026 1.112 0 2.027.914 2.027 2.026v6.755a2.036 2.036 0 01-2.027 2.026z" fill="#26353f" fill-rule="nonzero"/><path d="M86.882 113.334h-6.755a2.036 2.036 0 01-2.026-2.027c0-1.111.915-2.026 2.026-2.026h6.755c1.112 0 2.026.915 2.026 2.026a2.036 2.036 0 01-2.026 2.027z" fill="#26353f" fill-rule="nonzero"/><path d="M54.339 15.687a5.193 5.193 0 00-5.192-5.192H9.692A5.193 5.193 0 004.5 15.687v39.456a5.193 5.193 0 005.192 5.191h39.455a5.193 5.193 0 005.192-5.191V15.687z" fill="none" stroke="#26353f" stroke-width="2.76883"/><path d="M18.68 50.893V19.937h9.084c3.444 0 5.687.155 6.733.465 1.606.466 2.952 1.473 4.037 3.03 1.083 1.556 1.626 3.566 1.626 6.027 0 1.902-.313 3.5-.939 4.796-.623 1.293-1.418 2.312-2.381 3.051a7.899 7.899 0 01-2.935 1.468c-1.351.293-3.309.443-5.873.443h-3.69v11.676h-5.663zm5.661-25.72v8.786h3.099c2.231 0 3.724-.164 4.477-.488.75-.324 1.34-.83 1.77-1.52.426-.69.639-1.492.639-2.406 0-1.127-.3-2.054-.9-2.788a3.82 3.82 0 00-2.276-1.37c-.676-.142-2.032-.214-4.073-.214h-2.736z" fill="#26353f" fill-rule="nonzero" stroke="#26353f" stroke-width=".9967788" stroke-linecap="butt" stroke-linejoin="round" stroke-miterlimit="2"/><path d="M22.963 54.339v55.136" fill="none" stroke="#26353f" stroke-width="3.44" stroke-linejoin="round" transform="matrix(1 0 0 .7221 2.142 21.096)"/><path d="M29.419 54.339v55.136" fill="none" stroke="#26353f" stroke-width="3.44" stroke-linejoin="round" transform="matrix(1 0 0 .7221 4.142 21.096)"/></svg>
