<svg viewBox="0 0 16 20" xmlns="http://www.w3.org/2000/svg" fill-rule="evenodd" clip-rule="evenodd" stroke-linecap="round" stroke-linejoin="bevel" stroke-miterlimit="1.5"><path d="M8.546 16.084a.232.232 0 01-.23-.23v-.77c0-.126.104-.23.23-.23s.23.104.23.23v.77c0 .126-.104.23-.23.23z" fill="#acb8c9" fill-rule="nonzero"/><path d="M8.942 16.07h-.768a.232.232 0 01-.23-.23c0-.127.103-.23.23-.23h.768c.127 0 .23.103.23.23 0 .126-.103.23-.23.23z" fill="#acb8c9" fill-rule="nonzero"/><path d="M5.625 16.545a1.757 1.757 0 01-1.754-1.755c0-.967.787-1.755 1.754-1.755.968 0 1.755.788 1.755 1.755 0 .968-.787 1.755-1.755 1.755zm0-3.088c-.735 0-1.333.598-1.333 1.333s.598 1.334 1.333 1.334c.736 0 1.334-.599 1.334-1.334 0-.735-.598-1.333-1.334-1.333zm5.054 3.088a1.757 1.757 0 01-1.755-1.755c0-.967.787-1.755 1.755-1.755.967 0 1.755.788 1.755 1.755 0 .968-.788 1.755-1.755 1.755zm0-3.088c-.735 0-1.334.598-1.334 1.333s.599 1.334 1.334 1.334c.735 0 1.334-.599 1.334-1.334 0-.735-.599-1.333-1.334-1.333z" fill="#acb8c9" fill-rule="nonzero"/><path d="M9.74 12.294a.217.217 0 00-.184-.113H7.029a.216.216 0 00-.18.108l-1.474 2.46a.202.202 0 00-.003.207.207.207 0 00.183.103h2.199c-.027 0-.052-.09-.082-.134a.749.749 0 01-.128-.273v-.014H5.926l1.221-2.036h2.036l-.968 1.619c.14.04.26.13.345.247l1.175-1.96a.214.214 0 00.003-.214z" fill="#acb8c9" fill-rule="nonzero"/><path d="M7.825 14.471a.21.21 0 01-.193-.126l-1.217-2.77c-.046-.106.087.039.193-.008.107-.046.105.006.193-.16l1.217 2.769a.21.21 0 01-.193.295z" fill="#acb8c9" fill-rule="nonzero"/><path d="M6.497 11.842c-.502 0-1.093-.128-1.093-.491v-.491c0-.363.591-.492 1.093-.492.258 0 .597.034.868.086.332.064.636.157.636.406v.49c0 .25-.304.342-.636.406-.271.052-.61.086-.868.086zm-.672-.539c.07.048.313.118.667.118.397 0 .947-.084 1.088-.156v-.32c-.14-.071-.691-.156-1.088-.156-.354 0-.597.07-.667.119v.395z" fill="#acb8c9" fill-rule="nonzero"/><path d="M6.503 11.28c-.507 0-1.018-.13-1.018-.42 0-.078.063-.141.14-.141a.14.14 0 01.14.126c.043.05.297.155.738.155.463 0 1.046-.106 1.166-.186a.14.14 0 01.273.045c0 .404-1.425.422-1.44.422zM10.679 15c-.866 0-1.334-1.741-1.334-3.374 0-.117.095-.217.21-.217h1.335c.225 0 .561.174.561.638a.538.538 0 01-.156.4c-.193.184-.484.174-.64.167h-.046a.211.211 0 01-.21-.21c0-.116.094-.211.21-.211.017 0 .039 0 .064.002.08.003.267.011.33-.049.007-.006.027-.032.027-.1 0-.195-.108-.216-.14-.216H9.765c.04 1.684.547 2.743.913 2.743.116 0 .21.098.21.214a.213.213 0 01-.21.214zm-2.527.422a.703.703 0 11.002-1.406.703.703 0 01-.002 1.406zm0-.983a.281.281 0 100 .562.281.281 0 000-.562z" fill="#acb8c9" fill-rule="nonzero"/><g><path d="M.627 18.883l2.94-17.766" fill="none" stroke="#acb8c9"/></g><g><path d="M15.373 18.883l-2.94-17.766" fill="none" stroke="#acb8c9"/></g></svg>