<?xml version="1.0" encoding="UTF-8" standalone="no"?>
<!DOCTYPE svg PUBLIC "-//W3C//DTD SVG 1.1//EN" "http://www.w3.org/Graphics/SVG/1.1/DTD/svg11.dtd">
<svg width="100%" height="100%" viewBox="0 0 16 20" version="1.1" xmlns="http://www.w3.org/2000/svg" xmlns:xlink="http://www.w3.org/1999/xlink" xml:space="preserve" xmlns:serif="http://www.serif.com/" style="fill-rule:evenodd;clip-rule:evenodd;stroke-linecap:round;stroke-linejoin:bevel;stroke-miterlimit:1.5;">
    <g transform="matrix(0.0497942,0,0,0.0497942,7.86521,11.2822)">
        <g transform="matrix(1.40956,0,0,1.40956,-84.0356,-51.4909)">
            <g transform="matrix(1.09478,0,0,1.09478,-0.25657,-10.5688)">
                <path d="M63.551,105.509C61.905,105.509 60.551,104.155 60.551,102.509L60.551,92.509C60.551,90.863 61.905,89.509 63.551,89.509C65.197,89.509 66.551,90.863 66.551,92.509L66.551,102.509C66.551,104.155 65.197,105.509 63.551,105.509Z" style="fill:rgb(172,184,201);fill-rule:nonzero;"/>
            </g>
            <g transform="matrix(1.09478,0,0,1.09478,-0.25657,-10.5688)">
                <path d="M68.707,105.334L58.707,105.334C57.061,105.334 55.707,103.98 55.707,102.334C55.707,100.688 57.061,99.334 58.707,99.334L68.707,99.334C70.353,99.334 71.707,100.688 71.707,102.334C71.707,103.98 70.353,105.334 68.707,105.334Z" style="fill:rgb(172,184,201);fill-rule:nonzero;"/>
            </g>
            <path d="M27.707,111.509C13.922,111.509 2.707,100.294 2.707,86.509C2.707,72.724 13.922,61.509 27.707,61.509C41.492,61.509 52.707,72.724 52.707,86.509C52.707,100.294 41.492,111.509 27.707,111.509ZM27.707,67.509C17.23,67.509 8.707,76.032 8.707,86.509C8.707,96.986 17.23,105.509 27.707,105.509C38.184,105.509 46.707,96.986 46.707,86.509C46.707,76.032 38.183,67.509 27.707,67.509ZM99.707,111.509C85.922,111.509 74.707,100.294 74.707,86.509C74.707,72.724 85.922,61.509 99.707,61.509C113.492,61.509 124.707,72.724 124.707,86.509C124.707,100.294 113.492,111.509 99.707,111.509ZM99.707,67.509C89.23,67.509 80.707,76.032 80.707,86.509C80.707,96.986 89.23,105.509 99.707,105.509C110.184,105.509 118.707,96.986 118.707,86.509C118.707,76.032 110.183,67.509 99.707,67.509Z" style="fill:rgb(172,184,201);fill-rule:nonzero;"/>
            <path d="M86.317,50.943C85.784,50.003 84.787,49.334 83.706,49.334L47.706,49.334C46.652,49.334 45.676,49.974 45.134,50.878L24.134,85.922C23.578,86.824 23.564,87.963 24.096,88.879C24.629,89.819 25.626,90.335 26.707,90.335L58.031,90.335C57.649,90.335 57.293,89.066 56.872,88.425C56.092,87.236 55.294,85.966 55.046,84.543C55.036,84.486 55.04,84.335 55.034,84.335L32.005,84.335L49.405,55.335L78.408,55.335L64.621,78.399C66.599,78.966 68.324,80.263 69.529,81.926L86.279,53.987C86.835,53.053 86.849,51.89 86.317,50.943Z" style="fill:rgb(172,184,201);fill-rule:nonzero;"/>
            <path d="M59.043,81.963C57.852,81.963 56.77,81.255 56.293,80.164L38.958,40.712C38.294,39.194 40.189,41.257 41.707,40.593C43.227,39.927 43.207,40.676 44.455,38.307L61.79,77.759C61.956,78.138 62.042,78.547 62.042,78.961C62.042,80.151 61.334,81.232 60.244,81.709C59.852,81.882 59.444,81.963 59.043,81.963Z" style="fill:rgb(172,184,201);fill-rule:nonzero;"/>
            <path d="M40.129,44.509C32.979,44.509 24.551,42.676 24.551,37.509L24.551,30.509C24.551,25.342 32.978,23.509 40.129,23.509C43.796,23.509 48.626,23.99 52.496,24.735C57.219,25.644 61.551,26.972 61.551,30.509L61.551,37.509C61.551,41.046 57.219,42.374 52.496,43.283C48.626,44.028 43.795,44.509 40.129,44.509ZM30.551,36.827C31.551,37.511 35.014,38.51 40.051,38.51C45.71,38.51 53.551,37.307 55.551,36.288L55.551,31.731C53.551,30.712 45.71,29.509 40.051,29.509C35.014,29.509 31.551,30.508 30.551,31.192L30.551,36.827Z" style="fill:rgb(172,184,201);fill-rule:nonzero;"/>
            <path d="M40.207,36.509C32.99,36.509 25.707,34.654 25.707,30.509C25.707,30.507 25.707,30.505 25.707,30.504C25.707,29.407 26.61,28.504 27.707,28.504C28.729,28.504 29.595,29.287 29.697,30.304C30.309,31.007 33.926,32.509 40.207,32.509C46.804,32.509 55.117,31.004 56.817,29.853C57.095,29.049 57.857,28.507 58.707,28.507C59.804,28.507 60.707,29.41 60.707,30.507C60.707,30.508 60.707,30.508 60.707,30.509C60.707,36.252 40.412,36.509 40.207,36.509ZM99.707,89.509C87.366,89.509 80.707,64.691 80.707,41.421C80.707,39.764 82.05,38.333 83.707,38.333L102.707,38.333C105.923,38.333 110.707,40.818 110.707,47.421C110.707,50.334 109.496,52.15 108.48,53.125C105.74,55.752 101.595,55.6 99.367,55.508C99.108,55.497 98.884,55.497 98.706,55.497C97.062,55.497 95.71,54.145 95.71,52.501C95.71,50.857 97.062,49.505 98.706,49.505C98.951,49.505 99.26,49.518 99.617,49.533C100.76,49.581 103.433,49.694 104.326,48.837C104.42,48.746 104.706,48.385 104.706,47.419C104.706,44.636 103.175,44.332 102.706,44.332L86.706,44.332C87.259,68.332 94.489,83.42 99.706,83.42C101.363,83.42 102.706,84.807 102.706,86.464C102.707,88.123 101.363,89.509 99.707,89.509ZM63.707,95.509C58.193,95.509 53.707,91.023 53.707,85.509C53.707,79.995 58.193,75.509 63.707,75.509C69.221,75.509 73.707,79.995 73.707,85.509C73.707,91.023 69.221,95.509 63.707,95.509ZM63.707,81.509C61.501,81.509 59.707,83.303 59.707,85.509C59.707,87.715 61.501,89.509 63.707,89.509C65.913,89.509 67.707,87.715 67.707,85.509C67.707,83.303 65.912,81.509 63.707,81.509Z" style="fill:rgb(172,184,201);fill-rule:nonzero;"/>
        </g>
        <g transform="matrix(20.0827,0,0,20.0827,-157.209,-219.18)">
            <path d="M0.59,18.515L3.529,0.749" style="fill:none;stroke:rgb(172,184,201);stroke-width:1px;"/>
        </g>
        <g transform="matrix(-20.0827,0,0,20.0827,162.623,-219.18)">
            <path d="M0.59,18.515L3.529,0.749" style="fill:none;stroke:rgb(172,184,201);stroke-width:1px;"/>
        </g>
    </g>
</svg>
