<svg clip-rule="evenodd" fill-rule="evenodd" stroke-linecap="round" stroke-linejoin="bevel" stroke-miterlimit="1.5" viewBox="0 0 24 24" xmlns="http://www.w3.org/2000/svg"><ellipse cx="7.5" cy="8.147" fill="none" rx="1.667" ry="1.647" stroke="#26353f" stroke-width="1.5"/><path d="M8.854 12.029A1.14 1.14 0 0110 13.162v2.264a1.14 1.14 0 01-1.146 1.133.107.107 0 00-.074.03.107.107 0 00-.03.074v4.219c0 .341-.28.618-.625.618h-1.25a.622.622 0 01-.625-.618v-4.219a.107.107 0 00-.03-.074.107.107 0 00-.074-.03A1.14 1.14 0 015 15.426v-2.264a1.14 1.14 0 011.146-1.133z" fill="none" stroke="#26353f" stroke-width="1.5"/><path d="M16.75 8.75a.75.75 0 00-1.5 0v10a.75.75 0 001.5 0z" fill="#26353f"/><g fill="none" stroke="#26353f" stroke-width="1.5"><path d="M18 19.377a.377.377 0 00-.377-.377h-3.246a.377.377 0 00-.377.377v1.746c0 .208.169.377.377.377h3.246a.377.377 0 00.377-.377z"/><circle cx="16" cy="5.5" r="3"/></g></svg>