<svg viewBox="0 0 16 20" xmlns="http://www.w3.org/2000/svg" fill-rule="evenodd" clip-rule="evenodd" stroke-linecap="round" stroke-linejoin="round" stroke-miterlimit="1.5"><g fill="none" stroke="#26353f"><path d="M15.5 2A1.5 1.5 0 0014 .5H2A1.5 1.5 0 00.5 2v13A1.5 1.5 0 002 16.5h12a1.5 1.5 0 001.5-1.5V2zm-15 8.5h15m-15-8h15m-8.75 2h2.5"/><circle cx="3.625" cy="13.5" r="1"/><circle cx="12.375" cy="13.5" r="1"/><path d="M4.813 17.125a.626.626 0 00-.625-.625h-1.25a.625.625 0 00-.625.625v1.25c0 .345.28.625.625.625h1.25c.344 0 .625-.28.625-.625v-1.25zm8.875 0a.627.627 0 00-.626-.625h-1.25a.626.626 0 00-.625.625v1.25c0 .345.281.625.625.625h1.25c.345 0 .625-.28.625-.625v-1.25z"/></g></svg>