<svg xmlns="http://www.w3.org/2000/svg" stroke-miterlimit="1.5" width="18.453" height="15.935" clip-rule="evenodd" fill-rule="evenodd" stroke-linecap="round" stroke-linejoin="round"><g transform="scale(.92267 1.02804)" fill="none" stroke="#26353f"><path d="M19.5 7.4a.9.9 0 00-.9-.9H1.4a.9.9 0 00-.9.9v4.2a.9.9 0 00.9.9h17.2a.9.9 0 00.9-.9V7.4z"/><path d="M4.813 13.125a.626.626 0 00-.625-.625h-1.25a.625.625 0 00-.625.625v1.25c0 .345.28.625.625.625h1.25c.344 0 .625-.28.625-.625zm12.875 0a.626.626 0 00-.625-.625h-1.25a.625.625 0 00-.625.625v1.25c0 .345.28.625.625.625h1.25c.344 0 .625-.28.625-.625z"/><circle cx="3.125" cy="9.5" r="1"/><circle cx="16.875" cy="9.5" r="1"/><path d="M18 6.5H2l1.397-5.237c.12-.45.527-.763.992-.763h11.253c.447 0 .838.301.953.732zm-14.5-4h13m-9 7h5"/></g></svg>