<?xml version="1.0" encoding="UTF-8" standalone="no"?>
<!DOCTYPE svg PUBLIC "-//W3C//DTD SVG 1.1//EN" "http://www.w3.org/Graphics/SVG/1.1/DTD/svg11.dtd">
<svg width="100%" height="100%" viewBox="0 0 19 16" version="1.1" xmlns="http://www.w3.org/2000/svg" xmlns:xlink="http://www.w3.org/1999/xlink" xml:space="preserve" xmlns:serif="http://www.serif.com/" style="fill-rule:evenodd;clip-rule:evenodd;stroke-linecap:round;stroke-linejoin:round;stroke-miterlimit:1.5;">
    <g transform="matrix(0.92267,0,0,1.02804,0,0)">
        <g transform="matrix(1.20353,0,0,1.14146,-0.36333,-0.53571)">
            <path d="M6.249,4.16L6.507,4.16C7.16,4.16 7.69,4.662 7.69,5.28C7.69,5.898 7.16,6.4 6.507,6.4L5.394,6.4C4.741,6.4 4.211,5.898 4.211,5.28C4.211,4.662 4.741,4.16 5.394,4.16L5.652,4.16L5.652,3.943C5.317,3.822 5.079,3.516 5.079,3.158C5.079,2.695 5.478,2.319 5.97,2.319C6.461,2.319 6.86,2.695 6.86,3.158C6.86,3.529 6.604,3.845 6.249,3.955L6.249,4.16Z"/>
        </g>
        <g transform="matrix(1.20353,0,0,1.14146,5.86833,-0.53571)">
            <path d="M6.249,4.16L6.507,4.16C7.16,4.16 7.69,4.662 7.69,5.28C7.69,5.898 7.16,6.4 6.507,6.4L5.394,6.4C4.741,6.4 4.211,5.898 4.211,5.28C4.211,4.662 4.741,4.16 5.394,4.16L5.652,4.16L5.652,3.949C5.307,3.833 5.06,3.523 5.06,3.158C5.06,2.695 5.459,2.319 5.951,2.319C6.442,2.319 6.841,2.695 6.841,3.158C6.841,3.523 6.594,3.833 6.249,3.949L6.249,4.16Z"/>
        </g>
        <g transform="matrix(1.51205,0,0,1.35707,-5.12111,-2.09342)">
            <path d="M11.03,5.613C11.11,5.151 11.516,4.799 12.004,4.799C12.493,4.799 12.899,5.151 12.978,5.613" style="fill:none;stroke:white;stroke-width:0.14px;"/>
        </g>
        <g transform="matrix(1.02605,0,0,0.949295,-0.243969,-0.647215)">
            <path d="M1.744,12.5L1.4,12.5C0.906,12.5 0.5,12.094 0.5,11.6L0.5,7.4C0.5,6.906 0.906,6.5 1.4,6.5L18.6,6.5C19.094,6.5 19.5,6.906 19.5,7.4L19.5,11.6C19.5,12.094 19.094,12.5 18.6,12.5L18.316,12.5L18.316,15.985C18.316,16.304 18.049,16.564 17.72,16.564L16.394,16.564C16.065,16.564 15.797,16.304 15.797,15.985L15.797,12.5L4.263,12.5L4.263,15.985C4.263,16.304 3.996,16.564 3.666,16.564L2.341,16.564C2.011,16.564 1.744,16.304 1.744,15.985L1.744,12.5ZM2.854,8.304C2.251,8.304 1.761,8.776 1.761,9.357C1.761,9.939 2.251,10.411 2.854,10.411C3.458,10.411 3.948,9.939 3.948,9.357C3.948,8.776 3.458,8.304 2.854,8.304ZM16.887,8.309C16.262,8.309 15.754,8.781 15.754,9.363C15.754,9.944 16.262,10.416 16.887,10.416C17.512,10.416 18.02,9.944 18.02,9.363C18.02,8.781 17.512,8.309 16.887,8.309Z"/>
        </g>
        <g transform="matrix(1,0,0,0.926272,0,0.0368639)">
            <path d="M18,6.5L2,6.5L3.397,1.263C3.517,0.813 3.924,0.5 4.389,0.5L15.642,0.5C16.089,0.5 16.48,0.801 16.595,1.232L18,6.5Z" style="fill:none;stroke:black;stroke-width:1px;"/>
        </g>
        <g transform="matrix(1.71982,0,0,0.972725,-4.8433,-1.17537)">
            <path d="M7.867,10.909L7.867,11.547L6.351,11.547C6.368,11.306 6.417,11.077 6.499,10.862C6.581,10.646 6.743,10.36 6.985,10.004C7.18,9.716 7.3,9.52 7.344,9.418C7.403,9.276 7.433,9.136 7.433,8.998C7.433,8.845 7.407,8.727 7.355,8.645C7.304,8.563 7.232,8.522 7.141,8.522C7.05,8.522 6.979,8.565 6.925,8.651C6.872,8.737 6.841,8.881 6.833,9.081L6.402,9.012C6.428,8.635 6.508,8.364 6.644,8.199C6.779,8.035 6.948,7.953 7.151,7.953C7.374,7.953 7.549,8.048 7.676,8.238C7.803,8.429 7.867,8.666 7.867,8.949C7.867,9.11 7.849,9.263 7.812,9.409C7.776,9.555 7.718,9.707 7.639,9.867C7.587,9.973 7.492,10.125 7.356,10.323C7.22,10.522 7.133,10.654 7.097,10.719C7.06,10.784 7.031,10.848 7.008,10.909L7.867,10.909Z" style="fill:white;fill-rule:nonzero;"/>
            <path d="M9.622,11.031L9.622,10.101L9.032,10.101L9.032,9.459L9.622,9.459L9.622,8.529L10.016,8.529L10.016,9.459L10.609,9.459L10.609,10.101L10.016,10.101L10.016,11.031L9.622,11.031Z" style="fill:white;fill-rule:nonzero;"/>
        </g>
    </g>
</svg>
