<svg viewBox="0 0 16 16" xmlns="http://www.w3.org/2000/svg" fill-rule="evenodd" clip-rule="evenodd" stroke-linejoin="round" stroke-miterlimit="2"><path d="M14.89 7.446a.148.148 0 01-.15.148H1.26a.149.149 0 01-.15-.148V5.333c0-.082.068-.149.15-.149h13.48c.083 0 .15.067.15.149v2.113zm-12.918-1.4v.687h12.056v-.688H1.972z" fill="#acb8c9"/><path d="M5.72 5.184H3.136l-1.033 2.41h2.584l1.033-2.41zm-2.016.862l-.295.687h.71l.294-.687h-.71z" fill="#acb8c9"/><path d="M7.355 5.184H4.772l-1.033 2.41h2.583l1.033-2.41zm-2.016.862l-.294.687h.71l.294-.687h-.71z" fill="#acb8c9"/><path d="M8.99 5.184H6.408l-1.033 2.41h2.584l1.033-2.41zm-2.015.862l-.295.687h.71l.295-.687h-.71z" fill="#acb8c9"/><path d="M10.626 5.184H8.043L7.01 7.594h2.583l1.033-2.41zm-2.016.862l-.294.687h.71l.294-.687h-.71z" fill="#acb8c9"/><path d="M12.262 5.184H9.678l-1.033 2.41h2.584l1.033-2.41zm-2.016.862l-.295.687h.71l.295-.687h-.71z" fill="#acb8c9"/><path d="M13.897 5.184h-2.583l-1.033 2.41h2.584l1.032-2.41zm-2.015.862l-.295.687h.71l.294-.687h-.71z" fill="#acb8c9"/><g><path d="M14.89 10.645a.148.148 0 01-.15.149H1.26a.149.149 0 01-.15-.149V8.532c0-.082.068-.148.15-.148h13.48c.083 0 .15.066.15.148v2.113zm-12.918-1.4v.688h12.056v-.688H1.972z" fill="#acb8c9"/><path d="M5.72 8.384H3.136l-1.033 2.41h2.584l1.033-2.41zm-2.016.861l-.295.688h.71l.294-.688h-.71z" fill="#acb8c9"/><path d="M7.355 8.384H4.772l-1.033 2.41h2.583l1.033-2.41zm-2.016.861l-.294.688h.71l.294-.688h-.71z" fill="#acb8c9"/><path d="M8.99 8.384H6.408l-1.033 2.41h2.584l1.033-2.41zm-2.015.861l-.295.688h.71l.295-.688h-.71z" fill="#acb8c9"/><path d="M10.626 8.384H8.043l-1.033 2.41h2.583l1.033-2.41zm-2.016.861l-.294.688h.71l.294-.688h-.71z" fill="#acb8c9"/><path d="M12.262 8.384H9.678l-1.033 2.41h2.584l1.033-2.41zm-2.016.861l-.295.688h.71l.295-.688h-.71z" fill="#acb8c9"/><path d="M13.897 8.384h-2.583l-1.033 2.41h2.584l1.032-2.41zm-2.015.861l-.295.688h.71l.294-.688h-.71z" fill="#acb8c9"/></g><g><path d="M5.363 6.77H3.002V9.18h2.36V6.77zm-1.5.862v.686h.639v-.686h-.639zM5.363 4.073H3.002v1.981h2.36V4.073zm-1.5.861v.26h.639v-.26h-.639zM5.363 9.934H3.002v3.606h2.36V9.934zm-1.5.861v1.884h.639v-1.884h-.639z" fill="#acb8c9"/><path d="M4.182 1.506a1.708 1.708 0 010 3.415 1.708 1.708 0 010-3.415zm0 .861a.847.847 0 11-.002 1.694.847.847 0 01.002-1.694z" fill="#acb8c9"/></g><g><path d="M12.999 6.77h-2.36V9.18h2.36V6.77zm-1.5.862v.686h.639v-.686h-.639zM12.999 4.073h-2.36v1.981h2.36V4.073zm-1.5.861v.26h.639v-.26h-.639zM12.999 9.934h-2.36v3.606h2.36V9.934zm-1.5.861v1.884h.639v-1.884h-.639z" fill="#acb8c9"/><path d="M11.819 1.506a1.708 1.708 0 010 3.415 1.708 1.708 0 010-3.415zm0 .861a.847.847 0 11-.003 1.694.847.847 0 01.003-1.694z" fill="#acb8c9"/></g><g><path d="M5.72 12.586H2.645v1.908H5.72v-1.908zm-2.214.861v.186h1.353v-.186H3.506z" fill="#acb8c9"/></g><g><path d="M13.356 12.586h-3.075v1.908h3.075v-1.908zm-2.214.861v.186h1.353v-.186h-1.353z" fill="#acb8c9"/></g></svg>