<?xml version="1.0" encoding="UTF-8" standalone="no"?>
<!DOCTYPE svg PUBLIC "-//W3C//DTD SVG 1.1//EN" "http://www.w3.org/Graphics/SVG/1.1/DTD/svg11.dtd">
<svg width="100%" height="100%" viewBox="0 0 16 16" version="1.1" xmlns="http://www.w3.org/2000/svg" xmlns:xlink="http://www.w3.org/1999/xlink" xml:space="preserve" xmlns:serif="http://www.serif.com/" style="fill-rule:evenodd;clip-rule:evenodd;stroke-linejoin:round;stroke-miterlimit:2;">
    <g transform="matrix(1,0,0,1,-3.27516e-15,-2.4596)">
        <g id="construction-sign" serif:id="construction sign" transform="matrix(1,0,0,1,0,-0.80209)">
            <g transform="matrix(1,0,0,1.12848,0,-5.25005)">
                <g transform="matrix(1.05116,0,0,-0.277223,-0.44057,15.0447)">
                    <path d="M15.64,5.017C15.64,4.713 15.567,4.466 15.476,4.466L0.583,4.466C0.493,4.466 0.419,4.713 0.419,5.017L0.419,12.86C0.419,13.164 0.493,13.411 0.583,13.411L15.476,13.411C15.567,13.411 15.64,13.164 15.64,12.86L15.64,5.017ZM1.37,10.214L1.37,7.662L14.689,7.662L14.689,10.214L1.37,10.214Z" style="fill:rgb(172,184,201);"/>
                </g>
                <g transform="matrix(1,0,0,1,0,-0.665748)">
                    <g transform="matrix(1,0,-0.216962,0.448613,2.4916,5.50018)">
                        <path d="M6,14.472L3,14.472L3,20L6,20L6,14.472ZM4.088,16.448L4.088,18.025L4.912,18.025L4.912,16.448L4.088,16.448Z" style="fill:rgb(172,184,201);"/>
                    </g>
                    <g transform="matrix(1,0,-0.216962,0.448613,4.3908,5.50018)">
                        <path d="M6,14.472L3,14.472L3,20L6,20L6,14.472ZM4.088,16.448L4.088,18.025L4.912,18.025L4.912,16.448L4.088,16.448Z" style="fill:rgb(172,184,201);"/>
                    </g>
                    <g transform="matrix(1,0,-0.216962,0.448613,6.29,5.50018)">
                        <path d="M6,14.472L3,14.472L3,20L6,20L6,14.472ZM4.088,16.448L4.088,18.025L4.912,18.025L4.912,16.448L4.088,16.448Z" style="fill:rgb(172,184,201);"/>
                    </g>
                    <g transform="matrix(1,0,-0.216962,0.448613,8.18921,5.50018)">
                        <path d="M6,14.472L3,14.472L3,20L6,20L6,14.472ZM4.088,16.448L4.088,18.025L4.912,18.025L4.912,16.448L4.088,16.448Z" style="fill:rgb(172,184,201);"/>
                    </g>
                    <g transform="matrix(1,0,-0.216962,0.448613,10.0884,5.50018)">
                        <path d="M6,14.472L3,14.472L3,20L6,20L6,14.472ZM4.088,16.448L4.088,18.025L4.912,18.025L4.912,16.448L4.088,16.448Z" style="fill:rgb(172,184,201);"/>
                    </g>
                    <g transform="matrix(1,0,-0.216962,0.448613,11.9876,5.50018)">
                        <path d="M6,14.472L3,14.472L3,20L6,20L6,14.472ZM4.088,16.448L4.088,18.025L4.912,18.025L4.912,16.448L4.088,16.448Z" style="fill:rgb(172,184,201);"/>
                    </g>
                </g>
            </g>
            <g transform="matrix(1,0,0,1.12848,0,-1.53453)">
                <g transform="matrix(1.05116,0,0,-0.277223,-0.44057,15.0447)">
                    <path d="M15.64,5.017C15.64,4.713 15.567,4.466 15.476,4.466L0.583,4.466C0.493,4.466 0.419,4.713 0.419,5.017L0.419,12.86C0.419,13.164 0.493,13.411 0.583,13.411L15.476,13.411C15.567,13.411 15.64,13.164 15.64,12.86L15.64,5.017ZM1.37,10.214L1.37,7.662L14.689,7.662L14.689,10.214L1.37,10.214Z" style="fill:rgb(172,184,201);"/>
                </g>
                <g transform="matrix(1,0,0,1,0,-0.665748)">
                    <g transform="matrix(1,0,-0.216962,0.448613,2.4916,5.50018)">
                        <path d="M6,14.472L3,14.472L3,20L6,20L6,14.472ZM4.088,16.448L4.088,18.025L4.912,18.025L4.912,16.448L4.088,16.448Z" style="fill:rgb(172,184,201);"/>
                    </g>
                    <g transform="matrix(1,0,-0.216962,0.448613,4.3908,5.50018)">
                        <path d="M6,14.472L3,14.472L3,20L6,20L6,14.472ZM4.088,16.448L4.088,18.025L4.912,18.025L4.912,16.448L4.088,16.448Z" style="fill:rgb(172,184,201);"/>
                    </g>
                    <g transform="matrix(1,0,-0.216962,0.448613,6.29,5.50018)">
                        <path d="M6,14.472L3,14.472L3,20L6,20L6,14.472ZM4.088,16.448L4.088,18.025L4.912,18.025L4.912,16.448L4.088,16.448Z" style="fill:rgb(172,184,201);"/>
                    </g>
                    <g transform="matrix(1,0,-0.216962,0.448613,8.18921,5.50018)">
                        <path d="M6,14.472L3,14.472L3,20L6,20L6,14.472ZM4.088,16.448L4.088,18.025L4.912,18.025L4.912,16.448L4.088,16.448Z" style="fill:rgb(172,184,201);"/>
                    </g>
                    <g transform="matrix(1,0,-0.216962,0.448613,10.0884,5.50018)">
                        <path d="M6,14.472L3,14.472L3,20L6,20L6,14.472ZM4.088,16.448L4.088,18.025L4.912,18.025L4.912,16.448L4.088,16.448Z" style="fill:rgb(172,184,201);"/>
                    </g>
                    <g transform="matrix(1,0,-0.216962,0.448613,11.9876,5.50018)">
                        <path d="M6,14.472L3,14.472L3,20L6,20L6,14.472ZM4.088,16.448L4.088,18.025L4.912,18.025L4.912,16.448L4.088,16.448Z" style="fill:rgb(172,184,201);"/>
                    </g>
                </g>
            </g>
            <g transform="matrix(1,0,0,1,0.0498116,-0.0498116)">
                <g transform="matrix(1.6125,0,0,0.502475,-0.356316,6.24465)">
                    <path d="M3.252,6.327L1.552,6.327L1.552,11.893L3.252,11.893L3.252,6.327ZM2.172,8.317L2.172,9.903L2.632,9.903L2.632,8.317L2.172,8.317Z" style="fill:rgb(172,184,201);"/>
                </g>
                <g transform="matrix(1.6125,0,0,0.413389,-0.356316,3.676)">
                    <path d="M3.252,6.327L1.552,6.327L1.552,11.893L3.252,11.893L3.252,6.327ZM2.172,8.746L2.172,9.474L2.632,9.474L2.632,8.746L2.172,8.746Z" style="fill:rgb(172,184,201);"/>
                </g>
                <g transform="matrix(1.6125,0,0,0.752231,-0.356316,8.33847)">
                    <path d="M3.252,6.327L1.552,6.327L1.552,11.893L3.252,11.893L3.252,6.327ZM2.172,7.656L2.172,10.563L2.632,10.563L2.632,7.656L2.172,7.656Z" style="fill:rgb(172,184,201);"/>
                </g>
                <g transform="matrix(1,0,0,1,0,1.52908)">
                    <path d="M3.517,1.782C4.611,1.782 5.499,2.671 5.499,3.765C5.499,4.859 4.611,5.747 3.517,5.747C2.423,5.747 1.534,4.859 1.534,3.765C1.534,2.671 2.423,1.782 3.517,1.782ZM3.517,2.782C4.059,2.782 4.499,3.223 4.499,3.765C4.499,4.307 4.059,4.747 3.517,4.747C2.974,4.747 2.534,4.307 2.534,3.765C2.534,3.223 2.974,2.782 3.517,2.782Z" style="fill:rgb(172,184,201);"/>
                </g>
            </g>
            <g transform="matrix(1,0,0,1,8.91684,-0.0498116)">
                <g transform="matrix(1.6125,0,0,0.502475,-0.356316,6.24465)">
                    <path d="M3.252,6.327L1.552,6.327L1.552,11.893L3.252,11.893L3.252,6.327ZM2.172,8.317L2.172,9.903L2.632,9.903L2.632,8.317L2.172,8.317Z" style="fill:rgb(172,184,201);"/>
                </g>
                <g transform="matrix(1.6125,0,0,0.413389,-0.356316,3.676)">
                    <path d="M3.252,6.327L1.552,6.327L1.552,11.893L3.252,11.893L3.252,6.327ZM2.172,8.746L2.172,9.474L2.632,9.474L2.632,8.746L2.172,8.746Z" style="fill:rgb(172,184,201);"/>
                </g>
                <g transform="matrix(1.6125,0,0,0.752231,-0.356316,8.33847)">
                    <path d="M3.252,6.327L1.552,6.327L1.552,11.893L3.252,11.893L3.252,6.327ZM2.172,7.656L2.172,10.563L2.632,10.563L2.632,7.656L2.172,7.656Z" style="fill:rgb(172,184,201);"/>
                </g>
                <g transform="matrix(1,0,0,1,0,1.52908)">
                    <path d="M3.517,1.782C4.611,1.782 5.499,2.671 5.499,3.765C5.499,4.859 4.611,5.747 3.517,5.747C2.423,5.747 1.534,4.859 1.534,3.765C1.534,2.671 2.423,1.782 3.517,1.782ZM3.517,2.782C4.059,2.782 4.499,3.223 4.499,3.765C4.499,4.307 4.059,4.747 3.517,4.747C2.974,4.747 2.534,4.307 2.534,3.765C2.534,3.223 2.974,2.782 3.517,2.782Z" style="fill:rgb(172,184,201);"/>
                </g>
            </g>
            <g transform="matrix(1,0,0,1,0.00306146,-1.10768)">
                <path d="M5.349,17.235L1.778,17.235L1.778,19.45L5.349,19.45L5.349,17.235ZM2.778,18.235L2.778,18.45L4.349,18.45L4.349,18.235L2.778,18.235Z" style="fill:rgb(172,184,201);"/>
            </g>
            <g transform="matrix(1,0,0,1,8.87009,-1.10768)">
                <path d="M5.349,17.235L1.778,17.235L1.778,19.45L5.349,19.45L5.349,17.235ZM2.778,18.235L2.778,18.45L4.349,18.45L4.349,18.235L2.778,18.235Z" style="fill:rgb(172,184,201);"/>
            </g>
        </g>
    </g>
</svg>
