<?xml version="1.0" standalone="no"?>
<!DOCTYPE svg PUBLIC "-//W3C//DTD SVG 20010904//EN"
 "http://www.w3.org/TR/2001/REC-SVG-20010904/DTD/svg10.dtd">
<svg version="1.0" xmlns="http://www.w3.org/2000/svg"
 width="504.000000pt" height="608.000000pt" viewBox="0 0 504.000000 608.000000"
 preserveAspectRatio="xMidYMid meet">

<g transform="translate(0.000000,608.000000) scale(0.100000,-0.100000)" stroke="none">
<path d="M390 6007 c-121 -41 -212 -126 -272 -253 l-33 -69 -3 -2630 c-2
-2888 -7 -2673 56 -2788 34 -64 133 -155 207 -191 50 -24 78 -31 165 -36 146
-10 3966 -10 4068 -1 155 15 285 108 359 257 l38 78 3 2640 c2 2427 1 2644
-14 2691 -37 112 -99 193 -197 256 -115 75 68 69 -2239 69 l-2073 -1 -65 -22z
m4265 -120 c78 -36 146 -104 182 -181 l28 -61 3 -2575 c1 -1701 -1 -2593 -8
-2629 -21 -116 -93 -210 -198 -259 l-57 -27 -2075 0 -2075 0 -55 26 c-75 35
-136 98 -173 177 l-32 67 0 2605 0 2605 23 57 c42 103 145 192 255 218 18 5
952 7 2077 7 l2045 -2 60 -28z"/>
<path d="M1947 5350 c-53 -14 -127 -54 -164 -90 -163 -156 -147 -492 29 -620
151 -110 401 -74 505 73 54 76 68 129 68 262 0 116 -1 123 -33 187 -39 80
-111 149 -180 173 -57 20 -174 28 -225 15z m151 -144 c75 -39 112 -117 112
-241 0 -74 -4 -99 -24 -140 -69 -148 -234 -154 -308 -11 -26 49 -36 189 -19
252 33 121 147 188 239 140z"/>
<path d="M937 5343 c-4 -3 -7 -35 -7 -70 l0 -63 161 0 c130 0 160 -3 156 -13
-3 -8 -84 -129 -181 -269 -158 -230 -176 -260 -176 -297 l0 -41 295 0 295 0 0
70 0 70 -175 0 c-96 0 -175 3 -175 6 0 3 79 121 175 262 170 249 176 258 173
302 l-3 45 -266 3 c-146 1 -268 -1 -272 -5z"/>
<path d="M2647 5343 c-4 -3 -7 -174 -7 -380 l0 -373 81 0 82 0 -5 270 c-3 149
-3 270 1 270 3 -1 25 -42 49 -93 24 -51 87 -171 140 -267 l98 -175 92 -3 92
-3 -2 378 -3 378 -75 0 -75 0 2 -260 2 -260 -44 92 c-24 51 -87 169 -140 263
l-96 170 -93 0 c-51 0 -96 -3 -99 -7z"/>
<path d="M3557 5344 c-4 -4 -7 -175 -7 -381 l0 -373 240 0 240 0 0 70 0 70
-155 0 -156 0 3 88 3 87 138 3 137 3 0 69 0 70 -140 0 -141 0 3 78 3 77 148 3
148 3 -3 67 -3 67 -226 3 c-124 1 -228 -1 -232 -4z"/>
<path d="M2390 4010 c-555 -68 -1007 -385 -1250 -875 -78 -158 -108 -242 -146
-418 -24 -108 -27 -144 -28 -317 0 -164 3 -213 22 -305 93 -465 330 -825 706
-1072 160 -106 312 -170 531 -225 80 -20 116 -22 320 -23 229 0 231 0 360 34
320 82 568 227 782 455 529 566 592 1430 151 2068 -240 347 -615 590 -1018
659 -136 23 -325 31 -430 19z m265 -440 c307 -35 578 -183 767 -419 116 -145
185 -285 235 -478 25 -97 28 -125 28 -278 0 -186 -11 -254 -67 -415 -129 -371
-443 -653 -829 -747 -107 -26 -384 -26 -489 1 -275 70 -495 216 -663 441 -157
210 -250 518 -233 777 37 587 461 1052 1018 1117 104 12 132 12 233 1z"/>
</g>
</svg>
