<svg xmlns="http://www.w3.org/2000/svg" width="1020" height="1020">
  <g stroke-width="30" stroke="#fff" fill="none">
    <g stroke-width="45">
      <circle cx="345" cy="577.5" r="135"/>
      <circle cx="675" cy="577.5" r="135"/>
    </g>
    <circle cx="345" cy="577.5" r="135" stroke="#010101"/>
    <circle cx="675" cy="577.5" r="135" stroke="#010101"/>
    <g stroke-width="45">
      <circle cx="180" cy="442.5" r="135"/>
      <circle cx="510" cy="442.5" r="135"/>
      <circle cx="840" cy="442.5" r="135"/>
    </g>
    <circle cx="180" cy="442.5" r="135" stroke="#010101"/>
    <circle cx="510" cy="442.5" r="135" stroke="#010101"/>
    <circle cx="840" cy="442.5" r="135" stroke="#010101"/>
    <g stroke-width="45">
      <path d="M345 442.5a135 135 0 0 1 81 27M237 658.5a135 135 0 0 1 0-162M675 442.5a135 135 0 0 1 81 27M567 658.5a135 135 0 0 1 0-162"/>
    </g>
    <g stroke="#010101">
      <path d="M345 442.5a135 135 0 0 1 108 54M264 685.5a135 135 0 0 1 0-216"/>
    </g>
    <g stroke="#010101">
      <path d="M675 442.5a135 135 0 0 1 108 54M594 685.5a135 135 0 0 1 0-216"/>
    </g>
  </g>
</svg>
