<svg viewBox="0 0 19 19" xmlns="http://www.w3.org/2000/svg" fill-rule="evenodd" clip-rule="evenodd" stroke-linecap="round" stroke-linejoin="bevel" stroke-miterlimit="1.5"><path d="M18.5 2.375C18.5 1.34 17.66.5 16.625.5H2.375C1.34.5.5 1.34.5 2.375v14.25c0 1.035.84 1.875 1.875 1.875h14.25c1.035 0 1.875-.84 1.875-1.875V2.375z" fill="none" stroke="#acb8c9"/><path d="M5.621 15.09V3.91h3.281c1.244 0 2.054.056 2.432.168.58.168 1.066.532 1.458 1.094.391.562.587 1.288.587 2.177 0 .687-.113 1.264-.339 1.732-.225.467-.512.835-.86 1.102a2.855 2.855 0 0 1-1.06.53c-.488.106-1.195.16-2.121.16H7.666v4.217H5.621zm2.045-9.289v3.173h1.119c.806 0 1.345-.059 1.617-.176.271-.117.484-.3.639-.549.154-.249.231-.539.231-.869 0-.407-.108-.742-.325-1.007a1.38 1.38 0 0 0-.822-.495c-.244-.051-.734-.077-1.471-.077h-.988z" fill="#acb8c9" fill-rule="nonzero"/></svg>