<?xml version="1.0" encoding="UTF-8" standalone="no"?>
<svg
   xmlns:dc="http://purl.org/dc/elements/1.1/"
   xmlns:cc="http://creativecommons.org/ns#"
   xmlns:rdf="http://www.w3.org/1999/02/22-rdf-syntax-ns#"
   xmlns:svg="http://www.w3.org/2000/svg"
   xmlns="http://www.w3.org/2000/svg"
   xmlns:sodipodi="http://sodipodi.sourceforge.net/DTD/sodipodi-0.dtd"
   xmlns:inkscape="http://www.inkscape.org/namespaces/inkscape"
   viewBox="0 0 19 21"
   fill-rule="evenodd"
   clip-rule="evenodd"
   stroke-linejoin="round"
   stroke-miterlimit="1.414"
   version="1.1"
   id="svg4652"
   sodipodi:docname="plane.svg"
   inkscape:version="0.92.4 (5da689c313, 2019-01-14)">
  <metadata
     id="metadata4658">
    <rdf:RDF>
      <cc:Work
         rdf:about="">
        <dc:format>image/svg+xml</dc:format>
        <dc:type
           rdf:resource="http://purl.org/dc/dcmitype/StillImage" />
        <dc:title></dc:title>
      </cc:Work>
    </rdf:RDF>
  </metadata>
  <defs
     id="defs4656" />
  <sodipodi:namedview
     pagecolor="#ffffff"
     bordercolor="#666666"
     borderopacity="1"
     objecttolerance="10"
     gridtolerance="10"
     guidetolerance="10"
     inkscape:pageopacity="0"
     inkscape:pageshadow="2"
     inkscape:window-width="1920"
     inkscape:window-height="1080"
     id="namedview4654"
     showgrid="false"
     inkscape:zoom="38.571429"
     inkscape:cx="9.5"
     inkscape:cy="10.5"
     inkscape:window-x="0"
     inkscape:window-y="0"
     inkscape:window-maximized="1"
     inkscape:current-layer="svg4652" />
  <path
     d="M9.32.002l.106.008.106.013.104.018.102.023.101.027.099.032.096.037.095.041.092.045.089.05.087.053.084.057.081.062.078.064.075.069.071.072.068.076.065.079.061.082.057.085.053.088.048.092.045.094.039.097.035.099.03.101.025.104.02.105.014.107.009.109.002.097v.254l-.002.249-.003.257-.003.263-.005.269-.005.276-.014.568-.017.591-.02.61-.024.629-.003.073 6.567 4.253.078.055.087.072.082.079.074.085.067.089.06.093.052.098.045.101.036.104.029.107.021.109.012.111.004.112-.005.113-.014.113-.018.093-.133.543-.018.066-.026.077-.03.076-.034.074-.038.071-.042.069-.045.067-.049.064-.052.061-.055.058-.059.056-.061.052-.065.049-.067.045-.071.042-.072.038-.075.034-.076.03-.077.025-.079.021-.079.017-.079.012-.08.008-.081.004-.08-.001-.08-.005-.08-.01-.08-.014-.079-.018-.078-.023-.077-.027-.063-.026-5.26-2.352-.041.712-.043.721-.043.716-.044.709-.044.701-.011.16 1.407 1.099.056.047.063.059.06.063.056.065.052.068.048.071.044.074.04.075.035.078.031.08.026.081.022.083.017.085.012.085.008.087.002.073v1.147l-.002.069-.009.086-.015.084-.021.083-.027.081-.032.078-.037.076-.042.073-.047.07-.052.066-.056.063-.061.059-.065.055-.069.051-.074.046-.076.04-.079.036-.082.029-.082.024-.084.017-.084.012-.084.005h-.085l-.083-.006-.084-.011-.082-.018-.082-.023-.079-.029-.078-.034-.076-.04-.074-.046-.056-.04-.307-.241-.005.025-.006.03-.011.047-.014.046-.009.028-.015.045-.017.044-.012.027-.019.043-.022.042-.014.025-.023.041-.025.039-.016.024-.026.038-.028.037-.019.022-.029.035-.032.034-.02.021-.033.032-.034.03-.022.019-.035.029-.037.027-.024.017-.038.026-.04.024-.025.014-.041.022-.041.021-.027.012-.043.019-.044.016-.028.01-.045.014-.046.013-.029.007-.047.01-.047.008-.03.005-.048.005-.048.004-.031.001-.048.001-.048-.001-.031-.001-.048-.004-.048-.005-.03-.005-.047-.008-.047-.01-.029-.007-.045-.013-.046-.014-.027-.01-.044-.016-.044-.019-.026-.012-.042-.021-.041-.022-.025-.014-.039-.024-.039-.026-.023-.017-.037-.027-.036-.029-.022-.019-.034-.03-.033-.033-.02-.02-.031-.034-.03-.035-.018-.022-.028-.037-.027-.038-.016-.024-.025-.039-.023-.04-.014-.026-.021-.042-.02-.043-.011-.027-.018-.044-.015-.045-.009-.028-.013-.046-.012-.047-.004-.021-.282.221-.055.04-.073.045-.075.04-.078.034-.079.028-.08.023-.082.018-.083.011-.083.006h-.083l-.084-.006-.083-.011-.083-.017-.082-.024-.08-.029-.079-.035-.076-.04-.072-.046-.069-.05-.065-.054-.06-.059-.056-.062-.051-.066-.047-.069-.041-.073-.037-.075-.032-.077-.026-.08-.021-.082-.015-.084-.009-.085-.002-.068v-1.196l.002-.07.007-.083.012-.083.017-.081.021-.081.025-.078.03-.077.034-.075.039-.073.042-.071.046-.069.05-.066.054-.063.058-.06.062-.057.053-.045 1.38-1.077-.011-.163-.044-.702-.044-.711-.044-.718-.043-.723-.041-.718-5.239 2.342-.061.026-.076.027-.077.022-.078.018-.078.013-.079.01-.079.005-.079.001-.079-.004-.078-.008-.079-.012-.077-.016-.077-.021-.076-.025-.075-.029-.074-.033-.071-.038-.069-.041-.066-.045-.064-.048-.061-.051-.057-.055-.055-.057-.051-.06-.048-.063-.044-.066-.041-.068-.037-.07-.034-.072-.029-.074-.026-.077-.017-.064-.14-.57-.019-.094-.014-.113-.005-.113.004-.112.012-.111.021-.11.029-.107.037-.104.045-.101.052-.098.06-.093.067-.09.074-.084.082-.079.087-.073.078-.055 6.517-4.221-.003-.077-.023-.633-.021-.615-.017-.595-.014-.572-.006-.278-.004-.271-.004-.265-.003-.258-.001-.25-.001-.256.003-.097.008-.109.015-.107.019-.105.025-.104.03-.101.035-.099.04-.097.044-.094.049-.092.053-.088.057-.085.061-.082.064-.079.068-.076.072-.072.075-.069.078-.064.081-.062.084-.057.086-.053.09-.05.092-.045L8.39.16l.097-.037.098-.032.101-.027.102-.023.105-.018.105-.013.107-.008L9.212 0l.108.002zm-.167.999l-.058.005-.057.007-.056.009-.056.013-.054.014-.053.018-.052.02-.051.022-.049.024-.048.026-.047.029-.045.031-.043.032-.041.035-.04.036-.038.039-.036.039-.034.042-.032.043-.03.045-.027.046-.026.047-.023.049-.02.05-.018.051-.016.052-.012.053-.011.055-.007.055-.004.055-.002.057.001.239.001.247.003.254.004.262.004.268.006.274.013.568.018.59.02.611.023.629.027.645-6.98 4.521-.029.021-.028.022-.025.025-.023.026-.021.028-.019.029-.016.031-.014.031-.011.033-.009.033-.007.035-.004.034-.001.035.002.035.004.036.007.035.132.538.006.024.008.024.01.023.01.023.012.022.012.021.014.021.015.019.016.019.018.018.018.017.019.016.019.015.021.014.022.013.022.012.023.011.024.009.023.008.024.006.025.005.024.004.025.002.025.001h.025l.024-.001.025-.003.024-.005.025-.005.024-.007.023-.008.024-.01 6.553-2.93.039.72.04.723.042.723.042.721.044.717.044.71.044.7.045.689-1.785 1.394-.02.018-.02.018-.018.019-.017.02-.016.021-.015.022-.013.022-.013.023-.01.024-.01.025-.008.025-.007.025-.005.026-.004.026-.002.027-.001.027v1.163l.001.015.001.015.003.015.003.014.005.014.005.013.007.013.007.013.008.012.009.011.01.011.01.01.011.009.012.009.013.008.013.007.014.006.013.005.015.004.014.003.014.002.015.001h.014l.015-.001.014-.002.014-.003.014-.004.014-.005.013-.006.013-.007.013-.007.012-.009 1.74-1.36.059.868.058.822.003.03.006.03.009.028.012.027.014.026.016.024.018.023.02.021.022.018.024.017.025.015.027.012.028.01.029.007.03.004.03.001.031-.001.03-.004.029-.007.028-.01.026-.012.025-.015.024-.017.022-.018.02-.021.018-.023.017-.024.014-.026.011-.027.009-.028.006-.03.004-.03.058-.839.061-.888 1.769 1.383.013.009.013.008.014.007.014.007.014.005.015.004.015.003.015.002.015.001h.016l.015-.001.015-.002.015-.003.015-.004.015-.005.014-.007.014-.007.013-.009.013-.009.012-.01.011-.01.01-.012.009-.012.009-.012.007-.014.007-.013.006-.014.005-.015.003-.015.003-.015.002-.016v-1.131l-.001-.03-.002-.029-.005-.029-.005-.029-.008-.028-.009-.028-.01-.027-.012-.027-.014-.026-.015-.025-.016-.024-.018-.024-.019-.022-.021-.021-.021-.02-.023-.019-1.812-1.416.045-.687.044-.699.044-.708.043-.715.043-.719.041-.721.04-.721.039-.718 6.574 2.94.025.01.025.009.025.007.026.006.026.004.026.004.026.001.026.001.026-.002.026-.002.026-.004.026-.006.025-.006.025-.009.025-.009.024-.011.024-.013.022-.013.022-.015.021-.016.02-.017.019-.018.018-.019.017-.02.016-.02.015-.022.013-.023.012-.023.011-.024.01-.024.009-.025.007-.026.125-.51.007-.035.004-.036.002-.035-.002-.035-.004-.034-.006-.034-.009-.033-.011-.033-.014-.031-.017-.031-.018-.029-.021-.027-.023-.027-.025-.024-.028-.023-.029-.02-7.029-4.553.026-.641.023-.625.02-.606.017-.586.014-.564.005-.273.005-.266.003-.259.003-.253.002-.245V2.1l-.001-.057-.005-.055-.007-.055-.01-.055-.013-.053-.015-.052-.018-.051-.021-.05-.023-.049-.025-.047-.028-.046-.029-.045-.032-.043-.034-.042-.036-.039-.038-.039-.04-.036-.042-.035-.043-.032-.045-.031-.046-.029-.048-.026-.05-.024-.05-.022-.052-.02-.053-.018-.055-.014-.055-.013-.057-.009-.057-.007-.058-.005L9.212 1l-.059.001z"
     fill="#acb8c9"
     id="path4650" />
  <path
     style="color:#000000;clip-rule:nonzero;display:inline;overflow:visible;visibility:visible;opacity:1;isolation:auto;mix-blend-mode:normal;color-interpolation:sRGB;color-interpolation-filters:linearRGB;solid-color:#000000;solid-opacity:1;fill:#000000;fill-opacity:1;fill-rule:nonzero;stroke-width:0.02592593;stroke-linecap:butt;stroke-linejoin:miter;stroke-miterlimit:4;stroke-dasharray:none;stroke-dashoffset:0;stroke-opacity:1;color-rendering:auto;image-rendering:auto;shape-rendering:auto;text-rendering:auto;enable-background:accumulate"
     d="M 9.0125926,20.007286 C 8.8747063,19.984231 8.625959,19.890506 8.5171855,19.820623 8.2706444,19.66223 8.0343143,19.356818 7.9729173,19.11726 c -0.0182,-0.07101 -0.041064,-0.129112 -0.05081,-0.129112 -0.00975,0 -0.092124,0.05951 -0.1830616,0.132252 C 7.5604675,19.263239 7.4841242,19.308211 7.3179784,19.368439 6.6861846,19.597468 5.9694022,19.240415 5.7691182,18.596901 5.7254792,18.456689 5.72,18.351741 5.72,17.6561 c 0,-0.845979 0.013022,-0.95521 0.145383,-1.219454 0.1403044,-0.280103 0.2498352,-0.386056 1.0208367,-0.987482 0.555003,-0.432935 0.7522988,-0.600928 0.7522988,-0.640567 0,-0.02955 -0.040578,-0.708325 -0.090172,-1.508385 -0.049595,-0.800061 -0.099258,-1.61799 -0.1103631,-1.817619 -0.011958,-0.21496 -0.03069,-0.361175 -0.045939,-0.358578 -0.014161,0.0024 -1.2040814,0.53219 -2.6442666,1.177284 -1.4401852,0.645094 -2.6943519,1.193698 -2.7870371,1.21912 C 1.4665879,13.655957 0.94181234,13.513808 0.57110919,13.144001 0.33343321,12.9069 0.23426082,12.700218 0.10979674,12.182593 -0.03059499,11.598727 -0.01291616,11.279672 0.18018796,10.912222 0.36118547,10.567809 0.33112788,10.589055 3.8876647,8.2916965 l 3.2880351,-2.1239187 -0.015032,-0.35 C 7.1250343,4.9881155 7.092125,3.6098946 7.0869991,2.7325926 7.0817001,1.8257145 7.0838546,1.7779011 7.1387201,1.5847571 7.317623,0.95495957 7.7911595,0.42232382 8.3958039,0.1707839 c 0.548504,-0.22818469 1.2294152,-0.20456567 1.7707441,0.0614224 0.533096,0.26194334 0.940818,0.74902843 1.106785,1.3222237 0.05806,0.2005259 0.05958,0.2338873 0.05779,1.2689033 -0.0018,1.0180295 -0.05058,3.0478934 -0.07741,3.2185653 l -0.01282,0.081529 3.273811,2.1190794 c 1.800596,1.1654938 3.336002,2.166367 3.412013,2.224163 0.370853,0.281984 0.592073,0.835318 0.523005,1.308185 -0.04375,0.29956 -0.20183,0.856452 -0.29083,1.02458 -0.16897,0.319197 -0.519402,0.598351 -0.888896,0.708092 -0.204213,0.06065 -0.59599,0.06206 -0.790741,0.0028 -0.07843,-0.02385 -1.338426,-0.578728 -2.8,-1.233068 -1.461574,-0.654342 -2.660062,-1.187626 -2.663307,-1.185076 -0.0032,0.0025 -0.04185,0.604759 -0.08579,1.338242 -0.04394,0.733484 -0.09511,1.56694 -0.113713,1.852126 -0.0186,0.285185 -0.02963,0.526079 -0.0245,0.535321 0.0051,0.0092 0.346396,0.280024 0.758373,0.601738 0.411977,0.321715 0.796967,0.64082 0.855533,0.709123 0.125784,0.146696 0.268781,0.429925 0.317946,0.629744 0.02566,0.104301 0.03485,0.351452 0.03421,0.92037 -8.25e-4,0.732776 -0.0041,0.786401 -0.05693,0.926819 -0.151371,0.402503 -0.452327,0.679724 -0.850513,0.783439 -0.394948,0.102871 -0.774612,0.0056 -1.14962,-0.294581 -0.09094,-0.07279 -0.173675,-0.132344 -0.183859,-0.132344 -0.01018,0 -0.03336,0.04958 -0.05149,0.110185 -0.09981,0.333536 -0.344798,0.635783 -0.6423136,0.792442 -0.2406784,0.126731 -0.5644362,0.183614 -0.8106988,0.142437 z m 0.4192593,-1.063468 c 0.094759,-0.09476 0.1058405,-0.169774 0.1638801,-1.109374 0.023782,-0.385 0.051054,-0.720568 0.060606,-0.745707 0.014292,-0.03762 0.1756972,0.07821 0.91181,0.6543 0.975184,0.763195 0.982521,0.767328 1.132814,0.638139 l 0.07274,-0.06253 0.0078,-0.623384 c 0.0084,-0.673345 -0.0051,-0.779652 -0.115733,-0.911138 -0.03723,-0.04425 -0.480605,-0.402687 -0.98527,-0.796528 l -0.9175712,-0.716074 0.014704,-0.144466 c 0.020048,-0.196961 0.1775418,-2.779709 0.2585982,-4.240762 0.03639,-0.655926 0.06888,-1.2122737 0.0722,-1.2363288 0.0048,-0.034937 0.671064,0.2538532 3.311589,1.4354418 1.818056,0.813548 3.3494,1.485195 3.402988,1.492549 0.131965,0.01811 0.309076,-0.05319 0.405802,-0.16335 0.0821,-0.09351 0.114035,-0.182343 0.209216,-0.582015 0.051,-0.214161 0.05456,-0.261315 0.02726,-0.361397 -0.0177,-0.06491 -0.06712,-0.149907 -0.113331,-0.194925 -0.04506,-0.0439 -1.660733,-1.10044 -3.590374,-2.3478617 l -3.508438,-2.2680389 0.01619,-0.4796297 c 0.0089,-0.2637963 0.02715,-0.7712963 0.04053,-1.1277777 0.01339,-0.3564815 0.03181,-1.2023149 0.04095,-1.8796297 C 10.367276,1.951502 10.36696,1.9405481 10.310487,1.7754832 10.136515,1.2669847 9.6873052,0.97058824 9.1380723,1.0019041 8.9476155,1.0127634 8.8800214,1.0295574 8.7218271,1.1053212 8.3841134,1.2670619 8.1775722,1.5106282 8.0894069,1.8511111 8.0492412,2.0062258 8.048172,2.1330465 8.0759636,3.4455556 c 0.029088,1.3737463 0.065368,2.5590055 0.09245,3.0203703 L 8.1813504,6.6862963 5.5960456,8.3577472 C 0.93340246,11.372239 1.1096897,11.255458 1.0524721,11.367614 c -0.0678364,0.13297 -0.0643081,0.262147 0.016545,0.60575 0.080329,0.341376 0.1500825,0.474425 0.2899336,0.553026 0.2235842,0.125661 0.037275,0.198082 3.6480863,-1.418056 l 3.2925926,-1.4737085 0.018424,0.12028 c 0.010133,0.066154 0.048447,0.6744465 0.085141,1.3517615 0.036695,0.677314 0.1075882,1.884774 0.1575415,2.683243 0.049953,0.798469 0.087473,1.471417 0.083377,1.495441 -0.0041,0.02402 -0.4149232,0.362397 -0.9129491,0.751942 -0.4980261,0.389544 -0.9296928,0.741174 -0.9592592,0.7814 -0.050709,0.06899 -0.054196,0.112349 -0.061482,0.764579 -0.00425,0.380293 -9.152e-4,0.718567 0.0074,0.75172 0.01729,0.06889 0.1718028,0.14542 0.2460326,0.12186 0.026104,-0.0083 0.4418651,-0.323293 0.9239139,-0.700017 0.4820488,-0.376725 0.8788186,-0.682544 0.8817104,-0.679598 0.00289,0.0029 0.031047,0.384522 0.062565,0.847948 0.034342,0.504936 0.070985,0.876131 0.091439,0.926284 0.07985,0.195795 0.3549433,0.245768 0.5083628,0.09235 z"
     id="path4662"
     inkscape:connector-curvature="0" />
</svg>
