<svg viewBox="0 0 19 21" xmlns="http://www.w3.org/2000/svg" fill-rule="evenodd" clip-rule="evenodd" stroke-linejoin="round" stroke-miterlimit="1.414"><path d="M9.32.002l.106.008.106.013.104.018.102.023.101.027.099.032.096.037.095.041.092.045.089.05.087.053.084.057.081.062.078.064.075.069.071.072.068.076.065.079.061.082.057.085.053.088.048.092.045.094.039.097.035.099.03.101.025.104.02.105.014.107.009.109.002.097v.254l-.002.249-.003.257-.003.263-.005.269-.005.276-.014.568-.017.591-.02.61-.024.629-.003.073 6.567 4.253.078.055.087.072.082.079.074.085.067.089.06.093.052.098.045.101.036.104.029.107.021.109.012.111.004.112-.005.113-.014.113-.018.093-.133.543-.018.066-.026.077-.03.076-.034.074-.038.071-.042.069-.045.067-.049.064-.052.061-.055.058-.059.056-.061.052-.065.049-.067.045-.071.042-.072.038-.075.034-.076.03-.077.025-.079.021-.079.017-.079.012-.08.008-.081.004-.08-.001-.08-.005-.08-.01-.08-.014-.079-.018-.078-.023-.077-.027-.063-.026-5.26-2.352-.041.712-.043.721-.043.716-.044.709-.044.701-.011.16 1.407 1.099.056.047.063.059.06.063.056.065.052.068.048.071.044.074.04.075.035.078.031.08.026.081.022.083.017.085.012.085.008.087.002.073v1.147l-.002.069-.009.086-.015.084-.021.083-.027.081-.032.078-.037.076-.042.073-.047.07-.052.066-.056.063-.061.059-.065.055-.069.051-.074.046-.076.04-.079.036-.082.029-.082.024-.084.017-.084.012-.084.005h-.085l-.083-.006-.084-.011-.082-.018-.082-.023-.079-.029-.078-.034-.076-.04-.074-.046-.056-.04-.307-.241-.005.025-.006.03-.011.047-.014.046-.009.028-.015.045-.017.044-.012.027-.019.043-.022.042-.014.025-.023.041-.025.039-.016.024-.026.038-.028.037-.019.022-.029.035-.032.034-.02.021-.033.032-.034.03-.022.019-.035.029-.037.027-.024.017-.038.026-.04.024-.025.014-.041.022-.041.021-.027.012-.043.019-.044.016-.028.01-.045.014-.046.013-.029.007-.047.01-.047.008-.03.005-.048.005-.048.004-.031.001-.048.001-.048-.001-.031-.001-.048-.004-.048-.005-.03-.005-.047-.008-.047-.01-.029-.007-.045-.013-.046-.014-.027-.01-.044-.016-.044-.019-.026-.012-.042-.021-.041-.022-.025-.014-.039-.024-.039-.026-.023-.017-.037-.027-.036-.029-.022-.019-.034-.03-.033-.033-.02-.02-.031-.034-.03-.035-.018-.022-.028-.037-.027-.038-.016-.024-.025-.039-.023-.04-.014-.026-.021-.042-.02-.043-.011-.027-.018-.044-.015-.045-.009-.028-.013-.046-.012-.047-.004-.021-.282.221-.055.04-.073.045-.075.04-.078.034-.079.028-.08.023-.082.018-.083.011-.083.006h-.083l-.084-.006-.083-.011-.083-.017-.082-.024-.08-.029-.079-.035-.076-.04-.072-.046-.069-.05-.065-.054-.06-.059-.056-.062-.051-.066-.047-.069-.041-.073-.037-.075-.032-.077-.026-.08-.021-.082-.015-.084-.009-.085-.002-.068v-1.196l.002-.07.007-.083.012-.083.017-.081.021-.081.025-.078.03-.077.034-.075.039-.073.042-.071.046-.069.05-.066.054-.063.058-.06.062-.057.053-.045 1.38-1.077-.011-.163-.044-.702-.044-.711-.044-.718-.043-.723-.041-.718-5.239 2.342-.061.026-.076.027-.077.022-.078.018-.078.013-.079.01-.079.005-.079.001-.079-.004-.078-.008-.079-.012-.077-.016-.077-.021-.076-.025-.075-.029-.074-.033-.071-.038-.069-.041-.066-.045-.064-.048-.061-.051-.057-.055-.055-.057-.051-.06-.048-.063-.044-.066-.041-.068-.037-.07-.034-.072-.029-.074-.026-.077-.017-.064-.14-.57-.019-.094-.014-.113-.005-.113.004-.112.012-.111.021-.11.029-.107.037-.104.045-.101.052-.098.06-.093.067-.09.074-.084.082-.079.087-.073.078-.055 6.517-4.221-.003-.077-.023-.633-.021-.615-.017-.595-.014-.572-.006-.278-.004-.271-.004-.265-.003-.258-.001-.25-.001-.256.003-.097.008-.109.015-.107.019-.105.025-.104.03-.101.035-.099.04-.097.044-.094.049-.092.053-.088.057-.085.061-.082.064-.079.068-.076.072-.072.075-.069.078-.064.081-.062.084-.057.086-.053.09-.05.092-.045L8.39.16l.097-.037.098-.032.101-.027.102-.023.105-.018.105-.013.107-.008L9.212 0l.108.002zm-.167.999l-.058.005-.057.007-.056.009-.056.013-.054.014-.053.018-.052.02-.051.022-.049.024-.048.026-.047.029-.045.031-.043.032-.041.035-.04.036-.038.039-.036.039-.034.042-.032.043-.03.045-.027.046-.026.047-.023.049-.02.05-.018.051-.016.052-.012.053-.011.055-.007.055-.004.055-.002.057.001.239.001.247.003.254.004.262.004.268.006.274.013.568.018.59.02.611.023.629.027.645-6.98 4.521-.029.021-.028.022-.025.025-.023.026-.021.028-.019.029-.016.031-.014.031-.011.033-.009.033-.007.035-.004.034-.001.035.002.035.004.036.007.035.132.538.006.024.008.024.01.023.01.023.012.022.012.021.014.021.015.019.016.019.018.018.018.017.019.016.019.015.021.014.022.013.022.012.023.011.024.009.023.008.024.006.025.005.024.004.025.002.025.001h.025l.024-.001.025-.003.024-.005.025-.005.024-.007.023-.008.024-.01 6.553-2.93.039.72.04.723.042.723.042.721.044.717.044.71.044.7.045.689-1.785 1.394-.02.018-.02.018-.018.019-.017.02-.016.021-.015.022-.013.022-.013.023-.01.024-.01.025-.008.025-.007.025-.005.026-.004.026-.002.027-.001.027v1.163l.001.015.001.015.003.015.003.014.005.014.005.013.007.013.007.013.008.012.009.011.01.011.01.01.011.009.012.009.013.008.013.007.014.006.013.005.015.004.014.003.014.002.015.001h.014l.015-.001.014-.002.014-.003.014-.004.014-.005.013-.006.013-.007.013-.007.012-.009 1.74-1.36.059.868.058.822.003.03.006.03.009.028.012.027.014.026.016.024.018.023.02.021.022.018.024.017.025.015.027.012.028.01.029.007.03.004.03.001.031-.001.03-.004.029-.007.028-.01.026-.012.025-.015.024-.017.022-.018.02-.021.018-.023.017-.024.014-.026.011-.027.009-.028.006-.03.004-.03.058-.839.061-.888 1.769 1.383.013.009.013.008.014.007.014.007.014.005.015.004.015.003.015.002.015.001h.016l.015-.001.015-.002.015-.003.015-.004.015-.005.014-.007.014-.007.013-.009.013-.009.012-.01.011-.01.01-.012.009-.012.009-.012.007-.014.007-.013.006-.014.005-.015.003-.015.003-.015.002-.016v-1.131l-.001-.03-.002-.029-.005-.029-.005-.029-.008-.028-.009-.028-.01-.027-.012-.027-.014-.026-.015-.025-.016-.024-.018-.024-.019-.022-.021-.021-.021-.02-.023-.019-1.812-1.416.045-.687.044-.699.044-.708.043-.715.043-.719.041-.721.04-.721.039-.718 6.574 2.94.025.01.025.009.025.007.026.006.026.004.026.004.026.001.026.001.026-.002.026-.002.026-.004.026-.006.025-.006.025-.009.025-.009.024-.011.024-.013.022-.013.022-.015.021-.016.02-.017.019-.018.018-.019.017-.02.016-.02.015-.022.013-.023.012-.023.011-.024.01-.024.009-.025.007-.026.125-.51.007-.035.004-.036.002-.035-.002-.035-.004-.034-.006-.034-.009-.033-.011-.033-.014-.031-.017-.031-.018-.029-.021-.027-.023-.027-.025-.024-.028-.023-.029-.02-7.029-4.553.026-.641.023-.625.02-.606.017-.586.014-.564.005-.273.005-.266.003-.259.003-.253.002-.245V2.1l-.001-.057-.005-.055-.007-.055-.01-.055-.013-.053-.015-.052-.018-.051-.021-.05-.023-.049-.025-.047-.028-.046-.029-.045-.032-.043-.034-.042-.036-.039-.038-.039-.04-.036-.042-.035-.043-.032-.045-.031-.046-.029-.048-.026-.05-.024-.05-.022-.052-.02-.053-.018-.055-.014-.055-.013-.057-.009-.057-.007-.058-.005L9.212 1l-.059.001z" fill="#acb8c9"/></svg>