<svg xmlns="http://www.w3.org/2000/svg" clip-rule="evenodd" fill-rule="evenodd" stroke-linejoin="round" stroke-miterlimit="1.414" viewBox="0 0 14 20"><g fill="#acb8c9" fill-rule="nonzero"><path d="M10.272 16.506H2.856A2.212 2.212 0 01.64 14.437L.004 8.088C-.06 6.994.673 1.719 1.935.38c.237-.252.499-.38.777-.38h7.705c.272 0 .528.122.76.363 1.236 1.284 2.016 6.658 1.95 8.453l-.003.036-.637 5.621a.625.625 0 01-.018.086c-.071.231-.935 1.947-2.197 1.947zM10.399.95L2.712.952C1.976 1.207.863 6.476.952 8.013l.636 6.348a1.25 1.25 0 001.268 1.192h7.416c.527 0 1.138-.941 1.277-1.25l.627-5.54c.08-2.337-.999-7.542-1.777-7.813z"/><path d="M10.284 7.301H2.845a.476.476 0 01-.475-.455c-.037-.827.374-3.863 1.144-4.669.216-.225.436-.272.583-.272h4.935c.147 0 .367.047.582.272.771.806 1.182 3.842 1.145 4.669a.476.476 0 01-.475.455zM3.33 6.348h6.468c-.08-1.152-.516-3.125-.848-3.491H4.179c-.332.366-.769 2.339-.849 3.491zm6.207 5.531a1.529 1.529 0 010-3.055 1.529 1.529 0 010 3.055zm0-2.102a.576.576 0 000 1.15.576.576 0 000-1.15zm-5.914 2.102a1.529 1.529 0 010-3.055 1.529 1.529 0 010 3.055zm0-2.102a.575.575 0 10.002 1.15.575.575 0 00-.002-1.15zm5.917 3.554H3.196a.476.476 0 010-.952H9.54a.476.476 0 110 .952zm0 1.588H3.196a.476.476 0 010-.953H9.54a.476.476 0 010 .953zm1.269 3.491H1.928a.476.476 0 110-.952h8.881a.476.476 0 110 .952z"/><path d="M12.322 20a.476.476 0 01-.36-.164L9.18 16.627a.476.476 0 01.719-.624l2.782 3.209a.477.477 0 01-.359.788zM.575 20a.477.477 0 01-.359-.788l2.782-3.209a.475.475 0 11.719.624L.935 19.836a.477.477 0 01-.36.164z"/></g><path style="isolation:auto;mix-blend-mode:normal;solid-color:#000;solid-opacity:1" d="M.36 19.934c-.219-.115-.314-.424-.194-.627.027-.046.327-.404.667-.795s.642-.748.672-.793a.992.992 0 01.133-.152c.043-.038.273-.296.511-.572l.434-.502-.252-.062A2.199 2.199 0 01.7 14.776C.652 14.562.01 8.11.011 7.855c0-.545.149-1.776.352-2.907.393-2.194.963-3.864 1.546-4.526.151-.171.354-.31.531-.364.153-.046.208-.047 4.179-.04l4.023.005.16.076c.608.288 1.129 1.347 1.594 3.242.408 1.665.708 3.8.717 5.103.002.398-.016.582-.318 3.252l-.32 2.83-.104.221c-.295.62-.82 1.232-1.296 1.513-.177.105-.487.218-.604.221-.168.005-.187-.02 1.04 1.39.65.747 1.201 1.4 1.226 1.45a.49.49 0 01-.078.524.48.48 0 01-.55.09c-.068-.036-.29-.274-.736-.789l-.638-.737-4.281-.006-4.281-.005-.653.751c-.7.808-.734.838-.95.839a.463.463 0 01-.21-.054zm9.517-2.513l-.353-.408c-.175-.203-.341-.4-.37-.439l-.053-.071H3.787l-.034.056c-.02.031-.195.241-.392.467a9.415 9.415 0 00-.356.423c0 .007 1.554.013 3.454.013 3.287 0 3.452-.002 3.418-.04zm.672-1.935c.279-.139.791-.727.968-1.112.04-.087.1-.565.357-2.83.302-2.653.31-2.737.307-3.184-.013-1.639-.498-4.442-1.062-6.13-.204-.609-.45-1.098-.615-1.224l-.077-.059H2.672l-.087.088c-.1.101-.212.288-.333.556C1.675 2.869.945 6.314.946 7.754c0 .203.1 1.287.327 3.547.267 2.672.334 3.28.376 3.403.106.317.344.584.645.727.294.14.097.133 4.278.129l3.836-.004z" color="#000" clip-rule="nonzero" overflow="visible" fill-rule="nonzero"/><path style="isolation:auto;mix-blend-mode:normal;solid-color:#000;solid-opacity:1" d="M3.047 13.299a.438.438 0 01-.266-.248c-.052-.106-.06-.147-.048-.237a.46.46 0 01.253-.367l.121-.061h3.26c3.538 0 3.347-.007 3.488.124.166.155.194.449.06.618a.631.631 0 01-.174.141l-.103.053-3.264-.002c-1.795-.001-3.293-.011-3.327-.021zM2.979 14.847a.455.455 0 01-.192-.628.548.548 0 01.146-.16l.1-.07 3.302-.007 3.302-.006.104.053a.42.42 0 01.253.377c.008.116 0 .168-.038.242a.469.469 0 01-.28.24c-.057.016-1.17.024-3.33.024H3.105zM3.358 11.837a1.575 1.575 0 01-1.087-.95A1.518 1.518 0 013.423 8.86a.806.806 0 01.41.002c.345.067.644.236.867.489.123.139.298.482.34.668.037.16.037.503 0 .663a2.19 2.19 0 01-.133.345 1.49 1.49 0 01-1.224.833 1.276 1.276 0 01-.325-.023zm.528-.968a.687.687 0 00.28-.3.755.755 0 00-.003-.437.672.672 0 00-.279-.302.662.662 0 00-.519 0 .702.702 0 00-.281.302.787.787 0 000 .438.649.649 0 00.388.345c.094.03.311.007.414-.046zM9.274 11.835c-.42-.09-.84-.42-1.025-.807a1.478 1.478 0 01.002-1.355c.195-.4.606-.718 1.046-.81.653-.137 1.395.331 1.618 1.02.069.214.085.615.033.82a1.533 1.533 0 01-1.153 1.131c-.2.045-.318.045-.521.001zm.418-.934c.276-.097.452-.411.38-.68-.08-.299-.389-.504-.651-.433a.6.6 0 00-.428.561c.002.387.362.672.7.552zM2.635 7.237c-.182-.09-.262-.25-.262-.521 0-.396.102-1.275.224-1.937.213-1.159.52-2.072.838-2.491.133-.176.342-.322.512-.357.085-.018.902-.024 2.684-.02l2.56.007.116.053c.314.145.55.47.773 1.069.327.875.62 2.41.66 3.464.016.41.001.497-.103.62a.571.571 0 01-.149.117c-.088.045-.164.046-3.921.046H2.736zm7.167-.962a5.071 5.071 0 01-.025-.228c-.104-1.13-.548-2.884-.801-3.164-.035-.039-.174-.04-2.424-.035l-2.387.006-.065.105c-.092.148-.233.536-.346.947-.172.63-.373 1.72-.413 2.24l-.016.205H9.814z" color="#000" clip-rule="nonzero" overflow="visible" fill-rule="nonzero"/></svg>