<?xml version="1.0" encoding="UTF-8" standalone="no"?>
<svg
   xmlns:dc="http://purl.org/dc/elements/1.1/"
   xmlns:cc="http://creativecommons.org/ns#"
   xmlns:rdf="http://www.w3.org/1999/02/22-rdf-syntax-ns#"
   xmlns:svg="http://www.w3.org/2000/svg"
   xmlns="http://www.w3.org/2000/svg"
   xmlns:sodipodi="http://sodipodi.sourceforge.net/DTD/sodipodi-0.dtd"
   xmlns:inkscape="http://www.inkscape.org/namespaces/inkscape"
   clip-rule="evenodd"
   fill-rule="evenodd"
   stroke-linejoin="round"
   stroke-miterlimit="1.414"
   viewBox="0 0 14 20"
   version="1.1"
   id="svg934"
   sodipodi:docname="train.svg"
   inkscape:version="0.92.4 (5da689c313, 2019-01-14)">
  <metadata
     id="metadata940">
    <rdf:RDF>
      <cc:Work
         rdf:about="">
        <dc:format>image/svg+xml</dc:format>
        <dc:type
           rdf:resource="http://purl.org/dc/dcmitype/StillImage" />
        <dc:title></dc:title>
      </cc:Work>
    </rdf:RDF>
  </metadata>
  <defs
     id="defs938" />
  <sodipodi:namedview
     pagecolor="#ffffff"
     bordercolor="#666666"
     borderopacity="1"
     objecttolerance="10"
     gridtolerance="10"
     guidetolerance="10"
     inkscape:pageopacity="0"
     inkscape:pageshadow="2"
     inkscape:window-width="1920"
     inkscape:window-height="1043"
     id="namedview936"
     showgrid="false"
     inkscape:zoom="42.75"
     inkscape:cx="7"
     inkscape:cy="10"
     inkscape:window-x="0"
     inkscape:window-y="0"
     inkscape:window-maximized="1"
     inkscape:current-layer="svg934" />
  <g
     fill="#acb8c9"
     fill-rule="nonzero"
     id="g932">
    <path
       d="M10.272 16.506H2.856A2.212 2.212 0 0 1 .64 14.437L.004 8.088C-.06 6.994.673 1.719 1.935.38c.237-.252.499-.38.777-.38h7.705c.272 0 .528.122.76.363 1.236 1.284 2.016 6.658 1.95 8.453l-.003.036-.637 5.621a.625.625 0 0 1-.018.086c-.071.231-.935 1.947-2.197 1.947zM10.399.95L2.712.952C1.976 1.207.863 6.476.952 8.013l.636 6.348a1.25 1.25 0 0 0 1.268 1.192h7.416c.527 0 1.138-.941 1.277-1.25l.627-5.54c.08-2.337-.999-7.542-1.777-7.813z"
       id="path926" />
    <path
       d="M10.284 7.301H2.845a.476.476 0 0 1-.475-.455c-.037-.827.374-3.863 1.144-4.669.216-.225.436-.272.583-.272h4.935c.147 0 .367.047.582.272.771.806 1.182 3.842 1.145 4.669a.476.476 0 0 1-.475.455zM3.33 6.348h6.468c-.08-1.152-.516-3.125-.848-3.491H4.179c-.332.366-.769 2.339-.849 3.491zm6.207 5.531a1.529 1.529 0 0 1 0-3.055 1.529 1.529 0 0 1 0 3.055zm0-2.102a.576.576 0 0 0 0 1.15.576.576 0 0 0 0-1.15zm-5.914 2.102a1.529 1.529 0 0 1 0-3.055 1.529 1.529 0 0 1 0 3.055zm0-2.102a.575.575 0 1 0 .002 1.15.575.575 0 0 0-.002-1.15zm5.917 3.554H3.196a.476.476 0 0 1 0-.952H9.54a.476.476 0 1 1 0 .952zm0 1.588H3.196a.476.476 0 0 1 0-.953H9.54a.476.476 0 0 1 0 .953zm1.269 3.491H1.928a.476.476 0 1 1 0-.952h8.881a.476.476 0 1 1 0 .952z"
       id="path928" />
    <path
       d="M12.322 20a.476.476 0 0 1-.36-.164L9.18 16.627a.476.476 0 0 1 .719-.624l2.782 3.209a.477.477 0 0 1-.359.788zM.575 20a.477.477 0 0 1-.359-.788l2.782-3.209a.475.475 0 1 1 .719.624L.935 19.836a.477.477 0 0 1-.36.164z"
       id="path930" />
  </g>
  <path
     style="color:#000000;clip-rule:nonzero;display:inline;overflow:visible;visibility:visible;opacity:1;isolation:auto;mix-blend-mode:normal;color-interpolation:sRGB;color-interpolation-filters:linearRGB;solid-color:#000000;solid-opacity:1;fill:#000000;fill-opacity:1;fill-rule:nonzero;stroke-width:0.02339181;stroke-linecap:butt;stroke-linejoin:miter;stroke-miterlimit:4;stroke-dasharray:none;stroke-dashoffset:0;stroke-opacity:1;color-rendering:auto;image-rendering:auto;shape-rendering:auto;text-rendering:auto;enable-background:accumulate"
     d="M 0.35923471,19.933856 C 0.14108225,19.818643 0.04609516,19.510231 0.16611345,19.306815 c 0.0272493,-0.04618 0.32734947,-0.403848 0.66688922,-0.794808 0.33953973,-0.390961 0.64205403,-0.74768 0.67225393,-0.792709 0.0302,-0.04503 0.089932,-0.11345 0.132737,-0.152047 0.042806,-0.0386 0.2729311,-0.29613 0.5113902,-0.572297 L 2.5829457,16.492832 2.3312704,16.430952 C 1.5099207,16.229005 0.87751766,15.587567 0.69918143,14.775544 0.65232561,14.562194 0.01049746,8.1108781 0.01064369,7.854728 0.01095473,7.3098905 0.16000012,6.079033 0.36258702,4.9482842 0.75574683,2.753843 1.3262614,1.0843851 1.9094259,0.42187535 2.0600384,0.25077043 2.2629929,0.11161558 2.4402508,0.05791754 2.5933032,0.01155225 2.6476947,0.01102178 6.6187135,0.01716628 l 4.0233915,0.0062255 0.159348,0.07547423 c 0.608829,0.28836938 1.129269,1.34683929 1.594151,3.24218379 0.408253,1.6644646 0.708375,3.8004059 0.717081,5.1033946 0.0027,0.3972082 -0.01531,0.5813404 -0.317211,3.2514616 l -0.320025,2.83041 -0.104882,0.220683 c -0.294796,0.620286 -0.818766,1.232266 -1.295713,1.513351 -0.177061,0.104349 -0.487119,0.217794 -0.603547,0.220826 -0.168436,0.0044 -0.187376,-0.02092 1.040395,1.390169 0.649258,0.746199 1.200553,1.39883 1.225098,1.450292 0.07945,0.16658 0.04639,0.387641 -0.07827,0.523235 -0.130792,0.142271 -0.380178,0.183444 -0.549979,0.0908 -0.06741,-0.03678 -0.288803,-0.274558 -0.735069,-0.789474 l -0.638604,-0.736842 -4.2810688,-0.0059 -4.2810689,-0.0059 -0.6522566,0.751489 C 0.81908101,19.95714 0.78550856,19.986759 0.56976103,19.98779 0.50158367,19.988116 0.42465937,19.968409 0.35923471,19.933856 Z M 9.87748,17.421053 C 9.8582112,17.398538 9.6993015,17.214735 9.5243476,17.012602 9.3493937,16.810469 9.1826007,16.613101 9.1536966,16.574006 l -0.052553,-0.07108 H 6.4442938 3.787444 l -0.034658,0.05642 c -0.019062,0.03103 -0.1951841,0.241024 -0.3913829,0.466655 -0.1961988,0.225632 -0.3567251,0.416033 -0.3567251,0.423116 0,0.0071 1.5542629,0.01288 3.4539179,0.01288 3.2871972,0 3.4522266,-0.002 3.4188837,-0.04094 z m 0.671058,-1.935237 c 0.279385,-0.138824 0.791795,-0.727117 0.968172,-1.111547 0.04015,-0.0875 0.100509,-0.565023 0.357787,-2.830409 C 12.17582,8.8906475 12.183899,8.8066094 12.180553,8.3601598 12.16827,6.7210739 11.682703,3.9181354 11.118731,2.2307887 10.915075,1.6214698 10.669382,1.1321178 10.503641,1.0057011 L 10.427161,0.9473684 H 6.549426 2.6716891 L 2.5848384,1.0350877 C 2.4848409,1.136085 2.3727549,1.3231889 2.2520283,1.5906433 1.6750142,2.8689443 0.94535626,6.3137525 0.94646246,7.754386 c 1.5672e-4,0.2030935 0.0997353,1.2861791 0.32604064,3.546215 0.2676136,2.672568 0.3348144,3.280557 0.3761881,3.403509 0.1065809,0.316729 0.3442463,0.584329 0.6455978,0.726912 0.2939428,0.139079 0.097123,0.133159 4.2776408,0.128661 l 3.8362572,-0.0041 z"
     id="path942"
     inkscape:connector-curvature="0" />
  <path
     style="color:#000000;clip-rule:nonzero;display:inline;overflow:visible;visibility:visible;opacity:1;isolation:auto;mix-blend-mode:normal;color-interpolation:sRGB;color-interpolation-filters:linearRGB;solid-color:#000000;solid-opacity:1;fill:#000000;fill-opacity:1;fill-rule:nonzero;stroke-width:0.02339181;stroke-linecap:butt;stroke-linejoin:miter;stroke-miterlimit:4;stroke-dasharray:none;stroke-dashoffset:0;stroke-opacity:1;color-rendering:auto;image-rendering:auto;shape-rendering:auto;text-rendering:auto;enable-background:accumulate"
     d="M 3.0465815,13.298517 C 2.9328552,13.264235 2.8449773,13.182514 2.780816,13.051373 2.728846,12.94515 2.720414,12.903578 2.732682,12.814066 2.75592,12.644529 2.8432926,12.517591 2.9855397,12.446706 l 0.1218911,-0.06074 h 3.2593163 c 3.5386772,0 3.3477142,-0.0068 3.4878412,0.123923 0.1661177,0.154953 0.1946167,0.448637 0.059961,0.617897 -0.038763,0.04872 -0.1168353,0.112273 -0.173494,0.141221 l -0.1030157,0.05263 -3.2640493,-0.002 c -1.7952272,-0.0011 -3.2925614,-0.01061 -3.3274094,-0.02111 z"
     id="path944"
     inkscape:connector-curvature="0" />
  <path
     style="color:#000000;clip-rule:nonzero;display:inline;overflow:visible;visibility:visible;opacity:1;isolation:auto;mix-blend-mode:normal;color-interpolation:sRGB;color-interpolation-filters:linearRGB;solid-color:#000000;solid-opacity:1;fill:#000000;fill-opacity:1;fill-rule:nonzero;stroke-width:0.02339181;stroke-linecap:butt;stroke-linejoin:miter;stroke-miterlimit:4;stroke-dasharray:none;stroke-dashoffset:0;stroke-opacity:1;color-rendering:auto;image-rendering:auto;shape-rendering:auto;text-rendering:auto;enable-background:accumulate"
     d="M 2.9789131,14.84715 C 2.7464979,14.725735 2.6640749,14.456416 2.7866945,14.219071 c 0.025691,-0.04973 0.091416,-0.121995 0.1460552,-0.160591 l 0.099343,-0.07018 3.3024917,-0.0061 3.3024917,-0.0061 0.1034978,0.05287 c 0.1638114,0.08368 0.2425901,0.200779 0.2538304,0.377304 0.00737,0.11567 -9.684e-4,0.167537 -0.038857,0.241802 -0.060006,0.117622 -0.165428,0.208187 -0.2790811,0.239752 -0.057905,0.01608 -1.1713504,0.0242 -3.3299359,0.02429 l -3.2429429,1.31e-4 z"
     id="path946"
     inkscape:connector-curvature="0" />
  <path
     style="color:#000000;clip-rule:nonzero;display:inline;overflow:visible;visibility:visible;opacity:1;isolation:auto;mix-blend-mode:normal;color-interpolation:sRGB;color-interpolation-filters:linearRGB;solid-color:#000000;solid-opacity:1;fill:#000000;fill-opacity:1;fill-rule:nonzero;stroke-width:0.02339181;stroke-linecap:butt;stroke-linejoin:miter;stroke-miterlimit:4;stroke-dasharray:none;stroke-dashoffset:0;stroke-opacity:1;color-rendering:auto;image-rendering:auto;shape-rendering:auto;text-rendering:auto;enable-background:accumulate"
     d="M 3.3579883,11.836699 C 2.8783874,11.727759 2.4443704,11.34888 2.2709141,10.887728 1.9373188,10.000828 2.4916796,9.0247994 3.4227464,8.8597675 3.6172919,8.8252842 3.64819,8.825443 3.833631,8.861879 4.1777265,8.929488 4.4769099,9.0982464 4.7000199,9.3505777 4.8232807,9.4899824 4.9977813,9.8329826 5.040295,10.019426 c 0.036519,0.160152 0.036519,0.50275 0,0.662902 C 5.024657,10.750908 4.96457,10.905835 4.9067675,11.026612 4.6811139,11.498109 4.1927862,11.830907 3.6831836,11.86049 3.57662,11.86669 3.4487919,11.85729 3.3579883,11.8367 Z M 3.8857795,10.86947 c 0.1089129,-0.05556 0.2334489,-0.189024 0.2797198,-0.299766 0.042487,-0.101685 0.040969,-0.332384 -0.00288,-0.437322 -0.048609,-0.116338 -0.1648531,-0.2426478 -0.2785369,-0.302656 -0.1338812,-0.07067 -0.3851682,-0.07067 -0.5190494,0 -0.1111945,0.058694 -0.2353469,0.192072 -0.2814132,0.302324 -0.041371,0.09902 -0.041371,0.338639 0,0.437654 0.064443,0.154234 0.2158633,0.288813 0.3887397,0.345505 0.093334,0.03061 0.310962,0.0065 0.4134163,-0.04574 z"
     id="path948"
     inkscape:connector-curvature="0" />
  <path
     style="color:#000000;clip-rule:nonzero;display:inline;overflow:visible;visibility:visible;opacity:1;isolation:auto;mix-blend-mode:normal;color-interpolation:sRGB;color-interpolation-filters:linearRGB;solid-color:#000000;solid-opacity:1;fill:#000000;fill-opacity:1;fill-rule:nonzero;stroke-width:0.02339181;stroke-linecap:butt;stroke-linejoin:miter;stroke-miterlimit:4;stroke-dasharray:none;stroke-dashoffset:0;stroke-opacity:1;color-rendering:auto;image-rendering:auto;shape-rendering:auto;text-rendering:auto;enable-background:accumulate"
     d="M 9.2736842,11.83497 C 8.8542913,11.744895 8.4344495,11.414273 8.248854,11.027926 8.0300302,10.572408 8.030649,10.123133 8.250721,9.6725146 8.4456883,9.2733004 8.8569379,8.9551219 9.297076,8.8629634 c 0.653182,-0.1367667 1.395332,0.3312595 1.617539,1.0200775 0.06899,0.2138721 0.08543,0.6153991 0.03353,0.8191581 -0.145974,0.573115 -0.587164,1.006276 -1.1527637,1.131786 -0.2006827,0.04453 -0.317908,0.04475 -0.5216971,9.85e-4 z M 9.6921686,10.901491 C 9.9684951,10.803997 10.144166,10.48965 10.072031,10.221762 9.9913458,9.9221191 9.6832074,9.7166393 9.4208667,9.7875376 c -0.2416274,0.0653 -0.4283599,0.3107204 -0.4273705,0.5616864 0.00153,0.386952 0.3612674,0.67131 0.6986724,0.552267 z"
     id="path950"
     inkscape:connector-curvature="0" />
  <path
     style="color:#000000;clip-rule:nonzero;display:inline;overflow:visible;visibility:visible;opacity:1;isolation:auto;mix-blend-mode:normal;color-interpolation:sRGB;color-interpolation-filters:linearRGB;solid-color:#000000;solid-opacity:1;fill:#000000;fill-opacity:1;fill-rule:nonzero;stroke-width:0.02339181;stroke-linecap:butt;stroke-linejoin:miter;stroke-miterlimit:4;stroke-dasharray:none;stroke-dashoffset:0;stroke-opacity:1;color-rendering:auto;image-rendering:auto;shape-rendering:auto;text-rendering:auto;enable-background:accumulate"
     d="M 2.6351747,7.2367675 C 2.4528212,7.1465046 2.3729459,6.9875801 2.3733408,6.7158077 2.3739158,6.3200337 2.4754823,5.4407221 2.5970222,4.7792877 2.8099995,3.620239 3.1169823,2.7074728 3.4349705,2.2877774 3.5684229,2.1116407 3.7770836,1.9661468 3.9467542,1.9309233 4.0321862,1.9131877 4.8494283,1.9073574 6.6307006,1.9117758 l 2.5611123,0.00635 0.1150956,0.053079 c 0.3142042,0.1449019 0.5495182,0.470172 0.7729705,1.0684626 0.327077,0.8757466 0.619427,2.4104588 0.659908,3.4642448 0.01576,0.410184 0.0014,0.496847 -0.102634,0.620512 -0.03268,0.038834 -0.09977,0.091198 -0.149105,0.1163649 -0.08794,0.044865 -0.164465,0.045757 -3.9210342,0.045739 L 2.7356725,7.2865127 Z M 9.8021768,6.2748538 C 9.7957752,6.2330409 9.7842594,6.1304094 9.7765857,6.0467836 9.6729354,4.9172087 9.2289069,3.1627295 8.975869,2.8829312 8.940873,2.8442339 8.8021808,2.8422265 6.5516608,2.8478434 l -2.3870885,0.00596 -0.064872,0.1052631 C 4.0084983,3.1070495 3.867246,3.4945806 3.754391,3.9064327 3.5818307,4.5361729 3.3808056,5.6251406 3.3409268,6.1461988 l -0.015665,0.2046784 h 3.244277 3.244277 z"
     id="path952"
     inkscape:connector-curvature="0" />
</svg>
