<svg clip-rule="evenodd" fill-rule="evenodd" stroke-linejoin="round" stroke-miterlimit="1.414" viewBox="0 0 14 20" xmlns="http://www.w3.org/2000/svg"><g fill="#acb8c9" fill-rule="nonzero"><path d="M10.272 16.506H2.856A2.212 2.212 0 01.64 14.437L.004 8.088C-.06 6.994.673 1.719 1.935.38c.237-.252.499-.38.777-.38h7.705c.272 0 .528.122.76.363 1.236 1.284 2.016 6.658 1.95 8.453l-.003.036-.637 5.621a.625.625 0 01-.018.086c-.071.231-.935 1.947-2.197 1.947zM10.399.95L2.712.952C1.976 1.207.863 6.476.952 8.013l.636 6.348a1.25 1.25 0 001.268 1.192h7.416c.527 0 1.138-.941 1.277-1.25l.627-5.54c.08-2.337-.999-7.542-1.777-7.813z"/><path d="M10.284 7.301H2.845a.476.476 0 01-.475-.455c-.037-.827.374-3.863 1.144-4.669.216-.225.436-.272.583-.272h4.935c.147 0 .367.047.582.272.771.806 1.182 3.842 1.145 4.669a.476.476 0 01-.475.455zM3.33 6.348h6.468c-.08-1.152-.516-3.125-.848-3.491H4.179c-.332.366-.769 2.339-.849 3.491zm6.207 5.531a1.529 1.529 0 010-3.055 1.529 1.529 0 010 3.055zm0-2.102a.576.576 0 000 1.15.576.576 0 000-1.15zm-5.914 2.102a1.529 1.529 0 010-3.055 1.529 1.529 0 010 3.055zm0-2.102a.575.575 0 10.002 1.15.575.575 0 00-.002-1.15zm5.917 3.554H3.196a.476.476 0 010-.952H9.54a.476.476 0 110 .952zm0 1.588H3.196a.476.476 0 010-.953H9.54a.476.476 0 010 .953zm1.269 3.491H1.928a.476.476 0 110-.952h8.881a.476.476 0 110 .952z"/><path d="M12.322 20a.476.476 0 01-.36-.164L9.18 16.627a.476.476 0 01.719-.624l2.782 3.209a.477.477 0 01-.359.788zM.575 20a.477.477 0 01-.359-.788l2.782-3.209a.475.475 0 11.719.624L.935 19.836a.477.477 0 01-.36.164z"/></g></svg>