<svg width="85" height="85" fill="none" xmlns="http://www.w3.org/2000/svg">
  <path d="M65.405 52.484h-45.81v4.884h45.81v-4.884Z" fill="#acb8c9"/>
  <path d="M68.59 54.929H16.403v3.063H68.59V54.93Z" fill="#acb8c9"/>
  <path d="M68.77 27H16.23A3.221 3.221 0 0 0 13 30.211v19.794a3.221 3.221 0 0 0 3.23 3.212h52.54A3.221 3.221 0 0 0 72 50.005V30.211A3.221 3.221 0 0 0 68.77 27Z" fill="#acb8c9"/>
  <path d="M33.657 30.301H19.595v19.95h14.062V30.3ZM49.527 30.301H35.466v19.95h14.061V30.3ZM65.404 30.301h-14.06v19.95h14.06V30.3Z" fill="#fff"/>
  <path d="M30.538 41.097c0 3.108-1.28 5.476-4.02 5.476-2.74 0-4.02-2.368-4.02-5.476 0-3.107 1.28-5.475 4.02-5.475 2.74 0 4.02 2.368 4.02 5.475Zm-5.955 0c0 2.22.64 3.626 1.965 3.626 1.325 0 1.95-1.48 1.95-3.626 0-2.145-.64-3.625-1.95-3.625s-1.995 1.457-1.995 3.625h.03ZM41.979 37.96l-2.159 1.214-.997-1.421 3.215-1.85h1.95v10.36h-2.01V37.96ZM55.698 35.918h6.208v1.806h-4.288l-.119 2.16h.797c2.769 0 3.99 1.258 3.99 3.271s-1.668 3.419-3.812 3.419a4.383 4.383 0 0 1-2.384-.575 4.348 4.348 0 0 1-1.695-1.764l1.757-1.08c.596 1.14 1.31 1.643 2.322 1.643a1.594 1.594 0 0 0 1.231-.395 1.575 1.575 0 0 0 .526-1.174c0-.977-.744-1.539-2.024-1.539h-2.83l.321-5.772Z" fill="#acb8c9"/>
</svg>
