<svg xmlns="http://www.w3.org/2000/svg" viewBox="0 0 122.88 99.54" xml:space="preserve"><path d="M73.12 0c6.73 0 13.16 1.34 19.03 3.77a49.802 49.802 0 0 1 16.16 10.81 49.658 49.658 0 0 1 10.8 16.17c2.43 5.87 3.77 12.3 3.77 19.02 0 6.73-1.34 13.16-3.77 19.03a49.802 49.802 0 0 1-10.81 16.16 49.658 49.658 0 0 1-16.17 10.8 49.637 49.637 0 0 1-19.02 3.77 49.65 49.65 0 0 1-19.03-3.77 49.785 49.785 0 0 1-16.15-10.8l-.01-.01a49.839 49.839 0 0 1-10.8-16.15 50.54 50.54 0 0 1-2-5.82c1.04.1 2.1.15 3.17.15 2.03 0 4.01-.18 5.94-.53.32.96.67 1.91 1.05 2.84 2.07 5 5.11 9.5 8.89 13.28 3.78 3.78 8.29 6.82 13.28 8.89 4.81 1.99 10.1 3.1 15.66 3.1s10.84-1.1 15.66-3.1c5-2.07 9.5-5.11 13.28-8.89 3.78-3.78 6.82-8.29 8.89-13.28 1.99-4.81 3.1-10.1 3.1-15.66s-1.1-10.84-3.1-15.66c-2.07-5-5.11-9.5-8.89-13.28s-8.29-6.82-13.28-8.89c-4.81-1.99-10.1-3.1-15.66-3.1s-10.84 1.1-15.66 3.1c-.43.18-.86.37-1.28.56a33.24 33.24 0 0 0-5.89-6.95c1.24-.64 2.51-1.23 3.8-1.77A49.415 49.415 0 0 1 73.12 0zm-5.71 26.11c0-1.22.5-2.32 1.29-3.12.8-.8 1.9-1.29 3.12-1.29 1.22 0 2.32.49 3.12 1.29.8.8 1.29 1.9 1.29 3.12v23.22l17.35 10.29c1.04.62 1.74 1.61 2.02 2.7s.15 2.29-.47 3.33v.01c-.62 1.04-1.61 1.74-2.7 2.02s-2.29.15-3.33-.47h-.01L69.68 55.7a4.402 4.402 0 0 1-2.27-3.85V26.11z" fill="#393939"/><path d="M26.98 2.64c14.9 0 26.98 12.08 26.98 26.98S41.88 56.6 26.98 56.6 0 44.52 0 29.62 12.08 2.64 26.98 2.64zm0 11.08 14.48 17.9h-8.99v9.52H21.49v-9.52H12.5l14.48-17.9z" fill-rule="evenodd" clip-rule="evenodd" fill="#6bbe66"/></svg>