<svg xmlns:dc="http://purl.org/dc/elements/1.1/" xmlns:cc="http://creativecommons.org/ns#" xmlns:rdf="http://www.w3.org/1999/02/22-rdf-syntax-ns#" xmlns:svg="http://www.w3.org/2000/svg" xmlns="http://www.w3.org/2000/svg" xmlns:sodipodi="http://sodipodi.sourceforge.net/DTD/sodipodi-0.dtd" xmlns:inkscape="http://www.inkscape.org/namespaces/inkscape" viewBox="0 0 128 128" version="1.1" id="svg16">
  <defs id="defs20"></defs>
  <g style="" transform="matrix(0.826465, 0, 0, 0.783689, 26.580807, -7.065371)">
    <path d="m 19.277928,83.588669 c -9.7567712,0 -17.6945414,-7.93777 -17.6945414,-17.69454 0,-9.756769 7.9377702,-17.69454 17.6945414,-17.69454 9.756768,0 17.69454,7.937771 17.69454,17.69454 0,9.75677 -7.937772,17.69454 -17.69454,17.69454 z m 0,-31.14239 c -7.415429,0 -13.4478517,6.032422 -13.4478517,13.44785 0,7.415428 6.0324227,13.447851 13.4478517,13.447851 7.415427,0 13.44785,-6.032423 13.44785,-13.447851 0,-7.415428 -6.033131,-13.44785 -13.44785,-13.44785 z m 50.960275,31.14239 c -9.756769,0 -17.694539,-7.93777 -17.694539,-17.69454 0,-9.756769 7.93777,-17.69454 17.694539,-17.69454 9.75677,0 17.694541,7.937771 17.694541,17.69454 0,9.75677 -7.937771,17.69454 -17.694541,17.69454 z m 0,-31.14239 c -7.415427,0 -13.44785,6.032422 -13.44785,13.44785 0,7.415428 6.032423,13.447851 13.44785,13.447851 7.415429,0 13.447851,-6.032423 13.447851,-13.447851 0,-7.415428 -6.03313,-13.44785 -13.447851,-13.44785 z" id="path2" style="fill:#26353f;stroke-width:0.70778161"></path>
    <path d="M 60.761007,40.721168 C 60.38376,40.055854 59.678101,39.582347 58.91299,39.582347 H 33.432852 c -0.746001,0 -1.436796,0.452981 -1.820415,1.092816 L 16.749024,65.478662 a 2.038411,2.038411 0 0 0 -0.0269,2.09291 c 0.377248,0.665315 1.082907,1.03053 1.848019,1.03053 h 22.17055 c -0.270372,0 -0.522342,-0.898176 -0.820318,-1.351863 -0.55207,-0.841553 -1.116879,-1.740435 -1.29241,-2.747609 -0.007,-0.04034 -0.0042,-0.147218 -0.0085,-0.147218 H 22.319972 L 34.635373,43.829745 h 20.52779 L 45.404977,60.15402 c 1.399993,0.401313 2.620916,1.319305 3.473793,2.496346 l 11.855342,-19.77471 a 2.1516561,2.1516561 0 0 0 0.0269,-2.154488 z" id="path4" style="fill:#26353f;stroke-width:0.70778161"></path>
    <path d="m 41.456972,62.676554 a 2.1233448,2.1233448 0 0 1 -1.946399,-1.273299 l -12.269394,-27.9234 c -0.469968,-1.074413 0.871278,0.385741 1.945691,-0.08422 1.075828,-0.471382 1.061673,0.05874 1.944983,-1.617988 l 12.269395,27.923397 a 2.1226371,2.1226371 0 0 1 -1.09423,2.795737 c -0.27745,0.122446 -0.566225,0.179777 -0.850046,0.179777 z" id="path6" style="fill:#26353f;stroke-width:0.70778161"></path>
    <path d="m 28.069991,36.167301 c -5.060639,0 -11.025822,-1.297363 -11.025822,-4.95447 v -4.954472 c 0,-3.657107 5.964475,-4.95447 11.025822,-4.95447 2.595435,0 6.01402,0.340443 8.753135,0.867741 3.342852,0.643372 6.408962,1.583306 6.408962,4.086729 v 4.954472 c 0,2.503423 -3.06611,3.443357 -6.408962,4.086731 -2.739115,0.527297 -6.158409,0.867739 -8.753135,0.867739 z m -6.779133,-5.437178 c 0.707782,0.484123 3.15883,1.191197 6.723926,1.191197 4.005335,0 9.555051,-0.851462 10.970615,-1.572692 v -3.22536 c -1.415564,-0.721229 -6.96528,-1.572691 -10.970615,-1.572691 -3.565096,0 -6.016144,0.707074 -6.723926,1.191196 z" id="path8" style="fill:#26353f;stroke-width:0.70778161"></path>
    <path d="m 28.125197,30.505049 c -5.108059,0 -10.262833,-1.312935 -10.262833,-4.24669 a 1.4155632,1.4155632 0 0 1 2.824049,-0.145095 c 0.433162,0.49757 2.993209,1.560658 7.438784,1.560658 4.669236,0 10.553025,-1.065211 11.756253,-1.879867 a 1.4155632,1.4155632 0 0 1 2.753271,0.464304 c 0,4.06479 -14.364428,4.24669 -14.509524,4.24669 z m 42.113006,37.512425 c -8.734733,0 -13.44785,-17.565724 -13.44785,-34.035802 0,-1.172794 0.95055,-2.18563 2.123345,-2.18563 h 13.44785 c 2.276226,0 5.662253,1.758838 5.662253,6.43232 0,2.061767 -0.857123,3.347099 -1.576229,4.037186 -1.939322,1.859343 -4.873077,1.751759 -6.450015,1.686643 -0.183315,-0.0078 -0.341858,-0.0078 -0.467843,-0.0078 a 2.1205142,2.1205142 0 1 1 0,-4.241028 c 0.173407,0 0.392111,0.0091 0.644789,0.01982 0.808995,0.03398 2.700895,0.113952 3.332944,-0.492616 0.06654,-0.06441 0.268957,-0.319918 0.268957,-1.003634 0,-1.969757 -1.083614,-2.184922 -1.415564,-2.184922 H 61.036334 c 0.391404,16.986759 5.508665,27.665767 9.201161,27.665767 1.172795,0 2.123345,0.981694 2.123345,2.154487 7.08e-4,1.17421 -0.95055,2.155195 -2.122637,2.155195 z m -25.480137,4.24669 c -3.902708,0 -7.077817,-3.175109 -7.077817,-7.077817 0,-3.902707 3.175109,-7.077816 7.077817,-7.077816 3.902707,0 7.077816,3.175109 7.077816,7.077816 0,3.902708 -3.175109,7.077817 -7.077816,7.077817 z m 0,-9.908943 c -1.561367,0 -2.831127,1.26976 -2.831127,2.831126 0,1.561367 1.26976,2.831127 2.831127,2.831127 1.561366,0 2.831126,-1.26976 2.831126,-2.831127 0,-1.561366 -1.270468,-2.831126 -2.831126,-2.831126 z" id="path10" style="fill:#26353f;stroke-width:0.70778161"></path>
    <path d="m 45.04236,80.733898 a 2.2754659,2.2754659 0 0 1 -2.275464,-2.275466 v -7.584886 a 2.2754659,2.2754659 0 1 1 4.550931,0 v 7.584886 a 2.2754659,2.2754659 0 0 1 -2.275467,2.275466 z" id="path12" style="fill:#26353f;stroke-width:0.7584886"></path>
    <path d="M 48.953127,82.286581 H 41.36824 a 2.2754659,2.2754659 0 1 1 0,-4.550931 h 7.584887 a 2.2754659,2.2754659 0 1 1 0,4.550931 z" id="path14" style="fill:#26353f;stroke-width:0.7584886"></path>
  </g>
  <g style="clip-rule: evenodd; fill-rule: evenodd; stroke: rgb(38, 53, 63); stroke-linecap: round; stroke-linejoin: round; stroke-miterlimit: 1.5; stroke-opacity: 1;" id="g849" transform="matrix(2.491131, 0, 0, 2.468436, 67.858353, 66.763443)">
    <g id="g835" style="fill:none;stroke:#26353f;stroke-opacity:1">
      <circle id="circle829" r="1.5" cy="18.377001" cx="5.033" style="stroke:#26353f;stroke-opacity:1"></circle>
      <circle id="circle831" r="1.5" cy="18.377001" cx="19.033001" style="stroke:#26353f;stroke-opacity:1"></circle>
      <path id="path833" d="M 18.961,18.269 15.17,4.123 M 5.033,18.377 H 16.117 M 7.946,18.269 Z M 21.104,16.326 Z M 15.17,4.123 h -1.637" style="stroke:#26353f;stroke-opacity:1"></path>
    </g>
  </g>
  <g id="svg14" transform="matrix(3.821169, 0, 0, 4.247598, -380.92984, -32.144592)" style="">
    <g transform="matrix(0.553706, 0, 0, 0.636994, 100.69709, 25.63188)" id="g12" style="fill:none;stroke:#26353f;stroke-width:0.999393;stroke-miterlimit:1.5;stroke-dasharray:none">
      <path d="M 19.5,7.4 A 0.9,0.9 0 0 0 18.6,6.5 H 1.4 A 0.9,0.9 0 0 0 0.5,7.4 v 4.2 a 0.9,0.9 0 0 0 0.9,0.9 h 17.2 a 0.9,0.9 0 0 0 0.9,-0.9 V 7.4 Z" id="path-1" style="stroke-width:0.999393;stroke-miterlimit:1.5;stroke-dasharray:none"></path>
      <path d="M 4.813,13.125 A 0.626,0.626 0 0 0 4.188,12.5 h -1.25 a 0.625,0.625 0 0 0 -0.625,0.625 v 1.25 C 2.313,14.72 2.593,15 2.938,15 h 1.25 c 0.344,0 0.625,-0.28 0.625,-0.625 z m 12.875,0 A 0.626,0.626 0 0 0 17.063,12.5 h -1.25 a 0.625,0.625 0 0 0 -0.625,0.625 v 1.25 c 0,0.345 0.28,0.625 0.625,0.625 h 1.25 c 0.344,0 0.625,-0.28 0.625,-0.625 z" id="path-2" style="stroke-width:0.999393;stroke-miterlimit:1.5;stroke-dasharray:none"></path>
      <circle cx="3.125" cy="9.5" r="1" id="circle6" style="stroke-width:0.999393;stroke-miterlimit:1.5;stroke-dasharray:none"></circle>
      <circle cx="16.875" cy="9.5" r="1" id="circle8" style="stroke-width:0.999393;stroke-miterlimit:1.5;stroke-dasharray:none"></circle>
      <path d="M 18,6.5 H 2 L 3.397,1.263 C 3.517,0.813 3.924,0.5 4.389,0.5 h 11.253 c 0.447,0 0.838,0.301 0.953,0.732 z M 3.5,2.5 h 13 m -9,7 h 5" id="path-3" style="stroke-width:0.999393;stroke-miterlimit:1.5;stroke-dasharray:none"></path>
    </g>
    <path style="fill:none;fill-rule:evenodd;stroke:#26353f;stroke-width:0.603;stroke-linecap:round;stroke-linejoin:miter;stroke-miterlimit:4;stroke-dasharray:none;stroke-dashoffset:0;stroke-opacity:1" d="M 111.772 27.16 L 113.461 27.162 L 114.133 28.085" id="path12926"></path>
    <path style="fill:none;fill-rule:evenodd;stroke:#26353f;stroke-width:0.603;stroke-linecap:round;stroke-linejoin:miter;stroke-miterlimit:4;stroke-dasharray:none;stroke-dashoffset:0;stroke-opacity:1" d="M 118.77 27.197 L 117.151 27.179 L 116.446 28.071" id="path12928"></path>
    <path style="fill:none;fill-rule:evenodd;stroke:#26353f;stroke-width:0.603;stroke-linecap:round;stroke-linejoin:miter;stroke-miterlimit:4;stroke-dasharray:none;stroke-dashoffset:0;stroke-opacity:1" d="M 114.596 34.068 C 114.596 34.068 114.036 33.855 113.871 33.624 C 113.583 33.222 113.546 32.175 113.546 32.175 L 113.58 28.168 C 114.606 28.162 115.295 28.157 117.076 28.152 L 117.066 32.102 C 117.066 32.102 117.032 33.168 116.753 33.593 C 116.588 33.844 116.017 34.114 116.017 34.114" id="path12930"></path>
    <path style="fill:none;fill-rule:evenodd;stroke:#26353f;stroke-width:0.603;stroke-linecap:round;stroke-linejoin:miter;stroke-miterlimit:4;stroke-dasharray:none;stroke-dashoffset:0;stroke-opacity:1" d="M 114.701 28.144 L 114.689 27.212 C 115.11 26.984 115.714 27.006 115.984 27.2 L 116.002 28.155" id="path12932"></path>
    <ellipse style="fill:none;fill-opacity:1;stroke:#26353f;stroke-width:0.603;stroke-linecap:round;stroke-linejoin:round;stroke-miterlimit:4;stroke-dasharray:none;stroke-dashoffset:0;stroke-opacity:1" id="path13206" cx="115.319" cy="29.862" rx="0.988" ry="0.972"></ellipse>
    <path style="fill:none;fill-rule:evenodd;stroke:#26353f;stroke-width:0.603;stroke-linecap:round;stroke-linejoin:miter;stroke-miterlimit:4;stroke-dasharray:none;stroke-dashoffset:0;stroke-opacity:1" d="M 113.621 29.093 C 113.705 29.093 114.692 29.086 114.692 29.086" id="path13343"></path>
    <path style="fill:none;fill-rule:evenodd;stroke:#26353f;stroke-width:0.603;stroke-linecap:round;stroke-linejoin:miter;stroke-miterlimit:4;stroke-dasharray:none;stroke-dashoffset:0;stroke-opacity:1" d="M 115.944 29.095 L 117.029 29.084" id="path13345"></path>
    <path style="fill:none;fill-rule:evenodd;stroke:#26353f;stroke-width:0.603;stroke-linecap:round;stroke-linejoin:miter;stroke-miterlimit:4;stroke-dasharray:none;stroke-dashoffset:0;stroke-opacity:1" d="M 117.039 30.469 C 116.875 30.487 116.096 30.478 116.096 30.478" id="path13347"></path>
    <path style="fill:none;fill-rule:evenodd;stroke:#26353f;stroke-width:0.603;stroke-linecap:round;stroke-linejoin:miter;stroke-miterlimit:4;stroke-dasharray:none;stroke-dashoffset:0;stroke-opacity:1" d="M 113.602 30.454 L 114.494 30.452" id="path13349"></path>
    <path style="fill:none;fill-rule:evenodd;stroke:#26353f;stroke-width:0.603;stroke-linecap:round;stroke-linejoin:round;stroke-miterlimit:4;stroke-dasharray:none;stroke-dashoffset:0;stroke-opacity:1" d="M 114.59 34.79 C 114.653 35.101 114.973 35.341 115.265 35.352 C 115.568 35.363 115.931 35.122 116.005 34.826 L 116.015 32.176 C 115.925 31.767 115.615 31.667 115.325 31.641 C 115.069 31.618 114.659 31.835 114.642 31.998 L 114.59 34.79 Z" id="path13351"></path>
  </g>
</svg>