<svg xmlns="http://www.w3.org/2000/svg" xmlns:xlink="http://www.w3.org/1999/xlink" viewBox="0 0 276.25 253.89"><defs><style>.cls-1{fill:#f5f5f5;}.cls-2{fill:url(#Dégradé_sans_nom_27);}.cls-3{fill:#fff;}.cls-4{fill:#99ca3d;}.cls-5{fill:#ff0;}.cls-6{fill:#fc1a02;}.cls-7{opacity:0.2;}.cls-25,.cls-8{fill:#006cb0;}.cls-9{fill:url(#Dégradé_sans_nom_27-2);}.cls-10{fill:url(#Dégradé_sans_nom_27-3);}.cls-11{fill:url(#Dégradé_sans_nom_27-4);}.cls-12{fill:#ffb700;}.cls-13{fill:url(#Dégradé_sans_nom_27-5);}.cls-14{fill:#99a4b2;}.cls-15{fill:#c07c64;}.cls-15,.cls-23,.cls-24,.cls-25,.cls-26,.cls-27,.cls-28,.cls-31{fill-rule:evenodd;}.cls-16,.cls-27{fill:#205081;}.cls-17{fill:url(#Dégradé_sans_nom_27-6);}.cls-18{fill:url(#Dégradé_sans_nom_27-7);}.cls-19,.cls-26{fill:#002841;}.cls-19{stroke:#002841;stroke-width:1.48px;}.cls-19,.cls-23,.cls-28,.cls-29{stroke-miterlimit:10;}.cls-20{fill:url(#Dégradé_sans_nom_27-8);}.cls-21{fill:#0081d5;}.cls-22{fill:url(#Dégradé_sans_nom_27-9);}.cls-23{fill:#fdfeff;}.cls-23,.cls-28{stroke:#205081;stroke-width:1.57px;}.cls-24,.cls-29{fill:#e2987d;}.cls-28{fill:#cdced2;}.cls-29{stroke:#004f81;stroke-width:1.31px;}.cls-30,.cls-31{fill:#004f81;}</style><linearGradient id="Dégradé_sans_nom_27" x1="86.39" y1="1371.22" x2="86.39" y2="1586.54" gradientTransform="matrix(1, 0, 0, -1, 0, 1586.54)" gradientUnits="userSpaceOnUse"><stop offset="0" stop-color="gray" stop-opacity="0.25"/><stop offset="0.54" stop-color="gray" stop-opacity="0.12"/><stop offset="1" stop-color="gray" stop-opacity="0.1"/></linearGradient><linearGradient id="Dégradé_sans_nom_27-2" x1="44.33" y1="1485.55" x2="44.33" y2="1552.41" xlink:href="#Dégradé_sans_nom_27"/><linearGradient id="Dégradé_sans_nom_27-3" x1="128.11" y1="1452.13" x2="128.11" y2="1518.98" xlink:href="#Dégradé_sans_nom_27"/><linearGradient id="Dégradé_sans_nom_27-4" x1="198.6" y1="1397.59" x2="198.6" y2="1451.42" gradientTransform="matrix(1, 0, 0, -1, -154.5, 1492.06)" xlink:href="#Dégradé_sans_nom_27"/><linearGradient id="Dégradé_sans_nom_27-5" x1="129.2" y1="1499.88" x2="129.2" y2="1507.69" xlink:href="#Dégradé_sans_nom_27"/><linearGradient id="Dégradé_sans_nom_27-6" x1="266.87" y1="1335.51" x2="266.87" y2="1346.37" xlink:href="#Dégradé_sans_nom_27"/><linearGradient id="Dégradé_sans_nom_27-7" x1="191.35" y1="1341.43" x2="191.35" y2="1401.16" xlink:href="#Dégradé_sans_nom_27"/><linearGradient id="Dégradé_sans_nom_27-8" x1="129.4" y1="1362.16" x2="129.4" y2="1389.31" xlink:href="#Dégradé_sans_nom_27"/><linearGradient id="Dégradé_sans_nom_27-9" x1="118.3" y1="1335.51" x2="118.3" y2="1346.37" xlink:href="#Dégradé_sans_nom_27"/></defs><title>v2Fichier 9</title><g id="Calque_2" data-name="Calque 2"><g id="svg923"><rect class="cls-1" x="3.31" y="2.01" width="166.26" height="6.29"/><rect class="cls-2" width="172.77" height="215.32"/><rect class="cls-3" x="3.31" y="8.3" width="166.26" height="199.47"/><circle class="cls-4" cx="7.16" cy="5.27" r="1.52"/><circle class="cls-5" cx="11.34" cy="5.27" r="1.52"/><circle class="cls-6" cx="15.52" cy="5.27" r="1.52"/><g class="cls-7"><rect class="cls-8" x="13.73" y="17.2" width="145.86" height="3.91"/></g><rect class="cls-9" x="12.86" y="34.13" width="62.95" height="66.85"/><rect class="cls-3" x="14.16" y="36.3" width="60.34" height="62.51"/><rect class="cls-10" x="96.64" y="67.56" width="62.95" height="66.85"/><rect class="cls-3" x="97.94" y="69.73" width="60.34" height="62.51"/><path class="cls-11" d="M64.5,50A26.9,26.9,0,1,0,71,67.56,26.91,26.91,0,0,0,64.5,50ZM53.65,83.63A18.66,18.66,0,1,1,62.8,67.57a18.65,18.65,0,0,1-9.15,16.06Z"/><path class="cls-4" d="M57.59,56l5.93-5.1A25.54,25.54,0,0,0,44.11,42v7.81A17.76,17.76,0,0,1,57.59,56Z"/><path class="cls-6" d="M44.11,85.35a17.54,17.54,0,0,1-7.34-1.59l-3.23,7.12a25.6,25.6,0,0,0,23.66-1.3l-4-6.72A17.61,17.61,0,0,1,44.11,85.35Z"/><path class="cls-12" d="M69.73,67.56a25.54,25.54,0,0,0-6.21-16.71L57.59,56A17.77,17.77,0,0,1,55.78,81a17.55,17.55,0,0,1-2.58,1.85l4,6.73A25.63,25.63,0,0,0,69.73,67.56Z"/><path class="cls-8" d="M26.32,67.56a17.79,17.79,0,0,1,17.79-17.8h0V41.94A25.61,25.61,0,0,0,33.54,90.88l3.23-7.12A17.79,17.79,0,0,1,26.32,67.56Z"/><rect class="cls-13" x="106.19" y="78.85" width="46.02" height="7.81"/><rect class="cls-8" x="106.63" y="79.28" width="45.15" height="6.95"/><rect class="cls-4" x="106.63" y="91" width="32.99" height="6.95"/><rect class="cls-6" x="106.63" y="102.72" width="22.57" height="6.95"/><rect class="cls-12" x="106.63" y="114.44" width="40.81" height="6.95"/><rect class="cls-1" x="14.16" y="111.4" width="64.68" height="3.91"/><rect class="cls-1" x="14.16" y="117.92" width="36.46" height="3.91"/><rect class="cls-1" x="57.14" y="117.92" width="12.59" height="3.91"/><rect class="cls-1" x="14.16" y="124.43" width="64.68" height="3.91"/><rect class="cls-1" x="95.77" y="34.57" width="64.68" height="3.91"/><rect class="cls-1" x="95.77" y="41.08" width="36.46" height="3.91"/><rect class="cls-1" x="138.75" y="41.08" width="12.59" height="3.91"/><rect class="cls-1" x="138.75" y="55.41" width="12.59" height="3.91"/><rect class="cls-1" x="95.77" y="54.1" width="36.46" height="3.91"/><rect class="cls-1" x="95.77" y="47.59" width="64.68" height="3.91"/><ellipse id="ellipse802" class="cls-14" cx="77.64" cy="252.58" rx="41.19" ry="1.31"/><ellipse id="ellipse703" class="cls-14" cx="195.36" cy="252.58" rx="79.25" ry="1.14"/><g id="arm1"><path id="path878" class="cls-15" d="M109.81,164.29a.77.77,0,0,0,.76-.76.68.68,0,0,0,0-.14,4,4,0,0,0-4-3.33,4.37,4.37,0,0,0-4.22,4.33c0,.62.13.17.37.61a.17.17,0,0,0,.15.06c.17,0,.55-.06.77-.1a.17.17,0,0,0,.16-.16c-.06-.17.14-.1.15-.43a2.69,2.69,0,0,1,2.59-2.66,2.45,2.45,0,0,1,2.41,1.9.88.88,0,0,0,.87.67Z"/><path id="path880" class="cls-16" d="M109.48,164.7a1.85,1.85,0,0,1-.92-1c-.39-1.63-3-2.22-3.91-.57-.44.84,0,1.45-1,1.9,0,0-.86.2-1.09,0-.69-.56-.59-.71-.47-1.51a4.89,4.89,0,0,1,3.89-3.75,4.28,4.28,0,0,1,4.51,2.23c.49,1,.43,2.65-1,2.64m-3.93-4.17a4.17,4.17,0,0,0-2.73,2.89,5.1,5.1,0,0,0-.13.68c0,.45.85.45.79.2.27-2.36,2.55-3.83,4.59-2.54a2.89,2.89,0,0,1,1,1.18c.09.18.13,1,.56,1s.58-.68.47-1a3.81,3.81,0,0,0-4.45-2.45l-.14,0"/></g><circle class="cls-17" cx="266.87" cy="245.6" r="5.43"/><circle class="cls-4" cx="266.87" cy="245.6" r="3.95"/><rect class="cls-18" x="106.45" y="185.38" width="169.8" height="59.73"/><rect class="cls-3" x="111.39" y="187.85" width="161.9" height="46.89"/><line class="cls-19" x1="116.82" y1="225.86" x2="266.87" y2="225.86"/><rect class="cls-20" x="118.3" y="197.23" width="22.21" height="27.15"/><rect class="cls-8" x="119.53" y="198.46" width="19.74" height="25.17"/><rect class="cls-6" x="243.18" y="216.48" width="19.74" height="7.9"/><rect class="cls-12" x="206.16" y="206.11" width="19.74" height="17.77"/><rect class="cls-4" x="162.72" y="209.08" width="19.74" height="14.81"/><rect class="cls-21" x="111.39" y="234.74" width="161.9" height="6.91"/><circle class="cls-22" cx="118.3" cy="245.6" r="5.43"/><path class="cls-23" d="M75.61,142.12c.15.34,6.75,19.42,6.75,19.42l20,1a2.06,2.06,0,0,1-.35,3.09c-1.82,1.32-21.55,5.58-23.06,2.58s-9.06-17.87-9.06-17.87Z"/><polygon class="cls-24" points="96.77 235.7 96.81 236.04 98.17 245.64 101.99 244.5 100.3 235.23 96.77 235.7"/><polygon class="cls-24" points="51.71 235.32 51.58 235.63 47.87 244.59 51.74 245.56 54.99 236.71 51.71 235.32"/><path class="cls-25" d="M84.78,210.52l0-.07c-6.48-10.88-16.26-28.35-16.67-31.89-.46-3.94,5-5.15,5.24-5.2l.11,0a5.59,5.59,0,0,1,1.49-.19c1.78,0,4.2.75,5.64,4.31,2.66,6.56,11,32,11.12,32.3l0,.09c5,11.65,9.76,24.93,9.08,27-.33,1-2.26,1.43-4.11,1.47Z"/><path class="cls-16" d="M74.91,174.32h0c2.09,0,3.58,1.17,4.55,3.57,2.65,6.52,11,32,11.09,32.22l0,.1,0,.1c4.57,10.63,9.27,23.53,9,26.14a4.52,4.52,0,0,1-2.23.63l-11.53-27-.06-.14-.08-.14c-6.64-11.15-16.14-28.27-16.51-31.42-.34-2.87,4.27-3.91,4.3-3.92l.09,0,.12,0a4.07,4.07,0,0,1,1.16-.14m0-2.35a6.75,6.75,0,0,0-1.85.24s-6.75,1.41-6.16,6.49,16.82,32.35,16.82,32.35l12.17,28.41h.51c1.33,0,4.79-.2,5.49-2.28,1.24-3.7-9.11-27.81-9.11-27.81S84.35,183.68,81.64,177c-1.73-4.28-4.77-5-6.73-5Z"/><path class="cls-26" d="M97.32,245.17V252l21.05-6.14a20.17,20.17,0,0,0-5.13-3.38c-3.38-1.51-9.16,2.14-9.16,2.14l-1.61-2.7Z"/><path class="cls-27" d="M76,172.87s6.22,3.47,6,7.29-11.14,34.51-12.15,35.22-15.19,25.06-15.19,25.06l-5.45-1.16,12.71-28.21s4-36.44,7.13-37.58A16.51,16.51,0,0,1,76,172.87Z"/><path class="cls-26" d="M46.83,243.9l-2.24,6.47,21.91,1.06a20.17,20.17,0,0,0-3.75-4.86c-2.7-2.53-9.35-1-9.35-1l-.65-3.07Z"/><path class="cls-28" d="M75.34,137.74a2.82,2.82,0,0,1,1.29.72c.9,1,1.76,2,2.61,3s1.79,2.16,2.59,3.31a5.71,5.71,0,0,1,1.27,2.51A24.71,24.71,0,0,1,82,153.4l-1.11,22-13.36.89L65.4,154c-.13-1.65-.17-3.31-.16-5a22.75,22.75,0,0,1,1.17-8.16,5.29,5.29,0,0,1,3.12-3.19,6.85,6.85,0,0,1,2-.23A14.23,14.23,0,0,1,75.34,137.74Z"/><path class="cls-28" d="M69.57,138c1.37-.66,3.25-2.32,7.05,0s6,24.12,6,24.12l16.89-4.8,1.07,2.93-21,8.72-12.48-24.9S66.9,140.08,69.57,138Z"/><rect class="cls-21" x="103.83" y="156.33" width="4.19" height="86.45"/><g id="arm1-2" data-name="arm1"><path id="path878-2" data-name="path878" class="cls-15" d="M107.27,158.9a.77.77,0,0,0,.75-.77.66.66,0,0,0,0-.14,4,4,0,0,0-4-3.32A4.38,4.38,0,0,0,99.79,159c0,.62.13.17.38.61a.13.13,0,0,0,.14.06c.18,0,.55-.06.78-.09a.2.2,0,0,0,.16-.17c-.06-.17.14-.1.14-.43a2.68,2.68,0,0,1,2.59-2.65,2.47,2.47,0,0,1,2.42,1.89.87.87,0,0,0,.87.67Z"/><path id="path880-2" data-name="path880" class="cls-16" d="M106.93,159.3a1.85,1.85,0,0,1-.91-1c-.39-1.63-3.06-2.21-3.91-.57-.44.85,0,1.46-1,1.91,0,0-.87.19-1.09,0-.7-.56-.6-.71-.47-1.51a4.89,4.89,0,0,1,3.88-3.75,4.31,4.31,0,0,1,4.52,2.23c.48,1,.42,2.65-1,2.64M103,155.14a4.18,4.18,0,0,0-2.73,2.88,3.82,3.82,0,0,0-.12.69c0,.44.85.44.78.19.27-2.36,2.56-3.83,4.59-2.54a3,3,0,0,1,1,1.18c.09.18.12,1,.56,1s.57-.68.47-1a3.82,3.82,0,0,0-4.46-2.45l-.14,0"/></g><path class="cls-29" d="M74.17,137.52l1.27-4.41s5.42,1.57,6.35-3.43S79,119.21,78.8,119s-3.36-3.13-6.46-2.12-6.67,2.5-6.74,4.13-.61,7.5.58,8.3S71.05,132,71.05,132l-1.48,6Z"/><ellipse class="cls-30" cx="78.17" cy="123.29" rx="0.9" ry="1.15" transform="translate(-24.5 19.52) rotate(-12.32)"/><path class="cls-31" d="M80.87,119l-7.6,3.86-.73-.5-2,12s-10.34,5.61-13.71.3,6-4.2,6-4.2-6.07-11.8,3.67-15.74C77.58,110.32,80.87,119,80.87,119Z"/></g></g></svg>