<svg width="50" height="50" xmlns="http://www.w3.org/2000/svg">
  <circle fill="#0053b3" cx="25" cy="25" r="25"/>
  <path fill="#fff" d="M 16.812 33.565 L 16.812 35.786 L 14.458 35.786 L 14.458 33.565 L 16.812 33.565 Z M 19.166 31.345 L 12.104 31.345 L 12.104 38.005 L 19.166 38.005 L 19.166 31.345 Z M 26.229 30.236 L 26.229 35.786 L 23.875 35.786 L 23.875 30.236 L 26.229 30.236 Z M 28.583 28.016 L 21.521 28.016 L 21.521 38.005 L 28.583 38.005 L 28.583 28.016 Z M 35.647 25.795 L 35.647 35.786 L 33.293 35.786 L 33.293 25.795 L 35.647 25.795 Z M 38.001 23.576 L 30.938 23.576 L 30.938 38.005 L 38.001 38.005 L 38.001 23.576 Z M 38.001 11.367 L 30.938 12.722 L 32.959 14.618 L 24.895 22.091 L 21.362 18.758 L 12.132 27.413 L 13.792 28.987 L 21.357 21.894 L 24.878 25.217 L 34.625 16.185 L 36.588 18.027 L 38.001 11.367 Z"/>
</svg>
