<svg width="50" height="50" xmlns="http://www.w3.org/2000/svg">
  <circle fill="#0053b3" cx="25" cy="25" r="25"/>
  <path fill="#fff" d="M 38.868 11.745 C 38.868 11.03 38.295 10.247 37.353 10.247 L 13.12 10.247 C 12.181 10.247 11.605 11.025 11.605 11.745 L 11.605 35.732 C 11.605 36.663 12.391 37.231 13.12 37.231 L 37.353 37.231 C 38.078 37.231 38.868 36.663 38.868 35.732 L 38.868 11.745 Z M 13.877 12.495 L 36.596 12.495 L 36.596 34.982 L 13.877 34.982 L 13.877 12.495 Z M 17.587 24.312 L 23.419 29.454 C 23.635 29.645 23.905 29.738 24.175 29.738 C 24.481 29.738 24.789 29.617 25.011 29.376 L 34.029 19.618 C 34.227 19.403 34.324 19.133 34.324 18.865 C 34.324 18.251 33.823 17.745 33.192 17.745 C 32.883 17.745 32.578 17.868 32.352 18.109 L 24.094 27.047 L 19.097 22.644 C 18.881 22.452 18.612 22.358 18.343 22.358 C 17.714 22.358 17.209 22.86 17.209 23.477 C 17.209 23.784 17.335 24.09 17.587 24.312 Z"></path>
</svg>
