<svg width="50" height="50" xmlns="http://www.w3.org/2000/svg">
  <circle fill="#0053b3" cx="25" cy="25" r="25"/>
  <path fill="#fff" d="M 30.124 28.743 L 26.205 28.743 L 26.205 35.672 L 23.591 35.672 L 23.591 28.743 L 19.672 28.743 L 24.899 23.2 L 30.124 28.743 Z M 34.671 20.554 C 34.394 15.08 30.133 10.726 24.899 10.726 C 19.664 10.726 15.402 15.08 15.126 20.554 C 11.768 21.197 9.219 24.306 9.219 28.05 C 9.219 32.259 12.436 35.672 16.406 35.672 L 20.979 35.672 L 20.979 32.9 L 16.406 32.9 C 13.884 32.9 11.833 30.725 11.833 28.05 C 11.833 24.174 15.071 22.738 17.624 22.894 C 17.407 17.049 20.51 13.498 24.899 13.498 C 29.41 13.498 32.595 17.374 32.173 22.894 C 34.452 22.831 37.964 23.934 37.964 28.05 C 37.964 30.725 35.913 32.9 33.391 32.9 L 28.819 32.9 L 28.819 35.672 L 33.391 35.672 C 37.36 35.672 40.577 32.259 40.577 28.05 C 40.577 24.306 38.028 21.197 34.671 20.554 Z"></path>
</svg>
