<svg width="50" height="50" xmlns="http://www.w3.org/2000/svg">
  <circle fill="#0053b3" cx="25" cy="25" r="25"/>
  <path fill="#fff" d="M 25.377 11.5 C 18.765 11.5 13.312 16.392 12.403 22.75 L 8.5 22.75 L 13.501 30.148 L 18.499 22.75 L 14.942 22.75 C 15.829 17.787 20.16 13.999 25.377 13.999 C 31.234 13.999 36.001 18.766 36.001 24.627 C 36.001 30.484 31.234 35.251 25.377 35.251 C 21.607 35.251 18.299 33.272 16.412 30.304 L 14.912 32.523 C 17.308 35.691 21.097 37.75 25.377 37.75 C 32.621 37.75 38.5 31.872 38.5 24.627 C 38.5 17.378 32.621 11.5 25.377 11.5 Z"></path>
</svg>
