<svg xmlns="http://www.w3.org/2000/svg" width="50" height="50">
  <circle cx="25" cy="25" r="25" fill="#0053b3"/>
  <path fill="#fff" d="M34.631 26.619c0 .647-.552 1.172-1.232 1.172s-1.231-.525-1.231-1.172c0-.648.552-1.173 1.231-1.173.68 0 1.232.525 1.232 1.173m-3.695 0c0 .647-.551 1.172-1.231 1.172s-1.232-.525-1.232-1.172c0-.648.552-1.173 1.232-1.173s1.231.525 1.231 1.173m-3.694 0c0 .647-.552 1.172-1.232 1.172s-1.231-.525-1.231-1.172c0-.648.551-1.173 1.231-1.173s1.232.525 1.232 1.173m6.668 5.8c-1.231.3-2.449.565-4.093.565-4.268 0-8.733-2.422-8.733-6.36 0-3.668 3.867-6.651 8.621-6.651 4.734 0 8.621 2.981 8.621 6.651 0 1.866-.796 2.964-1.824 4.136l1.033 3.15zm-16.469-3.958-5.405 2.223 1.547-4.705c-1.381-1.572-2.351-3.125-2.351-5.51 0-5.016 5.248-9.095 11.699-9.095 6.18 0 11.242 3.745 11.659 8.469a11.9 11.9 0 0 0-4.885-1.043c-5.172 0-9.853 3.28-9.853 7.824 0 .835.181 1.642.507 2.403-1.174-.148-1.904-.319-2.918-.566m22.116-1.837c0-2.547-1.477-4.708-3.697-6.109l.002-.046c0-5.964-6.143-10.268-12.931-10.268-6.83 0-12.931 4.337-12.931 10.268 0 2.104.796 4.17 2.206 5.772l-2.148 6.534 7.485-3.078c1.21.297 2.38.477 3.51.573 1.622 2.291 4.774 3.887 8.764 3.887 1.255 0 2.592-.159 3.992-.502L39.513 36l-1.636-4.978c1.073-1.222 1.68-2.796 1.68-4.398"/>
</svg>