<?xml version="1.0" encoding="UTF-8" standalone="no"?>
<!-- Created with Inkscape (http://www.inkscape.org/) -->

<svg
   xmlns:serif="http://www.serif.com/"
   xmlns:dc="http://purl.org/dc/elements/1.1/"
   xmlns:cc="http://creativecommons.org/ns#"
   xmlns:rdf="http://www.w3.org/1999/02/22-rdf-syntax-ns#"
   xmlns:svg="http://www.w3.org/2000/svg"
   xmlns="http://www.w3.org/2000/svg"
   xmlns:sodipodi="http://sodipodi.sourceforge.net/DTD/sodipodi-0.dtd"
   xmlns:inkscape="http://www.inkscape.org/namespaces/inkscape"
   width="194.85651mm"
   height="4.853724mm"
   viewBox="0 0 194.85651 4.8537241"
   version="1.1"
   id="svg2022"
   inkscape:version="0.92.3 (2405546, 2018-03-11)"
   sodipodi:docname="tgv.svg">
  <defs
     id="defs2016">
    <clipPath
       id="_clip12">
      <path
         id="path376"
         d="m 2408.26,1078.25 h -280.71 l -0.57,-0.11 -0.49,-0.33 -0.33,-0.49 -0.11,-0.57 v -46.28 l 0.11,-0.58 c 0.33,-0.48 0.33,-0.49 0.82,-0.81 l 0.57,-0.12 h 280.71 l 0.58,0.12 0.48,0.32 0.33,0.49 0.11,0.58 v 46.28 c -0.11,0.57 -0.11,0.58 -0.44,1.06 l -0.48,0.33 z"
         inkscape:connector-curvature="0" />
    </clipPath>
    <clipPath
       id="_clip11">
      <path
         id="path335"
         d="m 2408.26,1078.25 h -280.71 l -0.57,-0.11 -0.49,-0.33 -0.33,-0.49 -0.11,-0.57 v -46.28 l 0.11,-0.58 c 0.33,-0.48 0.33,-0.49 0.82,-0.81 l 0.57,-0.12 h 280.71 l 0.58,0.12 0.48,0.32 0.33,0.49 0.11,0.58 v 46.28 c -0.11,0.57 -0.11,0.58 -0.44,1.06 l -0.48,0.33 z"
         inkscape:connector-curvature="0" />
    </clipPath>
    <clipPath
       id="_clip10">
      <path
         id="path294"
         d="m 2408.26,1078.25 h -280.71 l -0.57,-0.11 -0.49,-0.33 -0.33,-0.49 -0.11,-0.57 v -46.28 l 0.11,-0.58 c 0.33,-0.48 0.33,-0.49 0.82,-0.81 l 0.57,-0.12 h 280.71 l 0.58,0.12 0.48,0.32 0.33,0.49 0.11,0.58 v 46.28 c -0.11,0.57 -0.11,0.58 -0.44,1.06 l -0.48,0.33 z"
         inkscape:connector-curvature="0" />
    </clipPath>
    <clipPath
       id="_clip9">
      <path
         id="path253"
         d="m 2408.26,1078.25 h -280.71 l -0.57,-0.11 -0.49,-0.33 -0.33,-0.49 -0.11,-0.57 v -46.28 l 0.11,-0.58 c 0.33,-0.48 0.33,-0.49 0.82,-0.81 l 0.57,-0.12 h 280.71 l 0.58,0.12 0.48,0.32 0.33,0.49 0.11,0.58 v 46.28 c -0.11,0.57 -0.11,0.58 -0.44,1.06 l -0.48,0.33 z"
         inkscape:connector-curvature="0" />
    </clipPath>
    <clipPath
       id="_clip8">
      <path
         id="path212"
         d="m 2408.26,1078.25 h -280.71 l -0.57,-0.11 -0.49,-0.33 -0.33,-0.49 -0.11,-0.57 v -46.28 l 0.11,-0.58 c 0.33,-0.48 0.33,-0.49 0.82,-0.81 l 0.57,-0.12 h 280.71 l 0.58,0.12 0.48,0.32 0.33,0.49 0.11,0.58 v 46.28 c -0.11,0.57 -0.11,0.58 -0.44,1.06 l -0.48,0.33 z"
         inkscape:connector-curvature="0" />
    </clipPath>
    <clipPath
       id="_clip7">
      <path
         id="path171"
         d="m 2408.26,1078.25 h -280.71 l -0.57,-0.11 -0.49,-0.33 -0.33,-0.49 -0.11,-0.57 v -46.28 l 0.11,-0.58 c 0.33,-0.48 0.33,-0.49 0.82,-0.81 l 0.57,-0.12 h 280.71 l 0.58,0.12 0.48,0.32 0.33,0.49 0.11,0.58 v 46.28 c -0.11,0.57 -0.11,0.58 -0.44,1.06 l -0.48,0.33 z"
         inkscape:connector-curvature="0" />
    </clipPath>
    <clipPath
       id="_clip6">
      <path
         id="path130"
         d="m 1824.9,1078.49 h -266.12 c -7.09,-0.02 -16.18,-1.39 -16.11,-8.6 0.05,-4.82 4.07,-8.42 7.27,-11.48 13.13,-12.51 28.89,-22.53 46.54,-26.79 3.01,-0.73 8.85,-1.91 9.14,-1.95 l 0.65,-0.09 c 0,0 3.92,-0.83 5.97,-0.86 h 212.66 l 0.67,0.14 0.56,0.38 0.38,0.56 0.13,0.67 v 46.28 l -0.13,0.66 -0.38,0.57 -0.56,0.38 z"
         inkscape:connector-curvature="0" />
    </clipPath>
    <clipPath
       id="_clip5">
      <path
         id="path88"
         d="m 1824.9,1078.49 h -266.12 c -7.09,-0.02 -16.18,-1.39 -16.11,-8.6 0.05,-4.82 4.07,-8.42 7.27,-11.48 13.13,-12.51 28.89,-22.53 46.54,-26.79 3.01,-0.73 8.85,-1.91 9.14,-1.95 l 0.65,-0.09 c 0,0 3.92,-0.83 5.97,-0.86 h 212.66 l 0.67,0.14 0.56,0.38 0.38,0.56 0.13,0.67 v 46.28 l -0.13,0.66 -0.38,0.57 -0.56,0.38 z"
         inkscape:connector-curvature="0" />
    </clipPath>
  </defs>
  <sodipodi:namedview
     id="base"
     pagecolor="#ffffff"
     bordercolor="#666666"
     borderopacity="1.0"
     inkscape:pageopacity="0.0"
     inkscape:pageshadow="2"
     inkscape:zoom="4.6375"
     inkscape:cx="105.62506"
     inkscape:cy="54.188775"
     inkscape:document-units="mm"
     inkscape:current-layer="layer1"
     showgrid="false"
     inkscape:window-width="1853"
     inkscape:window-height="1025"
     inkscape:window-x="1987"
     inkscape:window-y="27"
     inkscape:window-maximized="1" />
  <metadata
     id="metadata2019">
    <rdf:RDF>
      <cc:Work
         rdf:about="">
        <dc:format>image/svg+xml</dc:format>
        <dc:type
           rdf:resource="http://purl.org/dc/dcmitype/StillImage" />
        <dc:title></dc:title>
      </cc:Work>
    </rdf:RDF>
  </metadata>
  <g
     inkscape:label="Layer 1"
     inkscape:groupmode="layer"
     id="layer1"
     transform="translate(-9.2251801,-158.6621)">
    <g
       style="clip-rule:evenodd;fill-rule:evenodd;stroke-linejoin:round;stroke-miterlimit:2"
       transform="matrix(0.08371526,0,0,0.08371526,-119.71055,72.751823)"
       serif:id="(Courbes)"
       id="_-Courbes-">
      <path
         id="path60"
         style="fill:#8393a7;stroke:#8393a7;stroke-width:3.00999999px;stroke-linecap:round;stroke-miterlimit:1.5"
         d="m 1822.5,1035.7 h 15.63 v 35.46 h -15.63 z m 290.82,0 h 15.63 v 35.46 h -15.63 z"
         inkscape:connector-curvature="0" />
    </g>
    <g
       style="clip-rule:evenodd;fill-rule:evenodd;stroke-linejoin:round;stroke-miterlimit:2"
       transform="matrix(0.08371526,0,0,0.08371526,-70.904555,72.751823)"
       serif:id="(Courbes)"
       id="_-Courbes-1">
      <path
         id="path63"
         style="fill:#8393a7;stroke:#8393a7;stroke-width:3.00999999px;stroke-linecap:round;stroke-miterlimit:1.5"
         d="m 1822.5,1035.7 h 15.63 v 35.46 h -15.63 z m 290.82,0 h 15.63 v 35.46 h -15.63 z"
         inkscape:connector-curvature="0" />
    </g>
    <g
       style="clip-rule:evenodd;fill-rule:evenodd;stroke-linejoin:round;stroke-miterlimit:2"
       transform="matrix(0.08371526,0,0,0.08371526,-22.433418,72.751823)"
       serif:id="(Courbes)"
       id="_-Courbes-2">
      <path
         id="path66"
         style="fill:#8393a7;stroke:#8393a7;stroke-width:3.00999999px;stroke-linecap:round;stroke-miterlimit:1.5"
         d="m 1822.5,1035.7 h 15.63 v 35.46 h -15.63 z m 290.82,0 h 15.63 v 35.46 h -15.63 z"
         inkscape:connector-curvature="0" />
    </g>
    <g
       style="clip-rule:evenodd;fill-rule:evenodd;stroke-linejoin:round;stroke-miterlimit:2"
       transform="matrix(0.08371526,0,0,0.08371526,2.1788683,72.751823)"
       serif:id="(Courbes)"
       id="_-Courbes-3">
      <path
         id="path69"
         style="fill:#8393a7;stroke:#8393a7;stroke-width:3.00999999px;stroke-linecap:round;stroke-miterlimit:1.5"
         d="m 1822.5,1035.7 h 15.63 v 35.46 h -15.63 z m 290.82,0 h 15.63 v 35.46 h -15.63 z"
         inkscape:connector-curvature="0" />
    </g>
    <g
       style="clip-rule:evenodd;fill-rule:evenodd;stroke-linejoin:round;stroke-miterlimit:2"
       id="g112"
       transform="matrix(0.08371526,0,0,0.08371526,-270.39799,72.751823)">
      <g
         id="g82"
         transform="translate(1800)">
        <circle
           id="circle72"
           style="fill:#53657d"
           r="5.1090002"
           cy="1079.09"
           cx="1581.16" />
        <circle
           id="circle74"
           style="fill:#53657d"
           r="5.1090002"
           cy="1079.09"
           cx="1616.63" />
        <g
           id="g80">
          <circle
             id="circle76"
             style="fill:#53657d"
             r="5.1090002"
             cy="1079.09"
             cx="1760.29" />
          <circle
             id="circle78"
             style="fill:#53657d"
             r="5.1090002"
             cy="1079.09"
             cx="1795.75" />
        </g>
      </g>
      <g
         id="g86"
         transform="translate(1800)">
        <path
           id="path84"
           style="fill:#99a4b2"
           d="m 1824.9,1078.49 h -266.12 c -7.09,-0.02 -16.18,-1.39 -16.11,-8.6 0.05,-4.82 4.07,-8.42 7.27,-11.48 13.13,-12.51 28.89,-22.53 46.54,-26.79 3.01,-0.73 8.85,-1.91 9.14,-1.95 l 0.65,-0.09 c 0,0 3.92,-0.83 5.97,-0.86 h 212.66 l 0.67,0.14 0.56,0.38 0.38,0.56 0.13,0.67 v 46.28 l -0.13,0.66 -0.38,0.57 -0.56,0.38 z"
           inkscape:connector-curvature="0" />
      </g>
      <g
         id="g106"
         transform="translate(1800)">
        <clipPath
           id="clipPath1834">
          <path
             id="path1832"
             d="m 1824.9,1078.49 h -266.12 c -7.09,-0.02 -16.18,-1.39 -16.11,-8.6 0.05,-4.82 4.07,-8.42 7.27,-11.48 13.13,-12.51 28.89,-22.53 46.54,-26.79 3.01,-0.73 8.85,-1.91 9.14,-1.95 l 0.65,-0.09 c 0,0 3.92,-0.83 5.97,-0.86 h 212.66 l 0.67,0.14 0.56,0.38 0.38,0.56 0.13,0.67 v 46.28 l -0.13,0.66 -0.38,0.57 -0.56,0.38 z"
             inkscape:connector-curvature="0" />
        </clipPath>
        <g
           id="g104"
           clip-path="url(#_clip5)">
          <path
             style="fill:#c9d3df"
             d="m 1824.9,1071.16 h -266.12 c -7.09,-0.02 -16.18,-1.06 -16.11,-6.58 0.05,-3.7 4.07,-6.46 7.27,-8.8 13.13,-9.59 28.89,-17.26 46.54,-20.53 3.01,-0.55 8.85,-1.46 9.14,-1.49 l 0.65,-0.07 c 0,0 3.92,-0.63 5.97,-0.65 h 212.66 l 0.67,0.1 0.56,0.29 0.38,0.43 0.13,0.51 v 35.46 l -0.13,0.51 -0.38,0.43 -0.56,0.29 z"
             id="head"
             inkscape:connector-curvature="0" />
          <path
             id="path92"
             style="fill:#006cb0"
             d="m 1844.91,1047.12 h -232.8 c -3.97,0 -7.91,0.7 -11.63,2.07 l -79.44,29.3 323.87,-0.17 z"
             inkscape:connector-curvature="0" />
          <path
             id="path94"
             style="fill:#c9d3df"
             d="m 1826.65,1071.16 h -221.74 c -2.31,0 -4.21,1.9 -4.21,4.21 v 3.11 h 225.95 z"
             inkscape:connector-curvature="0" />
          <path
             id="path96"
             style="fill:#002841"
             d="m 1639.17,1035.1 h 76.34 v 6.61 h -76.34 z m 0,18.5 h 174.31 v 12.15 h -174.31 z"
             inkscape:connector-curvature="0" />
          <path
             id="path98"
             style="fill:#002841;stroke:#374355;stroke-width:1.45000005px;stroke-linecap:round;stroke-miterlimit:1.5"
             d="m 1580.3,1042.55 13.28,-4.41 -1.65,6.14 -6.64,2.21 z"
             inkscape:connector-curvature="0" />
          <path
             id="path100"
             style="fill:#002841"
             d="m 1629.55,1071.16 h -18.03 v -28.25 h 18.03 z m -16.59,-26.81 v 25.37 h 15.15 v -25.37 z"
             inkscape:connector-curvature="0" />
          <rect
             id="rect102"
             style="fill:#99a4b2"
             height="3.1700001"
             width="300.84299"
             y="1075.1899"
             x="1532.78" />
        </g>
      </g>
      <g
         id="g110"
         transform="translate(1800)">
        <path
           id="path108"
           style="fill:none;stroke:#205081;stroke-width:5px;stroke-miterlimit:1.41400003"
           d="m 1824.9,1078.49 h -266.12 c -7.09,-0.02 -16.18,-1.39 -16.11,-8.6 0.05,-4.82 4.07,-8.42 7.27,-11.48 13.13,-12.51 28.89,-22.53 46.54,-26.79 3.01,-0.73 8.85,-1.91 9.14,-1.95 l 0.65,-0.09 c 0,0 3.92,-0.83 5.97,-0.86 h 212.66 l 0.67,0.14 0.56,0.38 0.38,0.56 0.13,0.67 v 46.28 l -0.13,0.66 -0.38,0.57 -0.56,0.38 z"
           inkscape:connector-curvature="0" />
      </g>
    </g>
    <g
       style="clip-rule:evenodd;fill-rule:evenodd;stroke-linejoin:round;stroke-miterlimit:2"
       id="g154"
       transform="matrix(-0.08371526,0,0,0.08371526,483.70485,72.751823)">
      <g
         id="g124"
         transform="translate(1800)">
        <circle
           id="circle114"
           style="fill:#53657d"
           r="5.1090002"
           cy="1079.09"
           cx="1581.16" />
        <circle
           id="circle116"
           style="fill:#53657d"
           r="5.1090002"
           cy="1079.09"
           cx="1616.63" />
        <g
           id="g122">
          <circle
             id="circle118"
             style="fill:#53657d"
             r="5.1090002"
             cy="1079.09"
             cx="1760.29" />
          <circle
             id="circle120"
             style="fill:#53657d"
             r="5.1090002"
             cy="1079.09"
             cx="1795.75" />
        </g>
      </g>
      <g
         id="g128"
         transform="translate(1800)">
        <path
           id="path126"
           style="fill:#99a4b2"
           d="m 1824.9,1078.49 h -266.12 c -7.09,-0.02 -16.18,-1.39 -16.11,-8.6 0.05,-4.82 4.07,-8.42 7.27,-11.48 13.13,-12.51 28.89,-22.53 46.54,-26.79 3.01,-0.73 8.85,-1.91 9.14,-1.95 l 0.65,-0.09 c 0,0 3.92,-0.83 5.97,-0.86 h 212.66 l 0.67,0.14 0.56,0.38 0.38,0.56 0.13,0.67 v 46.28 l -0.13,0.66 -0.38,0.57 -0.56,0.38 z"
           inkscape:connector-curvature="0" />
      </g>
      <g
         id="g148"
         transform="translate(1800)">
        <clipPath
           id="clipPath1858">
          <path
             id="path1856"
             d="m 1824.9,1078.49 h -266.12 c -7.09,-0.02 -16.18,-1.39 -16.11,-8.6 0.05,-4.82 4.07,-8.42 7.27,-11.48 13.13,-12.51 28.89,-22.53 46.54,-26.79 3.01,-0.73 8.85,-1.91 9.14,-1.95 l 0.65,-0.09 c 0,0 3.92,-0.83 5.97,-0.86 h 212.66 l 0.67,0.14 0.56,0.38 0.38,0.56 0.13,0.67 v 46.28 l -0.13,0.66 -0.38,0.57 -0.56,0.38 z"
             inkscape:connector-curvature="0" />
        </clipPath>
        <g
           id="g146"
           clip-path="url(#_clip6)">
          <path
             style="fill:#c9d3df"
             d="m 1824.9,1071.16 h -266.12 c -7.09,-0.02 -16.18,-1.06 -16.11,-6.58 0.05,-3.7 4.07,-6.46 7.27,-8.8 13.13,-9.59 28.89,-17.26 46.54,-20.53 3.01,-0.55 8.85,-1.46 9.14,-1.49 l 0.65,-0.07 c 0,0 3.92,-0.63 5.97,-0.65 h 212.66 l 0.67,0.1 0.56,0.29 0.38,0.43 0.13,0.51 v 35.46 l -0.13,0.51 -0.38,0.43 -0.56,0.29 z"
             serif:id="head"
             id="head1"
             inkscape:connector-curvature="0" />
          <path
             id="path134"
             style="fill:#006cb0"
             d="m 1844.91,1047.12 h -232.8 c -3.97,0 -7.91,0.7 -11.63,2.07 l -79.44,29.3 323.87,-0.17 z"
             inkscape:connector-curvature="0" />
          <path
             id="path136"
             style="fill:#c9d3df"
             d="m 1826.65,1071.16 h -221.74 c -2.31,0 -4.21,1.9 -4.21,4.21 v 3.11 h 225.95 z"
             inkscape:connector-curvature="0" />
          <path
             id="path138"
             style="fill:#002841"
             d="m 1639.17,1035.1 h 76.34 v 6.61 h -76.34 z m 0,18.5 h 174.31 v 12.15 h -174.31 z"
             inkscape:connector-curvature="0" />
          <path
             id="path140"
             style="fill:#002841;stroke:#374355;stroke-width:1.45000005px;stroke-linecap:round;stroke-miterlimit:1.5"
             d="m 1580.3,1042.55 13.28,-4.41 -1.65,6.14 -6.64,2.21 z"
             inkscape:connector-curvature="0" />
          <path
             id="path142"
             style="fill:#002841"
             d="m 1629.55,1071.16 h -18.03 v -28.25 h 18.03 z m -16.59,-26.81 v 25.37 h 15.15 v -25.37 z"
             inkscape:connector-curvature="0" />
          <rect
             id="rect144"
             style="fill:#99a4b2"
             height="3.1700001"
             width="300.84299"
             y="1075.1899"
             x="1532.78" />
        </g>
      </g>
      <g
         id="g152"
         transform="translate(1800)">
        <path
           id="path150"
           style="fill:none;stroke:#205081;stroke-width:5px;stroke-miterlimit:1.41400003"
           d="m 1824.9,1078.49 h -266.12 c -7.09,-0.02 -16.18,-1.39 -16.11,-8.6 0.05,-4.82 4.07,-8.42 7.27,-11.48 13.13,-12.51 28.89,-22.53 46.54,-26.79 3.01,-0.73 8.85,-1.91 9.14,-1.95 l 0.65,-0.09 c 0,0 3.92,-0.83 5.97,-0.86 h 212.66 l 0.67,0.14 0.56,0.38 0.38,0.56 0.13,0.67 v 46.28 l -0.13,0.66 -0.38,0.57 -0.56,0.38 z"
           inkscape:connector-curvature="0" />
      </g>
    </g>
    <g
       style="clip-rule:evenodd;fill-rule:evenodd;stroke-linejoin:round;stroke-miterlimit:2"
       id="g195"
       transform="matrix(0.08371526,0,0,0.08371526,-270.39799,72.751823)">
      <g
         id="g166"
         transform="translate(1800)">
        <circle
           id="circle156"
           style="fill:#53657d"
           r="5.1090002"
           cy="1079.09"
           cx="2143.78" />
        <circle
           id="circle158"
           style="fill:#53657d"
           r="5.1090002"
           cy="1079.09"
           cx="2179.24" />
        <g
           id="g164">
          <circle
             id="circle160"
             style="fill:#53657d"
             r="5.1090002"
             cy="1079.09"
             cx="2346.95" />
          <circle
             id="circle162"
             style="fill:#53657d"
             r="5.1090002"
             cy="1079.09"
             cx="2382.4099" />
        </g>
      </g>
      <g
         transform="translate(1800)"
         serif:id="1ere"
         id="_1ere">
        <path
           id="path168"
           style="fill:#c9d3df"
           d="m 2408.26,1078.25 h -280.71 l -0.57,-0.11 -0.49,-0.33 -0.33,-0.49 -0.11,-0.57 v -46.28 l 0.11,-0.58 c 0.33,-0.48 0.33,-0.49 0.82,-0.81 l 0.57,-0.12 h 280.71 l 0.58,0.12 0.48,0.32 0.33,0.49 0.11,0.58 v 46.28 c -0.11,0.57 -0.11,0.58 -0.44,1.06 l -0.48,0.33 z"
           inkscape:connector-curvature="0" />
      </g>
      <g
         id="g189"
         transform="translate(1800)">
        <clipPath
           id="clipPath1882">
          <path
             id="path1880"
             d="m 2408.26,1078.25 h -280.71 l -0.57,-0.11 -0.49,-0.33 -0.33,-0.49 -0.11,-0.57 v -46.28 l 0.11,-0.58 c 0.33,-0.48 0.33,-0.49 0.82,-0.81 l 0.57,-0.12 h 280.71 l 0.58,0.12 0.48,0.32 0.33,0.49 0.11,0.58 v 46.28 c -0.11,0.57 -0.11,0.58 -0.44,1.06 l -0.48,0.33 z"
             inkscape:connector-curvature="0" />
        </clipPath>
        <g
           id="g187"
           clip-path="url(#_clip7)">
          <rect
             id="rect174"
             style="fill:#006cb0"
             height="23.915001"
             width="307.15399"
             y="1047.12"
             x="2114.3301" />
          <g
             id="windows">
            <path
               id="path176"
               style="fill:#002841"
               d="m 2160.61,1036.6 c 0,-0.83 -0.67,-1.5 -1.5,-1.5 h -19.24 c -0.83,0 -1.5,0.67 -1.5,1.5 v 3.01 c 0,0.82 0.67,1.5 1.5,1.5 h 19.24 c 0.83,0 1.5,-0.68 1.5,-1.5 z m 28.25,0 c 0,-0.83 -0.67,-1.5 -1.5,-1.5 h -19.24 c -0.83,0 -1.5,0.67 -1.5,1.5 v 3.01 c 0,0.82 0.67,1.5 1.5,1.5 h 19.24 c 0.83,0 1.5,-0.68 1.5,-1.5 z m 28.25,0 c 0,-0.83 -0.67,-1.5 -1.5,-1.5 h -19.24 c -0.83,0 -1.5,0.67 -1.5,1.5 v 3.01 c 0,0.82 0.67,1.5 1.5,1.5 h 19.24 c 0.83,0 1.5,-0.68 1.5,-1.5 z m 28.25,0 c 0,-0.83 -0.67,-1.5 -1.5,-1.5 h -19.24 c -0.83,0 -1.5,0.67 -1.5,1.5 v 3.01 c 0,0.82 0.67,1.5 1.5,1.5 h 19.24 c 0.83,0 1.5,-0.68 1.5,-1.5 z m 28.25,0 c 0,-0.83 -0.67,-1.5 -1.5,-1.5 h -19.24 c -0.83,0 -1.5,0.67 -1.5,1.5 v 3.01 c 0,0.82 0.67,1.5 1.5,1.5 h 19.24 c 0.83,0 1.5,-0.68 1.5,-1.5 z m 28.26,0 c 0,-0.83 -0.67,-1.5 -1.5,-1.5 h -19.24 c -0.83,0 -1.5,0.67 -1.5,1.5 v 3.01 c 0,0.82 0.67,1.5 1.5,1.5 h 19.24 c 0.83,0 1.5,-0.68 1.5,-1.5 z m 28.25,0 c 0,-0.83 -0.67,-1.5 -1.5,-1.5 h -19.24 c -0.83,0 -1.5,0.67 -1.5,1.5 v 3.01 c 0,0.82 0.67,1.5 1.5,1.5 h 19.24 c 0.83,0 1.5,-0.68 1.5,-1.5 z"
               inkscape:connector-curvature="0" />
            <path
               id="path178"
               style="fill:#002841"
               d="m 2217.11,1058.41 c 0,-0.83 -0.67,-1.5 -1.5,-1.5 h -19.24 c -0.83,0 -1.5,0.67 -1.5,1.5 v 3 c 0,0.84 0.67,1.51 1.5,1.51 h 19.24 c 0.83,0 1.5,-0.67 1.5,-1.51 z m 28.25,0 c 0,-0.83 -0.67,-1.5 -1.5,-1.5 h -19.24 c -0.83,0 -1.5,0.67 -1.5,1.5 v 3 c 0,0.84 0.67,1.51 1.5,1.51 h 19.24 c 0.83,0 1.5,-0.67 1.5,-1.51 z m 28.25,0 c 0,-0.83 -0.67,-1.5 -1.5,-1.5 h -19.24 c -0.83,0 -1.5,0.67 -1.5,1.5 v 3 c 0,0.84 0.67,1.51 1.5,1.51 h 19.24 c 0.83,0 1.5,-0.67 1.5,-1.51 z m 28.26,0 c 0,-0.83 -0.67,-1.5 -1.5,-1.5 h -19.24 c -0.83,0 -1.5,0.67 -1.5,1.5 v 3 c 0,0.84 0.67,1.51 1.5,1.51 h 19.24 c 0.83,0 1.5,-0.67 1.5,-1.51 z m 28.25,0 c 0,-0.83 -0.67,-1.5 -1.5,-1.5 h -19.24 c -0.83,0 -1.5,0.67 -1.5,1.5 v 3 c 0,0.84 0.67,1.51 1.5,1.51 h 19.24 c 0.83,0 1.5,-0.67 1.5,-1.51 z"
               inkscape:connector-curvature="0" />
          </g>
          <path
             id="path181"
             style="fill:#f9003f"
             d="m 2381.21,1047.12 h -37.87 l -7.96,24.04 h 37.86 z"
             inkscape:connector-curvature="0" />
          <path
             id="path183"
             style="fill:#002841"
             d="m 2366.78,1071.16 h -18.03 v -28.25 h 18.03 z m -16.59,-26.81 v 25.37 h 15.15 v -25.37 z"
             inkscape:connector-curvature="0" />
          <path
             id="path185"
             style="fill:#99a4b2"
             d="m 2107.56,1029.51 h 300.84 v 3.17 h -300.84 z m 0,45.68 h 300.84 v 3.17 h -300.84 z"
             inkscape:connector-curvature="0" />
        </g>
      </g>
      <g
         id="g193"
         transform="translate(1800)">
        <path
           id="path191"
           style="fill:none;stroke:#205081;stroke-width:5px;stroke-miterlimit:1.41400003"
           d="m 2408.26,1078.25 h -280.71 l -0.57,-0.11 -0.49,-0.33 -0.33,-0.49 -0.11,-0.57 v -46.28 l 0.11,-0.58 c 0.33,-0.48 0.33,-0.49 0.82,-0.81 l 0.57,-0.12 h 280.71 l 0.58,0.12 0.48,0.32 0.33,0.49 0.11,0.58 v 46.28 c -0.11,0.57 -0.11,0.58 -0.44,1.06 l -0.48,0.33 z"
           inkscape:connector-curvature="0" />
      </g>
    </g>
    <g
       style="clip-rule:evenodd;fill-rule:evenodd;stroke-linejoin:round;stroke-miterlimit:2"
       id="g236"
       transform="matrix(0.08371526,0,0,0.08371526,-221.67572,72.751823)">
      <g
         id="g207"
         transform="translate(1800)">
        <circle
           id="circle197"
           style="fill:#53657d"
           r="5.1090002"
           cy="1079.09"
           cx="2143.78" />
        <circle
           id="circle199"
           style="fill:#53657d"
           r="5.1090002"
           cy="1079.09"
           cx="2179.24" />
        <g
           id="g205">
          <circle
             id="circle201"
             style="fill:#53657d"
             r="5.1090002"
             cy="1079.09"
             cx="2346.95" />
          <circle
             id="circle203"
             style="fill:#53657d"
             r="5.1090002"
             cy="1079.09"
             cx="2382.4099" />
        </g>
      </g>
      <g
         transform="translate(1800)"
         serif:id="1ere"
         id="_1ere1">
        <path
           id="path209"
           style="fill:#c9d3df"
           d="m 2408.26,1078.25 h -280.71 l -0.57,-0.11 -0.49,-0.33 -0.33,-0.49 -0.11,-0.57 v -46.28 l 0.11,-0.58 c 0.33,-0.48 0.33,-0.49 0.82,-0.81 l 0.57,-0.12 h 280.71 l 0.58,0.12 0.48,0.32 0.33,0.49 0.11,0.58 v 46.28 c -0.11,0.57 -0.11,0.58 -0.44,1.06 l -0.48,0.33 z"
           inkscape:connector-curvature="0" />
      </g>
      <g
         id="g230"
         transform="translate(1800)">
        <clipPath
           id="clipPath1906">
          <path
             id="path1904"
             d="m 2408.26,1078.25 h -280.71 l -0.57,-0.11 -0.49,-0.33 -0.33,-0.49 -0.11,-0.57 v -46.28 l 0.11,-0.58 c 0.33,-0.48 0.33,-0.49 0.82,-0.81 l 0.57,-0.12 h 280.71 l 0.58,0.12 0.48,0.32 0.33,0.49 0.11,0.58 v 46.28 c -0.11,0.57 -0.11,0.58 -0.44,1.06 l -0.48,0.33 z"
             inkscape:connector-curvature="0" />
        </clipPath>
        <g
           id="g228"
           clip-path="url(#_clip8)">
          <rect
             id="rect215"
             style="fill:#006cb0"
             height="23.915001"
             width="307.15399"
             y="1047.12"
             x="2114.3301" />
          <g
             serif:id="windows"
             id="windows1">
            <path
               id="path217"
               style="fill:#002841"
               d="m 2160.61,1036.6 c 0,-0.83 -0.67,-1.5 -1.5,-1.5 h -19.24 c -0.83,0 -1.5,0.67 -1.5,1.5 v 3.01 c 0,0.82 0.67,1.5 1.5,1.5 h 19.24 c 0.83,0 1.5,-0.68 1.5,-1.5 z m 28.25,0 c 0,-0.83 -0.67,-1.5 -1.5,-1.5 h -19.24 c -0.83,0 -1.5,0.67 -1.5,1.5 v 3.01 c 0,0.82 0.67,1.5 1.5,1.5 h 19.24 c 0.83,0 1.5,-0.68 1.5,-1.5 z m 28.25,0 c 0,-0.83 -0.67,-1.5 -1.5,-1.5 h -19.24 c -0.83,0 -1.5,0.67 -1.5,1.5 v 3.01 c 0,0.82 0.67,1.5 1.5,1.5 h 19.24 c 0.83,0 1.5,-0.68 1.5,-1.5 z m 28.25,0 c 0,-0.83 -0.67,-1.5 -1.5,-1.5 h -19.24 c -0.83,0 -1.5,0.67 -1.5,1.5 v 3.01 c 0,0.82 0.67,1.5 1.5,1.5 h 19.24 c 0.83,0 1.5,-0.68 1.5,-1.5 z m 28.25,0 c 0,-0.83 -0.67,-1.5 -1.5,-1.5 h -19.24 c -0.83,0 -1.5,0.67 -1.5,1.5 v 3.01 c 0,0.82 0.67,1.5 1.5,1.5 h 19.24 c 0.83,0 1.5,-0.68 1.5,-1.5 z m 28.26,0 c 0,-0.83 -0.67,-1.5 -1.5,-1.5 h -19.24 c -0.83,0 -1.5,0.67 -1.5,1.5 v 3.01 c 0,0.82 0.67,1.5 1.5,1.5 h 19.24 c 0.83,0 1.5,-0.68 1.5,-1.5 z m 28.25,0 c 0,-0.83 -0.67,-1.5 -1.5,-1.5 h -19.24 c -0.83,0 -1.5,0.67 -1.5,1.5 v 3.01 c 0,0.82 0.67,1.5 1.5,1.5 h 19.24 c 0.83,0 1.5,-0.68 1.5,-1.5 z"
               inkscape:connector-curvature="0" />
            <path
               id="path219"
               style="fill:#002841"
               d="m 2217.11,1058.41 c 0,-0.83 -0.67,-1.5 -1.5,-1.5 h -19.24 c -0.83,0 -1.5,0.67 -1.5,1.5 v 3 c 0,0.84 0.67,1.51 1.5,1.51 h 19.24 c 0.83,0 1.5,-0.67 1.5,-1.51 z m 28.25,0 c 0,-0.83 -0.67,-1.5 -1.5,-1.5 h -19.24 c -0.83,0 -1.5,0.67 -1.5,1.5 v 3 c 0,0.84 0.67,1.51 1.5,1.51 h 19.24 c 0.83,0 1.5,-0.67 1.5,-1.51 z m 28.25,0 c 0,-0.83 -0.67,-1.5 -1.5,-1.5 h -19.24 c -0.83,0 -1.5,0.67 -1.5,1.5 v 3 c 0,0.84 0.67,1.51 1.5,1.51 h 19.24 c 0.83,0 1.5,-0.67 1.5,-1.51 z m 28.26,0 c 0,-0.83 -0.67,-1.5 -1.5,-1.5 h -19.24 c -0.83,0 -1.5,0.67 -1.5,1.5 v 3 c 0,0.84 0.67,1.51 1.5,1.51 h 19.24 c 0.83,0 1.5,-0.67 1.5,-1.51 z m 28.25,0 c 0,-0.83 -0.67,-1.5 -1.5,-1.5 h -19.24 c -0.83,0 -1.5,0.67 -1.5,1.5 v 3 c 0,0.84 0.67,1.51 1.5,1.51 h 19.24 c 0.83,0 1.5,-0.67 1.5,-1.51 z"
               inkscape:connector-curvature="0" />
          </g>
          <path
             id="path222"
             style="fill:#99ca3d"
             d="m 2381.21,1047.12 h -37.87 l -7.96,24.04 h 37.86 z"
             inkscape:connector-curvature="0" />
          <path
             id="path224"
             style="fill:#002841"
             d="m 2366.78,1071.16 h -18.03 v -28.25 h 18.03 z m -16.59,-26.81 v 25.37 h 15.15 v -25.37 z"
             inkscape:connector-curvature="0" />
          <path
             id="path226"
             style="fill:#99a4b2"
             d="m 2107.56,1029.51 h 300.84 v 3.17 h -300.84 z m 0,45.68 h 300.84 v 3.17 h -300.84 z"
             inkscape:connector-curvature="0" />
        </g>
      </g>
      <g
         id="g234"
         transform="translate(1800)">
        <path
           id="path232"
           style="fill:none;stroke:#205081;stroke-width:5px;stroke-miterlimit:1.41400003"
           d="m 2408.26,1078.25 h -280.71 l -0.57,-0.11 -0.49,-0.33 -0.33,-0.49 -0.11,-0.57 v -46.28 l 0.11,-0.58 c 0.33,-0.48 0.33,-0.49 0.82,-0.81 l 0.57,-0.12 h 280.71 l 0.58,0.12 0.48,0.32 0.33,0.49 0.11,0.58 v 46.28 c -0.11,0.57 -0.11,0.58 -0.44,1.06 l -0.48,0.33 z"
           inkscape:connector-curvature="0" />
      </g>
    </g>
    <g
       style="clip-rule:evenodd;fill-rule:evenodd;stroke-linejoin:round;stroke-miterlimit:2"
       id="g277"
       transform="matrix(0.08371526,0,0,0.08371526,-172.95344,72.751823)">
      <g
         id="g248"
         transform="translate(1800)">
        <circle
           id="circle238"
           style="fill:#53657d"
           r="5.1090002"
           cy="1079.09"
           cx="2143.78" />
        <circle
           id="circle240"
           style="fill:#53657d"
           r="5.1090002"
           cy="1079.09"
           cx="2179.24" />
        <g
           id="g246">
          <circle
             id="circle242"
             style="fill:#53657d"
             r="5.1090002"
             cy="1079.09"
             cx="2346.95" />
          <circle
             id="circle244"
             style="fill:#53657d"
             r="5.1090002"
             cy="1079.09"
             cx="2382.4099" />
        </g>
      </g>
      <g
         transform="translate(1800)"
         serif:id="1ere"
         id="_1ere2">
        <path
           id="path250"
           style="fill:#c9d3df"
           d="m 2408.26,1078.25 h -280.71 l -0.57,-0.11 -0.49,-0.33 -0.33,-0.49 -0.11,-0.57 v -46.28 l 0.11,-0.58 c 0.33,-0.48 0.33,-0.49 0.82,-0.81 l 0.57,-0.12 h 280.71 l 0.58,0.12 0.48,0.32 0.33,0.49 0.11,0.58 v 46.28 c -0.11,0.57 -0.11,0.58 -0.44,1.06 l -0.48,0.33 z"
           inkscape:connector-curvature="0" />
      </g>
      <g
         id="g271"
         transform="translate(1800)">
        <clipPath
           id="clipPath1930">
          <path
             id="path1928"
             d="m 2408.26,1078.25 h -280.71 l -0.57,-0.11 -0.49,-0.33 -0.33,-0.49 -0.11,-0.57 v -46.28 l 0.11,-0.58 c 0.33,-0.48 0.33,-0.49 0.82,-0.81 l 0.57,-0.12 h 280.71 l 0.58,0.12 0.48,0.32 0.33,0.49 0.11,0.58 v 46.28 c -0.11,0.57 -0.11,0.58 -0.44,1.06 l -0.48,0.33 z"
             inkscape:connector-curvature="0" />
        </clipPath>
        <g
           id="g269"
           clip-path="url(#_clip9)">
          <rect
             id="rect256"
             style="fill:#006cb0"
             height="23.915001"
             width="307.15399"
             y="1047.12"
             x="2114.3301" />
          <g
             serif:id="windows"
             id="windows2">
            <path
               id="path258"
               style="fill:#002841"
               d="m 2160.61,1036.6 c 0,-0.83 -0.67,-1.5 -1.5,-1.5 h -19.24 c -0.83,0 -1.5,0.67 -1.5,1.5 v 3.01 c 0,0.82 0.67,1.5 1.5,1.5 h 19.24 c 0.83,0 1.5,-0.68 1.5,-1.5 z m 28.25,0 c 0,-0.83 -0.67,-1.5 -1.5,-1.5 h -19.24 c -0.83,0 -1.5,0.67 -1.5,1.5 v 3.01 c 0,0.82 0.67,1.5 1.5,1.5 h 19.24 c 0.83,0 1.5,-0.68 1.5,-1.5 z m 28.25,0 c 0,-0.83 -0.67,-1.5 -1.5,-1.5 h -19.24 c -0.83,0 -1.5,0.67 -1.5,1.5 v 3.01 c 0,0.82 0.67,1.5 1.5,1.5 h 19.24 c 0.83,0 1.5,-0.68 1.5,-1.5 z m 28.25,0 c 0,-0.83 -0.67,-1.5 -1.5,-1.5 h -19.24 c -0.83,0 -1.5,0.67 -1.5,1.5 v 3.01 c 0,0.82 0.67,1.5 1.5,1.5 h 19.24 c 0.83,0 1.5,-0.68 1.5,-1.5 z m 28.25,0 c 0,-0.83 -0.67,-1.5 -1.5,-1.5 h -19.24 c -0.83,0 -1.5,0.67 -1.5,1.5 v 3.01 c 0,0.82 0.67,1.5 1.5,1.5 h 19.24 c 0.83,0 1.5,-0.68 1.5,-1.5 z m 28.26,0 c 0,-0.83 -0.67,-1.5 -1.5,-1.5 h -19.24 c -0.83,0 -1.5,0.67 -1.5,1.5 v 3.01 c 0,0.82 0.67,1.5 1.5,1.5 h 19.24 c 0.83,0 1.5,-0.68 1.5,-1.5 z m 28.25,0 c 0,-0.83 -0.67,-1.5 -1.5,-1.5 h -19.24 c -0.83,0 -1.5,0.67 -1.5,1.5 v 3.01 c 0,0.82 0.67,1.5 1.5,1.5 h 19.24 c 0.83,0 1.5,-0.68 1.5,-1.5 z"
               inkscape:connector-curvature="0" />
            <path
               id="path260"
               style="fill:#002841"
               d="m 2217.11,1058.41 c 0,-0.83 -0.67,-1.5 -1.5,-1.5 h -19.24 c -0.83,0 -1.5,0.67 -1.5,1.5 v 3 c 0,0.84 0.67,1.51 1.5,1.51 h 19.24 c 0.83,0 1.5,-0.67 1.5,-1.51 z m 28.25,0 c 0,-0.83 -0.67,-1.5 -1.5,-1.5 h -19.24 c -0.83,0 -1.5,0.67 -1.5,1.5 v 3 c 0,0.84 0.67,1.51 1.5,1.51 h 19.24 c 0.83,0 1.5,-0.67 1.5,-1.51 z m 28.25,0 c 0,-0.83 -0.67,-1.5 -1.5,-1.5 h -19.24 c -0.83,0 -1.5,0.67 -1.5,1.5 v 3 c 0,0.84 0.67,1.51 1.5,1.51 h 19.24 c 0.83,0 1.5,-0.67 1.5,-1.51 z m 28.26,0 c 0,-0.83 -0.67,-1.5 -1.5,-1.5 h -19.24 c -0.83,0 -1.5,0.67 -1.5,1.5 v 3 c 0,0.84 0.67,1.51 1.5,1.51 h 19.24 c 0.83,0 1.5,-0.67 1.5,-1.51 z m 28.25,0 c 0,-0.83 -0.67,-1.5 -1.5,-1.5 h -19.24 c -0.83,0 -1.5,0.67 -1.5,1.5 v 3 c 0,0.84 0.67,1.51 1.5,1.51 h 19.24 c 0.83,0 1.5,-0.67 1.5,-1.51 z"
               inkscape:connector-curvature="0" />
          </g>
          <path
             id="path263"
             style="fill:#99ca3d"
             d="m 2381.21,1047.12 h -37.87 l -7.96,24.04 h 37.86 z"
             inkscape:connector-curvature="0" />
          <path
             id="path265"
             style="fill:#002841"
             d="m 2366.78,1071.16 h -18.03 v -28.25 h 18.03 z m -16.59,-26.81 v 25.37 h 15.15 v -25.37 z"
             inkscape:connector-curvature="0" />
          <path
             id="path267"
             style="fill:#99a4b2"
             d="m 2107.56,1029.51 h 300.84 v 3.17 h -300.84 z m 0,45.68 h 300.84 v 3.17 h -300.84 z"
             inkscape:connector-curvature="0" />
        </g>
      </g>
      <g
         id="g275"
         transform="translate(1800)">
        <path
           id="path273"
           style="fill:none;stroke:#205081;stroke-width:5px;stroke-miterlimit:1.41400003"
           d="m 2408.26,1078.25 h -280.71 l -0.57,-0.11 -0.49,-0.33 -0.33,-0.49 -0.11,-0.57 v -46.28 l 0.11,-0.58 c 0.33,-0.48 0.33,-0.49 0.82,-0.81 l 0.57,-0.12 h 280.71 l 0.58,0.12 0.48,0.32 0.33,0.49 0.11,0.58 v 46.28 c -0.11,0.57 -0.11,0.58 -0.44,1.06 l -0.48,0.33 z"
           inkscape:connector-curvature="0" />
      </g>
    </g>
    <g
       style="clip-rule:evenodd;fill-rule:evenodd;stroke-linejoin:round;stroke-miterlimit:2"
       id="g318"
       transform="matrix(0.08371526,0,0,0.08371526,-294.75914,72.751823)">
      <g
         id="g289"
         transform="translate(1800)">
        <circle
           id="circle279"
           style="fill:#53657d"
           r="5.1090002"
           cy="1079.09"
           cx="2143.78" />
        <circle
           id="circle281"
           style="fill:#53657d"
           r="5.1090002"
           cy="1079.09"
           cx="2179.24" />
        <g
           id="g287">
          <circle
             id="circle283"
             style="fill:#53657d"
             r="5.1090002"
             cy="1079.09"
             cx="2346.95" />
          <circle
             id="circle285"
             style="fill:#53657d"
             r="5.1090002"
             cy="1079.09"
             cx="2382.4099" />
        </g>
      </g>
      <g
         transform="translate(1800)"
         serif:id="1ere"
         id="_1ere3">
        <path
           id="path291"
           style="fill:#c9d3df"
           d="m 2408.26,1078.25 h -280.71 l -0.57,-0.11 -0.49,-0.33 -0.33,-0.49 -0.11,-0.57 v -46.28 l 0.11,-0.58 c 0.33,-0.48 0.33,-0.49 0.82,-0.81 l 0.57,-0.12 h 280.71 l 0.58,0.12 0.48,0.32 0.33,0.49 0.11,0.58 v 46.28 c -0.11,0.57 -0.11,0.58 -0.44,1.06 l -0.48,0.33 z"
           inkscape:connector-curvature="0" />
      </g>
      <g
         id="g312"
         transform="translate(1800)">
        <clipPath
           id="clipPath1954">
          <path
             id="path1952"
             d="m 2408.26,1078.25 h -280.71 l -0.57,-0.11 -0.49,-0.33 -0.33,-0.49 -0.11,-0.57 v -46.28 l 0.11,-0.58 c 0.33,-0.48 0.33,-0.49 0.82,-0.81 l 0.57,-0.12 h 280.71 l 0.58,0.12 0.48,0.32 0.33,0.49 0.11,0.58 v 46.28 c -0.11,0.57 -0.11,0.58 -0.44,1.06 l -0.48,0.33 z"
             inkscape:connector-curvature="0" />
        </clipPath>
        <g
           id="g310"
           clip-path="url(#_clip10)">
          <rect
             id="rect297"
             style="fill:#006cb0"
             height="23.915001"
             width="307.15399"
             y="1047.12"
             x="2114.3301" />
          <g
             serif:id="windows"
             id="windows3">
            <path
               id="path299"
               style="fill:#002841"
               d="m 2160.61,1036.6 c 0,-0.83 -0.67,-1.5 -1.5,-1.5 h -19.24 c -0.83,0 -1.5,0.67 -1.5,1.5 v 3.01 c 0,0.82 0.67,1.5 1.5,1.5 h 19.24 c 0.83,0 1.5,-0.68 1.5,-1.5 z m 28.25,0 c 0,-0.83 -0.67,-1.5 -1.5,-1.5 h -19.24 c -0.83,0 -1.5,0.67 -1.5,1.5 v 3.01 c 0,0.82 0.67,1.5 1.5,1.5 h 19.24 c 0.83,0 1.5,-0.68 1.5,-1.5 z m 28.25,0 c 0,-0.83 -0.67,-1.5 -1.5,-1.5 h -19.24 c -0.83,0 -1.5,0.67 -1.5,1.5 v 3.01 c 0,0.82 0.67,1.5 1.5,1.5 h 19.24 c 0.83,0 1.5,-0.68 1.5,-1.5 z m 28.25,0 c 0,-0.83 -0.67,-1.5 -1.5,-1.5 h -19.24 c -0.83,0 -1.5,0.67 -1.5,1.5 v 3.01 c 0,0.82 0.67,1.5 1.5,1.5 h 19.24 c 0.83,0 1.5,-0.68 1.5,-1.5 z m 28.25,0 c 0,-0.83 -0.67,-1.5 -1.5,-1.5 h -19.24 c -0.83,0 -1.5,0.67 -1.5,1.5 v 3.01 c 0,0.82 0.67,1.5 1.5,1.5 h 19.24 c 0.83,0 1.5,-0.68 1.5,-1.5 z m 28.26,0 c 0,-0.83 -0.67,-1.5 -1.5,-1.5 h -19.24 c -0.83,0 -1.5,0.67 -1.5,1.5 v 3.01 c 0,0.82 0.67,1.5 1.5,1.5 h 19.24 c 0.83,0 1.5,-0.68 1.5,-1.5 z m 28.25,0 c 0,-0.83 -0.67,-1.5 -1.5,-1.5 h -19.24 c -0.83,0 -1.5,0.67 -1.5,1.5 v 3.01 c 0,0.82 0.67,1.5 1.5,1.5 h 19.24 c 0.83,0 1.5,-0.68 1.5,-1.5 z"
               inkscape:connector-curvature="0" />
            <path
               id="path301"
               style="fill:#002841"
               d="m 2217.11,1058.41 c 0,-0.83 -0.67,-1.5 -1.5,-1.5 h -19.24 c -0.83,0 -1.5,0.67 -1.5,1.5 v 3 c 0,0.84 0.67,1.51 1.5,1.51 h 19.24 c 0.83,0 1.5,-0.67 1.5,-1.51 z m 28.25,0 c 0,-0.83 -0.67,-1.5 -1.5,-1.5 h -19.24 c -0.83,0 -1.5,0.67 -1.5,1.5 v 3 c 0,0.84 0.67,1.51 1.5,1.51 h 19.24 c 0.83,0 1.5,-0.67 1.5,-1.51 z m 28.25,0 c 0,-0.83 -0.67,-1.5 -1.5,-1.5 h -19.24 c -0.83,0 -1.5,0.67 -1.5,1.5 v 3 c 0,0.84 0.67,1.51 1.5,1.51 h 19.24 c 0.83,0 1.5,-0.67 1.5,-1.51 z m 28.26,0 c 0,-0.83 -0.67,-1.5 -1.5,-1.5 h -19.24 c -0.83,0 -1.5,0.67 -1.5,1.5 v 3 c 0,0.84 0.67,1.51 1.5,1.51 h 19.24 c 0.83,0 1.5,-0.67 1.5,-1.51 z m 28.25,0 c 0,-0.83 -0.67,-1.5 -1.5,-1.5 h -19.24 c -0.83,0 -1.5,0.67 -1.5,1.5 v 3 c 0,0.84 0.67,1.51 1.5,1.51 h 19.24 c 0.83,0 1.5,-0.67 1.5,-1.51 z"
               inkscape:connector-curvature="0" />
          </g>
          <path
             id="path304"
             style="fill:#f9003f"
             d="m 2381.21,1047.12 h -37.87 l -7.96,24.04 h 37.86 z"
             inkscape:connector-curvature="0" />
          <path
             id="path306"
             style="fill:#002841"
             d="m 2366.78,1071.16 h -18.03 v -28.25 h 18.03 z m -16.59,-26.81 v 25.37 h 15.15 v -25.37 z"
             inkscape:connector-curvature="0" />
          <path
             id="path308"
             style="fill:#99a4b2"
             d="m 2107.56,1029.51 h 300.84 v 3.17 h -300.84 z m 0,45.68 h 300.84 v 3.17 h -300.84 z"
             inkscape:connector-curvature="0" />
        </g>
      </g>
      <g
         id="g316"
         transform="translate(1800)">
        <path
           id="path314"
           style="fill:none;stroke:#205081;stroke-width:5px;stroke-miterlimit:1.41400003"
           d="m 2408.26,1078.25 h -280.71 l -0.57,-0.11 -0.49,-0.33 -0.33,-0.49 -0.11,-0.57 v -46.28 l 0.11,-0.58 c 0.33,-0.48 0.33,-0.49 0.82,-0.81 l 0.57,-0.12 h 280.71 l 0.58,0.12 0.48,0.32 0.33,0.49 0.11,0.58 v 46.28 c -0.11,0.57 -0.11,0.58 -0.44,1.06 l -0.48,0.33 z"
           inkscape:connector-curvature="0" />
      </g>
    </g>
    <g
       style="clip-rule:evenodd;fill-rule:evenodd;stroke-linejoin:round;stroke-miterlimit:2"
       id="g359"
       transform="matrix(0.08371526,0,0,0.08371526,-246.03686,72.751823)">
      <g
         id="g330"
         transform="translate(1800)">
        <circle
           id="circle320"
           style="fill:#53657d"
           r="5.1090002"
           cy="1079.09"
           cx="2143.78" />
        <circle
           id="circle322"
           style="fill:#53657d"
           r="5.1090002"
           cy="1079.09"
           cx="2179.24" />
        <g
           id="g328">
          <circle
             id="circle324"
             style="fill:#53657d"
             r="5.1090002"
             cy="1079.09"
             cx="2346.95" />
          <circle
             id="circle326"
             style="fill:#53657d"
             r="5.1090002"
             cy="1079.09"
             cx="2382.4099" />
        </g>
      </g>
      <g
         transform="translate(1800)"
         serif:id="1ere"
         id="_1ere4">
        <path
           id="path332"
           style="fill:#c9d3df"
           d="m 2408.26,1078.25 h -280.71 l -0.57,-0.11 -0.49,-0.33 -0.33,-0.49 -0.11,-0.57 v -46.28 l 0.11,-0.58 c 0.33,-0.48 0.33,-0.49 0.82,-0.81 l 0.57,-0.12 h 280.71 l 0.58,0.12 0.48,0.32 0.33,0.49 0.11,0.58 v 46.28 c -0.11,0.57 -0.11,0.58 -0.44,1.06 l -0.48,0.33 z"
           inkscape:connector-curvature="0" />
      </g>
      <g
         id="g353"
         transform="translate(1800)">
        <clipPath
           id="clipPath1978">
          <path
             id="path1976"
             d="m 2408.26,1078.25 h -280.71 l -0.57,-0.11 -0.49,-0.33 -0.33,-0.49 -0.11,-0.57 v -46.28 l 0.11,-0.58 c 0.33,-0.48 0.33,-0.49 0.82,-0.81 l 0.57,-0.12 h 280.71 l 0.58,0.12 0.48,0.32 0.33,0.49 0.11,0.58 v 46.28 c -0.11,0.57 -0.11,0.58 -0.44,1.06 l -0.48,0.33 z"
             inkscape:connector-curvature="0" />
        </clipPath>
        <g
           id="g351"
           clip-path="url(#_clip11)">
          <rect
             id="rect338"
             style="fill:#006cb0"
             height="23.915001"
             width="307.15399"
             y="1047.12"
             x="2114.3301" />
          <g
             serif:id="windows"
             id="windows4">
            <path
               id="path340"
               style="fill:#002841"
               d="m 2160.61,1036.6 c 0,-0.83 -0.67,-1.5 -1.5,-1.5 h -19.24 c -0.83,0 -1.5,0.67 -1.5,1.5 v 3.01 c 0,0.82 0.67,1.5 1.5,1.5 h 19.24 c 0.83,0 1.5,-0.68 1.5,-1.5 z m 28.25,0 c 0,-0.83 -0.67,-1.5 -1.5,-1.5 h -19.24 c -0.83,0 -1.5,0.67 -1.5,1.5 v 3.01 c 0,0.82 0.67,1.5 1.5,1.5 h 19.24 c 0.83,0 1.5,-0.68 1.5,-1.5 z m 28.25,0 c 0,-0.83 -0.67,-1.5 -1.5,-1.5 h -19.24 c -0.83,0 -1.5,0.67 -1.5,1.5 v 3.01 c 0,0.82 0.67,1.5 1.5,1.5 h 19.24 c 0.83,0 1.5,-0.68 1.5,-1.5 z m 28.25,0 c 0,-0.83 -0.67,-1.5 -1.5,-1.5 h -19.24 c -0.83,0 -1.5,0.67 -1.5,1.5 v 3.01 c 0,0.82 0.67,1.5 1.5,1.5 h 19.24 c 0.83,0 1.5,-0.68 1.5,-1.5 z m 28.25,0 c 0,-0.83 -0.67,-1.5 -1.5,-1.5 h -19.24 c -0.83,0 -1.5,0.67 -1.5,1.5 v 3.01 c 0,0.82 0.67,1.5 1.5,1.5 h 19.24 c 0.83,0 1.5,-0.68 1.5,-1.5 z m 28.26,0 c 0,-0.83 -0.67,-1.5 -1.5,-1.5 h -19.24 c -0.83,0 -1.5,0.67 -1.5,1.5 v 3.01 c 0,0.82 0.67,1.5 1.5,1.5 h 19.24 c 0.83,0 1.5,-0.68 1.5,-1.5 z m 28.25,0 c 0,-0.83 -0.67,-1.5 -1.5,-1.5 h -19.24 c -0.83,0 -1.5,0.67 -1.5,1.5 v 3.01 c 0,0.82 0.67,1.5 1.5,1.5 h 19.24 c 0.83,0 1.5,-0.68 1.5,-1.5 z"
               inkscape:connector-curvature="0" />
            <path
               id="path342"
               style="fill:#002841"
               d="m 2217.11,1058.41 c 0,-0.83 -0.67,-1.5 -1.5,-1.5 h -19.24 c -0.83,0 -1.5,0.67 -1.5,1.5 v 3 c 0,0.84 0.67,1.51 1.5,1.51 h 19.24 c 0.83,0 1.5,-0.67 1.5,-1.51 z m 28.25,0 c 0,-0.83 -0.67,-1.5 -1.5,-1.5 h -19.24 c -0.83,0 -1.5,0.67 -1.5,1.5 v 3 c 0,0.84 0.67,1.51 1.5,1.51 h 19.24 c 0.83,0 1.5,-0.67 1.5,-1.51 z m 28.25,0 c 0,-0.83 -0.67,-1.5 -1.5,-1.5 h -19.24 c -0.83,0 -1.5,0.67 -1.5,1.5 v 3 c 0,0.84 0.67,1.51 1.5,1.51 h 19.24 c 0.83,0 1.5,-0.67 1.5,-1.51 z m 28.26,0 c 0,-0.83 -0.67,-1.5 -1.5,-1.5 h -19.24 c -0.83,0 -1.5,0.67 -1.5,1.5 v 3 c 0,0.84 0.67,1.51 1.5,1.51 h 19.24 c 0.83,0 1.5,-0.67 1.5,-1.51 z m 28.25,0 c 0,-0.83 -0.67,-1.5 -1.5,-1.5 h -19.24 c -0.83,0 -1.5,0.67 -1.5,1.5 v 3 c 0,0.84 0.67,1.51 1.5,1.51 h 19.24 c 0.83,0 1.5,-0.67 1.5,-1.51 z"
               inkscape:connector-curvature="0" />
          </g>
          <path
             id="path345"
             style="fill:#f9003f"
             d="m 2381.21,1047.12 h -37.87 l -7.96,24.04 h 37.86 z"
             inkscape:connector-curvature="0" />
          <path
             id="path347"
             style="fill:#002841"
             d="m 2366.78,1071.16 h -18.03 v -28.25 h 18.03 z m -16.59,-26.81 v 25.37 h 15.15 v -25.37 z"
             inkscape:connector-curvature="0" />
          <path
             id="path349"
             style="fill:#99a4b2"
             d="m 2107.56,1029.51 h 300.84 v 3.17 h -300.84 z m 0,45.68 h 300.84 v 3.17 h -300.84 z"
             inkscape:connector-curvature="0" />
        </g>
      </g>
      <g
         id="g357"
         transform="translate(1800)">
        <path
           id="path355"
           style="fill:none;stroke:#205081;stroke-width:5px;stroke-miterlimit:1.41400003"
           d="m 2408.26,1078.25 h -280.71 l -0.57,-0.11 -0.49,-0.33 -0.33,-0.49 -0.11,-0.57 v -46.28 l 0.11,-0.58 c 0.33,-0.48 0.33,-0.49 0.82,-0.81 l 0.57,-0.12 h 280.71 l 0.58,0.12 0.48,0.32 0.33,0.49 0.11,0.58 v 46.28 c -0.11,0.57 -0.11,0.58 -0.44,1.06 l -0.48,0.33 z"
           inkscape:connector-curvature="0" />
      </g>
    </g>
    <g
       style="clip-rule:evenodd;fill-rule:evenodd;stroke-linejoin:round;stroke-miterlimit:2"
       id="g400"
       transform="matrix(0.08371526,0,0,0.08371526,-197.31458,72.751823)">
      <g
         id="g371"
         transform="translate(1800)">
        <circle
           id="circle361"
           style="fill:#53657d"
           r="5.1090002"
           cy="1079.09"
           cx="2143.78" />
        <circle
           id="circle363"
           style="fill:#53657d"
           r="5.1090002"
           cy="1079.09"
           cx="2179.24" />
        <g
           id="g369">
          <circle
             id="circle365"
             style="fill:#53657d"
             r="5.1090002"
             cy="1079.09"
             cx="2346.95" />
          <circle
             id="circle367"
             style="fill:#53657d"
             r="5.1090002"
             cy="1079.09"
             cx="2382.4099" />
        </g>
      </g>
      <g
         transform="translate(1800)"
         serif:id="1ere"
         id="_1ere5">
        <path
           id="path373"
           style="fill:#c9d3df"
           d="m 2408.26,1078.25 h -280.71 l -0.57,-0.11 -0.49,-0.33 -0.33,-0.49 -0.11,-0.57 v -46.28 l 0.11,-0.58 c 0.33,-0.48 0.33,-0.49 0.82,-0.81 l 0.57,-0.12 h 280.71 l 0.58,0.12 0.48,0.32 0.33,0.49 0.11,0.58 v 46.28 c -0.11,0.57 -0.11,0.58 -0.44,1.06 l -0.48,0.33 z"
           inkscape:connector-curvature="0" />
      </g>
      <g
         id="g394"
         transform="translate(1800)">
        <clipPath
           id="clipPath2002">
          <path
             id="path2000"
             d="m 2408.26,1078.25 h -280.71 l -0.57,-0.11 -0.49,-0.33 -0.33,-0.49 -0.11,-0.57 v -46.28 l 0.11,-0.58 c 0.33,-0.48 0.33,-0.49 0.82,-0.81 l 0.57,-0.12 h 280.71 l 0.58,0.12 0.48,0.32 0.33,0.49 0.11,0.58 v 46.28 c -0.11,0.57 -0.11,0.58 -0.44,1.06 l -0.48,0.33 z"
             inkscape:connector-curvature="0" />
        </clipPath>
        <g
           id="g392"
           clip-path="url(#_clip12)">
          <rect
             id="rect379"
             style="fill:#006cb0"
             height="23.915001"
             width="307.15399"
             y="1047.12"
             x="2114.3301" />
          <g
             serif:id="windows"
             id="windows5">
            <path
               id="path381"
               style="fill:#002841"
               d="m 2160.61,1036.6 c 0,-0.83 -0.67,-1.5 -1.5,-1.5 h -19.24 c -0.83,0 -1.5,0.67 -1.5,1.5 v 3.01 c 0,0.82 0.67,1.5 1.5,1.5 h 19.24 c 0.83,0 1.5,-0.68 1.5,-1.5 z m 28.25,0 c 0,-0.83 -0.67,-1.5 -1.5,-1.5 h -19.24 c -0.83,0 -1.5,0.67 -1.5,1.5 v 3.01 c 0,0.82 0.67,1.5 1.5,1.5 h 19.24 c 0.83,0 1.5,-0.68 1.5,-1.5 z m 28.25,0 c 0,-0.83 -0.67,-1.5 -1.5,-1.5 h -19.24 c -0.83,0 -1.5,0.67 -1.5,1.5 v 3.01 c 0,0.82 0.67,1.5 1.5,1.5 h 19.24 c 0.83,0 1.5,-0.68 1.5,-1.5 z m 28.25,0 c 0,-0.83 -0.67,-1.5 -1.5,-1.5 h -19.24 c -0.83,0 -1.5,0.67 -1.5,1.5 v 3.01 c 0,0.82 0.67,1.5 1.5,1.5 h 19.24 c 0.83,0 1.5,-0.68 1.5,-1.5 z m 28.25,0 c 0,-0.83 -0.67,-1.5 -1.5,-1.5 h -19.24 c -0.83,0 -1.5,0.67 -1.5,1.5 v 3.01 c 0,0.82 0.67,1.5 1.5,1.5 h 19.24 c 0.83,0 1.5,-0.68 1.5,-1.5 z m 28.26,0 c 0,-0.83 -0.67,-1.5 -1.5,-1.5 h -19.24 c -0.83,0 -1.5,0.67 -1.5,1.5 v 3.01 c 0,0.82 0.67,1.5 1.5,1.5 h 19.24 c 0.83,0 1.5,-0.68 1.5,-1.5 z m 28.25,0 c 0,-0.83 -0.67,-1.5 -1.5,-1.5 h -19.24 c -0.83,0 -1.5,0.67 -1.5,1.5 v 3.01 c 0,0.82 0.67,1.5 1.5,1.5 h 19.24 c 0.83,0 1.5,-0.68 1.5,-1.5 z"
               inkscape:connector-curvature="0" />
            <path
               id="path383"
               style="fill:#002841"
               d="m 2217.11,1058.41 c 0,-0.83 -0.67,-1.5 -1.5,-1.5 h -19.24 c -0.83,0 -1.5,0.67 -1.5,1.5 v 3 c 0,0.84 0.67,1.51 1.5,1.51 h 19.24 c 0.83,0 1.5,-0.67 1.5,-1.51 z m 28.25,0 c 0,-0.83 -0.67,-1.5 -1.5,-1.5 h -19.24 c -0.83,0 -1.5,0.67 -1.5,1.5 v 3 c 0,0.84 0.67,1.51 1.5,1.51 h 19.24 c 0.83,0 1.5,-0.67 1.5,-1.51 z m 28.25,0 c 0,-0.83 -0.67,-1.5 -1.5,-1.5 h -19.24 c -0.83,0 -1.5,0.67 -1.5,1.5 v 3 c 0,0.84 0.67,1.51 1.5,1.51 h 19.24 c 0.83,0 1.5,-0.67 1.5,-1.51 z m 28.26,0 c 0,-0.83 -0.67,-1.5 -1.5,-1.5 h -19.24 c -0.83,0 -1.5,0.67 -1.5,1.5 v 3 c 0,0.84 0.67,1.51 1.5,1.51 h 19.24 c 0.83,0 1.5,-0.67 1.5,-1.51 z m 28.25,0 c 0,-0.83 -0.67,-1.5 -1.5,-1.5 h -19.24 c -0.83,0 -1.5,0.67 -1.5,1.5 v 3 c 0,0.84 0.67,1.51 1.5,1.51 h 19.24 c 0.83,0 1.5,-0.67 1.5,-1.51 z"
               inkscape:connector-curvature="0" />
          </g>
          <path
             id="path386"
             style="fill:#99ca3d"
             d="m 2381.21,1047.12 h -37.87 l -7.96,24.04 h 37.86 z"
             inkscape:connector-curvature="0" />
          <path
             id="path388"
             style="fill:#002841"
             d="m 2366.78,1071.16 h -18.03 v -28.25 h 18.03 z m -16.59,-26.81 v 25.37 h 15.15 v -25.37 z"
             inkscape:connector-curvature="0" />
          <path
             id="path390"
             style="fill:#99a4b2"
             d="m 2107.56,1029.51 h 300.84 v 3.17 h -300.84 z m 0,45.68 h 300.84 v 3.17 h -300.84 z"
             inkscape:connector-curvature="0" />
        </g>
      </g>
      <g
         id="g398"
         transform="translate(1800)">
        <path
           id="path396"
           style="fill:none;stroke:#205081;stroke-width:5px;stroke-miterlimit:1.41400003"
           d="m 2408.26,1078.25 h -280.71 l -0.57,-0.11 -0.49,-0.33 -0.33,-0.49 -0.11,-0.57 v -46.28 l 0.11,-0.58 c 0.33,-0.48 0.33,-0.49 0.82,-0.81 l 0.57,-0.12 h 280.71 l 0.58,0.12 0.48,0.32 0.33,0.49 0.11,0.58 v 46.28 c -0.11,0.57 -0.11,0.58 -0.44,1.06 l -0.48,0.33 z"
           inkscape:connector-curvature="0" />
      </g>
    </g>
  </g>
</svg>
